<svg width="516" height="135" viewBox="0 0 516 135" fill="none" xmlns="http://www.w3.org/2000/svg">
<g clip-path="url(#clip0_1059_1416)">
<path d="M457.24 121.288C457.24 121.885 457.096 122.445 456.808 122.968C456.531 123.491 456.088 123.912 455.48 124.232C454.883 124.552 454.126 124.712 453.208 124.712H451.336V129H449.096V117.832H453.208C454.072 117.832 454.808 117.981 455.416 118.28C456.024 118.579 456.478 118.989 456.776 119.512C457.086 120.035 457.24 120.627 457.24 121.288ZM453.112 122.904C453.731 122.904 454.19 122.765 454.488 122.488C454.787 122.2 454.936 121.8 454.936 121.288C454.936 120.2 454.328 119.656 453.112 119.656H451.336V122.904H453.112ZM458.255 124.536C458.255 123.64 458.431 122.845 458.783 122.152C459.145 121.459 459.631 120.925 460.239 120.552C460.857 120.179 461.545 119.992 462.303 119.992C462.964 119.992 463.54 120.125 464.031 120.392C464.532 120.659 464.932 120.995 465.231 121.4V120.136H467.487V129H465.231V127.704C464.943 128.12 464.543 128.467 464.031 128.744C463.529 129.011 462.948 129.144 462.287 129.144C461.54 129.144 460.857 128.952 460.239 128.568C459.631 128.184 459.145 127.645 458.783 126.952C458.431 126.248 458.255 125.443 458.255 124.536ZM465.231 124.568C465.231 124.024 465.124 123.56 464.911 123.176C464.697 122.781 464.409 122.483 464.047 122.28C463.684 122.067 463.295 121.96 462.879 121.96C462.463 121.96 462.079 122.061 461.727 122.264C461.375 122.467 461.087 122.765 460.863 123.16C460.649 123.544 460.543 124.003 460.543 124.536C460.543 125.069 460.649 125.539 460.863 125.944C461.087 126.339 461.375 126.643 461.727 126.856C462.089 127.069 462.473 127.176 462.879 127.176C463.295 127.176 463.684 127.075 464.047 126.872C464.409 126.659 464.697 126.36 464.911 125.976C465.124 125.581 465.231 125.112 465.231 124.568ZM473.146 119.992C473.808 119.992 474.389 120.125 474.89 120.392C475.392 120.648 475.786 120.984 476.074 121.4V120.136H478.33V129.064C478.33 129.885 478.165 130.616 477.834 131.256C477.504 131.907 477.008 132.419 476.346 132.792C475.685 133.176 474.885 133.368 473.946 133.368C472.688 133.368 471.653 133.075 470.842 132.488C470.042 131.901 469.589 131.101 469.482 130.088H471.706C471.824 130.493 472.074 130.813 472.458 131.048C472.853 131.293 473.328 131.416 473.882 131.416C474.533 131.416 475.061 131.219 475.466 130.824C475.872 130.44 476.074 129.853 476.074 129.064V127.688C475.786 128.104 475.386 128.451 474.874 128.728C474.373 129.005 473.797 129.144 473.146 129.144C472.4 129.144 471.717 128.952 471.098 128.568C470.48 128.184 469.989 127.645 469.626 126.952C469.274 126.248 469.098 125.443 469.098 124.536C469.098 123.64 469.274 122.845 469.626 122.152C469.989 121.459 470.474 120.925 471.082 120.552C471.701 120.179 472.389 119.992 473.146 119.992ZM476.074 124.568C476.074 124.024 475.968 123.56 475.754 123.176C475.541 122.781 475.253 122.483 474.89 122.28C474.528 122.067 474.138 121.96 473.722 121.96C473.306 121.96 472.922 122.061 472.57 122.264C472.218 122.467 471.93 122.765 471.706 123.16C471.493 123.544 471.386 124.003 471.386 124.536C471.386 125.069 471.493 125.539 471.706 125.944C471.93 126.339 472.218 126.643 472.57 126.856C472.933 127.069 473.317 127.176 473.722 127.176C474.138 127.176 474.528 127.075 474.89 126.872C475.253 126.659 475.541 126.36 475.754 125.976C475.968 125.581 476.074 125.112 476.074 124.568ZM488.758 124.376C488.758 124.696 488.737 124.984 488.694 125.24H482.214C482.267 125.88 482.491 126.381 482.886 126.744C483.281 127.107 483.766 127.288 484.342 127.288C485.174 127.288 485.766 126.931 486.118 126.216H488.534C488.278 127.069 487.787 127.773 487.062 128.328C486.337 128.872 485.446 129.144 484.39 129.144C483.537 129.144 482.769 128.957 482.086 128.584C481.414 128.2 480.886 127.661 480.502 126.968C480.129 126.275 479.942 125.475 479.942 124.568C479.942 123.651 480.129 122.845 480.502 122.152C480.875 121.459 481.398 120.925 482.07 120.552C482.742 120.179 483.515 119.992 484.39 119.992C485.233 119.992 485.985 120.173 486.646 120.536C487.318 120.899 487.835 121.416 488.198 122.088C488.571 122.749 488.758 123.512 488.758 124.376ZM486.438 123.736C486.427 123.16 486.219 122.701 485.814 122.36C485.409 122.008 484.913 121.832 484.326 121.832C483.771 121.832 483.302 122.003 482.918 122.344C482.545 122.675 482.315 123.139 482.23 123.736H486.438ZM493.785 129.144C493.06 129.144 492.409 129.016 491.833 128.76C491.257 128.493 490.798 128.136 490.457 127.688C490.126 127.24 489.945 126.744 489.913 126.2H492.169C492.212 126.541 492.377 126.824 492.665 127.048C492.964 127.272 493.332 127.384 493.769 127.384C494.196 127.384 494.526 127.299 494.761 127.128C495.006 126.957 495.129 126.739 495.129 126.472C495.129 126.184 494.98 125.971 494.681 125.832C494.393 125.683 493.929 125.523 493.289 125.352C492.628 125.192 492.084 125.027 491.657 124.856C491.241 124.685 490.878 124.424 490.569 124.072C490.27 123.72 490.121 123.245 490.121 122.648C490.121 122.157 490.26 121.709 490.537 121.304C490.825 120.899 491.23 120.579 491.753 120.344C492.286 120.109 492.91 119.992 493.625 119.992C494.681 119.992 495.524 120.259 496.153 120.792C496.782 121.315 497.129 122.024 497.193 122.92H495.049C495.017 122.568 494.868 122.291 494.601 122.088C494.345 121.875 493.998 121.768 493.561 121.768C493.156 121.768 492.841 121.843 492.617 121.992C492.404 122.141 492.297 122.349 492.297 122.616C492.297 122.915 492.446 123.144 492.745 123.304C493.044 123.453 493.508 123.608 494.137 123.768C494.777 123.928 495.305 124.093 495.721 124.264C496.137 124.435 496.494 124.701 496.793 125.064C497.102 125.416 497.262 125.885 497.273 126.472C497.273 126.984 497.129 127.443 496.841 127.848C496.564 128.253 496.158 128.573 495.625 128.808C495.102 129.032 494.489 129.144 493.785 129.144Z" fill="#198754"/>
<path d="M510.225 84.1956H447.283V3.81641H497.557L510.225 17.7303V84.1956Z" fill="#235F3A" stroke="#235F3A" stroke-width="4.25911" stroke-miterlimit="10"/>
<path d="M497.942 97.3383H435V16.9551H485.278L497.942 30.869V97.3383Z" fill="#3FA534" stroke="#3FA534" stroke-width="4.25911" stroke-miterlimit="10"/>
<path d="M324.798 117.832V119.64H321.822V129H319.582V119.64H316.606V117.832H324.798ZM334.672 124.376C334.672 124.696 334.651 124.984 334.608 125.24H328.128C328.181 125.88 328.405 126.381 328.8 126.744C329.195 127.107 329.68 127.288 330.256 127.288C331.088 127.288 331.68 126.931 332.032 126.216H334.448C334.192 127.069 333.701 127.773 332.976 128.328C332.251 128.872 331.36 129.144 330.304 129.144C329.451 129.144 328.683 128.957 328 128.584C327.328 128.2 326.8 127.661 326.416 126.968C326.043 126.275 325.856 125.475 325.856 124.568C325.856 123.651 326.043 122.845 326.416 122.152C326.789 121.459 327.312 120.925 327.984 120.552C328.656 120.179 329.429 119.992 330.304 119.992C331.147 119.992 331.899 120.173 332.56 120.536C333.232 120.899 333.749 121.416 334.112 122.088C334.485 122.749 334.672 123.512 334.672 124.376ZM332.352 123.736C332.341 123.16 332.133 122.701 331.728 122.36C331.323 122.008 330.827 121.832 330.24 121.832C329.685 121.832 329.216 122.003 328.832 122.344C328.459 122.675 328.229 123.139 328.144 123.736H332.352ZM347.315 120.008C348.403 120.008 349.278 120.344 349.939 121.016C350.611 121.677 350.947 122.605 350.947 123.8V129H348.707V124.104C348.707 123.411 348.531 122.883 348.179 122.52C347.827 122.147 347.347 121.96 346.739 121.96C346.131 121.96 345.646 122.147 345.283 122.52C344.931 122.883 344.755 123.411 344.755 124.104V129H342.515V124.104C342.515 123.411 342.339 122.883 341.987 122.52C341.635 122.147 341.155 121.96 340.547 121.96C339.928 121.96 339.438 122.147 339.075 122.52C338.723 122.883 338.547 123.411 338.547 124.104V129H336.307V120.136H338.547V121.208C338.835 120.835 339.203 120.541 339.651 120.328C340.11 120.115 340.611 120.008 341.155 120.008C341.848 120.008 342.467 120.157 343.011 120.456C343.555 120.744 343.976 121.16 344.275 121.704C344.563 121.192 344.979 120.781 345.523 120.472C346.078 120.163 346.675 120.008 347.315 120.008ZM355.313 121.416C355.601 121.011 355.995 120.675 356.497 120.408C357.009 120.131 357.59 119.992 358.241 119.992C358.998 119.992 359.681 120.179 360.289 120.552C360.907 120.925 361.393 121.459 361.745 122.152C362.107 122.835 362.289 123.629 362.289 124.536C362.289 125.443 362.107 126.248 361.745 126.952C361.393 127.645 360.907 128.184 360.289 128.568C359.681 128.952 358.998 129.144 358.241 129.144C357.59 129.144 357.014 129.011 356.513 128.744C356.022 128.477 355.622 128.141 355.313 127.736V133.224H353.073V120.136H355.313V121.416ZM360.001 124.536C360.001 124.003 359.889 123.544 359.665 123.16C359.451 122.765 359.163 122.467 358.801 122.264C358.449 122.061 358.065 121.96 357.649 121.96C357.243 121.96 356.859 122.067 356.497 122.28C356.145 122.483 355.857 122.781 355.633 123.176C355.419 123.571 355.313 124.035 355.313 124.568C355.313 125.101 355.419 125.565 355.633 125.96C355.857 126.355 356.145 126.659 356.497 126.872C356.859 127.075 357.243 127.176 357.649 127.176C358.065 127.176 358.449 127.069 358.801 126.856C359.163 126.643 359.451 126.339 359.665 125.944C359.889 125.549 360.001 125.08 360.001 124.536ZM366.157 117.16V129H363.917V117.16H366.157ZM367.794 124.536C367.794 123.64 367.97 122.845 368.322 122.152C368.684 121.459 369.17 120.925 369.778 120.552C370.396 120.179 371.084 119.992 371.842 119.992C372.503 119.992 373.079 120.125 373.57 120.392C374.071 120.659 374.471 120.995 374.77 121.4V120.136H377.026V129H374.77V127.704C374.482 128.12 374.082 128.467 373.57 128.744C373.068 129.011 372.487 129.144 371.826 129.144C371.079 129.144 370.396 128.952 369.778 128.568C369.17 128.184 368.684 127.645 368.322 126.952C367.97 126.248 367.794 125.443 367.794 124.536ZM374.77 124.568C374.77 124.024 374.663 123.56 374.45 123.176C374.236 122.781 373.948 122.483 373.586 122.28C373.223 122.067 372.834 121.96 372.418 121.96C372.002 121.96 371.618 122.061 371.266 122.264C370.914 122.467 370.626 122.765 370.402 123.16C370.188 123.544 370.082 124.003 370.082 124.536C370.082 125.069 370.188 125.539 370.402 125.944C370.626 126.339 370.914 126.643 371.266 126.856C371.628 127.069 372.012 127.176 372.418 127.176C372.834 127.176 373.223 127.075 373.586 126.872C373.948 126.659 374.236 126.36 374.45 125.976C374.663 125.581 374.77 125.112 374.77 124.568ZM381.821 121.976V126.264C381.821 126.563 381.891 126.781 382.029 126.92C382.179 127.048 382.424 127.112 382.765 127.112H383.805V129H382.397C380.509 129 379.565 128.083 379.565 126.248V121.976H378.509V120.136H379.565V117.944H381.821V120.136H383.805V121.976H381.821ZM393.657 124.376C393.657 124.696 393.635 124.984 393.593 125.24H387.113C387.166 125.88 387.39 126.381 387.785 126.744C388.179 127.107 388.665 127.288 389.241 127.288C390.073 127.288 390.665 126.931 391.017 126.216H393.433C393.177 127.069 392.686 127.773 391.961 128.328C391.235 128.872 390.345 129.144 389.289 129.144C388.435 129.144 387.667 128.957 386.985 128.584C386.313 128.2 385.785 127.661 385.401 126.968C385.027 126.275 384.84 125.475 384.84 124.568C384.84 123.651 385.027 122.845 385.401 122.152C385.774 121.459 386.297 120.925 386.969 120.552C387.641 120.179 388.414 119.992 389.289 119.992C390.131 119.992 390.883 120.173 391.545 120.536C392.217 120.899 392.734 121.416 393.097 122.088C393.47 122.749 393.657 123.512 393.657 124.376ZM391.337 123.736C391.326 123.16 391.118 122.701 390.713 122.36C390.307 122.008 389.811 121.832 389.225 121.832C388.67 121.832 388.201 122.003 387.817 122.344C387.443 122.675 387.214 123.139 387.129 123.736H391.337ZM398.684 129.144C397.958 129.144 397.308 129.016 396.732 128.76C396.156 128.493 395.697 128.136 395.356 127.688C395.025 127.24 394.844 126.744 394.812 126.2H397.068C397.11 126.541 397.276 126.824 397.564 127.048C397.862 127.272 398.23 127.384 398.668 127.384C399.094 127.384 399.425 127.299 399.66 127.128C399.905 126.957 400.028 126.739 400.028 126.472C400.028 126.184 399.878 125.971 399.58 125.832C399.292 125.683 398.828 125.523 398.188 125.352C397.526 125.192 396.982 125.027 396.556 124.856C396.14 124.685 395.777 124.424 395.468 124.072C395.169 123.72 395.02 123.245 395.02 122.648C395.02 122.157 395.158 121.709 395.436 121.304C395.724 120.899 396.129 120.579 396.652 120.344C397.185 120.109 397.809 119.992 398.524 119.992C399.58 119.992 400.422 120.259 401.052 120.792C401.681 121.315 402.028 122.024 402.092 122.92H399.948C399.916 122.568 399.766 122.291 399.5 122.088C399.244 121.875 398.897 121.768 398.46 121.768C398.054 121.768 397.74 121.843 397.516 121.992C397.302 122.141 397.196 122.349 397.196 122.616C397.196 122.915 397.345 123.144 397.644 123.304C397.942 123.453 398.406 123.608 399.036 123.768C399.676 123.928 400.204 124.093 400.62 124.264C401.036 124.435 401.393 124.701 401.692 125.064C402.001 125.416 402.161 125.885 402.172 126.472C402.172 126.984 402.028 127.443 401.74 127.848C401.462 128.253 401.057 128.573 400.524 128.808C400.001 129.032 399.388 129.144 398.684 129.144Z" fill="#198754"/>
<path d="M385.463 84.4223L397.253 84.5393V76.4663" stroke="#235F3A" stroke-width="4.25911" stroke-miterlimit="10"/>
<path d="M397.253 62.5482V17.7711L394.619 14.877" stroke="#235F3A" stroke-width="4.25911" stroke-miterlimit="10" stroke-dasharray="24.47 24.47"/>
<path d="M389.949 9.75074L384.529 3.79688H376.512" stroke="#235F3A" stroke-width="4.25911" stroke-miterlimit="10"/>
<path d="M365.026 3.79688H347.792" stroke="#235F3A" stroke-width="4.25911" stroke-miterlimit="10" stroke-dasharray="20.34 20.34"/>
<path d="M342.048 3.79688H334.03V15.2444" stroke="#235F3A" stroke-width="4.25911" stroke-miterlimit="10"/>
<path d="M377.614 22.9459L372.194 16.9961H364.177" stroke="#3FA534" stroke-width="4.25911" stroke-miterlimit="10"/>
<path d="M352.688 16.9961H335.454" stroke="#3FA534" stroke-width="4.25911" stroke-miterlimit="10" stroke-dasharray="20.34 20.34"/>
<path d="M329.709 16.9961H321.691V25.0691" stroke="#3FA534" stroke-width="4.25911" stroke-miterlimit="10"/>
<path d="M321.691 37.9863V83.2034" stroke="#3FA534" stroke-width="4.25911" stroke-miterlimit="10" stroke-dasharray="22.72 22.72"/>
<path d="M321.691 89.6616V97.7347H329.709" stroke="#3FA534" stroke-width="4.25911" stroke-miterlimit="10"/>
<path d="M345.439 97.7349H369.035" stroke="#3FA534" stroke-width="4.25911" stroke-miterlimit="10" stroke-dasharray="27.85 27.85"/>
<path d="M376.9 97.7347H384.918V89.6616" stroke="#3FA534" stroke-width="4.25911" stroke-miterlimit="10"/>
<path d="M384.917 75.748V30.9708L382.279 28.0767" stroke="#3FA534" stroke-width="4.25911" stroke-miterlimit="10" stroke-dasharray="24.47 24.47"/>
<path d="M205.311 129.112C204.266 129.112 203.306 128.867 202.431 128.376C201.557 127.885 200.863 127.208 200.351 126.344C199.839 125.469 199.583 124.483 199.583 123.384C199.583 122.296 199.839 121.32 200.351 120.456C200.863 119.581 201.557 118.899 202.431 118.408C203.306 117.917 204.266 117.672 205.311 117.672C206.367 117.672 207.327 117.917 208.191 118.408C209.066 118.899 209.754 119.581 210.255 120.456C210.767 121.32 211.023 122.296 211.023 123.384C211.023 124.483 210.767 125.469 210.255 126.344C209.754 127.208 209.066 127.885 208.191 128.376C207.317 128.867 206.357 129.112 205.311 129.112ZM205.311 127.112C205.983 127.112 206.575 126.963 207.087 126.664C207.599 126.355 207.999 125.917 208.287 125.352C208.575 124.787 208.719 124.131 208.719 123.384C208.719 122.637 208.575 121.987 208.287 121.432C207.999 120.867 207.599 120.435 207.087 120.136C206.575 119.837 205.983 119.688 205.311 119.688C204.639 119.688 204.042 119.837 203.519 120.136C203.007 120.435 202.607 120.867 202.319 121.432C202.031 121.987 201.887 122.637 201.887 123.384C201.887 124.131 202.031 124.787 202.319 125.352C202.607 125.917 203.007 126.355 203.519 126.664C204.042 126.963 204.639 127.112 205.311 127.112ZM214.93 121.512C215.218 121.043 215.591 120.675 216.05 120.408C216.519 120.141 217.053 120.008 217.65 120.008V122.36H217.058C216.354 122.36 215.821 122.525 215.458 122.856C215.106 123.187 214.93 123.763 214.93 124.584V129H212.69V120.136H214.93V121.512ZM222.631 119.992C223.292 119.992 223.873 120.125 224.375 120.392C224.876 120.648 225.271 120.984 225.559 121.4V120.136H227.815V129.064C227.815 129.885 227.649 130.616 227.319 131.256C226.988 131.907 226.492 132.419 225.831 132.792C225.169 133.176 224.369 133.368 223.431 133.368C222.172 133.368 221.137 133.075 220.327 132.488C219.527 131.901 219.073 131.101 218.967 130.088H221.191C221.308 130.493 221.559 130.813 221.943 131.048C222.337 131.293 222.812 131.416 223.367 131.416C224.017 131.416 224.545 131.219 224.951 130.824C225.356 130.44 225.559 129.853 225.559 129.064V127.688C225.271 128.104 224.871 128.451 224.359 128.728C223.857 129.005 223.281 129.144 222.631 129.144C221.884 129.144 221.201 128.952 220.583 128.568C219.964 128.184 219.473 127.645 219.111 126.952C218.759 126.248 218.583 125.443 218.583 124.536C218.583 123.64 218.759 122.845 219.111 122.152C219.473 121.459 219.959 120.925 220.567 120.552C221.185 120.179 221.873 119.992 222.631 119.992ZM225.559 124.568C225.559 124.024 225.452 123.56 225.239 123.176C225.025 122.781 224.737 122.483 224.375 122.28C224.012 122.067 223.623 121.96 223.207 121.96C222.791 121.96 222.407 122.061 222.055 122.264C221.703 122.467 221.415 122.765 221.191 123.16C220.977 123.544 220.871 124.003 220.871 124.536C220.871 125.069 220.977 125.539 221.191 125.944C221.415 126.339 221.703 126.643 222.055 126.856C222.417 127.069 222.801 127.176 223.207 127.176C223.623 127.176 224.012 127.075 224.375 126.872C224.737 126.659 225.025 126.36 225.239 125.976C225.452 125.581 225.559 125.112 225.559 124.568ZM229.426 124.536C229.426 123.64 229.602 122.845 229.954 122.152C230.317 121.459 230.802 120.925 231.41 120.552C232.029 120.179 232.717 119.992 233.474 119.992C234.136 119.992 234.712 120.125 235.202 120.392C235.704 120.659 236.104 120.995 236.402 121.4V120.136H238.658V129H236.402V127.704C236.114 128.12 235.714 128.467 235.202 128.744C234.701 129.011 234.12 129.144 233.458 129.144C232.712 129.144 232.029 128.952 231.41 128.568C230.802 128.184 230.317 127.645 229.954 126.952C229.602 126.248 229.426 125.443 229.426 124.536ZM236.402 124.568C236.402 124.024 236.296 123.56 236.082 123.176C235.869 122.781 235.581 122.483 235.218 122.28C234.856 122.067 234.466 121.96 234.05 121.96C233.634 121.96 233.25 122.061 232.898 122.264C232.546 122.467 232.258 122.765 232.034 123.16C231.821 123.544 231.714 124.003 231.714 124.536C231.714 125.069 231.821 125.539 232.034 125.944C232.258 126.339 232.546 126.643 232.898 126.856C233.261 127.069 233.645 127.176 234.05 127.176C234.466 127.176 234.856 127.075 235.218 126.872C235.581 126.659 235.869 126.36 236.082 125.976C236.296 125.581 236.402 125.112 236.402 124.568ZM245.758 120.008C246.814 120.008 247.668 120.344 248.318 121.016C248.969 121.677 249.294 122.605 249.294 123.8V129H247.054V124.104C247.054 123.4 246.878 122.861 246.526 122.488C246.174 122.104 245.694 121.912 245.086 121.912C244.468 121.912 243.977 122.104 243.614 122.488C243.262 122.861 243.086 123.4 243.086 124.104V129H240.846V120.136H243.086V121.24C243.385 120.856 243.764 120.557 244.222 120.344C244.692 120.12 245.204 120.008 245.758 120.008ZM252.56 119.08C252.166 119.08 251.835 118.957 251.568 118.712C251.312 118.456 251.184 118.141 251.184 117.768C251.184 117.395 251.312 117.085 251.568 116.84C251.835 116.584 252.166 116.456 252.56 116.456C252.955 116.456 253.28 116.584 253.536 116.84C253.803 117.085 253.936 117.395 253.936 117.768C253.936 118.141 253.803 118.456 253.536 118.712C253.28 118.957 252.955 119.08 252.56 119.08ZM253.664 120.136V129H251.424V120.136H253.664ZM259.269 129.144C258.544 129.144 257.893 129.016 257.317 128.76C256.741 128.493 256.283 128.136 255.941 127.688C255.611 127.24 255.429 126.744 255.397 126.2H257.653C257.696 126.541 257.861 126.824 258.149 127.048C258.448 127.272 258.816 127.384 259.253 127.384C259.68 127.384 260.011 127.299 260.245 127.128C260.491 126.957 260.613 126.739 260.613 126.472C260.613 126.184 260.464 125.971 260.165 125.832C259.877 125.683 259.413 125.523 258.773 125.352C258.112 125.192 257.568 125.027 257.141 124.856C256.725 124.685 256.363 124.424 256.053 124.072C255.755 123.72 255.605 123.245 255.605 122.648C255.605 122.157 255.744 121.709 256.021 121.304C256.309 120.899 256.715 120.579 257.237 120.344C257.771 120.109 258.395 119.992 259.109 119.992C260.165 119.992 261.008 120.259 261.637 120.792C262.267 121.315 262.613 122.024 262.677 122.92H260.533C260.501 122.568 260.352 122.291 260.085 122.088C259.829 121.875 259.483 121.768 259.045 121.768C258.64 121.768 258.325 121.843 258.101 121.992C257.888 122.141 257.781 122.349 257.781 122.616C257.781 122.915 257.931 123.144 258.229 123.304C258.528 123.453 258.992 123.608 259.621 123.768C260.261 123.928 260.789 124.093 261.205 124.264C261.621 124.435 261.979 124.701 262.277 125.064C262.587 125.416 262.747 125.885 262.757 126.472C262.757 126.984 262.613 127.443 262.325 127.848C262.048 128.253 261.643 128.573 261.109 128.808C260.587 129.032 259.973 129.144 259.269 129.144ZM275.604 120.008C276.692 120.008 277.567 120.344 278.228 121.016C278.9 121.677 279.236 122.605 279.236 123.8V129H276.996V124.104C276.996 123.411 276.82 122.883 276.468 122.52C276.116 122.147 275.636 121.96 275.028 121.96C274.42 121.96 273.935 122.147 273.572 122.52C273.22 122.883 273.044 123.411 273.044 124.104V129H270.804V124.104C270.804 123.411 270.628 122.883 270.276 122.52C269.924 122.147 269.444 121.96 268.836 121.96C268.218 121.96 267.727 122.147 267.364 122.52C267.012 122.883 266.836 123.411 266.836 124.104V129H264.596V120.136H266.836V121.208C267.124 120.835 267.492 120.541 267.94 120.328C268.399 120.115 268.9 120.008 269.444 120.008C270.138 120.008 270.756 120.157 271.3 120.456C271.844 120.744 272.266 121.16 272.564 121.704C272.852 121.192 273.268 120.781 273.812 120.472C274.367 120.163 274.964 120.008 275.604 120.008ZM284.754 129.144C284.028 129.144 283.378 129.016 282.802 128.76C282.226 128.493 281.767 128.136 281.426 127.688C281.095 127.24 280.914 126.744 280.882 126.2H283.138C283.18 126.541 283.346 126.824 283.634 127.048C283.932 127.272 284.3 127.384 284.738 127.384C285.164 127.384 285.495 127.299 285.73 127.128C285.975 126.957 286.098 126.739 286.098 126.472C286.098 126.184 285.948 125.971 285.65 125.832C285.362 125.683 284.898 125.523 284.258 125.352C283.596 125.192 283.052 125.027 282.626 124.856C282.21 124.685 281.847 124.424 281.538 124.072C281.239 123.72 281.09 123.245 281.09 122.648C281.09 122.157 281.228 121.709 281.506 121.304C281.794 120.899 282.199 120.579 282.722 120.344C283.255 120.109 283.879 119.992 284.594 119.992C285.65 119.992 286.492 120.259 287.122 120.792C287.751 121.315 288.098 122.024 288.162 122.92H286.018C285.986 122.568 285.836 122.291 285.57 122.088C285.314 121.875 284.967 121.768 284.53 121.768C284.124 121.768 283.81 121.843 283.586 121.992C283.372 122.141 283.266 122.349 283.266 122.616C283.266 122.915 283.415 123.144 283.714 123.304C284.012 123.453 284.476 123.608 285.106 123.768C285.746 123.928 286.274 124.093 286.69 124.264C287.106 124.435 287.463 124.701 287.762 125.064C288.071 125.416 288.231 125.885 288.242 126.472C288.242 126.984 288.098 127.443 287.81 127.848C287.532 128.253 287.127 128.573 286.594 128.808C286.071 129.032 285.458 129.144 284.754 129.144Z" fill="#198754"/>
<path d="M220.278 19.3614C222.797 19.3614 224.84 17.3048 224.84 14.7679C224.84 12.2309 222.797 10.1743 220.278 10.1743C217.758 10.1743 215.716 12.2309 215.716 14.7679C215.716 17.3048 217.758 19.3614 220.278 19.3614Z" fill="#235F3A"/>
<path d="M220.278 26.4937C226.71 26.4937 231.924 21.2437 231.924 14.7676C231.924 8.29145 226.71 3.0415 220.278 3.0415C213.847 3.0415 208.633 8.29145 208.633 14.7676C208.633 21.2437 213.847 26.4937 220.278 26.4937Z" stroke="#3FA534" stroke-width="4.25911" stroke-miterlimit="10"/>
<path d="M244.326 19.3609C246.845 19.3609 248.888 17.3043 248.888 14.7674C248.888 12.2304 246.845 10.1738 244.326 10.1738C241.806 10.1738 239.764 12.2304 239.764 14.7674C239.764 17.3043 241.806 19.3609 244.326 19.3609Z" fill="#235F3A"/>
<path d="M244.326 26.4937C250.758 26.4937 255.972 21.2437 255.972 14.7676C255.972 8.29145 250.758 3.0415 244.326 3.0415C237.895 3.0415 232.681 8.29145 232.681 14.7676C232.681 21.2437 237.895 26.4937 244.326 26.4937Z" stroke="#3FA534" stroke-width="4.25911" stroke-miterlimit="10"/>
<path d="M268.323 19.587C270.842 19.587 272.885 17.5304 272.885 14.9935C272.885 12.4565 270.842 10.3999 268.323 10.3999C265.803 10.3999 263.761 12.4565 263.761 14.9935C263.761 17.5304 265.803 19.587 268.323 19.587Z" fill="#235F3A"/>
<path d="M268.323 26.7193C274.755 26.7193 279.969 21.4693 279.969 14.9932C279.969 8.51704 274.755 3.26709 268.323 3.26709C261.892 3.26709 256.678 8.51704 256.678 14.9932C256.678 21.4693 261.892 26.7193 268.323 26.7193Z" stroke="#3FA534" stroke-width="4.25911" stroke-miterlimit="10"/>
<path d="M220.041 43.0309C222.561 43.0309 224.603 40.9743 224.603 38.4373C224.603 35.9004 222.561 33.8438 220.041 33.8438C217.522 33.8438 215.479 35.9004 215.479 38.4373C215.479 40.9743 217.522 43.0309 220.041 43.0309Z" fill="#235F3A"/>
<path d="M220.042 50.1631C226.474 50.1631 231.688 44.9132 231.688 38.437C231.688 31.9609 226.474 26.7109 220.042 26.7109C213.61 26.7109 208.396 31.9609 208.396 38.437C208.396 44.9132 213.61 50.1631 220.042 50.1631Z" stroke="#3FA534" stroke-width="4.25911" stroke-miterlimit="10"/>
<path d="M220.042 29.9565C221.822 29.9565 223.265 28.5035 223.265 26.7112C223.265 24.9188 221.822 23.4658 220.042 23.4658C218.262 23.4658 216.819 24.9188 216.819 26.7112C216.819 28.5035 218.262 29.9565 220.042 29.9565Z" fill="#235F3A"/>
<path d="M244.093 43.0314C246.613 43.0314 248.655 40.9747 248.655 38.4378C248.655 35.9008 246.613 33.8442 244.093 33.8442C241.574 33.8442 239.531 35.9008 239.531 38.4378C239.531 40.9747 241.574 43.0314 244.093 43.0314Z" fill="#235F3A"/>
<path d="M244.094 50.1636C250.525 50.1636 255.739 44.9137 255.739 38.4375C255.739 31.9614 250.525 26.7114 244.094 26.7114C237.662 26.7114 232.448 31.9614 232.448 38.4375C232.448 44.9137 237.662 50.1636 244.094 50.1636Z" stroke="#3FA534" stroke-width="4.25911" stroke-miterlimit="10"/>
<path d="M244.094 29.957C245.874 29.957 247.317 28.504 247.317 26.7117C247.317 24.9193 245.874 23.4663 244.094 23.4663C242.314 23.4663 240.871 24.9193 240.871 26.7117C240.871 28.504 242.314 29.957 244.094 29.957Z" fill="#235F3A"/>
<path d="M268.086 43.2574C270.605 43.2574 272.648 41.2008 272.648 38.6639C272.648 36.1269 270.605 34.0703 268.086 34.0703C265.566 34.0703 263.524 36.1269 263.524 38.6639C263.524 41.2008 265.566 43.2574 268.086 43.2574Z" fill="#235F3A"/>
<path d="M268.086 50.3902C274.518 50.3902 279.731 45.1402 279.731 38.6641C279.731 32.1879 274.518 26.938 268.086 26.938C261.654 26.938 256.44 32.1879 256.44 38.6641C256.44 45.1402 261.654 50.3902 268.086 50.3902Z" stroke="#3FA534" stroke-width="4.25911" stroke-miterlimit="10"/>
<path d="M268.086 30.1831C269.866 30.1831 271.309 28.7301 271.309 26.9377C271.309 25.1454 269.866 23.6924 268.086 23.6924C266.306 23.6924 264.863 25.1454 264.863 26.9377C264.863 28.7301 266.306 30.1831 268.086 30.1831Z" fill="#235F3A"/>
<path d="M220.162 66.7062C222.681 66.7062 224.724 64.6496 224.724 62.1126C224.724 59.5757 222.681 57.519 220.162 57.519C217.642 57.519 215.6 59.5757 215.6 62.1126C215.6 64.6496 217.642 66.7062 220.162 66.7062Z" fill="#235F3A"/>
<path d="M220.162 73.8384C226.594 73.8384 231.808 68.5885 231.808 62.1123C231.808 55.6362 226.594 50.3862 220.162 50.3862C213.73 50.3862 208.517 55.6362 208.517 62.1123C208.517 68.5885 213.73 73.8384 220.162 73.8384Z" stroke="#3FA534" stroke-width="4.25911" stroke-miterlimit="10"/>
<path d="M220.162 53.6357C221.942 53.6357 223.385 52.1827 223.385 50.3904C223.385 48.598 221.942 47.145 220.162 47.145C218.382 47.145 216.939 48.598 216.939 50.3904C216.939 52.1827 218.382 53.6357 220.162 53.6357Z" fill="#235F3A"/>
<path d="M244.21 66.7057C246.73 66.7057 248.772 64.6491 248.772 62.1121C248.772 59.5752 246.73 57.5186 244.21 57.5186C241.691 57.5186 239.648 59.5752 239.648 62.1121C239.648 64.6491 241.691 66.7057 244.21 66.7057Z" fill="#235F3A"/>
<path d="M244.211 73.8379C250.643 73.8379 255.856 68.588 255.856 62.1118C255.856 55.6357 250.643 50.3857 244.211 50.3857C237.779 50.3857 232.565 55.6357 232.565 62.1118C232.565 68.588 237.779 73.8379 244.211 73.8379Z" stroke="#3FA534" stroke-width="4.25911" stroke-miterlimit="10"/>
<path d="M244.211 53.6353C245.991 53.6353 247.434 52.1823 247.434 50.3899C247.434 48.5975 245.991 47.1445 244.211 47.1445C242.431 47.1445 240.988 48.5975 240.988 50.3899C240.988 52.1823 242.431 53.6353 244.211 53.6353Z" fill="#235F3A"/>
<path d="M268.203 66.9357C270.722 66.9357 272.765 64.879 272.765 62.3421C272.765 59.8051 270.722 57.7485 268.203 57.7485C265.683 57.7485 263.641 59.8051 263.641 62.3421C263.641 64.879 265.683 66.9357 268.203 66.9357Z" fill="#235F3A"/>
<path d="M268.203 74.0679C274.635 74.0679 279.849 68.818 279.849 62.3418C279.849 55.8657 274.635 50.6157 268.203 50.6157C261.772 50.6157 256.558 55.8657 256.558 62.3418C256.558 68.818 261.772 74.0679 268.203 74.0679Z" stroke="#3FA534" stroke-width="4.25911" stroke-miterlimit="10"/>
<path d="M268.204 53.8613C269.984 53.8613 271.427 52.4083 271.427 50.616C271.427 48.8236 269.984 47.3706 268.204 47.3706C266.423 47.3706 264.98 48.8236 264.98 50.616C264.98 52.4083 266.423 53.8613 268.204 53.8613Z" fill="#235F3A"/>
<path d="M220.162 90.3756C222.681 90.3756 224.724 88.319 224.724 85.782C224.724 83.2451 222.681 81.1885 220.162 81.1885C217.642 81.1885 215.6 83.2451 215.6 85.782C215.6 88.319 217.642 90.3756 220.162 90.3756Z" fill="#235F3A"/>
<path d="M220.162 97.5078C226.594 97.5078 231.808 92.2579 231.808 85.7818C231.808 79.3056 226.594 74.0557 220.162 74.0557C213.73 74.0557 208.517 79.3056 208.517 85.7818C208.517 92.2579 213.73 97.5078 220.162 97.5078Z" stroke="#3FA534" stroke-width="4.25911" stroke-miterlimit="10"/>
<path d="M220.162 77.3052C221.942 77.3052 223.385 75.8522 223.385 74.0598C223.385 72.2674 221.942 70.8145 220.162 70.8145C218.382 70.8145 216.939 72.2674 216.939 74.0598C216.939 75.8522 218.382 77.3052 220.162 77.3052Z" fill="#235F3A"/>
<path d="M244.21 90.3756C246.73 90.3756 248.772 88.319 248.772 85.782C248.772 83.2451 246.73 81.1885 244.21 81.1885C241.691 81.1885 239.648 83.2451 239.648 85.782C239.648 88.319 241.691 90.3756 244.21 90.3756Z" fill="#235F3A"/>
<path d="M244.211 97.5078C250.643 97.5078 255.856 92.2579 255.856 85.7818C255.856 79.3056 250.643 74.0557 244.211 74.0557C237.779 74.0557 232.565 79.3056 232.565 85.7818C232.565 92.2579 237.779 97.5078 244.211 97.5078Z" stroke="#3FA534" stroke-width="4.25911" stroke-miterlimit="10"/>
<path d="M244.211 77.3052C245.991 77.3052 247.434 75.8522 247.434 74.0598C247.434 72.2674 245.991 70.8145 244.211 70.8145C242.431 70.8145 240.988 72.2674 240.988 74.0598C240.988 75.8522 242.431 77.3052 244.211 77.3052Z" fill="#235F3A"/>
<path d="M268.203 90.6051C270.722 90.6051 272.765 88.5485 272.765 86.0115C272.765 83.4746 270.722 81.418 268.203 81.418C265.683 81.418 263.641 83.4746 263.641 86.0115C263.641 88.5485 265.683 90.6051 268.203 90.6051Z" fill="#235F3A"/>
<path d="M268.203 97.7373C274.635 97.7373 279.849 92.4874 279.849 86.0112C279.849 79.5351 274.635 74.2852 268.203 74.2852C261.772 74.2852 256.558 79.5351 256.558 86.0112C256.558 92.4874 261.772 97.7373 268.203 97.7373Z" stroke="#3FA534" stroke-width="4.25911" stroke-miterlimit="10"/>
<path d="M268.204 77.5308C269.984 77.5308 271.427 76.0778 271.427 74.2854C271.427 72.493 269.984 71.04 268.204 71.04C266.423 71.04 264.98 72.493 264.98 74.2854C264.98 76.0778 266.423 77.5308 268.204 77.5308Z" fill="#235F3A"/>
<path d="M232.449 89.6611C234.229 89.6611 235.672 88.2081 235.672 86.4158C235.672 84.6234 234.229 83.1704 232.449 83.1704C230.669 83.1704 229.226 84.6234 229.226 86.4158C229.226 88.2081 230.669 89.6611 232.449 89.6611Z" fill="#235F3A"/>
<path d="M255.736 89.6611C257.516 89.6611 258.959 88.2081 258.959 86.4158C258.959 84.6234 257.516 83.1704 255.736 83.1704C253.956 83.1704 252.513 84.6234 252.513 86.4158C252.513 88.2081 253.956 89.6611 255.736 89.6611Z" fill="#235F3A"/>
<path d="M232.449 65.4424C234.229 65.4424 235.672 63.9894 235.672 62.197C235.672 60.4047 234.229 58.9517 232.449 58.9517C230.669 58.9517 229.226 60.4047 229.226 62.197C229.226 63.9894 230.669 65.4424 232.449 65.4424Z" fill="#235F3A"/>
<path d="M255.736 65.4424C257.516 65.4424 258.959 63.9894 258.959 62.197C258.959 60.4047 257.516 58.9517 255.736 58.9517C253.956 58.9517 252.513 60.4047 252.513 62.197C252.513 63.9894 253.956 65.4424 255.736 65.4424Z" fill="#235F3A"/>
<path d="M232.449 41.6265C234.229 41.6265 235.672 40.1735 235.672 38.3811C235.672 36.5887 234.229 35.1357 232.449 35.1357C230.669 35.1357 229.226 36.5887 229.226 38.3811C229.226 40.1735 230.669 41.6265 232.449 41.6265Z" fill="#235F3A"/>
<path d="M255.736 41.6265C257.516 41.6265 258.959 40.1735 258.959 38.3811C258.959 36.5887 257.516 35.1357 255.736 35.1357C253.956 35.1357 252.513 36.5887 252.513 38.3811C252.513 40.1735 253.956 41.6265 255.736 41.6265Z" fill="#235F3A"/>
<path d="M232.449 17.811C234.229 17.811 235.672 16.358 235.672 14.5657C235.672 12.7733 234.229 11.3203 232.449 11.3203C230.669 11.3203 229.226 12.7733 229.226 14.5657C229.226 16.358 230.669 17.811 232.449 17.811Z" fill="#235F3A"/>
<path d="M255.736 17.811C257.516 17.811 258.959 16.358 258.959 14.5657C258.959 12.7733 257.516 11.3203 255.736 11.3203C253.956 11.3203 252.513 12.7733 252.513 14.5657C252.513 16.358 253.956 17.811 255.736 17.811Z" fill="#235F3A"/>
<path d="M102.694 117.832V129H100.454V121.736L97.4621 129H95.7661L92.7581 121.736V129H90.5181V117.832H93.0621L96.6141 126.136L100.166 117.832H102.694ZM108.845 129.144C107.991 129.144 107.223 128.957 106.541 128.584C105.858 128.2 105.319 127.661 104.925 126.968C104.541 126.275 104.349 125.475 104.349 124.568C104.349 123.661 104.546 122.861 104.941 122.168C105.346 121.475 105.895 120.941 106.589 120.568C107.282 120.184 108.055 119.992 108.909 119.992C109.762 119.992 110.535 120.184 111.229 120.568C111.922 120.941 112.466 121.475 112.861 122.168C113.266 122.861 113.469 123.661 113.469 124.568C113.469 125.475 113.261 126.275 112.845 126.968C112.439 127.661 111.885 128.2 111.181 128.584C110.487 128.957 109.709 129.144 108.845 129.144ZM108.845 127.192C109.25 127.192 109.629 127.096 109.981 126.904C110.343 126.701 110.631 126.403 110.845 126.008C111.058 125.613 111.165 125.133 111.165 124.568C111.165 123.725 110.941 123.08 110.493 122.632C110.055 122.173 109.517 121.944 108.877 121.944C108.237 121.944 107.698 122.173 107.261 122.632C106.834 123.08 106.621 123.725 106.621 124.568C106.621 125.411 106.829 126.061 107.245 126.52C107.671 126.968 108.205 127.192 108.845 127.192ZM117.352 117.16V129H115.112V117.16H117.352ZM127.805 124.376C127.805 124.696 127.784 124.984 127.741 125.24H121.261C121.314 125.88 121.538 126.381 121.933 126.744C122.328 127.107 122.813 127.288 123.389 127.288C124.221 127.288 124.813 126.931 125.165 126.216H127.581C127.325 127.069 126.834 127.773 126.109 128.328C125.384 128.872 124.493 129.144 123.437 129.144C122.584 129.144 121.816 128.957 121.133 128.584C120.461 128.2 119.933 127.661 119.549 126.968C119.176 126.275 118.989 125.475 118.989 124.568C118.989 123.651 119.176 122.845 119.549 122.152C119.922 121.459 120.445 120.925 121.117 120.552C121.789 120.179 122.562 119.992 123.437 119.992C124.28 119.992 125.032 120.173 125.693 120.536C126.365 120.899 126.882 121.416 127.245 122.088C127.618 122.749 127.805 123.512 127.805 124.376ZM125.485 123.736C125.474 123.16 125.266 122.701 124.861 122.36C124.456 122.008 123.96 121.832 123.373 121.832C122.818 121.832 122.349 122.003 121.965 122.344C121.592 122.675 121.362 123.139 121.277 123.736H125.485ZM128.864 124.568C128.864 123.651 129.051 122.851 129.424 122.168C129.797 121.475 130.315 120.941 130.976 120.568C131.637 120.184 132.395 119.992 133.248 119.992C134.347 119.992 135.253 120.269 135.968 120.824C136.693 121.368 137.179 122.136 137.424 123.128H135.008C134.88 122.744 134.661 122.445 134.352 122.232C134.053 122.008 133.68 121.896 133.232 121.896C132.592 121.896 132.085 122.131 131.712 122.6C131.339 123.059 131.152 123.715 131.152 124.568C131.152 125.411 131.339 126.067 131.712 126.536C132.085 126.995 132.592 127.224 133.232 127.224C134.139 127.224 134.731 126.819 135.008 126.008H137.424C137.179 126.968 136.693 127.731 135.968 128.296C135.243 128.861 134.336 129.144 133.248 129.144C132.395 129.144 131.637 128.957 130.976 128.584C130.315 128.2 129.797 127.667 129.424 126.984C129.051 126.291 128.864 125.485 128.864 124.568ZM147.433 120.136V129H145.177V127.88C144.889 128.264 144.51 128.568 144.041 128.792C143.582 129.005 143.081 129.112 142.537 129.112C141.844 129.112 141.23 128.968 140.697 128.68C140.164 128.381 139.742 127.949 139.433 127.384C139.134 126.808 138.985 126.125 138.985 125.336V120.136H141.225V125.016C141.225 125.72 141.401 126.264 141.753 126.648C142.105 127.021 142.585 127.208 143.193 127.208C143.812 127.208 144.297 127.021 144.649 126.648C145.001 126.264 145.177 125.72 145.177 125.016V120.136H147.433ZM151.883 117.16V129H149.643V117.16H151.883ZM162.336 124.376C162.336 124.696 162.315 124.984 162.272 125.24H155.792C155.846 125.88 156.07 126.381 156.464 126.744C156.859 127.107 157.344 127.288 157.92 127.288C158.752 127.288 159.344 126.931 159.696 126.216H162.112C161.856 127.069 161.366 127.773 160.64 128.328C159.915 128.872 159.024 129.144 157.968 129.144C157.115 129.144 156.347 128.957 155.664 128.584C154.992 128.2 154.464 127.661 154.08 126.968C153.707 126.275 153.52 125.475 153.52 124.568C153.52 123.651 153.707 122.845 154.08 122.152C154.454 121.459 154.976 120.925 155.648 120.552C156.32 120.179 157.094 119.992 157.968 119.992C158.811 119.992 159.563 120.173 160.224 120.536C160.896 120.899 161.414 121.416 161.776 122.088C162.15 122.749 162.336 123.512 162.336 124.376ZM160.016 123.736C160.006 123.16 159.798 122.701 159.392 122.36C158.987 122.008 158.491 121.832 157.904 121.832C157.35 121.832 156.88 122.003 156.496 122.344C156.123 122.675 155.894 123.139 155.808 123.736H160.016ZM167.363 129.144C166.638 129.144 165.987 129.016 165.411 128.76C164.835 128.493 164.377 128.136 164.035 127.688C163.705 127.24 163.523 126.744 163.491 126.2H165.747C165.79 126.541 165.955 126.824 166.243 127.048C166.542 127.272 166.91 127.384 167.347 127.384C167.774 127.384 168.105 127.299 168.339 127.128C168.585 126.957 168.707 126.739 168.707 126.472C168.707 126.184 168.558 125.971 168.259 125.832C167.971 125.683 167.507 125.523 166.867 125.352C166.206 125.192 165.662 125.027 165.235 124.856C164.819 124.685 164.457 124.424 164.147 124.072C163.849 123.72 163.699 123.245 163.699 122.648C163.699 122.157 163.838 121.709 164.115 121.304C164.403 120.899 164.809 120.579 165.331 120.344C165.865 120.109 166.489 119.992 167.203 119.992C168.259 119.992 169.102 120.259 169.731 120.792C170.361 121.315 170.707 122.024 170.771 122.92H168.627C168.595 122.568 168.446 122.291 168.179 122.088C167.923 121.875 167.577 121.768 167.139 121.768C166.734 121.768 166.419 121.843 166.195 121.992C165.982 122.141 165.875 122.349 165.875 122.616C165.875 122.915 166.025 123.144 166.323 123.304C166.622 123.453 167.086 123.608 167.715 123.768C168.355 123.928 168.883 124.093 169.299 124.264C169.715 124.435 170.073 124.701 170.371 125.064C170.681 125.416 170.841 125.885 170.851 126.472C170.851 126.984 170.707 127.443 170.419 127.848C170.142 128.253 169.737 128.573 169.203 128.808C168.681 129.032 168.067 129.144 167.363 129.144Z" fill="#198754"/>
<path d="M110.627 84.9184C114.871 84.9184 118.312 81.454 118.312 77.1804C118.312 72.9068 114.871 69.4424 110.627 69.4424C106.383 69.4424 102.942 72.9068 102.942 77.1804C102.942 81.454 106.383 84.9184 110.627 84.9184Z" fill="#235F3A"/>
<path d="M110.627 96.9431C121.467 96.9431 130.254 88.095 130.254 77.1803C130.254 66.2656 121.467 57.4175 110.627 57.4175C99.7873 57.4175 91 66.2656 91 77.1803C91 88.095 99.7873 96.9431 110.627 96.9431Z" stroke="#3FA534" stroke-width="4.25911" stroke-miterlimit="10"/>
<path d="M150.582 85.7099C154.827 85.7099 158.267 82.2455 158.267 77.9719C158.267 73.6983 154.827 70.2339 150.582 70.2339C146.338 70.2339 142.897 73.6983 142.897 77.9719C142.897 82.2455 146.338 85.7099 150.582 85.7099Z" fill="#235F3A"/>
<path d="M150.582 97.7346C161.422 97.7346 170.209 88.8865 170.209 77.9718C170.209 67.0571 161.422 58.209 150.582 58.209C139.742 58.209 130.955 67.0571 130.955 77.9718C130.955 88.8865 139.742 97.7346 150.582 97.7346Z" stroke="#3FA534" stroke-width="4.25911" stroke-miterlimit="10"/>
<path d="M131.324 87.2517C134.326 87.2517 136.76 84.8011 136.76 81.7782C136.76 78.7553 134.326 76.3047 131.324 76.3047C128.321 76.3047 125.888 78.7553 125.888 81.7782C125.888 84.8011 128.321 87.2517 131.324 87.2517Z" fill="#235F3A"/>
<path d="M130.106 50.2807C134.35 50.2807 137.791 46.8163 137.791 42.5427C137.791 38.2691 134.35 34.8047 130.106 34.8047C125.862 34.8047 122.421 38.2691 122.421 42.5427C122.421 46.8163 125.862 50.2807 130.106 50.2807Z" fill="#235F3A"/>
<path d="M130.106 62.3059C140.945 62.3059 149.733 53.4578 149.733 42.5431C149.733 31.6284 140.945 22.7803 130.106 22.7803C119.266 22.7803 110.479 31.6284 110.479 42.5431C110.479 53.4578 119.266 62.3059 130.106 62.3059Z" stroke="#3FA534" stroke-width="4.25911" stroke-miterlimit="10"/>
<path d="M116.063 62.8909C119.065 62.8909 121.499 60.4403 121.499 57.4174C121.499 54.3944 119.065 51.9438 116.063 51.9438C113.061 51.9438 110.627 54.3944 110.627 57.4174C110.627 60.4403 113.061 62.8909 116.063 62.8909Z" fill="#235F3A"/>
<path d="M143.046 62.447C146.049 62.447 148.482 59.9965 148.482 56.9735C148.482 53.9506 146.049 51.5 143.046 51.5C140.044 51.5 137.611 53.9506 137.611 56.9735C137.611 59.9965 140.044 62.447 143.046 62.447Z" fill="#235F3A"/>
<path d="M14.2801 126.872H9.83213L9.09613 129H6.74413L10.7601 117.816H13.3681L17.3841 129H15.0161L14.2801 126.872ZM13.6721 125.08L12.0561 120.408L10.4401 125.08H13.6721ZM21.4933 121.976V126.264C21.4933 126.563 21.5626 126.781 21.7013 126.92C21.8506 127.048 22.0959 127.112 22.4373 127.112H23.4773V129H22.0693C20.1813 129 19.2373 128.083 19.2373 126.248V121.976H18.1813V120.136H19.2373V117.944H21.4933V120.136H23.4773V121.976H21.4933ZM29.0244 129.144C28.171 129.144 27.403 128.957 26.7204 128.584C26.0377 128.2 25.499 127.661 25.1044 126.968C24.7204 126.275 24.5284 125.475 24.5284 124.568C24.5284 123.661 24.7257 122.861 25.1204 122.168C25.5257 121.475 26.075 120.941 26.7684 120.568C27.4617 120.184 28.235 119.992 29.0884 119.992C29.9417 119.992 30.715 120.184 31.4084 120.568C32.1017 120.941 32.6457 121.475 33.0404 122.168C33.4457 122.861 33.6484 123.661 33.6484 124.568C33.6484 125.475 33.4404 126.275 33.0244 126.968C32.619 127.661 32.0644 128.2 31.3604 128.584C30.667 128.957 29.8884 129.144 29.0244 129.144ZM29.0244 127.192C29.4297 127.192 29.8084 127.096 30.1604 126.904C30.523 126.701 30.811 126.403 31.0244 126.008C31.2377 125.613 31.3444 125.133 31.3444 124.568C31.3444 123.725 31.1204 123.08 30.6724 122.632C30.235 122.173 29.6964 121.944 29.0564 121.944C28.4164 121.944 27.8777 122.173 27.4404 122.632C27.0137 123.08 26.8004 123.725 26.8004 124.568C26.8004 125.411 27.0084 126.061 27.4244 126.52C27.851 126.968 28.3844 127.192 29.0244 127.192ZM46.2995 120.008C47.3875 120.008 48.2622 120.344 48.9235 121.016C49.5955 121.677 49.9315 122.605 49.9315 123.8V129H47.6915V124.104C47.6915 123.411 47.5155 122.883 47.1635 122.52C46.8115 122.147 46.3315 121.96 45.7235 121.96C45.1155 121.96 44.6302 122.147 44.2675 122.52C43.9155 122.883 43.7395 123.411 43.7395 124.104V129H41.4995V124.104C41.4995 123.411 41.3235 122.883 40.9715 122.52C40.6195 122.147 40.1395 121.96 39.5315 121.96C38.9128 121.96 38.4222 122.147 38.0595 122.52C37.7075 122.883 37.5315 123.411 37.5315 124.104V129H35.2915V120.136H37.5315V121.208C37.8195 120.835 38.1875 120.541 38.6355 120.328C39.0942 120.115 39.5955 120.008 40.1395 120.008C40.8328 120.008 41.4515 120.157 41.9955 120.456C42.5395 120.744 42.9608 121.16 43.2595 121.704C43.5475 121.192 43.9635 120.781 44.5075 120.472C45.0622 120.163 45.6595 120.008 46.2995 120.008ZM55.4491 129.144C54.7238 129.144 54.0731 129.016 53.4971 128.76C52.9211 128.493 52.4625 128.136 52.1211 127.688C51.7905 127.24 51.6091 126.744 51.5771 126.2H53.8331C53.8758 126.541 54.0411 126.824 54.3291 127.048C54.6278 127.272 54.9958 127.384 55.4331 127.384C55.8598 127.384 56.1905 127.299 56.4251 127.128C56.6705 126.957 56.7931 126.739 56.7931 126.472C56.7931 126.184 56.6438 125.971 56.3451 125.832C56.0571 125.683 55.5931 125.523 54.9531 125.352C54.2918 125.192 53.7478 125.027 53.3211 124.856C52.9051 124.685 52.5425 124.424 52.2331 124.072C51.9345 123.72 51.7851 123.245 51.7851 122.648C51.7851 122.157 51.9238 121.709 52.2011 121.304C52.4891 120.899 52.8945 120.579 53.4171 120.344C53.9505 120.109 54.5745 119.992 55.2891 119.992C56.3451 119.992 57.1878 120.259 57.8171 120.792C58.4465 121.315 58.7931 122.024 58.8571 122.92H56.7131C56.6811 122.568 56.5318 122.291 56.2651 122.088C56.0091 121.875 55.6625 121.768 55.2251 121.768C54.8198 121.768 54.5051 121.843 54.2811 121.992C54.0678 122.141 53.9611 122.349 53.9611 122.616C53.9611 122.915 54.1105 123.144 54.4091 123.304C54.7078 123.453 55.1718 123.608 55.8011 123.768C56.4411 123.928 56.9691 124.093 57.3851 124.264C57.8011 124.435 58.1585 124.701 58.4571 125.064C58.7665 125.416 58.9265 125.885 58.9371 126.472C58.9371 126.984 58.7931 127.443 58.5051 127.848C58.2278 128.253 57.8225 128.573 57.2891 128.808C56.7665 129.032 56.1531 129.144 55.4491 129.144Z" fill="#198754"/>
<path d="M33.6305 79.3884C39.823 79.3884 44.8431 74.3336 44.8431 68.0983C44.8431 61.8629 39.823 56.8081 33.6305 56.8081C27.438 56.8081 22.418 61.8629 22.418 68.0983C22.418 74.3336 27.438 79.3884 33.6305 79.3884Z" fill="#235F3A"/>
<path d="M33.6307 96.9272C49.443 96.9272 62.2614 84.0201 62.2614 68.0984C62.2614 52.1766 49.443 39.2695 33.6307 39.2695C17.8184 39.2695 5 52.1766 5 68.0984C5 84.0201 17.8184 96.9272 33.6307 96.9272Z" stroke="#3FA534" stroke-width="4.25911" stroke-miterlimit="10"/>
<path d="M33.6305 47.2536C38.0098 47.2536 41.5599 43.679 41.5599 39.2694C41.5599 34.8598 38.0098 31.2852 33.6305 31.2852C29.2513 31.2852 25.7012 34.8598 25.7012 39.2694C25.7012 43.679 29.2513 47.2536 33.6305 47.2536Z" fill="#235F3A"/>
</g>
<defs>
<clipPath id="clip0_1059_1416">
<rect width="516" height="135" fill="white"/>
</clipPath>
</defs>
</svg>
