<svg width="60" height="60" viewBox="0 0 60 60" fill="none" xmlns="http://www.w3.org/2000/svg">
<path d="M30 0.5C46.2924 0.5 59.5 13.7076 59.5 30C59.5 46.2924 46.2924 59.5 30 59.5C13.7076 59.5 0.5 46.2924 0.5 30C0.5 13.7076 13.7076 0.5 30 0.5Z" fill="#FFEDD4"/>
<path d="M30 0.5C46.2924 0.5 59.5 13.7076 59.5 30C59.5 46.2924 46.2924 59.5 30 59.5C13.7076 59.5 0.5 46.2924 0.5 30C0.5 13.7076 13.7076 0.5 30 0.5Z" stroke="#D6D3D1"/>
<path d="M17.5 30.0022C17.5182 28.1865 17.9354 26.397 18.7219 24.7603L20.969 27.0072C20.6459 27.9728 20.4804 28.9841 20.479 30.0022C20.4817 32.5265 21.4855 34.9468 23.2705 36.7317C25.0555 38.5167 27.4757 39.5206 30 39.5232C32.5244 39.5206 34.9446 38.5167 36.7297 36.7317C38.5149 34.9468 39.5191 32.5266 39.522 30.0022C39.5191 27.4778 38.5149 25.0577 36.7297 23.2727C34.9446 21.4878 32.5244 20.4839 30 20.4812C28.9822 20.4821 27.9713 20.6472 27.0061 20.9702L24.76 18.7243C26.3961 17.938 28.1849 17.5208 30 17.5022C33.3112 17.5151 36.483 18.8362 38.8245 21.1776C41.1659 23.5191 42.4871 26.691 42.5 30.0022C42.4874 33.3135 41.1664 36.4856 38.825 38.8271C36.4835 41.1685 33.3113 42.4896 30 42.5022C26.6887 42.4896 23.5165 41.1685 21.175 38.8271C18.8336 36.4856 17.5126 33.3135 17.5 30.0022ZM23.408 30.0022C23.4156 29.2511 23.5526 28.5069 23.813 27.8023H24.696L26.3889 29.4953C26.3608 29.6606 26.3438 29.8277 26.3379 29.9953C26.3389 30.9663 26.7251 31.8972 27.4116 32.5839C28.0981 33.2706 29.029 33.6569 30 33.6582C30.9712 33.6572 31.9022 33.2709 32.5889 32.5841C33.2756 31.8974 33.662 30.9664 33.6631 29.9953C33.6618 29.0244 33.2753 28.0936 32.5886 27.4073C31.9019 26.7209 30.9709 26.3351 30 26.3343C29.8323 26.3395 29.6653 26.3566 29.5 26.3853L27.8069 24.6922V23.8092C28.5117 23.5501 29.2562 23.4147 30.0071 23.4092C31.7547 23.4113 33.4302 24.1065 34.666 25.3423C35.9018 26.5781 36.597 28.2536 36.5991 30.0013C36.5967 31.7487 35.9013 33.4239 34.6655 34.6595C33.4298 35.895 31.7546 36.5901 30.0071 36.5922C28.2584 36.5922 26.581 35.8982 25.3435 34.6626C24.1061 33.4271 23.4106 31.7509 23.408 30.0022ZM29.4971 30.5302C29.4971 30.5302 29.4869 30.5242 29.4819 30.5202L25.302 26.3402H22.675C22.579 26.3403 22.484 26.3214 22.3953 26.2847C22.3065 26.248 22.2258 26.1942 22.158 26.1263L17.7151 21.6833C17.6124 21.5806 17.5425 21.4497 17.5144 21.3073C17.4863 21.1648 17.5009 21.0172 17.5569 20.8832C17.6119 20.7492 17.7058 20.6347 17.8262 20.5542C17.9466 20.4737 18.0881 20.4309 18.2329 20.4312H20.48V18.2312C20.4798 18.0863 20.5228 17.9447 20.6033 17.8241C20.6837 17.7036 20.798 17.6097 20.9319 17.5542C21.066 17.4984 21.214 17.4837 21.3564 17.5122C21.4989 17.5407 21.6296 17.6111 21.7319 17.7143L26.127 22.1573C26.1951 22.225 26.2492 22.3056 26.2861 22.3943C26.323 22.483 26.342 22.5781 26.342 22.6742V25.3012L30.522 29.4812C30.522 29.4812 30.528 29.4913 30.531 29.4953C30.598 29.5641 30.6507 29.6455 30.6858 29.7349C30.7209 29.8243 30.7378 29.9198 30.7356 30.0158C30.7334 30.1118 30.7119 30.2063 30.6726 30.294C30.6334 30.3816 30.5772 30.4607 30.5071 30.5263C30.3729 30.6563 30.1939 30.7297 30.0071 30.7312C29.8183 30.7322 29.6364 30.6597 29.5 30.5292L29.4971 30.5302Z" fill="black"/>
</svg>
