<svg width="282" height="282" viewBox="0 0 282 282" fill="none" xmlns="http://www.w3.org/2000/svg">
<rect x="0.5" y="0.5" width="281" height="281.003" rx="140.5" fill="#FFEDD4"/>
<rect x="0.5" y="0.5" width="281" height="281.003" rx="140.5" stroke="#D6D3D1"/>
<path d="M195.813 225.579C194.311 225.159 192.909 224.439 191.693 223.463C190.477 222.487 189.471 221.274 188.737 219.898L171.249 187.106V224.563C171.248 224.944 171.096 225.31 170.826 225.579C170.556 225.849 170.19 226 169.809 226C169.62 226 169.432 225.963 169.258 225.891C169.083 225.819 168.924 225.713 168.79 225.579C168.656 225.446 168.55 225.287 168.477 225.112C168.405 224.938 168.367 224.75 168.367 224.561V181.34C168.367 181.018 168.474 180.706 168.672 180.452C168.87 180.198 169.147 180.018 169.459 179.94C169.771 179.862 170.099 179.891 170.393 180.021C170.686 180.152 170.928 180.377 171.079 180.66L176.728 191.251L191.969 183.677L184.169 169.369C183.054 167.323 181.407 165.616 179.403 164.428C177.401 163.238 175.114 162.61 172.784 162.612H109.21C106.881 162.611 104.594 163.239 102.591 164.428C100.588 165.617 98.9423 167.324 97.828 169.37L89.852 183.993L105.252 191.266L110.907 180.666C111.059 180.383 111.3 180.158 111.594 180.028C111.888 179.897 112.216 179.869 112.528 179.946C112.84 180.024 113.117 180.205 113.314 180.458C113.512 180.712 113.619 181.024 113.619 181.346V223.126H164.043C164.232 223.126 164.419 223.164 164.594 223.236C164.769 223.309 164.927 223.415 165.061 223.548C165.195 223.682 165.301 223.841 165.373 224.016C165.445 224.191 165.482 224.378 165.482 224.567C165.48 224.948 165.328 225.312 165.058 225.58C164.788 225.849 164.424 226 164.043 226H112.181C111.799 226 111.432 225.847 111.162 225.577C110.895 225.307 110.744 224.943 110.743 224.563V187.106L93.251 219.9C92.2692 221.745 90.8039 223.289 89.012 224.365C87.2184 225.438 85.1669 226.003 83.077 226C77.411 226 72.893 222.146 71.567 216.181L57.205 153.5C57.0592 152.867 57.0582 152.208 57.2023 151.574C57.3463 150.94 57.6317 150.347 58.037 149.839C58.442 149.33 58.9565 148.92 59.5422 148.637C60.128 148.355 60.7698 148.209 61.42 148.209H75.675C76.6528 148.205 77.6026 148.535 78.3678 149.144C79.1329 149.753 79.6677 150.604 79.884 151.558L82.117 161.225C83.1057 160.523 84.2897 160.15 85.502 160.157C86.5983 160.15 87.6744 160.452 88.607 161.029C89.5394 161.605 90.2921 162.43 90.78 163.411C90.8978 163.646 90.9491 163.908 90.9283 164.17C90.9075 164.432 90.8154 164.683 90.662 164.896L84.836 173.011L86.342 179.535C86.4276 179.908 86.3619 180.299 86.1593 180.624C85.9566 180.948 85.6335 181.179 85.261 181.265C84.8883 181.351 84.4968 181.285 84.1726 181.082C83.8484 180.879 83.618 180.556 83.532 180.183L81.88 173.025C81.8343 172.825 81.8317 172.618 81.8722 172.417C81.9127 172.216 81.9955 172.026 82.115 171.86L87.743 164.022C87.4593 163.71 87.1133 163.461 86.7272 163.291C86.3412 163.121 85.9238 163.034 85.502 163.035C85.0882 163.033 84.6786 163.119 84.2996 163.285C83.9207 163.451 83.5809 163.695 83.302 164.001L82.351 165.033C82.173 165.225 81.9461 165.365 81.6945 165.438C81.4429 165.511 81.1762 165.514 80.923 165.447C80.6695 165.38 80.4391 165.244 80.2567 165.056C80.0744 164.867 79.9469 164.633 79.888 164.377L77.079 152.202C77.0069 151.884 76.8292 151.601 76.5748 151.398C76.3205 151.194 76.0046 151.083 75.679 151.083H61.418C61.2011 151.083 60.9872 151.133 60.7919 151.227C60.5967 151.321 60.4251 151.458 60.29 151.628C60.1549 151.798 60.0598 151.996 60.0118 152.207C59.9639 152.419 59.9643 152.639 60.013 152.85L74.378 215.55C75.193 219.214 77.905 223.12 83.078 223.12C84.6461 223.12 86.1849 222.695 87.53 221.889C88.8745 221.082 89.9739 219.924 90.71 218.539L103.898 193.811L88.469 186.525L78.343 205.081C78.2525 205.247 78.1301 205.394 77.9829 205.513C77.8357 205.631 77.6666 205.72 77.4851 205.773C77.3037 205.827 77.1135 205.844 76.9254 205.824C76.7373 205.804 76.555 205.747 76.389 205.656C76.054 205.473 75.8053 205.164 75.6975 204.798C75.5897 204.432 75.6316 204.037 75.814 203.702L95.293 167.992C96.655 165.491 98.6668 163.405 101.116 161.952C103.564 160.498 106.359 159.73 109.207 159.73H133.792V156.355C132.107 155.758 130.649 154.654 129.617 153.195C128.585 151.736 128.03 149.994 128.028 148.207V138.122C128.028 138.096 128.036 138.07 128.036 138.044C126.254 136.694 124.811 134.948 123.818 132.945C122.825 130.942 122.311 128.736 122.316 126.5L122.33 123.71C122.332 123.33 122.484 122.965 122.754 122.697C123.024 122.429 123.389 122.278 123.769 122.278H138.719C140.579 122.279 142.415 122.7 144.09 123.51C145.764 124.32 147.234 125.499 148.389 126.957C149.545 128.416 150.355 130.117 150.76 131.933C151.165 133.749 151.154 135.634 150.727 137.445L148.197 148.193V159.735H172.779C175.627 159.734 178.422 160.501 180.87 161.955C183.318 163.409 185.33 165.495 186.693 167.995L206.2 203.759C206.291 203.925 206.348 204.107 206.368 204.295C206.388 204.484 206.371 204.674 206.318 204.855C206.264 205.037 206.176 205.206 206.057 205.353C205.938 205.5 205.791 205.623 205.625 205.713C205.459 205.804 205.277 205.861 205.089 205.881C204.901 205.901 204.71 205.884 204.529 205.83C204.347 205.777 204.178 205.688 204.031 205.57C203.884 205.451 203.762 205.304 203.671 205.138L193.349 186.212L178.084 193.8L191.284 218.545C191.835 219.577 192.59 220.486 193.502 221.219C194.415 221.951 195.466 222.49 196.593 222.805C197.721 223.119 198.9 223.201 200.061 223.046C201.221 222.891 202.338 222.503 203.344 221.905C204.349 221.307 205.223 220.511 205.912 219.565C206.601 218.62 207.092 217.545 207.354 216.405L221.979 152.858C222.027 152.647 222.028 152.427 221.98 152.215C221.932 152.004 221.837 151.806 221.702 151.636C221.567 151.466 221.395 151.329 221.2 151.235C221.005 151.141 220.791 151.091 220.574 151.091H206.315C205.99 151.091 205.674 151.201 205.419 151.404C205.165 151.607 204.987 151.891 204.915 152.208L202.106 164.383C202.047 164.638 201.919 164.872 201.736 165.06C201.554 165.248 201.324 165.383 201.071 165.45C200.818 165.517 200.551 165.514 200.299 165.441C200.048 165.368 199.821 165.228 199.643 165.036L198.692 164C198.413 163.694 198.073 163.451 197.694 163.284C197.315 163.118 196.906 163.033 196.492 163.034C196.07 163.032 195.653 163.119 195.267 163.289C194.881 163.459 194.535 163.708 194.252 164.021L199.877 171.857C199.997 172.024 200.079 172.214 200.12 172.415C200.16 172.616 200.157 172.823 200.111 173.023L198.767 178.839C198.724 179.023 198.646 179.198 198.536 179.352C198.426 179.506 198.287 179.637 198.126 179.737C197.966 179.837 197.787 179.905 197.6 179.936C197.413 179.967 197.222 179.961 197.038 179.918C196.853 179.876 196.678 179.798 196.524 179.688C196.369 179.578 196.238 179.439 196.138 179.278C196.038 179.118 195.97 178.939 195.939 178.752C195.908 178.565 195.914 178.374 195.957 178.19L197.157 173.01L191.331 164.895C191.178 164.682 191.086 164.431 191.065 164.169C191.044 163.907 191.095 163.645 191.212 163.41C191.7 162.429 192.453 161.604 193.385 161.028C194.318 160.452 195.395 160.149 196.492 160.155C197.704 160.15 198.887 160.523 199.876 161.224L202.108 151.557C202.324 150.603 202.859 149.752 203.625 149.143C204.39 148.534 205.34 148.204 206.318 148.208H220.567C221.218 148.208 221.86 148.354 222.446 148.637C223.032 148.919 223.547 149.33 223.952 149.839C224.357 150.348 224.642 150.942 224.786 151.576C224.93 152.211 224.928 152.869 224.782 153.503L210.157 217.051C209.808 218.571 209.154 220.005 208.234 221.265C207.315 222.525 206.15 223.586 204.809 224.383C203.024 225.444 200.986 226.004 198.909 226.003C197.863 226.003 196.821 225.86 195.813 225.579ZM136.673 159.732H145.317V149.647H135.233C135.044 149.647 134.856 149.61 134.682 149.537C134.507 149.465 134.348 149.359 134.214 149.225C134.08 149.091 133.974 148.932 133.902 148.757C133.829 148.583 133.792 148.395 133.792 148.206C133.792 148.017 133.829 147.829 133.902 147.655C133.974 147.48 134.08 147.321 134.214 147.187C134.348 147.053 134.507 146.947 134.682 146.875C134.856 146.802 135.044 146.765 135.233 146.765C135.83 146.764 136.402 146.527 136.824 146.105C137.246 145.683 137.483 145.111 137.484 144.514V143.186C137.483 142.589 137.246 142.017 136.824 141.595C136.402 141.173 135.83 140.936 135.233 140.935C135.172 140.935 135.111 140.931 135.05 140.922C133.62 140.739 132.225 140.345 130.911 139.753V148.205C130.912 149.733 131.52 151.198 132.601 152.278C133.681 153.359 135.146 153.967 136.674 153.968C137.51 153.969 138.342 153.848 139.144 153.61C139.51 153.501 139.905 153.542 140.241 153.724C140.578 153.906 140.828 154.214 140.937 154.58C141.045 154.946 141.004 155.341 140.822 155.676C140.641 156.012 140.333 156.263 139.967 156.372C138.898 156.69 137.789 156.85 136.674 156.849L136.673 159.732ZM125.199 126.51C125.203 129.336 126.234 132.064 128.099 134.187C129.963 136.311 132.535 137.685 135.336 138.055C136.679 138.083 137.957 138.637 138.897 139.596C139.837 140.555 140.364 141.844 140.366 143.187V144.515C140.367 145.295 140.189 146.066 139.845 146.766H145.574L147.923 136.779C148.25 135.391 148.259 133.946 147.948 132.554C147.638 131.162 147.017 129.858 146.132 128.74C145.247 127.622 144.12 126.719 142.836 126.098C141.553 125.477 140.145 125.154 138.719 125.154H125.204L125.199 126.51ZM73.691 164.4L71.529 155.756C71.4828 155.572 71.4734 155.382 71.5012 155.194C71.529 155.007 71.5935 154.827 71.691 154.665C71.8871 154.337 72.2054 154.1 72.576 154.007C72.7597 153.961 72.9507 153.952 73.1379 153.98C73.3252 154.008 73.505 154.073 73.667 154.171C73.995 154.367 74.2317 154.685 74.325 155.056L76.485 163.7C76.5311 163.884 76.5406 164.074 76.5128 164.262C76.485 164.449 76.4205 164.629 76.323 164.791C76.226 164.954 76.0978 165.095 75.9457 165.208C75.7936 165.321 75.6207 165.402 75.437 165.448C75.3222 165.477 75.2043 165.491 75.086 165.491C74.7652 165.491 74.4537 165.383 74.201 165.185C73.9482 164.988 73.7688 164.711 73.691 164.4ZM66.491 164.4L64.329 155.756C64.2828 155.572 64.2734 155.382 64.3012 155.194C64.329 155.007 64.3935 154.827 64.491 154.665C64.6871 154.337 65.0054 154.1 65.376 154.007C65.5598 153.961 65.751 153.952 65.9384 153.98C66.1258 154.008 66.3058 154.073 66.468 154.171C66.7954 154.368 67.0316 154.686 67.125 155.056L69.285 163.7C69.3311 163.884 69.3406 164.074 69.3128 164.262C69.285 164.449 69.2205 164.629 69.123 164.791C69.0261 164.953 68.898 165.095 68.7461 165.208C68.5942 165.321 68.4215 165.402 68.238 165.448C68.1232 165.477 68.0053 165.491 67.887 165.491C67.5653 165.492 67.2525 165.385 66.9988 165.187C66.745 164.989 66.5648 164.712 66.487 164.4H66.491ZM212.977 164.937C212.842 164.764 212.748 164.563 212.702 164.348C212.657 164.134 212.661 163.912 212.714 163.699L214.876 155.056C214.969 154.685 215.205 154.366 215.532 154.17C215.86 153.973 216.252 153.914 216.623 154.007C216.807 154.053 216.979 154.134 217.131 154.247C217.283 154.359 217.412 154.501 217.509 154.663C217.607 154.825 217.671 155.005 217.699 155.192C217.727 155.379 217.718 155.569 217.672 155.753L215.506 164.4C215.428 164.712 215.248 164.99 214.994 165.188C214.741 165.386 214.428 165.493 214.106 165.492C213.888 165.492 213.673 165.443 213.476 165.347C213.28 165.252 213.108 165.113 212.974 164.941L212.977 164.937ZM205.777 164.937C205.642 164.764 205.548 164.563 205.502 164.348C205.457 164.134 205.461 163.912 205.514 163.699L207.676 155.056C207.769 154.685 208.005 154.366 208.332 154.17C208.66 153.973 209.052 153.914 209.423 154.007C209.606 154.053 209.779 154.134 209.931 154.247C210.083 154.36 210.211 154.501 210.308 154.663C210.406 154.825 210.47 155.005 210.498 155.192C210.525 155.379 210.516 155.57 210.47 155.753L208.303 164.4C208.225 164.712 208.045 164.99 207.791 165.188C207.538 165.386 207.225 165.493 206.903 165.492C206.685 165.492 206.469 165.443 206.273 165.347C206.077 165.252 205.905 165.113 205.77 164.941L205.777 164.937ZM152.528 153.967C152.146 153.967 151.779 153.815 151.509 153.545C151.238 153.275 151.086 152.908 151.086 152.526C151.087 152.144 151.239 151.777 151.509 151.507C151.779 151.237 152.146 151.085 152.528 151.084H153.969V148.203H152.521C152.332 148.203 152.144 148.166 151.969 148.094C151.794 148.021 151.635 147.915 151.501 147.781C151.367 147.647 151.261 147.489 151.189 147.314C151.116 147.139 151.079 146.951 151.079 146.762C151.08 146.38 151.232 146.014 151.502 145.744C151.773 145.474 152.139 145.323 152.521 145.323H153.962V142.442H152.521C152.139 142.441 151.772 142.289 151.502 142.019C151.232 141.749 151.08 141.382 151.079 141C151.079 140.618 151.231 140.251 151.502 139.981C151.772 139.711 152.139 139.559 152.521 139.559H153.962V130.915H152.521C152.332 130.915 152.144 130.878 151.969 130.806C151.794 130.733 151.635 130.627 151.501 130.493C151.367 130.359 151.261 130.201 151.189 130.026C151.116 129.851 151.079 129.663 151.079 129.474C151.08 129.092 151.232 128.725 151.502 128.455C151.772 128.185 152.139 128.033 152.521 128.033H184.215C184.597 128.034 184.963 128.186 185.234 128.455C185.503 128.726 185.654 129.092 185.654 129.474V152.526C185.655 152.908 185.503 153.274 185.234 153.544C184.963 153.814 184.597 153.966 184.215 153.967H152.528ZM156.843 151.1H159.724V148.219H156.843V151.1ZM162.607 151.1H165.488V148.22H162.604L162.607 151.1ZM168.37 151.1H171.243V148.219H168.367L168.37 151.1ZM174.134 151.1H177.015V148.22H174.131L174.134 151.1ZM179.897 151.1H182.778V148.219H179.893L179.897 151.1ZM156.843 145.334H159.724V142.454H156.843V145.334ZM162.607 145.334H165.488V142.453H162.604L162.607 145.334ZM168.37 145.334H171.243V142.454H168.367L168.37 145.334ZM174.134 145.334H177.015V142.453H174.131L174.134 145.334ZM179.897 145.334H182.778V142.453H179.893L179.897 145.334ZM156.843 139.571H159.724V136.69H156.843V139.571ZM162.607 139.571H165.488V136.691H162.604L162.607 139.571ZM168.37 139.571H171.243V136.69H168.367L168.37 139.571ZM174.134 139.571H177.015V136.69H174.131L174.134 139.571ZM179.897 139.571H182.778V136.691H179.893L179.897 139.571ZM156.843 133.807H159.724V130.927H156.843V133.807ZM162.607 133.807H165.488V130.926H162.604L162.607 133.807ZM168.37 133.807H171.243V130.927H168.367L168.37 133.807ZM174.134 133.807H177.015V130.926H174.131L174.134 133.807ZM179.897 133.807H182.778V130.926H179.893L179.897 133.807ZM97.776 153.968C97.5867 153.968 97.3992 153.931 97.2243 153.858C97.0494 153.786 96.8906 153.679 96.757 153.545C96.623 153.411 96.5167 153.253 96.4441 153.078C96.3716 152.903 96.3341 152.716 96.334 152.527V129.477C96.3339 129.288 96.3711 129.1 96.4435 128.925C96.5159 128.75 96.6222 128.591 96.7561 128.457C96.8901 128.324 97.0491 128.217 97.2241 128.145C97.3991 128.073 97.5866 128.036 97.776 128.036H119.384C119.573 128.036 119.761 128.073 119.936 128.145C120.111 128.217 120.27 128.324 120.404 128.457C120.537 128.591 120.644 128.75 120.716 128.925C120.788 129.1 120.825 129.288 120.825 129.477C120.825 129.666 120.788 129.853 120.715 130.028C120.643 130.203 120.537 130.362 120.403 130.495C120.269 130.629 120.11 130.735 119.935 130.807C119.76 130.879 119.573 130.916 119.384 130.916H116.504V133.797H120.825C121.207 133.797 121.574 133.948 121.844 134.218C122.114 134.488 122.265 134.855 122.265 135.237V139.558H123.706C123.895 139.558 124.083 139.595 124.258 139.667C124.433 139.74 124.592 139.846 124.726 139.98C124.86 140.114 124.966 140.273 125.038 140.448C125.111 140.623 125.148 140.811 125.148 141C125.148 141.382 124.996 141.749 124.725 142.019C124.455 142.29 124.088 142.442 123.706 142.442H122.266V145.323H123.707C123.896 145.323 124.084 145.36 124.259 145.432C124.434 145.504 124.593 145.611 124.727 145.744C124.861 145.878 124.967 146.037 125.039 146.212C125.112 146.387 125.149 146.575 125.149 146.764C125.148 147.146 124.995 147.511 124.725 147.781C124.454 148.05 124.088 148.201 123.706 148.2H122.266V151.081H123.707C124.089 151.081 124.456 151.233 124.726 151.504C124.997 151.774 125.149 152.141 125.149 152.523C125.149 152.712 125.112 152.9 125.039 153.075C124.967 153.25 124.861 153.408 124.727 153.542C124.593 153.676 124.434 153.782 124.259 153.855C124.084 153.927 123.896 153.964 123.707 153.964L97.776 153.968ZM99.217 151.087H102.097V148.206H99.217V151.087ZM104.98 151.087H107.861V148.2H104.98V151.087ZM110.744 151.087H113.624V148.207H110.743L110.744 151.087ZM116.507 151.087H119.388V148.2H116.506L116.507 151.087ZM99.218 145.33H102.098V142.449H99.218V145.33ZM104.981 145.33H107.862V142.45H104.981V145.33ZM110.745 145.33H113.625V142.449H110.743L110.745 145.33ZM116.508 145.33H119.389V142.45H116.506L116.508 145.33ZM99.219 139.573H102.099V136.692H99.219V139.573ZM104.982 139.573H107.863V136.692H104.982V139.573ZM110.746 139.573H113.626V136.693H110.743L110.746 139.573ZM116.509 139.573H119.39V136.692H116.506L116.509 139.573ZM99.217 133.8H102.097V130.919H99.217V133.8ZM104.98 133.8H107.861V130.92H104.98V133.8ZM110.744 133.8H113.624V130.919H110.743L110.744 133.8ZM196.028 153.4C194.902 151.906 194.294 150.084 194.299 148.213V142.45C194.299 140.932 194.699 139.441 195.457 138.127C196.216 136.812 197.308 135.721 198.622 134.962C199.936 134.204 201.426 133.805 202.943 133.805C204.461 133.805 205.951 134.204 207.265 134.962C208.579 135.721 209.671 136.813 210.429 138.127C211.188 139.441 211.587 140.932 211.587 142.45V143.891C211.587 144.08 211.55 144.267 211.478 144.441C211.406 144.615 211.3 144.774 211.166 144.907C211.032 145.041 210.874 145.148 210.699 145.22C210.524 145.293 210.336 145.33 210.147 145.33C209.958 145.33 209.77 145.293 209.595 145.22C209.42 145.147 209.262 145.041 209.128 144.907C208.859 144.637 208.707 144.272 208.707 143.891V142.45C208.707 141.172 208.283 139.931 207.502 138.92C206.718 137.911 205.622 137.191 204.385 136.873V141C204.385 141.382 204.233 141.749 203.963 142.019C203.693 142.29 203.326 142.442 202.944 142.442C202.562 142.442 202.195 142.29 201.924 142.02C201.654 141.749 201.502 141.382 201.502 141V136.868C200.266 137.188 199.172 137.909 198.39 138.918C197.608 139.927 197.183 141.166 197.182 142.442V148.203C197.177 149.451 197.581 150.665 198.333 151.661C198.562 151.966 198.661 152.35 198.607 152.728C198.553 153.107 198.351 153.448 198.046 153.677C197.797 153.864 197.493 153.965 197.181 153.965C196.957 153.966 196.737 153.914 196.536 153.815C196.336 153.716 196.162 153.571 196.027 153.392L196.028 153.4ZM82.815 130.81C82.6244 130.731 82.453 130.612 82.3124 130.461C82.1718 130.31 82.0652 130.131 82 129.935L79.119 121.291C79.0702 121.144 79.0456 120.989 79.046 120.834V114.269L57.943 122.184C57.7254 122.266 57.4913 122.293 57.2607 122.265C57.0301 122.236 56.8099 122.152 56.619 122.019C56.4279 121.886 56.2718 121.71 56.164 121.504C56.0562 121.298 55.9999 121.069 56 120.836V74.736C55.9997 74.4428 56.0891 74.1564 56.2562 73.9155C56.4234 73.6745 56.6602 73.4904 56.935 73.388L103.035 56.1C103.253 56.0186 103.487 55.9912 103.717 56.0199C103.948 56.0486 104.168 56.1327 104.359 56.265C104.55 56.3975 104.706 56.5743 104.814 56.7803C104.922 56.9864 104.978 57.2155 104.978 57.448V103.548C104.978 103.841 104.889 104.128 104.722 104.369C104.555 104.609 104.318 104.794 104.043 104.896L90.573 109.949V116.829L101.003 119.439C101.289 119.51 101.546 119.667 101.74 119.889C101.933 120.111 102.055 120.386 102.087 120.679C102.119 120.972 102.061 121.267 101.92 121.526C101.779 121.784 101.563 121.993 101.299 122.124L84.011 130.768C83.8113 130.869 83.5907 130.921 83.367 130.921C83.1775 130.921 82.99 130.883 82.815 130.81ZM81.929 113.19V120.6L84.21 127.446L96.528 121.287L88.783 119.351C88.471 119.273 88.194 119.092 87.9962 118.839C87.7983 118.585 87.6909 118.273 87.691 117.951V111.026L81.929 113.19ZM58.877 116.069V118.756L102.099 102.548V99.861L58.877 116.069ZM58.877 112.993L102.098 96.786V75.771L98.298 74.504C97.896 75.023 97.3806 75.4432 96.7914 75.7324C96.2021 76.0217 95.5545 76.1723 94.898 76.173C94.804 76.173 94.712 76.165 94.619 76.159L89.178 88.849C89.7843 89.4052 90.2192 90.1229 90.4318 90.9177C90.6443 91.7125 90.6257 92.5514 90.378 93.336C90.1289 94.1202 89.6614 94.8171 89.0303 95.345C88.3993 95.873 87.6308 96.2102 86.815 96.317C86.0002 96.4221 85.1723 96.2926 84.4284 95.9438C83.6845 95.5951 83.0555 95.0416 82.615 94.348C82.1727 93.6543 81.9377 92.8487 81.9377 92.026C81.9377 91.2033 82.1727 90.3977 82.615 89.704L78.682 84.679C78.3332 84.7696 77.9744 84.816 77.614 84.817C77.496 84.817 77.38 84.809 77.267 84.799L70.633 97.7C71.1648 98.2618 71.536 98.9561 71.7078 99.7104C71.8797 100.465 71.8459 101.251 71.61 101.988C71.3734 102.725 70.9434 103.385 70.3649 103.899C69.7864 104.413 69.0805 104.762 68.321 104.91C67.5616 105.059 66.7763 105.001 66.047 104.742C65.3177 104.483 64.6712 104.034 64.175 103.44C63.6789 102.846 63.3514 102.13 63.2265 101.366C63.1016 100.602 63.184 99.8191 63.465 99.098L58.876 95.154L58.877 112.993ZM66.161 100.113C66.0515 100.376 66.0227 100.666 66.0782 100.946C66.1338 101.226 66.2712 101.483 66.473 101.684C66.6744 101.886 66.9309 102.023 67.2103 102.079C67.4896 102.135 67.7793 102.108 68.043 102C68.3062 101.891 68.5312 101.706 68.6895 101.469C68.8479 101.232 68.9326 100.954 68.933 100.669C68.9321 100.287 68.7808 99.9211 68.512 99.65C68.2413 99.3806 67.8749 99.2293 67.493 99.229C67.2086 99.2282 66.9303 99.3116 66.6933 99.4688C66.4562 99.6259 66.271 99.8507 66.161 100.113ZM58.877 75.731V91.36L65.345 96.919C66.1666 96.4374 67.1276 96.2498 68.07 96.387L74.626 83.617C74.0227 83.0434 73.5979 82.3077 73.4027 81.4984C73.2076 80.689 73.2504 79.8406 73.526 79.055C73.8016 78.2693 74.2983 77.58 74.9562 77.0698C75.6142 76.5596 76.4055 76.2503 77.235 76.179C78.0646 76.1073 78.8972 76.2767 79.6327 76.667C80.3683 77.0573 80.9754 77.6518 81.381 78.379C81.786 79.1064 81.9724 79.9352 81.9178 80.7659C81.8632 81.5967 81.5698 82.394 81.073 83.062L84.873 87.924C85.3152 87.7738 85.779 87.6968 86.246 87.696C86.346 87.696 86.432 87.703 86.525 87.71L91.966 75.02C91.4384 74.5363 91.0393 73.929 90.8047 73.2527C90.5701 72.5765 90.5073 71.8525 90.622 71.146C90.7361 70.4388 91.0243 69.7711 91.4608 69.2031C91.8972 68.635 92.4681 68.1845 93.122 67.892C93.7752 67.5992 94.4909 67.4732 95.2049 67.5256C95.9188 67.5779 96.6085 67.807 97.212 68.192C97.8155 68.5762 98.3142 69.1043 98.6633 69.7288C99.0123 70.3533 99.2009 71.0547 99.212 71.77L102.098 72.732V59.52L58.877 75.731ZM84.919 91.469C84.8103 91.7324 84.7818 92.022 84.8371 92.3015C84.8925 92.581 85.0291 92.8379 85.23 93.04C85.4321 93.2412 85.6891 93.3782 85.9688 93.4337C86.2485 93.4892 86.5384 93.4608 86.802 93.352C87.0649 93.2426 87.2895 93.0579 87.4475 92.821C87.6056 92.5841 87.6899 92.3057 87.69 92.021C87.6903 91.8314 87.6532 91.6437 87.5808 91.4684C87.5084 91.2932 87.4021 91.134 87.268 91C86.9976 90.7301 86.631 90.5787 86.249 90.579C85.9642 90.5788 85.6857 90.6632 85.449 90.8215C85.2122 90.9797 85.0277 91.2058 84.919 91.469ZM76.275 79.944C76.1663 80.207 76.1379 80.4963 76.1932 80.7755C76.2485 81.0547 76.3852 81.3113 76.586 81.513C76.7877 81.7148 77.0446 81.8523 77.3244 81.9082C77.6042 81.9641 77.8943 81.9358 78.158 81.827C78.4211 81.7177 78.6459 81.5327 78.804 81.2957C78.962 81.0586 79.0463 80.7799 79.046 80.495C79.0466 80.3059 79.0097 80.1186 78.9375 79.9438C78.8652 79.7691 78.759 79.6104 78.625 79.477C78.4914 79.3428 78.3326 79.2364 78.1577 79.1638C77.9828 79.0912 77.7953 79.0539 77.606 79.054C77.321 79.0536 77.0424 79.1379 76.8054 79.2962C76.5684 79.4545 76.3838 79.6806 76.275 79.944ZM93.563 71.3C93.4542 71.563 93.4257 71.8524 93.481 72.1316C93.5364 72.4108 93.6731 72.6674 93.874 72.869C94.0757 73.0708 94.3326 73.2083 94.6124 73.2642C94.8922 73.32 95.1823 73.2918 95.446 73.183C95.7091 73.0736 95.9339 72.8888 96.092 72.6517C96.25 72.4146 96.3343 72.136 96.334 71.851C96.3346 71.6619 96.2977 71.4745 96.2255 71.2998C96.1532 71.1251 96.047 70.9664 95.913 70.833C95.7794 70.6988 95.6206 70.5924 95.4457 70.5198C95.2708 70.4472 95.0833 70.4099 94.894 70.41C94.609 70.4099 94.3303 70.4945 94.0934 70.653C93.8565 70.8114 93.6719 71.0366 93.563 71.3ZM197.98 130.763L180.693 122.119C180.43 121.987 180.213 121.778 180.073 121.52C179.932 121.262 179.873 120.966 179.905 120.674C179.938 120.381 180.059 120.105 180.253 119.883C180.446 119.661 180.703 119.504 180.989 119.432L191.424 116.824V109.943L177.953 104.892C177.678 104.789 177.441 104.605 177.274 104.365C177.106 104.124 177.016 103.837 177.016 103.544V57.444C177.016 57.2114 177.073 56.9825 177.181 56.7765C177.289 56.5705 177.445 56.3937 177.636 56.261C177.827 56.1283 178.048 56.0438 178.278 56.0147C178.509 55.9856 178.744 56.0128 178.962 56.094L225.062 73.382C225.337 73.4843 225.574 73.6683 225.742 73.9092C225.91 74.1501 226 74.4365 226 74.73V120.83C226 121.063 225.943 121.292 225.835 121.498C225.727 121.704 225.571 121.88 225.38 122.013C225.189 122.146 224.968 122.23 224.737 122.259C224.506 122.287 224.272 122.26 224.054 122.178L202.943 114.266V120.831C202.943 120.986 202.919 121.141 202.87 121.288L199.989 129.932C199.924 130.128 199.818 130.307 199.677 130.458C199.536 130.609 199.365 130.728 199.174 130.806C198.999 130.879 198.811 130.916 198.621 130.916C198.398 130.915 198.179 130.863 197.98 130.763ZM194.301 117.952C194.302 118.273 194.195 118.586 193.998 118.84C193.8 119.093 193.524 119.274 193.212 119.352L185.466 121.288L197.784 127.447L200.065 120.6V113.19L194.301 111.028V117.952ZM179.895 102.547L223.116 118.754V116.069L179.895 99.86V102.547ZM179.895 96.783L223.116 112.991V75.731L179.895 59.523V96.783ZM129.472 119.392C129.187 119.392 128.909 119.306 128.672 119.148C128.436 118.989 128.251 118.763 128.143 118.5C128.034 118.237 128.006 117.947 128.061 117.667C128.116 117.388 128.253 117.131 128.454 116.929L133.794 111.589V104.981H109.304C108.922 104.981 108.556 104.83 108.285 104.561C108.016 104.29 107.864 103.924 107.864 103.542V57.442C107.864 57.2528 107.901 57.0654 107.973 56.8905C108.046 56.7156 108.152 56.5567 108.285 56.4228C108.419 56.2889 108.578 56.1826 108.753 56.11C108.927 56.0375 109.115 56.0001 109.304 56H172.691C173.073 56.0004 173.439 56.1517 173.71 56.421C173.98 56.6916 174.131 57.058 174.131 57.44V103.54C174.131 103.922 173.979 104.288 173.71 104.559C173.576 104.693 173.417 104.798 173.242 104.87C173.067 104.942 172.88 104.979 172.691 104.979H148.2V111.587L153.541 116.927C153.742 117.129 153.879 117.386 153.935 117.665C153.991 117.945 153.962 118.235 153.853 118.498C153.744 118.761 153.56 118.986 153.323 119.144C153.086 119.302 152.808 119.387 152.523 119.387L129.472 119.392ZM132.95 116.511H149.043L146.162 113.633H135.831L132.95 116.511ZM136.676 110.749H145.32V104.985H136.675L136.676 110.749ZM110.743 102.1H171.249V99.22H110.743V102.1ZM110.743 96.336H171.249V58.879H110.743V96.336ZM218.143 107.714L212.38 104.834C212.039 104.662 211.78 104.362 211.661 103.999C211.542 103.636 211.571 103.241 211.743 102.9C211.914 102.558 212.214 102.299 212.576 102.178C212.938 102.057 213.334 102.084 213.676 102.255L219.439 105.136C219.608 105.221 219.759 105.338 219.883 105.481C220.007 105.624 220.102 105.79 220.162 105.969C220.221 106.149 220.245 106.338 220.232 106.527C220.218 106.716 220.168 106.9 220.083 107.069C219.964 107.309 219.78 107.511 219.552 107.652C219.324 107.794 219.061 107.869 218.793 107.869C218.567 107.869 218.344 107.816 218.143 107.714ZM206.243 104.564C205.974 104.293 205.822 103.927 205.822 103.545V77.612C205.822 77.4229 205.86 77.2357 205.932 77.061C206.004 76.8864 206.111 76.7277 206.244 76.5941C206.378 76.4604 206.537 76.3545 206.712 76.2822C206.887 76.21 207.074 76.1728 207.263 76.173C207.452 76.1728 207.639 76.21 207.814 76.2822C207.989 76.3545 208.148 76.4604 208.282 76.5941C208.415 76.7277 208.522 76.8864 208.594 77.061C208.666 77.2357 208.704 77.4229 208.704 77.612V103.545C208.703 103.927 208.552 104.293 208.283 104.564C208.012 104.833 207.646 104.984 207.264 104.984C206.883 104.984 206.519 104.833 206.249 104.564H206.243ZM200.476 102.404C200.206 102.134 200.055 101.767 200.055 101.385V86.259C200.055 86.0697 200.092 85.8824 200.165 85.7076C200.237 85.5328 200.343 85.3739 200.477 85.2401C200.611 85.1062 200.77 85.0001 200.945 84.9277C201.119 84.8553 201.307 84.818 201.496 84.818C201.685 84.818 201.873 84.8553 202.047 84.9277C202.222 85.0001 202.381 85.1062 202.515 85.2401C202.649 85.3739 202.755 85.5328 202.827 85.7076C202.9 85.8824 202.937 86.0697 202.937 86.259V101.385C202.937 101.574 202.9 101.762 202.828 101.937C202.756 102.111 202.65 102.27 202.516 102.404C202.382 102.538 202.224 102.645 202.049 102.717C201.874 102.79 201.686 102.827 201.497 102.827C201.308 102.826 201.121 102.788 200.947 102.715C200.773 102.641 200.615 102.534 200.482 102.4L200.476 102.404ZM218.14 101.955L212.377 99.074C212.037 98.9012 211.779 98.6005 211.66 98.2377C211.541 97.8749 211.571 97.4797 211.743 97.139C211.914 96.7975 212.214 96.5379 212.576 96.4172C212.939 96.2964 213.334 96.3244 213.676 96.495L219.439 99.376C219.608 99.4603 219.759 99.5773 219.883 99.72C220.007 99.8628 220.102 100.029 220.161 100.208C220.221 100.387 220.245 100.577 220.232 100.765C220.218 100.954 220.168 101.138 220.083 101.307C219.963 101.547 219.779 101.749 219.551 101.891C219.323 102.032 219.06 102.107 218.792 102.107C218.567 102.108 218.344 102.055 218.143 101.954L218.14 101.955ZM194.717 100.244C194.583 100.111 194.476 99.952 194.404 99.7773C194.331 99.6026 194.294 99.4152 194.294 99.226V71.854C194.294 71.6639 194.331 71.4757 194.404 71.3001C194.477 71.1245 194.583 70.9651 194.718 70.8309C194.853 70.6968 195.013 70.5906 195.189 70.5186C195.365 70.4465 195.553 70.41 195.743 70.411C195.932 70.4111 196.119 70.4486 196.294 70.5211C196.469 70.5937 196.628 70.6999 196.761 70.8338C196.895 70.9677 197.001 71.1267 197.073 71.3016C197.145 71.4764 197.182 71.6638 197.182 71.853V99.225C197.182 99.4142 197.145 99.6015 197.072 99.7762C197 99.951 196.893 100.11 196.759 100.243C196.626 100.377 196.467 100.483 196.293 100.556C196.119 100.628 195.932 100.666 195.743 100.666C195.554 100.666 195.366 100.629 195.191 100.557C195.017 100.484 194.858 100.378 194.724 100.244H194.717ZM188.953 98.084C188.82 97.95 188.714 97.7911 188.642 97.6163C188.57 97.4414 188.533 97.2541 188.533 97.065V80.5C188.533 80.3108 188.57 80.1234 188.642 79.9485C188.714 79.7737 188.82 79.6148 188.954 79.4808C189.087 79.3469 189.246 79.2406 189.421 79.1681C189.596 79.0955 189.783 79.0581 189.972 79.058C190.161 79.058 190.349 79.0953 190.524 79.1678C190.699 79.2403 190.857 79.3465 190.991 79.4804C191.125 79.6143 191.231 79.7733 191.304 79.9482C191.376 80.1232 191.413 80.3107 191.413 80.5V97.067C191.413 97.4491 191.262 97.8156 190.992 98.086C190.722 98.3559 190.355 98.5073 189.973 98.507C189.593 98.5044 189.229 98.3521 188.96 98.083L188.953 98.084ZM218.143 96.192L212.38 93.311C212.039 93.1387 211.781 92.8384 211.661 92.4758C211.542 92.1132 211.571 91.718 211.743 91.377C211.914 91.0357 212.214 90.7763 212.577 90.6559C212.939 90.5356 213.334 90.564 213.676 90.735L219.439 93.615C219.781 93.786 220.04 94.0857 220.161 94.4482C220.282 94.8107 220.254 95.2062 220.083 95.548C219.964 95.7881 219.78 95.9903 219.552 96.1317C219.324 96.273 219.061 96.3479 218.793 96.348C218.567 96.3478 218.344 96.2944 218.143 96.192ZM183.193 95.919C182.924 95.6482 182.772 95.2819 182.772 94.9V86.256C182.772 85.8738 182.924 85.5073 183.194 85.2371C183.464 84.9668 183.831 84.815 184.213 84.815C184.595 84.815 184.962 84.9668 185.232 85.2371C185.502 85.5073 185.654 85.8738 185.654 86.256V94.9C185.654 95.0892 185.617 95.2767 185.545 95.4515C185.473 95.6264 185.367 95.7853 185.233 95.919C184.963 96.1889 184.596 96.3403 184.214 96.34C183.833 96.3392 183.467 96.1879 183.197 95.919H183.193ZM121.141 88.819C119.67 87.3483 118.503 85.6023 117.707 83.6805C116.911 81.7588 116.501 79.6991 116.501 77.619C116.5 75.5372 116.91 73.4755 117.707 71.5521C118.503 69.6286 119.671 67.881 121.143 66.409C124.115 63.4376 128.146 61.7683 132.349 61.768C136.55 61.7747 140.577 63.4456 143.549 66.415C146.52 69.3859 148.191 73.4137 148.196 77.615C148.195 81.816 146.526 85.8446 143.555 88.815C142.084 90.287 140.337 91.4546 138.414 92.2513C136.491 93.0479 134.43 93.458 132.349 93.458C128.146 93.4588 124.115 91.7901 121.143 88.819H121.141ZM128.668 90.045C130.603 90.6188 132.645 90.7328 134.632 90.3777C136.618 90.0227 138.495 89.2085 140.111 88C141.728 86.7931 143.041 85.2253 143.945 83.4215C144.849 81.6177 145.319 79.6277 145.318 77.61C145.318 77.198 145.297 76.792 145.259 76.389L142.415 76.981C142.428 77.19 142.437 77.398 142.437 77.61C142.437 79.1518 142.083 80.6731 141.403 82.0569C140.723 83.4406 139.735 84.65 138.514 85.592C137.294 86.5346 135.874 87.1848 134.363 87.4926C132.853 87.8003 131.291 87.7573 129.8 87.367L128.668 90.045ZM121.12 84.087C122.289 86.1076 123.979 87.7776 126.013 88.923L127.143 86.249C125.777 85.4211 124.625 84.283 123.781 82.927L121.12 84.087ZM127.254 72.523C126.585 73.1916 126.054 73.9854 125.692 74.8591C125.33 75.7328 125.144 76.6693 125.144 77.615C125.146 79.5242 125.905 81.3547 127.255 82.705C128.605 84.0561 130.437 84.816 132.347 84.818C133.293 84.8181 134.23 84.6318 135.103 84.2697C135.977 83.9077 136.771 83.377 137.44 82.708C138.109 82.0393 138.64 81.2453 139.002 80.3715C139.364 79.4976 139.55 78.5609 139.55 77.615C139.55 76.6693 139.364 75.7328 139.002 74.8591C138.64 73.9854 138.109 73.1916 137.44 72.523C136.771 71.8538 135.977 71.3229 135.104 70.9607C134.23 70.5985 133.293 70.412 132.347 70.412C130.438 70.4131 128.607 71.1725 127.258 72.523H127.254ZM119.381 77.615C119.379 78.9151 119.574 80.2081 119.959 81.45L122.623 80.288C122.124 78.4735 122.143 76.5553 122.678 74.751C123.214 72.9475 124.244 71.3301 125.652 70.082L124.052 67.657C122.591 68.8726 121.416 70.395 120.609 72.116C119.803 73.837 119.385 75.7144 119.386 77.615H119.381ZM138.481 69.622C140.002 70.7894 141.16 72.3653 141.82 74.166L144.659 73.574C143.798 70.9649 142.133 68.6957 139.902 67.092L138.481 69.622ZM126.463 66.068L128.063 68.49C129.295 67.9087 130.632 67.5839 131.993 67.5353C133.355 67.4866 134.712 67.7151 135.982 68.207L137.406 65.674C135.808 64.9964 134.09 64.6478 132.355 64.649H132.343C130.298 64.6493 128.283 65.1357 126.463 66.068ZM158.283 90.582C158.094 90.5821 157.906 90.545 157.731 90.4726C157.557 90.4002 157.398 90.2941 157.264 90.1602C157.13 90.0264 157.024 89.8675 156.951 89.6926C156.879 89.5177 156.842 89.3303 156.842 89.141C156.842 88.9517 156.879 88.7643 156.951 88.5894C157.024 88.4145 157.13 88.2556 157.264 88.1218C157.398 87.9879 157.557 87.8818 157.731 87.8094C157.906 87.7371 158.094 87.6999 158.283 87.7H164.043C164.232 87.7 164.419 87.7373 164.594 87.8098C164.769 87.8822 164.928 87.9884 165.061 88.1222C165.195 88.256 165.301 88.4149 165.373 88.5897C165.445 88.7645 165.482 88.9519 165.482 89.141C165.482 89.3301 165.445 89.5175 165.373 89.6923C165.301 89.8671 165.195 90.026 165.061 90.1598C164.928 90.2936 164.769 90.3998 164.594 90.4723C164.419 90.5447 164.232 90.582 164.043 90.582H158.283ZM218.146 90.426L212.383 87.545C212.214 87.4603 212.063 87.3431 211.94 87.2001C211.816 87.0571 211.722 86.8911 211.662 86.7117C211.603 86.5322 211.579 86.3428 211.593 86.1543C211.607 85.9658 211.658 85.7818 211.743 85.613C211.827 85.4436 211.945 85.2926 212.087 85.1685C212.23 85.0443 212.396 84.9496 212.576 84.8896C212.755 84.8296 212.945 84.8056 213.134 84.8188C213.322 84.8321 213.507 84.8825 213.676 84.967L219.439 87.848C219.608 87.9326 219.759 88.0497 219.883 88.1926C220.007 88.3356 220.102 88.5015 220.162 88.681C220.221 88.8606 220.245 89.0501 220.232 89.2388C220.218 89.4276 220.168 89.6118 220.083 89.781C219.963 90.0212 219.779 90.2232 219.551 90.3646C219.323 90.5059 219.06 90.5808 218.792 90.581C218.566 90.5811 218.344 90.528 218.143 90.426H218.146ZM218.146 84.666L212.383 81.785C212.042 81.6133 211.783 81.3133 211.663 80.9509C211.543 80.5885 211.572 80.1932 211.743 79.852C211.828 79.6827 211.945 79.5318 212.088 79.4078C212.231 79.2838 212.397 79.1892 212.576 79.1294C212.756 79.0696 212.945 79.0457 213.134 79.0592C213.323 79.0727 213.507 79.1233 213.676 79.208L219.439 82.088C219.781 82.259 220.04 82.5587 220.161 82.9211C220.282 83.2836 220.254 83.6793 220.083 84.021C219.963 84.2611 219.779 84.4631 219.551 84.6044C219.322 84.7457 219.059 84.8207 218.791 84.821C218.566 84.8213 218.344 84.7685 218.143 84.667L218.146 84.666ZM152.521 84.817C152.139 84.817 151.772 84.6652 151.502 84.395C151.231 84.1248 151.079 83.7582 151.079 83.376C151.08 82.994 151.232 82.6278 151.502 82.358C151.773 82.0881 152.139 81.9367 152.521 81.937H164.043C164.425 81.937 164.791 82.0886 165.061 82.3585C165.33 82.6283 165.482 82.9943 165.482 83.376C165.482 83.5651 165.445 83.7525 165.373 83.9273C165.301 84.1021 165.195 84.261 165.061 84.3948C164.928 84.5287 164.769 84.6348 164.594 84.7073C164.419 84.7797 164.232 84.817 164.043 84.817H152.521ZM155.402 79.054C155.213 79.0541 155.025 79.017 154.851 78.9447C154.676 78.8724 154.517 78.7663 154.383 78.6326C154.249 78.4988 154.143 78.3401 154.071 78.1653C153.998 77.9905 153.961 77.8032 153.961 77.614C153.961 77.4247 153.998 77.2373 154.07 77.0624C154.143 76.8875 154.249 76.7286 154.383 76.5948C154.517 76.461 154.676 76.3548 154.85 76.2824C155.025 76.21 155.213 76.1728 155.402 76.173H164.043C164.232 76.1731 164.419 76.2105 164.594 76.283C164.769 76.3555 164.927 76.4616 165.061 76.5955C165.195 76.7293 165.301 76.8881 165.373 77.0629C165.445 77.2376 165.482 77.4249 165.482 77.614C165.482 77.9958 165.33 78.3619 165.061 78.6319C164.791 78.9019 164.425 79.0538 164.043 79.054H155.402ZM152.521 73.293C152.139 73.293 151.772 73.1412 151.502 72.871C151.231 72.6008 151.079 72.2343 151.079 71.852C151.079 71.4696 151.231 71.103 151.502 70.8326C151.772 70.5623 152.139 70.4102 152.521 70.41H164.043C164.232 70.4101 164.419 70.4475 164.594 70.5201C164.769 70.5926 164.928 70.6989 165.061 70.8328C165.195 70.9667 165.301 71.1257 165.373 71.3005C165.445 71.4754 165.482 71.6628 165.482 71.852C165.482 72.0411 165.445 72.2284 165.373 72.4031C165.301 72.5779 165.195 72.7367 165.061 72.8705C164.927 73.0044 164.769 73.1105 164.594 73.183C164.419 73.2555 164.232 73.2929 164.043 73.293H152.521ZM155.402 67.529C155.213 67.5291 155.025 67.4919 154.85 67.4196C154.676 67.3472 154.517 67.2411 154.383 67.1072C154.249 66.9734 154.143 66.8145 154.07 66.6396C153.998 66.4647 153.961 66.2773 153.961 66.088C153.961 65.8987 153.998 65.7113 154.07 65.5364C154.143 65.3615 154.249 65.2026 154.383 65.0688C154.517 64.935 154.676 64.8288 154.85 64.7564C155.025 64.684 155.213 64.6468 155.402 64.647H164.043C164.232 64.6471 164.419 64.6845 164.594 64.757C164.769 64.8295 164.927 64.9356 165.061 65.0695C165.195 65.2033 165.301 65.3621 165.373 65.5369C165.445 65.7116 165.482 65.8989 165.482 66.088C165.482 66.2772 165.445 66.4646 165.373 66.6395C165.301 66.8143 165.195 66.9733 165.061 67.1072C164.928 67.2411 164.769 67.3474 164.594 67.4199C164.419 67.4925 164.232 67.5299 164.043 67.53L155.402 67.529Z" fill="black"/>
</svg>
