<svg width="238" height="199" viewBox="0 0 238 199" fill="none" xmlns="http://www.w3.org/2000/svg">
<g clip-path="url(#clip0_1154_1529)">
<path d="M71.4741 2.35815C46.9482 -3.66638 -5.78918 23.222 14.6547 72.4528C21.6158 89.2164 38.6508 96.6797 52.3597 107.578C75.2563 125.784 83.7775 152.09 99.9582 174.398C119.299 201.056 144.363 201.423 160.068 191.272C182.184 176.996 177.601 150.125 184.93 130.793C189.068 119.883 197.173 111.065 206.563 102.673C216.608 93.7109 227.369 84.7479 232.861 73.2131C244.766 48.2074 225.322 20.2539 191.358 24.876C177.498 26.7622 164.3 32.3803 150.271 32.3996C109.053 32.4535 93.5304 7.77328 71.4741 2.35815Z" fill="#FFEDD4"/>
<path d="M204.048 137.626C211.155 139.04 220.532 124.777 216.245 121.242C211.953 117.708 196.946 136.218 204.048 137.626Z" fill="#FFEDD4"/>
<path d="M60.9909 140.029C65.3085 134.439 52.6758 124.257 47.0178 127.165C41.3654 130.077 56.6773 145.62 60.9909 140.029Z" fill="#FFEDD4"/>
<path d="M65.7831 167.843C69.1957 163.423 59.2093 155.374 54.7372 157.672C50.2697 159.976 62.3725 172.263 65.7831 167.843Z" fill="#FFEDD4"/>
<path d="M4.91053 78.8048C0.230057 63.216 4.42141 50.4179 9.6094 41.6539C20.8536 22.6593 43.1437 11.9224 57.3459 12.8643C65.8397 13.4276 73.9251 16.735 82.4866 20.2385C97.4462 26.3587 114.403 33.2968 139.782 28.7877C147.856 27.3515 155.529 23.938 162.948 20.6375C168.038 18.3738 173.3 16.0316 178.733 14.2931C194.87 9.12798 210.668 11.9661 220.994 21.886C230.202 30.7329 233.569 43.7156 230.003 56.6127C226.786 68.2421 218.741 78.3847 210.961 88.1913L208.938 90.7487C202.249 99.2433 195.104 109.541 192.827 121.516C191.645 127.732 191.715 134.418 191.79 141.497C191.955 157.229 192.125 173.495 178.368 186.254C163.67 199.902 138.087 203.278 114.071 180.053C107.205 173.412 101.087 166.064 95.171 158.957C83.537 144.981 72.5486 131.782 55.9354 122.766C51.9713 120.614 47.7391 118.689 43.6451 116.827C31.8232 111.45 19.5984 105.888 12.1266 94.1826C8.69761 88.8114 6.37124 83.6709 4.91053 78.8048ZM226.912 37.4022C225.419 32.4299 222.685 27.8883 218.807 24.1631C209.331 15.0584 194.71 12.4925 179.694 17.2992C174.425 18.985 169.243 21.2917 164.23 23.5211C156.638 26.8985 148.787 30.3915 140.334 31.894C114.053 36.5642 96.6471 29.4417 81.2901 23.1593C72.9735 19.7558 65.1187 16.5428 57.1363 16.0131C43.8649 15.1308 22.9593 25.2985 12.3253 43.2614C5.96782 53.999 1.23318 71.2579 14.787 92.4848C21.7559 103.404 33.0227 108.529 44.9518 113.954C49.0945 115.84 53.3791 117.789 57.4404 119.992C74.5858 129.297 86.2841 143.35 97.596 156.938C103.459 163.981 109.52 171.261 116.263 177.784C138.796 199.574 162.612 196.576 176.22 183.941C188.954 172.131 188.79 156.574 188.633 141.53C188.561 134.61 188.485 127.452 189.726 120.927C192.13 108.286 199.533 97.59 206.457 88.7959L208.488 86.2313C216.072 76.6704 223.914 66.7835 226.96 55.7728C228.703 49.4669 228.636 43.147 226.912 37.4022Z" fill="#FFEDD4"/>
<path d="M176.657 180.576C175.154 180.156 173.753 179.437 172.537 178.46C171.321 177.484 170.315 176.271 169.581 174.895L152.093 142.103V179.56C152.092 179.941 151.94 180.307 151.67 180.576C151.4 180.846 151.034 180.997 150.653 180.997C150.463 180.997 150.276 180.96 150.101 180.888C149.926 180.816 149.767 180.71 149.633 180.576C149.499 180.443 149.393 180.284 149.321 180.109C149.248 179.935 149.211 179.747 149.211 179.558V136.337C149.21 136.015 149.318 135.703 149.516 135.449C149.714 135.196 149.99 135.015 150.303 134.937C150.614 134.859 150.943 134.888 151.236 135.018C151.53 135.149 151.771 135.374 151.923 135.657L157.572 146.248L172.812 138.674L165.012 124.366C163.897 122.32 162.251 120.613 160.247 119.425C158.244 118.235 155.957 117.607 153.628 117.609H90.0535C87.7241 117.609 85.4375 118.236 83.4345 119.425C81.4313 120.614 79.7859 122.321 78.6715 124.367L70.6955 138.99L86.0955 146.263L91.7505 135.663C91.9021 135.38 92.1438 135.155 92.4374 135.025C92.731 134.894 93.0597 134.866 93.3715 134.943C93.6833 135.021 93.9601 135.202 94.1577 135.456C94.3554 135.709 94.4626 136.022 94.4625 136.343V178.123H144.887C145.076 178.123 145.263 178.161 145.437 178.233C145.612 178.306 145.771 178.412 145.904 178.546C146.038 178.679 146.144 178.838 146.216 179.013C146.289 179.188 146.326 179.375 146.326 179.564C146.324 179.945 146.171 180.309 145.902 180.577C145.632 180.846 145.267 180.997 144.887 180.997H93.0245C92.6422 180.997 92.2757 180.845 92.0055 180.574C91.738 180.304 91.5875 179.94 91.5865 179.56V142.103L74.0945 174.897C73.1127 176.742 71.6474 178.286 69.8555 179.362C68.0619 180.435 66.0104 181 63.9205 180.997C58.2545 180.997 53.7365 177.143 52.4105 171.178L38.0485 108.497C37.9027 107.864 37.9017 107.205 38.0458 106.571C38.1899 105.938 38.4752 105.344 38.8805 104.836C39.2855 104.327 39.8 103.917 40.3857 103.634C40.9715 103.352 41.6133 103.206 42.2635 103.206H56.5185C57.4963 103.203 58.4461 103.532 59.2113 104.141C59.9764 104.75 60.5113 105.601 60.7275 106.555L62.9605 116.222C63.9492 115.52 65.1332 115.147 66.3455 115.154C67.4419 115.147 68.5179 115.45 69.4505 116.026C70.3829 116.602 71.1356 117.427 71.6235 118.408C71.7413 118.643 71.7926 118.905 71.7718 119.167C71.751 119.429 71.6589 119.68 71.5055 119.893L65.6795 128.008L67.1855 134.532C67.2711 134.905 67.2054 135.296 67.0028 135.621C66.8001 135.945 66.4771 136.176 66.1045 136.262C65.7318 136.348 65.3403 136.282 65.0161 136.079C64.6919 135.876 64.4615 135.553 64.3755 135.18L62.7235 128.022C62.6778 127.822 62.6752 127.615 62.7157 127.414C62.7562 127.213 62.839 127.023 62.9585 126.857L68.5865 119.019C68.3028 118.707 67.9568 118.458 67.5708 118.288C67.1847 118.118 66.7673 118.031 66.3455 118.032C65.9317 118.03 65.5221 118.116 65.1432 118.282C64.7642 118.448 64.4244 118.692 64.1455 118.998L63.1945 120.03C63.0165 120.222 62.7896 120.362 62.538 120.435C62.2864 120.508 62.0197 120.511 61.7665 120.444C61.513 120.377 61.2826 120.242 61.1003 120.053C60.9179 119.864 60.7904 119.63 60.7315 119.374L57.9225 107.199C57.8504 106.882 57.6727 106.598 57.4183 106.395C57.164 106.191 56.8481 106.08 56.5225 106.08H42.2615C42.0446 106.081 41.8307 106.13 41.6354 106.224C41.4402 106.318 41.2686 106.455 41.1335 106.625C40.9984 106.795 40.9033 106.993 40.8553 107.204C40.8074 107.416 40.8078 107.636 40.8565 107.847L55.2215 170.547C56.0365 174.211 58.7485 178.117 63.9215 178.117C65.4896 178.117 67.0284 177.692 68.3735 176.886C69.718 176.079 70.8174 174.921 71.5535 173.536L84.7415 148.808L69.3125 141.522L59.1865 160.078C59.096 160.244 58.9736 160.391 58.8264 160.51C58.6792 160.628 58.5101 160.717 58.3286 160.77C58.1472 160.824 57.957 160.841 57.7689 160.821C57.5808 160.801 57.3986 160.744 57.2325 160.653C56.8975 160.47 56.6488 160.161 56.541 159.795C56.4332 159.429 56.4751 159.035 56.6575 158.699L76.1365 122.989C77.4985 120.488 79.5103 118.402 81.9595 116.949C84.4077 115.495 87.2028 114.727 90.0505 114.727H114.636V111.352C112.951 110.755 111.492 109.651 110.461 108.192C109.429 106.733 108.874 104.991 108.872 103.204V93.1191C108.872 93.0931 108.88 93.0671 108.88 93.0411C107.098 91.6906 105.654 89.9451 104.662 87.942C103.669 85.9388 103.155 83.7326 103.16 81.4971L103.174 78.7071C103.175 78.3267 103.328 77.9624 103.597 77.6941C103.867 77.4257 104.232 77.2751 104.613 77.2751H119.562C121.423 77.2757 123.259 77.697 124.933 78.5072C126.608 79.3175 128.078 80.4957 129.233 81.954C130.388 83.4127 131.199 85.1138 131.603 86.9301C132.008 88.7464 131.997 90.6308 131.571 92.4421L129.041 103.19V114.732H153.623C156.47 114.731 159.265 115.498 161.714 116.952C164.162 118.406 166.173 120.492 167.536 122.992L187.044 158.756C187.134 158.922 187.191 159.104 187.212 159.292C187.232 159.481 187.215 159.671 187.161 159.852C187.108 160.034 187.019 160.203 186.9 160.35C186.781 160.497 186.635 160.62 186.469 160.71C186.302 160.801 186.12 160.858 185.932 160.878C185.744 160.898 185.554 160.881 185.372 160.827C185.191 160.774 185.022 160.685 184.875 160.567C184.727 160.448 184.605 160.301 184.515 160.135L174.193 141.209L158.928 148.797L172.128 173.542C172.679 174.574 173.433 175.483 174.346 176.216C175.258 176.948 176.31 177.487 177.437 177.802C178.564 178.116 179.744 178.198 180.904 178.043C182.064 177.888 183.181 177.5 184.188 176.902C185.193 176.304 186.066 175.508 186.756 174.563C187.445 173.617 187.935 172.542 188.198 171.402L202.823 107.855C202.871 107.644 202.871 107.424 202.823 107.213C202.775 107.001 202.68 106.803 202.546 106.633C202.41 106.463 202.239 106.326 202.044 106.232C201.848 106.138 201.634 106.089 201.418 106.088H187.159C186.833 106.088 186.517 106.198 186.263 106.401C186.008 106.604 185.831 106.888 185.758 107.205L182.95 119.38C182.89 119.635 182.762 119.869 182.58 120.057C182.398 120.245 182.168 120.38 181.915 120.447C181.661 120.514 181.395 120.511 181.143 120.438C180.891 120.366 180.664 120.225 180.487 120.033L179.536 118.997C179.256 118.692 178.917 118.448 178.538 118.281C178.159 118.115 177.749 118.03 177.336 118.031C176.914 118.029 176.496 118.116 176.11 118.286C175.724 118.456 175.379 118.705 175.096 119.018L180.721 126.854C180.84 127.021 180.923 127.211 180.963 127.412C181.004 127.613 181.001 127.82 180.954 128.02L179.611 133.836C179.568 134.021 179.489 134.195 179.38 134.349C179.27 134.503 179.13 134.634 178.97 134.734C178.809 134.834 178.63 134.902 178.444 134.933C178.257 134.964 178.066 134.958 177.882 134.915C177.697 134.873 177.522 134.795 177.367 134.685C177.213 134.575 177.082 134.436 176.982 134.275C176.881 134.115 176.813 133.936 176.782 133.749C176.751 133.562 176.757 133.371 176.801 133.187L178.001 128.007L172.174 119.892C172.021 119.679 171.929 119.428 171.908 119.166C171.887 118.904 171.938 118.642 172.056 118.407C172.544 117.426 173.296 116.601 174.229 116.025C175.162 115.449 176.238 115.146 177.336 115.152C178.547 115.147 179.731 115.521 180.72 116.221L182.952 106.554C183.168 105.6 183.703 104.749 184.468 104.14C185.233 103.531 186.184 103.201 187.161 103.205H201.411C202.061 103.205 202.703 103.351 203.289 103.634C203.875 103.916 204.39 104.327 204.796 104.836C205.201 105.345 205.486 105.939 205.629 106.573C205.773 107.208 205.772 107.866 205.626 108.5L191.001 172.048C190.651 173.568 189.997 175.002 189.078 176.262C188.159 177.522 186.993 178.583 185.653 179.38C183.868 180.441 181.829 181.001 179.753 181C178.706 181 177.665 180.857 176.657 180.576ZM117.517 114.729H126.16V104.644H116.076C115.887 104.644 115.7 104.607 115.525 104.534C115.35 104.462 115.191 104.356 115.058 104.222C114.924 104.088 114.818 103.929 114.745 103.755C114.673 103.58 114.636 103.392 114.636 103.203C114.636 103.014 114.673 102.826 114.745 102.652C114.818 102.477 114.924 102.318 115.058 102.184C115.191 102.05 115.35 101.944 115.525 101.872C115.7 101.799 115.887 101.762 116.076 101.762C116.673 101.762 117.246 101.524 117.668 101.102C118.09 100.68 118.327 100.108 118.327 99.511V98.183C118.327 97.5862 118.09 97.014 117.668 96.592C117.246 96.17 116.673 95.9326 116.076 95.9321C116.015 95.932 115.954 95.9277 115.894 95.9191C114.464 95.7357 113.069 95.3418 111.755 94.7501V103.202C111.756 104.73 112.363 106.195 113.445 107.275C114.524 108.356 115.989 108.964 117.518 108.965C118.354 108.966 119.186 108.846 119.988 108.607C120.354 108.498 120.749 108.539 121.085 108.721C121.421 108.903 121.671 109.211 121.781 109.577C121.889 109.943 121.848 110.338 121.666 110.674C121.484 111.009 121.176 111.26 120.811 111.369C119.742 111.687 118.632 111.848 117.518 111.846L117.517 114.729ZM106.043 81.5071C106.046 84.333 107.077 87.0613 108.943 89.1841C110.806 91.3079 113.378 92.6825 116.18 93.0521C117.522 93.0805 118.801 93.6336 119.741 94.5928C120.681 95.5519 121.208 96.841 121.21 98.1841V99.5121C121.211 100.292 121.033 101.063 120.688 101.763H126.418L128.767 91.7761C129.093 90.3878 129.102 88.9435 128.792 87.5514C128.482 86.1593 127.861 84.8553 126.976 83.7371C126.09 82.6192 124.963 81.716 123.68 81.095C122.396 80.474 120.989 80.1513 119.562 80.1511H106.048L106.043 81.5071ZM54.5345 119.397L52.3725 110.753C52.3263 110.569 52.3169 110.379 52.3447 110.191C52.3725 110.004 52.437 109.824 52.5345 109.662C52.7306 109.334 53.0489 109.097 53.4195 109.004C53.6032 108.958 53.7942 108.949 53.9814 108.977C54.1687 109.005 54.3485 109.07 54.5105 109.168C54.8385 109.364 55.0752 109.683 55.1685 110.053L57.3285 118.697C57.3746 118.881 57.3841 119.072 57.3563 119.259C57.3285 119.446 57.264 119.626 57.1665 119.788C57.0695 119.951 56.9413 120.092 56.7892 120.205C56.6371 120.318 56.4642 120.399 56.2805 120.445C56.1657 120.474 56.0478 120.488 55.9295 120.488C55.6087 120.488 55.2972 120.38 55.0445 120.182C54.7917 119.985 54.6123 119.708 54.5345 119.397ZM47.3345 119.397L45.1725 110.753C45.1263 110.569 45.1169 110.379 45.1447 110.191C45.1725 110.004 45.237 109.824 45.3345 109.662C45.5306 109.334 45.8489 109.097 46.2195 109.004C46.4033 108.958 46.5945 108.949 46.7819 108.977C46.9693 109.005 47.1493 109.07 47.3115 109.168C47.6389 109.365 47.8751 109.683 47.9685 110.053L50.1285 118.697C50.1746 118.881 50.1841 119.072 50.1563 119.259C50.1285 119.446 50.064 119.626 49.9665 119.788C49.8696 119.951 49.7415 120.092 49.5896 120.205C49.4377 120.318 49.265 120.399 49.0815 120.445C48.9667 120.474 48.8488 120.488 48.7305 120.488C48.4088 120.489 48.096 120.382 47.8423 120.184C47.5885 119.986 47.4083 119.709 47.3305 119.397H47.3345ZM193.821 119.934C193.685 119.761 193.591 119.56 193.546 119.346C193.5 119.131 193.504 118.909 193.558 118.696L195.72 110.053C195.812 109.682 196.048 109.364 196.376 109.167C196.703 108.97 197.096 108.912 197.467 109.004C197.65 109.05 197.823 109.131 197.975 109.244C198.127 109.356 198.255 109.498 198.353 109.66C198.45 109.822 198.515 110.002 198.543 110.189C198.571 110.376 198.561 110.567 198.516 110.75L196.35 119.397C196.272 119.709 196.092 119.987 195.838 120.185C195.584 120.383 195.271 120.49 194.95 120.489C194.731 120.489 194.516 120.44 194.32 120.344C194.124 120.249 193.952 120.11 193.818 119.938L193.821 119.934ZM186.62 119.934C186.485 119.761 186.391 119.56 186.346 119.346C186.3 119.131 186.304 118.909 186.358 118.696L188.52 110.053C188.612 109.682 188.848 109.364 189.176 109.167C189.503 108.97 189.896 108.912 190.267 109.004C190.45 109.05 190.623 109.131 190.774 109.244C190.926 109.357 191.055 109.498 191.152 109.66C191.249 109.822 191.313 110.002 191.341 110.189C191.369 110.376 191.359 110.567 191.314 110.75L189.146 119.397C189.069 119.709 188.889 119.987 188.635 120.185C188.381 120.383 188.068 120.49 187.747 120.489C187.528 120.489 187.313 120.44 187.116 120.344C186.92 120.249 186.748 120.11 186.614 119.938L186.62 119.934ZM133.372 108.964C132.989 108.964 132.623 108.812 132.352 108.542C132.082 108.272 131.93 107.905 131.93 107.523C131.93 107.141 132.082 106.774 132.352 106.504C132.623 106.234 132.989 106.082 133.372 106.081H134.812V103.2H133.365C133.175 103.2 132.988 103.163 132.813 103.091C132.638 103.018 132.479 102.912 132.345 102.778C132.211 102.645 132.105 102.486 132.032 102.311C131.96 102.136 131.923 101.948 131.923 101.759C131.923 101.377 132.075 101.011 132.346 100.741C132.616 100.471 132.982 100.32 133.365 100.32H134.806V97.4391H133.365C132.982 97.4386 132.616 97.2864 132.345 97.0161C132.075 96.7458 131.923 96.3794 131.923 95.9971C131.923 95.6148 132.075 95.2483 132.345 94.9781C132.616 94.7079 132.982 94.5561 133.365 94.5561H134.806V85.912H133.365C133.175 85.9122 132.988 85.875 132.813 85.8027C132.638 85.7303 132.479 85.6242 132.345 85.4904C132.211 85.3565 132.105 85.1977 132.032 85.0228C131.96 84.8479 131.923 84.6604 131.923 84.4711C131.923 84.0889 132.075 83.7225 132.345 83.4523C132.616 83.1822 132.982 83.0304 133.365 83.0301H165.059C165.44 83.0311 165.807 83.1828 166.077 83.4521C166.347 83.7229 166.498 84.0893 166.497 84.4711V107.523C166.498 107.905 166.347 108.271 166.077 108.541C165.807 108.811 165.441 108.963 165.059 108.964H133.372ZM137.687 106.097H140.568V103.216H137.687V106.097ZM143.451 106.097H146.332V103.217H143.448L143.451 106.097ZM149.214 106.097H152.087V103.216H149.211L149.214 106.097ZM154.978 106.097H157.859V103.217H154.975L154.978 106.097ZM160.741 106.097H163.622V103.216H160.737L160.741 106.097ZM137.687 100.331H140.568V97.451H137.687V100.331ZM143.451 100.331H146.332V97.4501H143.448L143.451 100.331ZM149.214 100.331H152.087V97.451H149.211L149.214 100.331ZM154.978 100.331H157.859V97.4501H154.975L154.978 100.331ZM160.741 100.331H163.622V97.4501H160.737L160.741 100.331ZM137.687 94.5681H140.568V91.6871H137.687V94.5681ZM143.451 94.5681H146.332V91.688H143.448L143.451 94.5681ZM149.214 94.5681H152.087V91.6871H149.211L149.214 94.5681ZM154.978 94.5681H157.859V91.6871H154.975L154.978 94.5681ZM160.741 94.5681H163.622V91.688H160.737L160.741 94.5681ZM137.687 88.8041H140.568V85.9241H137.687V88.8041ZM143.451 88.8041H146.332V85.9231H143.448L143.451 88.8041ZM149.214 88.8041H152.087V85.9241H149.211L149.214 88.8041ZM154.978 88.8041H157.859V85.9231H154.975L154.978 88.8041ZM160.741 88.8041H163.622V85.9231H160.737L160.741 88.8041ZM78.6195 108.965C78.4302 108.965 78.2427 108.928 78.0678 108.855C77.893 108.783 77.7341 108.676 77.6005 108.542C77.4665 108.408 77.3602 108.25 77.2877 108.075C77.2151 107.901 77.1776 107.713 77.1775 107.524V84.4741C77.1774 84.2847 77.2146 84.0972 77.287 83.9222C77.3595 83.7473 77.4657 83.5883 77.5996 83.4545C77.7336 83.3206 77.8926 83.2145 78.0676 83.1422C78.2426 83.0699 78.4301 83.0328 78.6195 83.0331H100.228C100.417 83.0328 100.604 83.0699 100.779 83.1422C100.954 83.2145 101.113 83.3207 101.247 83.4545C101.381 83.5884 101.487 83.7474 101.559 83.9223C101.632 84.0973 101.669 84.2848 101.669 84.4741C101.669 84.6632 101.631 84.8505 101.559 85.0252C101.486 85.1999 101.38 85.3587 101.246 85.4923C101.112 85.626 100.954 85.7319 100.779 85.8041C100.604 85.8763 100.417 85.9133 100.228 85.9131H97.3475V88.7941H101.669C102.051 88.7938 102.417 88.9452 102.688 89.2151C102.957 89.4855 103.109 89.852 103.109 90.2341V94.5551H104.549C104.739 94.5549 104.926 94.5921 105.101 94.6646C105.276 94.737 105.436 94.8432 105.569 94.9771C105.703 95.111 105.81 95.2701 105.882 95.4451C105.954 95.6201 105.992 95.8077 105.992 95.9971C105.991 96.3794 105.839 96.746 105.569 97.0164C105.298 97.2868 104.932 97.4388 104.549 97.4391H103.11V100.32H104.551C104.74 100.32 104.927 100.357 105.102 100.429C105.277 100.502 105.436 100.608 105.57 100.741C105.704 100.875 105.811 101.034 105.883 101.209C105.955 101.384 105.993 101.572 105.993 101.761C105.991 102.143 105.839 102.508 105.568 102.778C105.298 103.047 104.931 103.198 104.549 103.197H103.11V106.078H104.551C104.933 106.078 105.299 106.23 105.57 106.501C105.84 106.771 105.992 107.138 105.993 107.52C105.993 107.709 105.955 107.897 105.883 108.072C105.81 108.247 105.704 108.406 105.57 108.539C105.436 108.673 105.277 108.779 105.102 108.852C104.927 108.924 104.74 108.961 104.551 108.961L78.6195 108.965ZM80.0605 106.084H82.9405V103.203H80.0605V106.084ZM85.8235 106.084H88.7045V103.197H85.8235V106.084ZM91.5875 106.084H94.4675V103.204H91.5865L91.5875 106.084ZM97.3505 106.084H100.232V103.197H97.3495L97.3505 106.084ZM80.0615 100.327H82.9415V97.446H80.0615V100.327ZM85.8245 100.327H88.7055V97.4471H85.8245V100.327ZM91.5885 100.327H94.4685V97.446H91.5865L91.5885 100.327ZM97.3515 100.327H100.233V97.4471H97.3495L97.3515 100.327ZM80.0625 94.5701H82.9425V91.6891H80.0625V94.5701ZM85.8255 94.5701H88.7065V91.6891H85.8255V94.5701ZM91.5895 94.5701H94.4695V91.6901H91.5865L91.5895 94.5701ZM97.3525 94.5701H100.234V91.6891H97.3495L97.3525 94.5701ZM80.0605 88.7971H82.9405V85.9161H80.0605V88.7971ZM85.8235 88.7971H88.7045V85.9171H85.8235V88.7971ZM91.5875 88.7971H94.4675V85.9161H91.5865L91.5875 88.7971ZM176.872 108.397C175.745 106.903 175.138 105.081 175.143 103.21V97.4471C175.143 95.9294 175.542 94.4384 176.301 93.124C177.06 91.8096 178.151 90.718 179.465 89.959C180.78 89.2009 182.27 88.8018 183.787 88.8018C185.304 88.8018 186.794 89.2009 188.109 89.959C189.423 90.718 190.514 91.8096 191.273 93.124C192.031 94.4384 192.431 95.9294 192.431 97.4471V98.8881C192.431 99.0768 192.394 99.2638 192.322 99.4382C192.249 99.6126 192.143 99.7709 192.01 99.9041C191.876 100.038 191.717 100.145 191.542 100.217C191.367 100.29 191.18 100.327 190.991 100.327C190.801 100.327 190.614 100.29 190.439 100.217C190.264 100.145 190.105 100.038 189.972 99.9041C189.702 99.6344 189.551 99.2691 189.551 98.8881V97.4471C189.551 96.1695 189.127 94.9279 188.346 93.9171C187.562 92.9084 186.465 92.1884 185.229 91.8701V95.9971C185.229 96.3793 185.077 96.746 184.807 97.0164C184.536 97.2868 184.17 97.4388 183.788 97.4391C183.405 97.4391 183.038 97.2872 182.768 97.0167C182.497 96.7463 182.346 96.3795 182.346 95.9971V91.8651C181.11 92.1851 180.015 92.9062 179.234 93.9151C178.452 94.9236 178.027 96.1631 178.026 97.4391V103.2C178.02 104.448 178.425 105.662 179.176 106.658C179.406 106.963 179.504 107.347 179.45 107.726C179.397 108.104 179.195 108.445 178.89 108.674C178.64 108.861 178.336 108.962 178.025 108.962C177.801 108.963 177.58 108.912 177.38 108.812C177.179 108.713 177.005 108.568 176.87 108.389L176.872 108.397ZM63.6585 85.8071C63.4679 85.7281 63.2965 85.6092 63.1559 85.4582C63.0153 85.3072 62.9087 85.1278 62.8435 84.9321L59.9625 76.2881C59.9137 76.1407 59.8891 75.9863 59.8895 75.8311V69.2661L38.7865 77.1811C38.5689 77.2628 38.3348 77.2904 38.1042 77.2617C37.8736 77.2329 37.6534 77.1486 37.4625 77.0161C37.2714 76.8835 37.1153 76.7068 37.0075 76.5007C36.8997 76.2947 36.8434 76.0656 36.8435 75.8331V29.7331C36.8432 29.4398 36.9326 29.1535 37.0997 28.9125C37.2669 28.6716 37.5037 28.4875 37.7785 28.3851L83.8785 11.097C84.0961 11.0157 84.3302 10.9882 84.5608 11.017C84.7913 11.0457 85.0115 11.1298 85.2025 11.2621C85.3936 11.3946 85.5497 11.5714 85.6575 11.7774C85.7653 11.9834 85.8216 12.2125 85.8215 12.4451V58.545C85.8218 58.8383 85.7324 59.1246 85.5653 59.3656C85.3981 59.6066 85.1613 59.7906 84.8865 59.8931L71.4165 64.946V71.826L81.8465 74.4361C82.1322 74.5073 82.3893 74.6642 82.5831 74.8859C82.7769 75.1076 82.8982 75.3834 82.9305 75.6761C82.963 75.9687 82.9048 76.2641 82.7639 76.5226C82.6229 76.781 82.406 76.9899 82.1425 77.1211L64.8545 85.7651C64.6548 85.8657 64.4342 85.9182 64.2105 85.9181C64.021 85.9176 63.8335 85.8799 63.6585 85.8071ZM62.7725 68.1871V75.597L65.0535 82.4431L77.3715 76.2841L69.6265 74.3481C69.3145 74.2698 69.0375 74.0895 68.8397 73.8359C68.6418 73.5822 68.5344 73.2697 68.5345 72.9481V66.0231L62.7725 68.1871ZM39.7205 71.066V73.7531L82.9425 57.545V54.8581L39.7205 71.066ZM39.7205 67.9901L82.9415 51.7831V30.7681L79.1415 29.5011C78.7395 30.0201 78.2241 30.4402 77.6349 30.7295C77.0456 31.0188 76.398 31.1694 75.7415 31.17C75.6475 31.17 75.5555 31.1621 75.4625 31.1561L70.0215 43.8461C70.6278 44.4023 71.0627 45.1199 71.2753 45.9147C71.4879 46.7095 71.4692 47.5485 71.2215 48.3331C70.9724 49.1172 70.5049 49.8141 69.8739 50.3421C69.2428 50.8701 68.4743 51.2073 67.6585 51.3141C66.8437 51.4191 66.0158 51.2897 65.2719 50.9409C64.528 50.5922 63.899 50.0386 63.4585 49.3451C63.0162 48.6514 62.7812 47.8458 62.7812 47.0231C62.7812 46.2004 63.0162 45.3947 63.4585 44.701L59.5255 39.6761C59.1767 39.7667 58.8179 39.813 58.4575 39.8141C58.3395 39.8141 58.2235 39.8061 58.1105 39.7961L51.4765 52.6971C52.0083 53.2589 52.3795 53.9532 52.5513 54.7075C52.7232 55.4617 52.6894 56.2483 52.4535 56.985C52.2169 57.7218 51.7869 58.3817 51.2084 58.8956C50.6299 59.4096 49.924 59.7589 49.1645 59.907C48.4051 60.0556 47.6198 59.9976 46.8905 59.739C46.1612 59.4804 45.5147 59.0308 45.0185 58.4371C44.5224 57.8431 44.1949 57.1268 44.07 56.3631C43.9451 55.5994 44.0275 54.8161 44.3085 54.0951L39.7195 50.1511L39.7205 67.9901ZM47.0045 55.11C46.895 55.3734 46.8662 55.6633 46.9217 55.943C46.9773 56.2227 47.1147 56.4796 47.3165 56.6811C47.518 56.8826 47.7744 57.0201 48.0538 57.0763C48.3331 57.1325 48.6228 57.1049 48.8865 56.9971C49.1497 56.8879 49.3747 56.7032 49.533 56.4663C49.6914 56.2294 49.7761 55.951 49.7765 55.6661C49.7756 55.2843 49.6244 54.9182 49.3555 54.6471C49.0848 54.3777 48.7184 54.2263 48.3365 54.2261C48.0521 54.2253 47.7738 54.3087 47.5368 54.4658C47.2997 54.623 47.1145 54.8478 47.0045 55.11ZM39.7205 30.7281V46.3571L46.1885 51.9161C47.0101 51.4345 47.9711 51.2469 48.9135 51.3841L55.4695 38.6141C54.8662 38.0404 54.4414 37.3047 54.2462 36.4954C54.0511 35.6861 54.0939 34.8376 54.3695 34.0521C54.6451 33.2664 55.1418 32.5771 55.7997 32.0669C56.4577 31.5567 57.249 31.2474 58.0785 31.1761C58.9081 31.1043 59.7407 31.2738 60.4762 31.6641C61.2118 32.0544 61.8189 32.6489 62.2245 33.3761C62.6295 34.1035 62.8159 34.9323 62.7613 35.763C62.7067 36.5937 62.4133 37.391 61.9165 38.0591L65.7165 42.9211C66.1587 42.7709 66.6225 42.6938 67.0895 42.6931C67.1895 42.6931 67.2755 42.7001 67.3685 42.7071L72.8095 30.0171C72.2819 29.5334 71.8828 28.9261 71.6482 28.2498C71.4136 27.5736 71.3508 26.8496 71.4655 26.1431C71.5796 25.4359 71.8678 24.7682 72.3043 24.2001C72.7407 23.6321 73.3116 23.1816 73.9655 22.8891C74.6187 22.5962 75.3345 22.4703 76.0484 22.5226C76.7623 22.575 77.452 22.8041 78.0555 23.1891C78.659 23.5733 79.1577 24.1013 79.5068 24.7258C79.8559 25.3503 80.0444 26.0517 80.0555 26.7671L82.9415 27.7291V14.5171L39.7205 30.7281ZM65.7625 46.4661C65.6538 46.7294 65.6253 47.0191 65.6807 47.2986C65.736 47.5781 65.8727 47.835 66.0735 48.037C66.2756 48.2383 66.5326 48.3753 66.8123 48.4308C67.092 48.4863 67.3819 48.4579 67.6455 48.3491C67.9084 48.2397 68.133 48.0549 68.291 47.8181C68.4491 47.5812 68.5334 47.3028 68.5335 47.0181C68.5338 46.8285 68.4967 46.6407 68.4243 46.4655C68.3519 46.2903 68.2456 46.1311 68.1115 45.9971C67.8411 45.7272 67.4745 45.5758 67.0925 45.576C66.8077 45.5759 66.5293 45.6603 66.2925 45.8185C66.0557 45.9768 65.8712 46.2028 65.7625 46.4661ZM57.1185 34.941C57.0098 35.2041 56.9814 35.4934 57.0367 35.7726C57.0921 36.0518 57.2287 36.3084 57.4295 36.5101C57.6312 36.7119 57.8882 36.8494 58.1679 36.9053C58.4477 36.9612 58.7378 36.9329 59.0015 36.8241C59.2646 36.7147 59.4894 36.5298 59.6475 36.2927C59.8055 36.0556 59.8898 35.777 59.8895 35.4921C59.8901 35.303 59.8532 35.1157 59.781 34.9409C59.7087 34.7662 59.6025 34.6075 59.4685 34.4741C59.3349 34.3399 59.1761 34.2335 59.0012 34.1609C58.8263 34.0883 58.6388 34.051 58.4495 34.0511C58.1645 34.0507 57.8859 34.135 57.6489 34.2933C57.4119 34.4516 57.2273 34.6776 57.1185 34.941ZM74.4065 26.2971C74.2977 26.5601 74.2692 26.8495 74.3245 27.1287C74.3799 27.4079 74.5166 27.6645 74.7175 27.8661C74.9192 28.0679 75.1762 28.2053 75.4559 28.2612C75.7357 28.3171 76.0258 28.2889 76.2895 28.1801C76.5526 28.0707 76.7774 27.8858 76.9355 27.6487C77.0935 27.4117 77.1778 27.133 77.1775 26.8481C77.1781 26.659 77.1412 26.4716 77.069 26.2969C76.9967 26.1221 76.8905 25.9635 76.7565 25.8301C76.6229 25.6959 76.4641 25.5895 76.2892 25.5169C76.1143 25.4443 75.9268 25.4069 75.7375 25.407C75.4525 25.407 75.1738 25.4916 74.9369 25.65C74.7 25.8085 74.5154 26.0336 74.4065 26.2971ZM178.824 85.7601L161.537 77.1161C161.273 76.9844 161.057 76.7753 160.916 76.517C160.775 76.2587 160.717 75.9636 160.749 75.6711C160.781 75.3783 160.902 75.1025 161.096 74.8805C161.29 74.6585 161.547 74.501 161.833 74.4291L172.268 71.821V64.9401L158.797 59.8891C158.522 59.7865 158.285 59.6025 158.117 59.3616C157.95 59.1207 157.86 58.8344 157.86 58.5411V12.441C157.86 12.2085 157.917 11.9795 158.025 11.7736C158.132 11.5676 158.289 11.3908 158.48 11.2581C158.671 11.1254 158.891 11.0409 159.122 11.0118C159.353 10.9827 159.587 11.0099 159.806 11.0911L205.906 28.3791C206.181 28.4814 206.418 28.6653 206.586 28.9062C206.753 29.1472 206.843 29.4335 206.844 29.7271V75.8271C206.843 76.0597 206.787 76.2887 206.679 76.4948C206.571 76.7008 206.415 76.8776 206.224 77.0101C206.032 77.1427 205.812 77.2269 205.581 77.2557C205.35 77.2844 205.115 77.2567 204.898 77.175L183.786 69.2631V75.8281C183.787 75.9833 183.762 76.1377 183.714 76.2851L180.833 84.9291C180.768 85.1248 180.661 85.3042 180.52 85.4551C180.38 85.6059 180.208 85.7246 180.018 85.8031C179.842 85.8758 179.654 85.9131 179.465 85.9131C179.242 85.9125 179.022 85.8601 178.824 85.7601ZM175.145 72.9491C175.145 73.2706 175.039 73.5831 174.841 73.8368C174.644 74.0905 174.367 74.2709 174.056 74.3491L166.31 76.2851L178.628 82.4441L180.909 75.597V68.1871L175.145 66.0251V72.9491ZM160.739 57.5441L203.96 73.7511V71.066L160.739 54.8571V57.5441ZM160.739 51.7801L203.96 67.9881V30.7281L160.739 14.5201V51.7801ZM110.316 74.3891C110.031 74.3886 109.752 74.3035 109.516 74.1447C109.279 73.9859 109.095 73.7606 108.987 73.4971C108.878 73.2337 108.849 72.9441 108.904 72.6646C108.96 72.385 109.097 72.1281 109.298 71.9261L114.638 66.5861V59.9781H90.1475C89.7657 59.9782 89.3993 59.8272 89.1285 59.558C88.8591 59.2873 88.7078 58.921 88.7075 58.5391V12.4391C88.7074 12.2499 88.7445 12.0625 88.8168 11.8876C88.8891 11.7127 88.9951 11.5538 89.1289 11.4199C89.2626 11.286 89.4214 11.1797 89.5961 11.1071C89.7709 11.0346 89.9583 10.9972 90.1475 10.9971H153.535C153.916 10.9974 154.283 11.1488 154.554 11.4181C154.823 11.6887 154.974 12.0551 154.975 12.4371V58.537C154.974 58.919 154.823 59.2854 154.554 59.5561C154.42 59.6896 154.261 59.7954 154.086 59.8674C153.911 59.9395 153.724 59.9764 153.535 59.9761H129.044V66.584L134.385 71.9241C134.586 72.1258 134.723 72.3827 134.778 72.6623C134.834 72.9419 134.805 73.2317 134.697 73.4951C134.588 73.7581 134.403 73.983 134.166 74.1412C133.93 74.2995 133.651 74.384 133.367 74.3841L110.316 74.3891ZM113.794 71.5081H129.887L127.006 68.6301H116.674L113.794 71.5081ZM117.52 65.7461H126.164V59.9821H117.519L117.52 65.7461ZM91.5865 57.097H152.093V54.217H91.5865V57.097ZM91.5865 51.3331H152.093V13.8761H91.5865V51.3331ZM198.987 62.7111L193.224 59.8311C192.883 59.659 192.624 59.3587 192.505 58.996C192.385 58.6333 192.415 58.238 192.587 57.8971C192.758 57.5554 193.057 57.2956 193.42 57.1747C193.782 57.0537 194.178 57.0816 194.52 57.2521L200.283 60.1331C200.452 60.2176 200.603 60.3347 200.727 60.4777C200.851 60.6206 200.945 60.7866 201.005 60.9661C201.065 61.1456 201.089 61.3352 201.075 61.5239C201.062 61.7127 201.011 61.8968 200.926 62.066C200.807 62.3061 200.623 62.5081 200.395 62.6494C200.167 62.7907 199.905 62.8658 199.637 62.8661C199.411 62.8665 199.188 62.8133 198.987 62.7111ZM187.087 59.5611C186.817 59.2904 186.666 58.924 186.666 58.5421V32.6091C186.666 32.42 186.703 32.2328 186.775 32.0581C186.848 31.8834 186.954 31.7247 187.088 31.5911C187.222 31.4575 187.381 31.3515 187.555 31.2793C187.73 31.2071 187.917 31.1699 188.107 31.17C188.296 31.1699 188.483 31.2071 188.658 31.2793C188.832 31.3515 188.991 31.4575 189.125 31.5911C189.259 31.7247 189.365 31.8834 189.438 32.0581C189.51 32.2328 189.547 32.42 189.548 32.6091V58.5421C189.547 58.9239 189.395 59.29 189.127 59.5611C188.856 59.8305 188.489 59.9815 188.108 59.9811C187.727 59.9807 187.362 59.8297 187.092 59.5611H187.087ZM181.32 57.4011C181.05 57.1306 180.898 56.7641 180.898 56.3821V41.256C180.898 41.0668 180.936 40.8795 181.008 40.7047C181.081 40.5298 181.187 40.3709 181.321 40.2371C181.454 40.1033 181.613 39.9972 181.788 39.9247C181.963 39.8523 182.15 39.8151 182.34 39.8151C182.529 39.8151 182.716 39.8523 182.891 39.9247C183.066 39.9972 183.225 40.1033 183.358 40.2371C183.492 40.3709 183.598 40.5298 183.671 40.7047C183.743 40.8795 183.781 41.0668 183.781 41.256V56.3821C183.781 56.5713 183.744 56.7587 183.672 56.9336C183.599 57.1085 183.493 57.2673 183.36 57.4011C183.226 57.5352 183.067 57.6416 182.892 57.7142C182.717 57.7868 182.53 57.8242 182.34 57.8241C182.152 57.8231 181.965 57.7849 181.79 57.7117C181.616 57.6384 181.458 57.5315 181.326 57.3971L181.32 57.4011ZM198.984 56.9521L193.221 54.071C192.88 53.8983 192.622 53.5975 192.503 53.2347C192.384 52.8719 192.414 52.4768 192.587 52.136C192.758 51.7946 193.057 51.535 193.42 51.4142C193.782 51.2935 194.178 51.3215 194.52 51.4921L200.283 54.373C200.452 54.4574 200.603 54.5743 200.727 54.7171C200.851 54.8599 200.945 55.0257 201.005 55.205C201.065 55.3844 201.089 55.5737 201.075 55.7623C201.062 55.9509 201.011 56.135 200.926 56.3041C200.807 56.5443 200.623 56.7463 200.395 56.8876C200.167 57.029 199.904 57.1039 199.636 57.1041C199.41 57.1048 199.188 57.0523 198.987 56.951L198.984 56.9521ZM175.561 55.2411C175.426 55.1077 175.32 54.9491 175.247 54.7744C175.175 54.5996 175.137 54.4123 175.138 54.2231V26.8511C175.137 26.661 175.175 26.4728 175.247 26.2972C175.32 26.1216 175.427 25.9621 175.562 25.828C175.696 25.6939 175.856 25.5877 176.032 25.5156C176.208 25.4436 176.396 25.407 176.587 25.4081C176.776 25.4082 176.963 25.4456 177.138 25.5182C177.312 25.5907 177.471 25.697 177.605 25.8309C177.738 25.9648 177.844 26.1238 177.917 26.2986C177.989 26.4735 178.026 26.6609 178.026 26.8501V54.222C178.026 54.4112 177.988 54.5986 177.916 54.7733C177.843 54.948 177.737 55.1067 177.603 55.2401C177.469 55.3739 177.311 55.4801 177.137 55.5527C176.962 55.6253 176.775 55.6628 176.587 55.6631C176.397 55.6633 176.21 55.6261 176.035 55.5536C175.86 55.4812 175.701 55.375 175.568 55.2411H175.561ZM169.797 53.0811C169.663 52.9471 169.557 52.7882 169.485 52.6133C169.413 52.4385 169.376 52.2512 169.377 52.0621V35.4971C169.376 35.3079 169.413 35.1205 169.485 34.9456C169.558 34.7707 169.664 34.6118 169.797 34.4779C169.931 34.344 170.09 34.2377 170.264 34.1652C170.439 34.0926 170.626 34.0552 170.816 34.0551C171.005 34.0551 171.192 34.0924 171.367 34.1649C171.542 34.2373 171.701 34.3436 171.835 34.4775C171.969 34.6114 172.075 34.7704 172.147 34.9453C172.219 35.1203 172.257 35.3078 172.257 35.4971V52.0641C172.257 52.4461 172.105 52.8126 171.836 53.0831C171.565 53.3529 171.199 53.5044 170.817 53.5041C170.436 53.5015 170.072 53.3491 169.804 53.0801L169.797 53.0811ZM198.987 51.1891L193.224 48.308C192.883 48.1358 192.624 47.8354 192.505 47.4728C192.385 47.1102 192.415 46.7151 192.587 46.3741C192.758 46.0328 193.058 45.7734 193.42 45.653C193.783 45.5326 194.178 45.5611 194.52 45.7321L200.283 48.6121C200.624 48.7831 200.884 49.0828 201.005 49.4453C201.125 49.8077 201.097 50.2033 200.926 50.545C200.807 50.7852 200.623 50.9874 200.395 51.1287C200.167 51.2701 199.905 51.345 199.637 51.3451C199.411 51.3449 199.188 51.2915 198.987 51.1891ZM164.037 50.9161C163.767 50.6453 163.616 50.279 163.616 49.8971V41.2531C163.616 40.8709 163.767 40.5044 164.038 40.2341C164.308 39.9639 164.674 39.8121 165.057 39.8121C165.439 39.8121 165.805 39.9639 166.075 40.2341C166.346 40.5044 166.497 40.8709 166.497 41.2531V49.8971C166.498 50.0863 166.461 50.2737 166.389 50.4486C166.316 50.6235 166.21 50.7823 166.077 50.9161C165.806 51.1859 165.44 51.3374 165.058 51.3371C164.676 51.3363 164.311 51.185 164.041 50.9161H164.037ZM101.985 43.816C100.513 42.3454 99.3465 40.5993 98.5504 38.6776C97.7543 36.7559 97.3445 34.6962 97.3445 32.6161C97.3439 30.5342 97.7535 28.4726 98.55 26.5491C99.3465 24.6257 100.514 22.878 101.987 21.4061C104.959 18.4347 108.99 16.7654 113.193 16.7651C117.394 16.7717 121.421 18.4426 124.393 21.412C127.363 24.383 129.034 28.4108 129.04 32.6121C129.038 36.813 127.369 40.8416 124.399 43.8121C122.927 45.284 121.18 46.4517 119.257 47.2484C117.335 48.045 115.274 48.4551 113.193 48.4551C108.99 48.4559 104.959 46.7871 101.987 43.816H101.985ZM109.512 45.0421C111.446 45.6159 113.489 45.7299 115.475 45.3748C117.462 45.0198 119.338 44.2056 120.955 42.9971C122.571 41.7902 123.884 40.2224 124.788 38.4186C125.692 36.6148 126.162 34.6247 126.162 32.6071C126.162 32.1951 126.141 31.789 126.103 31.386L123.259 31.9781C123.272 32.1871 123.281 32.3951 123.281 32.6071C123.28 34.1489 122.927 35.6702 122.247 37.054C121.567 38.4377 120.578 39.6471 119.358 40.5891C118.138 41.5317 116.718 42.1819 115.207 42.4896C113.696 42.7973 112.135 42.7544 110.644 42.3641L109.512 45.0421ZM101.964 39.084C103.133 41.1047 104.822 42.7747 106.857 43.92L107.987 41.2461C106.62 40.4182 105.469 39.2801 104.625 37.9241L101.964 39.084ZM108.098 27.5201C107.429 28.1887 106.898 28.9824 106.536 29.8561C106.174 30.7298 105.988 31.6663 105.988 32.6121C105.99 34.5213 106.749 36.3518 108.099 37.7021C109.449 39.0532 111.28 39.8131 113.191 39.8151C114.136 39.8152 115.073 39.6288 115.947 39.2668C116.821 38.9047 117.615 38.3741 118.284 37.7051C118.953 37.0364 119.483 36.2424 119.845 35.3685C120.207 34.4947 120.394 33.558 120.394 32.6121C120.393 31.6663 120.207 30.7298 119.845 29.8561C119.483 28.9824 118.952 28.1887 118.284 27.5201C117.615 26.8509 116.821 26.32 115.947 25.9578C115.073 25.5955 114.136 25.4091 113.191 25.4091C111.281 25.4102 109.451 26.1696 108.102 27.5201H108.098ZM100.225 32.6121C100.223 33.9122 100.418 35.2052 100.803 36.4471L103.466 35.2851C102.967 33.4705 102.986 31.5523 103.521 29.748C104.057 27.9446 105.088 26.3272 106.496 25.079L104.896 22.6541C103.435 23.8697 102.259 25.392 101.453 27.113C100.646 28.834 100.229 30.7115 100.23 32.6121H100.225ZM119.325 24.6191C120.846 25.7864 122.004 27.3624 122.664 29.1631L125.503 28.571C124.642 25.962 122.976 23.6928 120.746 22.0891L119.325 24.6191ZM107.307 21.0651L108.907 23.4871C110.138 22.9058 111.476 22.581 112.837 22.5323C114.198 22.4837 115.555 22.7122 116.826 23.204L118.25 20.6711C116.652 19.9935 114.934 19.6449 113.199 19.6461H113.187C111.142 19.6464 109.126 20.1327 107.307 21.0651ZM139.127 45.579C138.937 45.5792 138.75 45.542 138.575 45.4697C138.4 45.3973 138.241 45.2911 138.107 45.1573C137.973 45.0235 137.867 44.8646 137.795 44.6897C137.723 44.5148 137.685 44.3273 137.686 44.1381C137.685 43.9488 137.723 43.7614 137.795 43.5865C137.867 43.4116 137.973 43.2527 138.107 43.1188C138.241 42.985 138.4 42.8789 138.575 42.8065C138.75 42.7341 138.937 42.697 139.127 42.6971H144.887C145.076 42.6971 145.263 42.7344 145.438 42.8068C145.612 42.8793 145.771 42.9854 145.905 43.1193C146.038 43.2531 146.144 43.412 146.217 43.5868C146.289 43.7616 146.326 43.9489 146.326 44.1381C146.326 44.3272 146.289 44.5146 146.217 44.6894C146.144 44.8642 146.038 45.023 145.905 45.1569C145.771 45.2907 145.612 45.3969 145.438 45.4694C145.263 45.5418 145.076 45.579 144.887 45.579H139.127ZM198.99 45.4231L193.227 42.5421C193.058 42.4573 192.907 42.3401 192.783 42.1971C192.66 42.0542 192.565 41.8882 192.506 41.7087C192.446 41.5293 192.423 41.3399 192.437 41.1514C192.451 40.9628 192.502 40.7789 192.587 40.61C192.671 40.4407 192.788 40.2896 192.931 40.1655C193.074 40.0414 193.24 39.9466 193.419 39.8867C193.599 39.8267 193.788 39.8026 193.977 39.8159C194.166 39.8292 194.35 39.8795 194.52 39.9641L200.283 42.8451C200.452 42.9297 200.603 43.0468 200.727 43.1897C200.851 43.3326 200.945 43.4986 201.005 43.6781C201.065 43.8576 201.089 44.0472 201.075 44.2359C201.062 44.4246 201.011 44.6089 200.926 44.7781C200.807 45.0183 200.623 45.2203 200.395 45.3616C200.167 45.5029 199.904 45.5779 199.636 45.5781C199.41 45.5782 199.188 45.5251 198.987 45.4231H198.99ZM198.99 39.6631L193.227 36.782C192.886 36.6103 192.627 36.3104 192.507 35.9479C192.387 35.5855 192.415 35.1903 192.587 34.8491C192.671 34.6798 192.788 34.5288 192.931 34.4048C193.074 34.2809 193.24 34.1863 193.42 34.1265C193.599 34.0667 193.789 34.0428 193.977 34.0563C194.166 34.0698 194.35 34.1203 194.52 34.2051L200.283 37.0851C200.624 37.2561 200.884 37.5557 201.005 37.9182C201.125 38.2807 201.097 38.6763 200.926 39.0181C200.807 39.2582 200.622 39.4602 200.394 39.6015C200.166 39.7428 199.903 39.8177 199.635 39.8181C199.409 39.8184 199.187 39.7656 198.987 39.6641L198.99 39.6631ZM133.365 39.8141C132.982 39.8141 132.616 39.6623 132.345 39.3921C132.075 39.1219 131.923 38.7553 131.923 38.373C131.923 37.991 132.075 37.6249 132.346 37.355C132.616 37.0852 132.982 36.9338 133.365 36.9341H144.887C145.268 36.9341 145.634 37.0857 145.904 37.3555C146.174 37.6254 146.326 37.9914 146.326 38.373C146.326 38.5622 146.289 38.7496 146.217 38.9244C146.144 39.0992 146.038 39.2581 145.905 39.3919C145.771 39.5257 145.612 39.6319 145.438 39.7043C145.263 39.7768 145.076 39.8141 144.887 39.8141H133.365ZM136.246 34.0511C136.056 34.0512 135.869 34.0141 135.694 33.9418C135.519 33.8695 135.36 33.7634 135.227 33.6296C135.093 33.4959 134.987 33.3371 134.914 33.1624C134.842 32.9876 134.805 32.8003 134.805 32.6111C134.804 32.4218 134.842 32.2343 134.914 32.0594C134.986 31.8846 135.092 31.7257 135.226 31.5919C135.36 31.458 135.519 31.3519 135.694 31.2795C135.869 31.2071 136.056 31.1699 136.246 31.17H144.887C145.076 31.1702 145.263 31.2076 145.437 31.2801C145.612 31.3526 145.771 31.4587 145.904 31.5925C146.038 31.7263 146.144 31.8852 146.216 32.0599C146.289 32.2347 146.326 32.422 146.326 32.6111C146.326 32.9928 146.174 33.3589 145.904 33.629C145.634 33.899 145.268 34.0508 144.887 34.0511H136.246ZM133.365 28.2901C132.982 28.2901 132.616 28.1383 132.345 27.868C132.075 27.5978 131.923 27.2313 131.923 26.8491C131.923 26.4667 132.075 26.1001 132.345 25.8297C132.616 25.5593 132.982 25.4073 133.365 25.407H144.887C145.076 25.4072 145.263 25.4446 145.438 25.5172C145.612 25.5897 145.771 25.696 145.905 25.8299C146.038 25.9638 146.144 26.1227 146.217 26.2976C146.289 26.4725 146.326 26.6599 146.326 26.8491C146.326 27.0382 146.289 27.2254 146.216 27.4002C146.144 27.575 146.038 27.7338 145.904 27.8676C145.771 28.0014 145.612 28.1076 145.437 28.1801C145.263 28.2525 145.076 28.29 144.887 28.2901H133.365ZM136.246 22.5261C136.056 22.5262 135.869 22.489 135.694 22.4166C135.519 22.3443 135.36 22.2381 135.226 22.1043C135.092 21.9705 134.986 21.8115 134.914 21.6367C134.842 21.4618 134.804 21.2744 134.805 21.0851C134.804 20.8958 134.842 20.7083 134.914 20.5334C134.986 20.3586 135.092 20.1997 135.226 20.0659C135.36 19.932 135.519 19.8258 135.694 19.7535C135.869 19.6811 136.056 19.6439 136.246 19.644H144.887C145.076 19.6442 145.263 19.6816 145.437 19.7541C145.612 19.8266 145.771 19.9327 145.904 20.0665C146.038 20.2003 146.144 20.3592 146.216 20.5339C146.289 20.7087 146.326 20.896 146.326 21.0851C146.326 21.2743 146.289 21.4617 146.217 21.6365C146.144 21.8114 146.038 21.9703 145.905 22.1042C145.771 22.2382 145.612 22.3444 145.438 22.417C145.263 22.4895 145.076 22.527 144.887 22.5271L136.246 22.5261Z" fill="black"/>
</g>
<defs>
<clipPath id="clip0_1154_1529">
<rect width="238" height="199" fill="white"/>
</clipPath>
</defs>
</svg>
