<svg width="60" height="60" viewBox="0 0 60 60" fill="none" xmlns="http://www.w3.org/2000/svg">
<path d="M30 0.5C46.2924 0.5 59.5 13.7076 59.5 30C59.5 46.2924 46.2924 59.5 30 59.5C13.7076 59.5 0.5 46.2924 0.5 30C0.5 13.7076 13.7076 0.5 30 0.5Z" fill="#FFEDD4"/>
<path d="M30 0.5C46.2924 0.5 59.5 13.7076 59.5 30C59.5 46.2924 46.2924 59.5 30 59.5C13.7076 59.5 0.5 46.2924 0.5 30C0.5 13.7076 13.7076 0.5 30 0.5Z" stroke="#D6D3D1"/>
<path fill-rule="evenodd" clip-rule="evenodd" d="M33.3969 41.2037V42.0807C33.3971 42.4112 33.2792 42.7308 33.0645 42.982C32.8498 43.2332 32.5524 43.3994 32.2259 43.4507L32.0149 44.2507C31.9599 44.461 31.8371 44.6472 31.6656 44.7806C31.494 44.9141 31.2832 44.9872 31.0659 44.9887H28.9319C28.7144 44.9877 28.5034 44.9148 28.3317 44.7813C28.1601 44.6478 28.0374 44.4612 27.9829 44.2507L27.7719 43.4507C27.4429 43.3995 27.1432 43.2319 26.9272 42.9785C26.7112 42.7251 26.5933 42.4027 26.5949 42.0697V41.1897C26.5949 40.9661 26.6837 40.7517 26.8418 40.5936C26.9999 40.4355 27.2143 40.3467 27.4379 40.3467H32.5599C32.7843 40.3501 32.9982 40.4421 33.155 40.6027C33.3118 40.7632 33.3988 40.9793 33.3969 41.2037ZM37.3419 29.4037C37.3447 31.3148 36.6059 33.1524 35.2809 34.5297C34.3157 35.5397 33.6869 36.8239 33.4809 38.2057C33.4367 38.4923 33.2915 38.7538 33.0714 38.9427C32.8513 39.1316 32.5709 39.2355 32.2809 39.2357H27.7139C27.4237 39.2377 27.1426 39.1349 26.9222 38.9462C26.7017 38.7576 26.5567 38.4957 26.5139 38.2087C26.3006 36.8223 25.6671 35.5347 24.6989 34.5197C23.8562 33.6547 23.2393 32.5958 22.9023 31.4361C22.5654 30.2765 22.5188 29.0518 22.7668 27.87C23.0147 26.6881 23.5496 25.5854 24.3241 24.6589C25.0987 23.7325 26.0893 23.0108 27.2085 22.5574C28.3277 22.104 29.5413 21.9329 30.7423 22.0591C31.9433 22.1852 33.0948 22.6049 34.0953 23.281C35.0959 23.9571 35.9148 24.8689 36.4799 25.9361C37.045 27.0033 37.339 28.1931 37.3359 29.4007L37.3419 29.4037ZM30.8269 24.9297C30.8277 24.7095 30.741 24.4979 30.586 24.3416C30.4309 24.1852 30.2201 24.0968 29.9999 24.0957C28.5908 24.1013 27.2414 24.6656 26.2478 25.6648C25.2542 26.664 24.6975 28.0166 24.6999 29.4257C24.6999 29.6454 24.7872 29.8562 24.9426 30.0115C25.0979 30.1669 25.3087 30.2542 25.5284 30.2542C25.7481 30.2542 25.9589 30.1669 26.1142 30.0115C26.2696 29.8562 26.3569 29.6454 26.3569 29.4257C26.3558 28.4573 26.7388 27.5279 27.4219 26.8415C28.105 26.155 29.0325 25.7674 30.0009 25.7637C30.1094 25.764 30.2168 25.7429 30.3171 25.7016C30.4175 25.6603 30.5087 25.5997 30.5856 25.5232C30.6624 25.4467 30.7235 25.3558 30.7653 25.2556C30.807 25.1555 30.8286 25.0482 30.8289 24.9397C30.8293 24.9362 30.8286 24.9327 30.8269 24.9297ZM29.9989 19.5897C30.2189 19.5886 30.4295 19.5005 30.5846 19.3446C30.7398 19.1887 30.8269 18.9777 30.8269 18.7577V15.8437C30.8275 15.6283 30.7444 15.4212 30.5952 15.2659C30.4459 15.1107 30.2421 15.0196 30.0269 15.0118C29.8117 15.004 29.6019 15.0802 29.4418 15.2242C29.2817 15.3682 29.1838 15.5689 29.1689 15.7837C29.1679 15.8034 29.1679 15.823 29.1689 15.8427V18.7617C29.1688 18.8708 29.1901 18.9789 29.2318 19.0798C29.2734 19.1807 29.3345 19.2723 29.4116 19.3496C29.4887 19.4269 29.5802 19.4882 29.681 19.5301C29.7817 19.5719 29.8898 19.5936 29.9989 19.5937V19.5897ZM20.2509 29.3897C20.2512 29.1697 20.1641 28.9585 20.0089 28.8025C19.8537 28.6465 19.6429 28.5585 19.4229 28.5577H16.5229C16.3071 28.5652 16.1026 28.6562 15.9526 28.8115C15.8026 28.9668 15.7188 29.1743 15.7188 29.3902C15.7188 29.6061 15.8026 29.8136 15.9526 29.9689C16.1026 30.1242 16.3071 30.2152 16.5229 30.2227H19.4229C19.5315 30.223 19.6392 30.2018 19.7396 30.1604C19.84 30.119 19.9313 30.0582 20.0083 29.9815C20.0852 29.9048 20.1462 29.8136 20.1878 29.7133C20.2295 29.6129 20.2509 29.5053 20.2509 29.3967V29.3897ZM43.4769 28.5587H40.5769C40.3611 28.5662 40.1566 28.6572 40.0066 28.8125C39.8566 28.9678 39.7728 29.1753 39.7728 29.3912C39.7728 29.6071 39.8566 29.8146 40.0066 29.9699C40.1566 30.1252 40.3611 30.2162 40.5769 30.2237H43.4769C43.6927 30.2162 43.8972 30.1252 44.0472 29.9699C44.1972 29.8146 44.281 29.6071 44.281 29.3912C44.281 29.1753 44.1972 28.9678 44.0472 28.8125C43.8972 28.6572 43.6927 28.5662 43.4769 28.5587ZM21.9369 36.3187L19.8819 38.3897C19.7255 38.5445 19.6371 38.755 19.636 38.975C19.6348 39.1949 19.7211 39.4064 19.8759 39.5627C20.0306 39.719 20.2412 39.8075 20.4611 39.8086C20.6811 39.8098 20.8925 39.7235 21.0489 39.5687L23.1029 37.5017C23.2591 37.3455 23.3469 37.1336 23.3469 36.9127C23.3469 36.6918 23.2591 36.4799 23.1029 36.3237C23.0275 36.2471 22.9378 36.1861 22.8389 36.1442C22.7399 36.1023 22.6337 36.0804 22.5263 36.0795C22.4188 36.0787 22.3123 36.099 22.2127 36.1394C22.1131 36.1797 22.0224 36.2393 21.9459 36.3147L21.9369 36.3187ZM37.4759 22.7077C37.5839 22.7082 37.6909 22.6874 37.7908 22.6464C37.8907 22.6054 37.9815 22.545 38.0579 22.4687L40.1139 20.4017C40.2701 20.2455 40.3579 20.0336 40.3579 19.8127C40.3579 19.5918 40.2701 19.3799 40.1139 19.2237C39.9606 19.0686 39.7521 18.9806 39.534 18.9791C39.316 18.9776 39.1063 19.0627 38.9509 19.2157L38.9429 19.2237L36.8819 21.2897C36.765 21.4061 36.6855 21.5548 36.6534 21.7166C36.6214 21.8785 36.6383 22.0462 36.7021 22.1984C36.7659 22.3506 36.8735 22.4803 37.0113 22.5711C37.1492 22.6618 37.3109 22.7093 37.4759 22.7077ZM21.9369 22.4617C22.0927 22.6156 22.3029 22.7018 22.5219 22.7017C22.6298 22.7018 22.7366 22.6807 22.8363 22.6395C22.936 22.5983 23.0266 22.5379 23.1029 22.4617C23.2591 22.3055 23.3469 22.0936 23.3469 21.8727C23.3469 21.6518 23.2591 21.4399 23.1029 21.2837L21.0489 19.2177C20.8917 19.0671 20.6817 18.9842 20.464 18.9868C20.2464 18.9894 20.0384 19.0773 19.8849 19.2316C19.7313 19.3859 19.6445 19.5943 19.643 19.812C19.6415 20.0297 19.7255 20.2393 19.8769 20.3957L21.9369 22.4617ZM38.0629 36.3247C37.9867 36.2477 37.8961 36.1866 37.7962 36.1447C37.6964 36.1028 37.5892 36.081 37.4809 36.0805C37.3726 36.08 37.2653 36.1009 37.1651 36.142C37.0649 36.183 36.9737 36.2434 36.8969 36.3197L36.8919 36.3247C36.7357 36.4809 36.6479 36.6928 36.6479 36.9137C36.6479 37.1346 36.7357 37.3465 36.8919 37.5027L38.9469 39.5697C39.101 39.7186 39.3067 39.8021 39.521 39.8027C39.7353 39.8034 39.9415 39.7211 40.0965 39.5732C40.2515 39.4253 40.3434 39.2232 40.3527 39.0091C40.3621 38.795 40.2884 38.5856 40.1469 38.4247L40.1139 38.3897L38.0629 36.3247Z" fill="black"/>
</svg>
