<svg width="60" height="60" viewBox="0 0 60 60" fill="none" xmlns="http://www.w3.org/2000/svg">
<path d="M30 0.5C46.2924 0.5 59.5 13.7076 59.5 30C59.5 46.2924 46.2924 59.5 30 59.5C13.7076 59.5 0.5 46.2924 0.5 30C0.5 13.7076 13.7076 0.5 30 0.5Z" fill="#FFEDD4"/>
<path d="M30 0.5C46.2924 0.5 59.5 13.7076 59.5 30C59.5 46.2924 46.2924 59.5 30 59.5C13.7076 59.5 0.5 46.2924 0.5 30C0.5 13.7076 13.7076 0.5 30 0.5Z" stroke="#D6D3D1"/>
<path d="M22.8125 41.5C22.4349 41.5 22.0611 41.4256 21.7123 41.2812C21.3635 41.1367 21.0465 40.9249 20.7796 40.6579C20.2404 40.1188 19.9375 39.3875 19.9375 38.625V23.532C19.9375 22.7695 20.2404 22.0382 20.7796 21.4991C21.3187 20.9599 22.05 20.657 22.8125 20.657H24.2495V22.094C24.2495 23.0472 24.6282 23.9613 25.3022 24.6353C25.9762 25.3093 26.8903 25.688 27.8435 25.688H32.1565C32.6285 25.688 33.0958 25.595 33.5319 25.4144C33.9679 25.2338 34.3641 24.9691 34.6978 24.6353C35.0316 24.3016 35.2963 23.9054 35.4769 23.4694C35.6575 23.0333 35.7505 22.566 35.7505 22.094V20.657H37.1875C37.5651 20.657 37.9389 20.7314 38.2877 20.8758C38.6365 21.0203 38.9535 21.2321 39.2204 21.4991C39.4874 21.766 39.6992 22.083 39.8437 22.4318C39.9881 22.7806 40.0625 23.1545 40.0625 23.532V38.626C40.0622 39.3883 39.7592 40.1193 39.2201 40.6583C38.6809 41.1972 37.9498 41.5 37.1875 41.5H22.8125ZM26.6125 32.366C26.4775 32.501 26.4017 32.6841 26.4017 32.875C26.4017 33.0659 26.4775 33.249 26.6125 33.384L28.7685 35.54C28.8352 35.607 28.9146 35.6601 29.0019 35.6963C29.0893 35.7326 29.1829 35.7511 29.2775 35.751C29.3721 35.7511 29.4657 35.7326 29.5531 35.6963C29.6404 35.6601 29.7198 35.607 29.7865 35.54L34.1025 31.228C34.2375 31.093 34.3133 30.9099 34.3133 30.719C34.3133 30.5281 34.2375 30.345 34.1025 30.21C33.9675 30.075 33.7844 29.9992 33.5935 29.9992C33.4026 29.9992 33.2195 30.075 33.0845 30.21L29.2845 34.016L27.6375 32.366C27.5708 32.299 27.4914 32.2459 27.4041 32.2097C27.3167 32.1734 27.2231 32.1549 27.1285 32.155C27.0333 32.1543 26.9388 32.1727 26.8508 32.2089C26.7627 32.2451 26.6827 32.2985 26.6155 32.366H26.6125ZM27.8405 24.25C27.2692 24.2492 26.7216 24.0217 26.3179 23.6175C25.9142 23.2132 25.6875 22.6653 25.6875 22.094V20.657C25.6874 20.3738 25.743 20.0933 25.8513 19.8316C25.9596 19.5699 26.1184 19.3321 26.3186 19.1318C26.5188 18.9315 26.7566 18.7726 27.0182 18.6642C27.2798 18.5558 27.5603 18.5 27.8435 18.5H32.1565C32.4396 18.5 32.72 18.5558 32.9816 18.6641C33.2431 18.7725 33.4808 18.9313 33.681 19.1315C33.8812 19.3317 34.04 19.5694 34.1484 19.8309C34.2567 20.0925 34.3125 20.3729 34.3125 20.656V22.093C34.3126 22.3762 34.257 22.6567 34.1487 22.9184C34.0404 23.1801 33.8816 23.4179 33.6814 23.6182C33.4812 23.8185 33.2434 23.9774 32.9818 24.0858C32.7202 24.1942 32.4397 24.25 32.1565 24.25H27.8405ZM27.1215 20.656V22.093C27.1215 22.2837 27.1973 22.4666 27.3321 22.6014C27.4669 22.7362 27.6498 22.812 27.8405 22.812H32.1535C32.2479 22.812 32.3413 22.7934 32.4285 22.7573C32.5157 22.7211 32.5949 22.6681 32.6616 22.6013C32.7282 22.5346 32.7811 22.4553 32.8171 22.3681C32.8532 22.2808 32.8716 22.1874 32.8715 22.093V20.656C32.8715 20.4655 32.7959 20.2828 32.6613 20.1479C32.5266 20.0131 32.344 19.9373 32.1535 19.937H27.8435C27.6528 19.937 27.4699 20.0128 27.3351 20.1476C27.2003 20.2824 27.1245 20.4653 27.1245 20.656H27.1215Z" fill="black"/>
</svg>
