<svg width="60" height="60" viewBox="0 0 60 60" fill="none" xmlns="http://www.w3.org/2000/svg">
<path d="M30 0.5C46.2924 0.5 59.5 13.7076 59.5 30C59.5 46.2924 46.2924 59.5 30 59.5C13.7076 59.5 0.5 46.2924 0.5 30C0.5 13.7076 13.7076 0.5 30 0.5Z" fill="#FFEDD4"/>
<path d="M30 0.5C46.2924 0.5 59.5 13.7076 59.5 30C59.5 46.2924 46.2924 59.5 30 59.5C13.7076 59.5 0.5 46.2924 0.5 30C0.5 13.7076 13.7076 0.5 30 0.5Z" stroke="#D6D3D1"/>
<path d="M40.6582 20.3958C41.1981 20.9359 41.5013 21.6682 41.5013 22.4318C41.5013 23.1954 41.1981 23.9278 40.6582 24.4678L38.1212 27.0048L32.9952 21.8788L35.5312 19.3428C36.0718 18.8031 36.8044 18.5 37.5682 18.5C38.3321 18.5 39.0647 18.8031 39.6052 19.3428L40.6582 20.3958ZM20.5192 34.3578L31.9782 22.8958L37.1052 28.0208L25.6422 39.4798C25.3392 39.782 24.9651 40.0031 24.5542 40.1228L19.8762 41.4588C19.688 41.5138 19.4878 41.5133 19.2998 41.4574C19.1118 41.4016 18.9439 41.2927 18.8162 41.1438C18.6796 41.0174 18.5814 40.855 18.5329 40.6753C18.4844 40.4956 18.4877 40.3058 18.5422 40.1278L19.8792 35.4508C19.9949 35.0375 20.2154 34.661 20.5192 34.3578ZM29.7162 23.1278L23.1502 29.6898L19.2202 25.7548C19.0197 25.5546 18.8607 25.3168 18.7522 25.055C18.6436 24.7933 18.5878 24.5127 18.5878 24.2293C18.5878 23.946 18.6436 23.6654 18.7522 23.4036C18.8607 23.1419 19.0197 22.9041 19.2202 22.7038L22.7302 19.1938C22.9305 18.9933 23.1683 18.8343 23.43 18.7257C23.6918 18.6172 23.9724 18.5614 24.2557 18.5614C24.5391 18.5614 24.8197 18.6172 25.0814 18.7257C25.3432 18.8343 25.581 18.9933 25.7812 19.1938L26.6712 20.0828C26.6582 20.0958 26.6402 20.1098 26.6262 20.1248L23.7482 23.0018C23.6815 23.0686 23.6285 23.1479 23.5923 23.2351C23.5562 23.3224 23.5376 23.4159 23.5376 23.5103C23.5376 23.6048 23.5562 23.6983 23.5923 23.7855C23.6285 23.8728 23.6815 23.952 23.7482 24.0188C23.815 24.0856 23.8943 24.1386 23.9815 24.1747C24.0688 24.2109 24.1623 24.2295 24.2567 24.2295C24.4475 24.2295 24.6304 24.1537 24.7652 24.0188L27.6432 21.1408C27.6562 21.1268 27.6342 21.1108 27.6832 21.0958L29.7162 23.1278ZM38.9002 32.3158C38.8842 32.3279 38.8691 32.3413 38.8552 32.3558L35.9772 35.2338C35.9105 35.301 35.8576 35.3807 35.8216 35.4683C35.7856 35.5559 35.7672 35.6497 35.7675 35.7444C35.7678 35.8392 35.7867 35.9329 35.8232 36.0203C35.8597 36.1077 35.9131 36.187 35.9802 36.2538C36.0474 36.3206 36.1271 36.3735 36.2147 36.4095C36.3023 36.4455 36.3961 36.4639 36.4909 36.4636C36.5856 36.4633 36.6793 36.4444 36.7667 36.4079C36.8541 36.3714 36.9335 36.318 37.0002 36.2508L39.8782 33.3728C39.8912 33.3188 39.8692 33.3418 39.9182 33.3278L40.8082 34.2178C41.2121 34.6224 41.4389 35.1707 41.4389 35.7423C41.4389 36.314 41.2121 36.8622 40.8082 37.2668L37.2962 40.7788C36.8916 41.1826 36.3434 41.4095 35.7717 41.4095C35.2001 41.4095 34.6518 41.1826 34.2472 40.7788L30.3102 36.8488L36.8762 30.2828L38.9002 32.3158Z" fill="black"/>
</svg>
