<svg width="60" height="60" viewBox="0 0 60 60" fill="none" xmlns="http://www.w3.org/2000/svg">
<path d="M30 0.5C46.2924 0.5 59.5 13.7076 59.5 30C59.5 46.2924 46.2924 59.5 30 59.5C13.7076 59.5 0.5 46.2924 0.5 30C0.5 13.7076 13.7076 0.5 30 0.5Z" fill="#FFEDD4"/>
<path d="M30 0.5C46.2924 0.5 59.5 13.7076 59.5 30C59.5 46.2924 46.2924 59.5 30 59.5C13.7076 59.5 0.5 46.2924 0.5 30C0.5 13.7076 13.7076 0.5 30 0.5Z" stroke="#D6D3D1"/>
<path d="M43.0698 30.9357L36.8098 21.1617C36.5812 20.7931 36.2654 20.4864 35.8903 20.2686C35.5152 20.0508 35.0923 19.9285 34.6588 19.9127C34.3199 19.9055 33.9829 19.9661 33.6677 20.0909C33.3525 20.2156 33.0654 20.4021 32.8232 20.6394C32.581 20.8766 32.3886 21.1598 32.2574 21.4724C32.1261 21.785 32.0586 22.1207 32.0588 22.4597V24.0277C32.0589 24.1263 32.0205 24.2211 31.9518 24.2919C31.883 24.3626 31.7894 24.4038 31.6908 24.4067H28.2958C28.1972 24.4038 28.1036 24.3626 28.0349 24.2919C27.9662 24.2211 27.9278 24.1263 27.9278 24.0277V22.5427C27.9328 21.9615 27.7436 21.3953 27.3901 20.9338C27.0367 20.4724 26.5393 20.1422 25.9768 19.9957C25.4593 19.8669 24.9143 19.9038 24.4188 20.1011C23.9233 20.2984 23.5022 20.6463 23.2148 21.0957L16.9148 30.9327C16.4653 31.6479 16.1729 32.4504 16.0568 33.2872C15.9408 34.1239 16.0037 34.9758 16.2416 35.7863C16.4795 36.5969 16.8868 37.3477 17.4366 37.989C17.9864 38.6304 18.6661 39.1476 19.4308 39.5066C20.1955 39.8655 21.0278 40.0579 21.8724 40.071C22.717 40.0842 23.5548 39.9178 24.3304 39.5828C25.1059 39.2479 25.8014 38.752 26.3709 38.1281C26.9404 37.5042 27.3709 36.7665 27.6338 35.9637C27.6703 35.8537 27.7407 35.7582 27.8348 35.6906C27.9289 35.6231 28.042 35.5871 28.1578 35.5877H31.8368C31.9527 35.5871 32.0658 35.6231 32.1599 35.6906C32.254 35.7582 32.3243 35.8537 32.3608 35.9637C32.622 36.7687 33.0514 37.5089 33.6206 38.1352C34.1898 38.7614 34.8858 39.2594 35.6622 39.596C36.4387 39.9326 37.2779 40.1002 38.1241 40.0875C38.9703 40.0748 39.8041 39.8822 40.5702 39.5225C41.3362 39.1628 42.0169 38.6442 42.5671 38.0012C43.1173 37.3581 43.5244 36.6054 43.7613 35.7929C43.9982 34.9805 44.0595 34.1269 43.9412 33.2889C43.8228 32.4509 43.5275 31.6477 43.0748 30.9327L43.0698 30.9357ZM21.9558 37.4727C21.1799 37.472 20.4282 37.2024 19.8288 36.7097C19.2294 36.217 18.8193 35.5317 18.6685 34.7705C18.5177 34.0094 18.6355 33.2195 19.0018 32.5355C19.368 31.8514 19.9601 31.3155 20.6772 31.0191C21.3943 30.7227 22.1919 30.684 22.9343 30.9098C23.6767 31.1355 24.3178 31.6116 24.7485 32.2571C25.1792 32.9025 25.3727 33.6773 25.2962 34.4495C25.2197 35.2216 24.8778 35.9433 24.3288 36.4917C24.0172 36.8031 23.6472 37.0501 23.24 37.2184C22.8328 37.3867 22.3964 37.4731 21.9558 37.4727ZM29.9898 33.5587C29.7397 33.5589 29.4973 33.4723 29.3039 33.3138C29.1104 33.1552 28.9779 32.9345 28.929 32.6893C28.88 32.444 28.9176 32.1894 29.0354 31.9687C29.1532 31.7481 29.3438 31.5751 29.5748 31.4792C29.8058 31.3834 30.0629 31.3706 30.3023 31.443C30.5417 31.5155 30.7485 31.6687 30.8876 31.8766C31.0266 32.0845 31.0893 32.3342 31.0649 32.5831C31.0405 32.832 30.9306 33.0647 30.7538 33.2417C30.6536 33.3421 30.5345 33.4218 30.4034 33.4762C30.2723 33.5306 30.1318 33.5586 29.9898 33.5587ZM38.0238 37.4727C37.2478 37.4727 36.4958 37.2037 35.8959 36.7115C35.2961 36.2192 34.8854 35.5342 34.734 34.7731C34.5826 34.012 34.6998 33.222 35.0656 32.5376C35.4314 31.8532 36.0232 31.3169 36.7402 31.0199C37.4571 30.723 38.2548 30.6839 38.9974 30.9092C39.74 31.1345 40.3814 31.6103 40.8125 32.2556C41.2436 32.9008 41.4375 33.6756 41.3614 34.4478C41.2852 35.2201 40.9436 35.9421 40.3948 36.4907C40.0835 36.802 39.7138 37.049 39.307 37.2175C38.9002 37.386 38.4642 37.4727 38.0238 37.4727Z" fill="black"/>
</svg>
