<?xml version="1.0" encoding="UTF-8" standalone="no"?>
<!-- Generator: Adobe Illustrator 22.0.1, SVG Export Plug-In . SVG Version: 6.00 Build 0)  -->

<svg
   version="1.1"
   id="Layer_1"
   x="0px"
   y="0px"
   viewBox="0 0 100 100"
   style="enable-background:new 0 0 100 100;"
   xml:space="preserve"
   sodipodi:docname="outline-icon-television.svg"
   inkscape:version="1.3 (0e150ed6c4, 2023-07-21)"
   xmlns:inkscape="http://www.inkscape.org/namespaces/inkscape"
   xmlns:sodipodi="http://sodipodi.sourceforge.net/DTD/sodipodi-0.dtd"
   xmlns="http://www.w3.org/2000/svg"
   xmlns:svg="http://www.w3.org/2000/svg"><defs
   id="defs3" /><sodipodi:namedview
   id="namedview3"
   pagecolor="#ffffff"
   bordercolor="#000000"
   borderopacity="0.25"
   inkscape:showpageshadow="2"
   inkscape:pageopacity="0.0"
   inkscape:pagecheckerboard="0"
   inkscape:deskcolor="#d1d1d1"
   inkscape:zoom="7.77"
   inkscape:cx="49.93565"
   inkscape:cy="50"
   inkscape:window-width="1920"
   inkscape:window-height="991"
   inkscape:window-x="-9"
   inkscape:window-y="-9"
   inkscape:window-maximized="1"
   inkscape:current-layer="Layer_1" />&#10;<style
   type="text/css"
   id="style1">&#10;	.st0{fill:none;stroke:#000000;stroke-width:4;stroke-miterlimit:10;}&#10;	.st1{fill:none;stroke:#000000;stroke-width:4;stroke-linecap:round;stroke-miterlimit:10;}&#10;	.st2{fill:none;stroke:#000000;stroke-width:2;stroke-miterlimit:10;}&#10;</style>&#10;<path
   class="st0"
   d="M71.4,79.1c-0.6-2.4-1.7-4.3-4.3-4.3H19.5c-2.4,0-3.5,1.2-4.3,4.3c-0.7,2.7-1.7,8.3-1.7,8.3  c0,2.4,1.8,3.1,4.1,3.1h51.8c2.4,0,4-0.7,4-3.1C73.5,87.4,72,81.5,71.4,79.1z"
   id="path1"
   style="stroke:#ffffff;stroke-opacity:1" />&#10;<path
   class="st1"
   d="M62.6,65.9H5.8c-2.7,0-4.8-2.2-4.8-4.8V14.3c0-2.7,2.2-4.8,4.8-4.8h77.6c2.7,0,4.8,2.2,4.8,4.8v37.2"
   id="path2"
   style="stroke:#ffffff;stroke-opacity:1" />&#10;<path
   class="st2"
   d="M97.7,80.7L81.4,53c-2-3.1-6.2-3.9-9.3-1.9l-1.8,1.2c-3.1,2-3.9,6.2-1.9,9.3l19.2,25.8c2,3.1,4,3.9,7.1,1.8  l1.7-1.1C99.4,86.1,99.8,83.8,97.7,80.7z"
   id="path3"
   style="stroke:#ffffff;stroke-opacity:1" />&#10;<circle
   class="st2"
   cx="82.3"
   cy="68.7"
   r="3"
   id="circle3"
   style="stroke:#fbfbfb;stroke-opacity:1" />&#10;</svg>
