<?xml version="1.0" encoding="UTF-8" standalone="no"?>
<!-- Generator: Adobe Illustrator 22.0.1, SVG Export Plug-In . SVG Version: 6.00 Build 0)  -->

<svg
   version="1.1"
   id="Layer_1"
   x="0px"
   y="0px"
   viewBox="0 0 100 100"
   style="enable-background:new 0 0 100 100;"
   xml:space="preserve"
   sodipodi:docname="outline-icon-coins.svg"
   inkscape:version="1.3 (0e150ed6c4, 2023-07-21)"
   xmlns:inkscape="http://www.inkscape.org/namespaces/inkscape"
   xmlns:sodipodi="http://sodipodi.sourceforge.net/DTD/sodipodi-0.dtd"
   xmlns="http://www.w3.org/2000/svg"
   xmlns:svg="http://www.w3.org/2000/svg"><defs
   id="defs10" /><sodipodi:namedview
   id="namedview10"
   pagecolor="#ffffff"
   bordercolor="#000000"
   borderopacity="0.25"
   inkscape:showpageshadow="2"
   inkscape:pageopacity="0.0"
   inkscape:pagecheckerboard="0"
   inkscape:deskcolor="#d1d1d1"
   inkscape:zoom="7.77"
   inkscape:cx="49.93565"
   inkscape:cy="52.831403"
   inkscape:window-width="1920"
   inkscape:window-height="991"
   inkscape:window-x="-9"
   inkscape:window-y="-9"
   inkscape:window-maximized="1"
   inkscape:current-layer="Layer_1" />&#10;<style
   type="text/css"
   id="style1">&#10;	.st0{fill:none;stroke:#000000;stroke-width:4;stroke-linecap:round;stroke-miterlimit:10;}&#10;</style>&#10;<path
   class="st0"
   d="M70.2,2C85.6,2,98,6.9,98,12.8S85.4,23.6,70.2,23.6s-27.9-4.9-27.9-10.8S54.8,2,70.2,2z"
   id="path1"
   style="stroke:#ffffff;stroke-opacity:1" />&#10;<path
   class="st0"
   d="M42.2,13.8c0,2.1,0,11,0,13c0,5.8,12.6,10.8,27.9,10.8S98,32.7,98,26.8c0-2.1,0-11,0-13"
   id="path2"
   style="stroke:#ffffff;stroke-opacity:1" />&#10;<path
   class="st0"
   d="M57.8,50.2c3.8,0.8,8,1.2,12.5,1.2c15.3,0,27.7-4.9,27.7-10.8c0-2.1,0-11,0-13"
   id="path3"
   style="stroke:#ffffff;stroke-opacity:1" />&#10;<path
   class="st0"
   d="M57.8,64.4c3.7,0.8,7.8,1,12.1,1c15.6,0,28.1-4.9,28.1-10.8c0-2.1,0-11,0-13"
   id="path4"
   style="stroke:#ffffff;stroke-opacity:1" />&#10;<path
   class="st0"
   d="M57.8,78.1c3.7,0.8,7.8,1.1,12.3,1.1c15.5,0,27.9-4.9,27.9-10.8c0-2.1,0-11,0-13"
   id="path5"
   style="stroke:#ffffff;stroke-opacity:1" />&#10;<line
   class="st0"
   x1="42.2"
   y1="27"
   x2="42.2"
   y2="39.3"
   id="line5"
   style="stroke:#ffffff;stroke-opacity:1" />&#10;<path
   class="st0"
   d="M57.8,48.9c0,0.1,0,0.2,0,0.3"
   id="path6"
   style="stroke:#ffffff;stroke-opacity:1" />&#10;<path
   class="st0"
   d="M2,61.9c0,5.9,12.5,10.8,28,10.8c15.2,0,27.8-5,27.8-10.8V49.1"
   id="path7"
   style="stroke:#ffffff;stroke-opacity:1" />&#10;<path
   class="st0"
   d="M57.8,49.1c0-5.8-12.6-10.8-27.8-10.8c-15.4,0-27.9,4.9-27.9,10.8s12.5,10.8,27.7,10.8  C45.2,60.1,57.8,55.2,57.8,49.1"
   id="path8"
   style="stroke:#ffffff;stroke-opacity:1" />&#10;<path
   class="st0"
   d="M2,74.5v13.1c0,5.9,12.6,10.9,28,10.9c15.2,0,27.8-4.9,27.8-10.8c0-2.1,0-10.3,0-12.8"
   id="path9"
   style="stroke:#ffffff;stroke-opacity:1" />&#10;<path
   class="st0"
   d="M2,61.9v12.5c0,5.9,12.5,10.8,28,10.8c15.2,0,27.8-5,27.8-10.8c0-0.1,0-10,0-12.5"
   id="path10"
   style="stroke:#ffffff;stroke-opacity:1" />&#10;</svg>
