<?xml version="1.0" encoding="UTF-8" standalone="no"?>
<!-- Generator: Adobe Illustrator 22.0.1, SVG Export Plug-In . SVG Version: 6.00 Build 0)  -->

<svg
   version="1.1"
   id="Layer_1"
   x="0px"
   y="0px"
   viewBox="0 0 100 100"
   style="enable-background:new 0 0 100 100;"
   xml:space="preserve"
   sodipodi:docname="outline-icon-installer.svg"
   inkscape:version="1.3 (0e150ed6c4, 2023-07-21)"
   xmlns:inkscape="http://www.inkscape.org/namespaces/inkscape"
   xmlns:sodipodi="http://sodipodi.sourceforge.net/DTD/sodipodi-0.dtd"
   xmlns="http://www.w3.org/2000/svg"
   xmlns:svg="http://www.w3.org/2000/svg"><defs
   id="defs4" /><sodipodi:namedview
   id="namedview4"
   pagecolor="#ffffff"
   bordercolor="#000000"
   borderopacity="0.25"
   inkscape:showpageshadow="2"
   inkscape:pageopacity="0.0"
   inkscape:pagecheckerboard="0"
   inkscape:deskcolor="#d1d1d1"
   inkscape:zoom="7.77"
   inkscape:cx="49.93565"
   inkscape:cy="50"
   inkscape:window-width="1920"
   inkscape:window-height="991"
   inkscape:window-x="-9"
   inkscape:window-y="-9"
   inkscape:window-maximized="1"
   inkscape:current-layer="Layer_1" />&#10;<style
   type="text/css"
   id="style1">&#10;	.st0{fill:none;stroke:#000000;stroke-width:4;stroke-linecap:round;stroke-linejoin:round;stroke-miterlimit:10;}&#10;	.st1{fill:none;stroke:#000000;stroke-width:4;stroke-miterlimit:10;}&#10;	.st2{fill:none;stroke:#000000;stroke-width:4;stroke-linecap:round;stroke-miterlimit:10;}&#10;</style>&#10;<path
   d="M86.1,16.6c2,0,3.7-1.6,3.7-3.7s-1.6-3.7-3.7-3.7s-3.7,1.6-3.7,3.7C82.4,14.9,84,16.6,86.1,16.6"
   id="path1"
   style="fill:#ffffff;fill-opacity:1" />&#10;<path
   d="M95.3,7.4c2,0,3.7-1.6,3.7-3.7S97.3,0,95.3,0s-3.7,1.6-3.7,3.7C91.6,5.6,93.2,7.4,95.3,7.4"
   id="path2"
   style="fill:#ffffff;fill-opacity:1" />&#10;<polyline
   class="st0"
   points="3.5,52.5 50.1,7.9 95.5,52.7 "
   id="polyline2"
   style="stroke:#ffffff;stroke-opacity:1" />&#10;<path
   class="st0"
   d="M85.2,43.2V92c0,3.3-3.2,5.8-7.2,5.8H20.9c-4,0-7.2-2.7-7.2-5.8V65.9"
   id="path3"
   style="stroke:#ffffff;stroke-opacity:1" />&#10;<line
   class="st1"
   x1="70.7"
   y1="28.3"
   x2="76.8"
   y2="22.1"
   id="line3"
   style="stroke:#ffffff;stroke-opacity:1" />&#10;<path
   class="st2"
   d="M74.6,7.4c-0.6,1.4-0.9,3.1-0.9,4.7c0,7.3,5.9,13.1,13.1,13.1c2.8,0,5.3-0.8,7.5-2.4"
   id="path4"
   style="stroke:#ffffff;stroke-opacity:1" />&#10;</svg>
