<?xml version="1.0" encoding="UTF-8" standalone="no"?>
<!-- Generator: Adobe Illustrator 22.0.1, SVG Export Plug-In . SVG Version: 6.00 Build 0)  -->

<svg
   version="1.1"
   id="Layer_2"
   x="0px"
   y="0px"
   viewBox="0 0 100 100"
   style="enable-background:new 0 0 100 100;"
   xml:space="preserve"
   sodipodi:docname="outline-icon-scales.svg"
   inkscape:version="1.3 (0e150ed6c4, 2023-07-21)"
   xmlns:inkscape="http://www.inkscape.org/namespaces/inkscape"
   xmlns:sodipodi="http://sodipodi.sourceforge.net/DTD/sodipodi-0.dtd"
   xmlns="http://www.w3.org/2000/svg"
   xmlns:svg="http://www.w3.org/2000/svg"><defs
   id="defs6" /><sodipodi:namedview
   id="namedview6"
   pagecolor="#ffffff"
   bordercolor="#000000"
   borderopacity="0.25"
   inkscape:showpageshadow="2"
   inkscape:pageopacity="0.0"
   inkscape:pagecheckerboard="0"
   inkscape:deskcolor="#d1d1d1"
   inkscape:zoom="7.77"
   inkscape:cx="49.93565"
   inkscape:cy="50"
   inkscape:window-width="1920"
   inkscape:window-height="991"
   inkscape:window-x="-9"
   inkscape:window-y="-9"
   inkscape:window-maximized="1"
   inkscape:current-layer="Layer_2" />&#10;<style
   type="text/css"
   id="style1">&#10;	.st0{fill:none;stroke:#000000;stroke-width:4;stroke-linecap:round;stroke-miterlimit:10;}&#10;	.st1{fill:none;stroke:#000000;stroke-width:4;stroke-linecap:round;stroke-linejoin:round;stroke-miterlimit:10;}&#10;</style>&#10;<path
   class="st0"
   d="M50,10.8c-4.9,0-8.9,4.1-8.9,8.9c0,4.9,4.1,8.9,8.9,8.9c4.9,0,8.9-4.1,8.9-8.9C59,14.8,54.9,10.8,50,10.8z"
   id="path1"
   style="stroke:#ffffff;stroke-opacity:1" />&#10;<line
   class="st0"
   x1="50"
   y1="42.3"
   x2="50"
   y2="97.8"
   id="line1"
   style="stroke:#ffffff;stroke-opacity:1" />&#10;<line
   class="st0"
   x1="73.9"
   y1="97.8"
   x2="26.1"
   y2="97.8"
   id="line2"
   style="stroke:#ffffff;stroke-opacity:1" />&#10;<path
   class="st0"
   d="M50,15.9"
   id="path2"
   style="stroke:#ffffff;stroke-opacity:1" />&#10;<path
   class="st1"
   d="M97.9,30.9c-0.4,5.8-5.6,10.4-12,10.4s-11.6-4.6-12-10.4l11.8-25L97.9,30.9z"
   id="path3"
   style="stroke:#ffffff;stroke-opacity:1" />&#10;<line
   class="st0"
   x1="73.9"
   y1="30.9"
   x2="97.9"
   y2="30.9"
   id="line3"
   style="stroke:#ffffff;stroke-opacity:1" />&#10;<path
   class="st1"
   d="M26.2,60.2c-0.4,5.8-5.6,10.4-12,10.4S2.5,66,2.1,60.2l11.8-25L26.2,60.2z"
   id="path4"
   style="stroke:#fcfcfc;stroke-opacity:1" />&#10;<line
   class="st0"
   x1="2.1"
   y1="60.2"
   x2="26.2"
   y2="60.2"
   id="line4"
   style="stroke:#ffffff;stroke-opacity:1" />&#10;<line
   class="st0"
   x1="58.6"
   y1="16.9"
   x2="85.7"
   y2="5.8"
   id="line5"
   style="stroke:#ffffff;stroke-opacity:1" />&#10;<line
   class="st0"
   x1="13.9"
   y1="35.1"
   x2="42"
   y2="23.7"
   id="line6"
   style="stroke:#ffffff;stroke-opacity:1" />&#10;</svg>
