<?xml version="1.0" encoding="UTF-8" standalone="no"?>
<!-- Generator: Adobe Illustrator 22.0.1, SVG Export Plug-In . SVG Version: 6.00 Build 0)  -->

<svg
   version="1.1"
   id="Layer_2"
   x="0px"
   y="0px"
   viewBox="0 0 100 100"
   style="enable-background:new 0 0 100 100;"
   xml:space="preserve"
   sodipodi:docname="outline-icon-error.svg"
   inkscape:version="1.3 (0e150ed6c4, 2023-07-21)"
   xmlns:inkscape="http://www.inkscape.org/namespaces/inkscape"
   xmlns:sodipodi="http://sodipodi.sourceforge.net/DTD/sodipodi-0.dtd"
   xmlns="http://www.w3.org/2000/svg"
   xmlns:svg="http://www.w3.org/2000/svg"><defs
   id="defs3" /><sodipodi:namedview
   id="namedview3"
   pagecolor="#ffffff"
   bordercolor="#000000"
   borderopacity="0.25"
   inkscape:showpageshadow="2"
   inkscape:pageopacity="0.0"
   inkscape:pagecheckerboard="0"
   inkscape:deskcolor="#d1d1d1"
   inkscape:zoom="7.77"
   inkscape:cx="49.93565"
   inkscape:cy="50"
   inkscape:window-width="1920"
   inkscape:window-height="991"
   inkscape:window-x="-9"
   inkscape:window-y="-9"
   inkscape:window-maximized="1"
   inkscape:current-layer="Layer_2" />&#10;<style
   type="text/css"
   id="style1">&#10;	.st0{fill:none;stroke:#000000;stroke-width:4;stroke-linecap:round;stroke-miterlimit:10;}&#10;</style>&#10;<g
   id="g2"
   style="fill:#ffffff;fill-opacity:1">&#10;	<g
   id="g1"
   style="fill:#ffffff;fill-opacity:1">&#10;		<path
   d="M50.9,65.6h-1.7c-0.2-2.9-0.8-6.5-1.7-10.7l-1.9-8.5c-1.2-5-1.8-8.7-1.8-10.9c0-2,0.6-3.6,1.7-4.8    c1.2-1.2,2.6-1.8,4.4-1.8c1.8,0,3.3,0.6,4.4,1.8c1.2,1.3,1.8,2.8,1.8,4.7s-0.6,5.6-1.8,11l-1.9,8.5C51.6,57.9,51.1,61.4,50.9,65.6    z M50,71.1c1.7,0,3.1,0.6,4.3,1.8c1.2,1.3,1.8,2.7,1.8,4.4s-0.6,3.2-1.8,4.4c-1.2,1.3-2.6,1.8-4.3,1.8s-3.1-0.6-4.3-1.8    c-1.2-1.3-1.8-2.7-1.8-4.4c0-1.8,0.6-3.2,1.8-4.4S48.3,71.1,50,71.1z"
   id="path1"
   style="fill:#ffffff;fill-opacity:1" />&#10;	</g>&#10;</g>&#10;<g
   id="g3"
   style="stroke:#ffffff;stroke-opacity:1">&#10;	<path
   class="st0"
   d="M92.4,98H8.5c-5.1,0-8.2-5.5-5.6-10l42-82.9c2.5-4.2,8.6-4.2,11.1,0L98,88"
   id="path2"
   style="stroke:#ffffff;stroke-opacity:1" />&#10;</g>&#10;</svg>
