<svg width="330" height="40" viewBox="0 0 330 40" fill="none" xmlns="http://www.w3.org/2000/svg">
<g clip-path="url(#clip0_1225_2249)">
<mask id="path-1-outside-1_1225_2249" maskUnits="userSpaceOnUse" x="1" y="-0.436523" width="329" height="41" fill="black">
<rect fill="white" x="1" y="-0.436523" width="329" height="41"/>
<path d="M46.852 1.74748V38.5635H35.36V20.2075L29.692 38.5635H19.812L14.144 20.2075V38.5635H2.6V1.74748H16.744L24.856 23.8475L32.76 1.74748H46.852ZM63.7609 38.9275C60.2943 38.9275 57.1049 38.1128 54.1929 36.4835C51.3156 34.8541 49.0276 32.6008 47.3289 29.7235C45.6303 26.8461 44.7809 23.6048 44.7809 19.9995C44.7809 16.3941 45.6303 13.1528 47.3289 10.2755C49.0276 7.39814 51.3156 5.16214 54.1929 3.56747C57.1049 1.93814 60.2943 1.12348 63.7609 1.12348C67.2276 1.12348 70.3996 1.93814 73.2769 3.56747C76.1543 5.16214 78.4249 7.39814 80.0889 10.2755C81.7876 13.1528 82.6369 16.3941 82.6369 19.9995C82.6369 23.6048 81.7876 26.8461 80.0889 29.7235C78.4249 32.6008 76.1369 34.8541 73.2249 36.4835C70.3476 38.1128 67.1929 38.9275 63.7609 38.9275ZM63.7609 28.1635C66.0489 28.1635 67.8169 27.4355 69.0649 25.9795C70.3129 24.4888 70.9369 22.4955 70.9369 19.9995C70.9369 17.4688 70.3129 15.4755 69.0649 14.0195C67.8169 12.5288 66.0489 11.7835 63.7609 11.7835C61.4383 11.7835 59.6529 12.5288 58.4049 14.0195C57.1569 15.4755 56.5329 17.4688 56.5329 19.9995C56.5329 22.4955 57.1569 24.4888 58.4049 25.9795C59.6529 27.4355 61.4383 28.1635 63.7609 28.1635ZM99.0734 38.5635L92.1574 25.3555H92.1054V38.5635H80.5614V1.74748H97.7214C100.703 1.74748 103.251 2.28481 105.365 3.35947C107.48 4.39948 109.057 5.83814 110.097 7.67547C111.172 9.47814 111.709 11.5235 111.709 13.8115C111.709 16.2728 111.016 18.4568 109.629 20.3635C108.277 22.2701 106.319 23.6395 103.753 24.4715L111.761 38.5635H99.0734ZM92.1054 17.6595H96.6814C97.7907 17.6595 98.6227 17.4168 99.1774 16.9315C99.7321 16.4115 100.009 15.6141 100.009 14.5395C100.009 13.5688 99.7147 12.8061 99.1254 12.2515C98.5707 11.6968 97.7561 11.4195 96.6814 11.4195H92.1054V17.6595ZM120.701 10.9515V15.4755H132.141V24.1595H120.701V29.3595H133.701V38.5635H109.157V1.74748H133.701V10.9515H120.701ZM148.548 29.8275H159.676V38.5635H137.004V1.74748H148.548V29.8275ZM168.612 1.74748V38.5635H157.068V1.74748H168.612ZM189.842 38.5635L179.13 22.5995V38.5635H167.586V1.74748H179.13V17.2435L189.686 1.74748H202.738L190.05 19.3755L203.57 38.5635H189.842ZM212.144 10.9515V15.4755H223.584V24.1595H212.144V29.3595H225.144V38.5635H200.6V1.74748H225.144V10.9515H212.144ZM259.955 1.74748V10.8995H250.179V38.5635H238.635V10.8995H228.963V1.74748H259.955ZM290.905 1.74748V38.5635H279.361V24.2115H268.389V38.5635H256.845V1.74748H268.389V15.0075H279.361V1.74748H290.905ZM301.403 1.74748V38.5635H289.859V1.74748H301.403ZM314.781 38.9275C310.379 38.9275 306.739 37.9048 303.861 35.8595C301.019 33.7795 299.476 30.7461 299.233 26.7595H311.505C311.679 28.8741 312.615 29.9315 314.313 29.9315C314.937 29.9315 315.457 29.7928 315.873 29.5155C316.324 29.2035 316.549 28.7355 316.549 28.1115C316.549 27.2448 316.081 26.5515 315.145 26.0315C314.209 25.4768 312.753 24.8528 310.777 24.1595C308.42 23.3275 306.461 22.5128 304.901 21.7155C303.376 20.9181 302.059 19.7568 300.949 18.2315C299.84 16.7061 299.303 14.7475 299.337 12.3555C299.337 9.96348 299.944 7.93548 301.157 6.27147C302.405 4.57281 304.087 3.29014 306.201 2.42347C308.351 1.55681 310.76 1.12348 313.429 1.12348C317.936 1.12348 321.507 2.16348 324.141 4.24348C326.811 6.32348 328.215 9.25281 328.353 13.0315H315.925C315.891 11.9915 315.631 11.2461 315.145 10.7955C314.66 10.3448 314.071 10.1195 313.377 10.1195C312.892 10.1195 312.493 10.2928 312.181 10.6395C311.869 10.9515 311.713 11.4021 311.713 11.9915C311.713 12.8235 312.164 13.5168 313.065 14.0715C314.001 14.5915 315.475 15.2328 317.485 15.9955C319.808 16.8621 321.715 17.6941 323.205 18.4915C324.731 19.2888 326.048 20.3981 327.157 21.8195C328.267 23.2408 328.821 25.0261 328.821 27.1755C328.821 29.4288 328.267 31.4568 327.157 33.2595C326.048 35.0275 324.436 36.4141 322.321 37.4195C320.207 38.4248 317.693 38.9275 314.781 38.9275Z"/>
</mask>
<path d="M46.852 1.74748V38.5635H35.36V20.2075L29.692 38.5635H19.812L14.144 20.2075V38.5635H2.6V1.74748H16.744L24.856 23.8475L32.76 1.74748H46.852ZM63.7609 38.9275C60.2943 38.9275 57.1049 38.1128 54.1929 36.4835C51.3156 34.8541 49.0276 32.6008 47.3289 29.7235C45.6303 26.8461 44.7809 23.6048 44.7809 19.9995C44.7809 16.3941 45.6303 13.1528 47.3289 10.2755C49.0276 7.39814 51.3156 5.16214 54.1929 3.56747C57.1049 1.93814 60.2943 1.12348 63.7609 1.12348C67.2276 1.12348 70.3996 1.93814 73.2769 3.56747C76.1543 5.16214 78.4249 7.39814 80.0889 10.2755C81.7876 13.1528 82.6369 16.3941 82.6369 19.9995C82.6369 23.6048 81.7876 26.8461 80.0889 29.7235C78.4249 32.6008 76.1369 34.8541 73.2249 36.4835C70.3476 38.1128 67.1929 38.9275 63.7609 38.9275ZM63.7609 28.1635C66.0489 28.1635 67.8169 27.4355 69.0649 25.9795C70.3129 24.4888 70.9369 22.4955 70.9369 19.9995C70.9369 17.4688 70.3129 15.4755 69.0649 14.0195C67.8169 12.5288 66.0489 11.7835 63.7609 11.7835C61.4383 11.7835 59.6529 12.5288 58.4049 14.0195C57.1569 15.4755 56.5329 17.4688 56.5329 19.9995C56.5329 22.4955 57.1569 24.4888 58.4049 25.9795C59.6529 27.4355 61.4383 28.1635 63.7609 28.1635ZM99.0734 38.5635L92.1574 25.3555H92.1054V38.5635H80.5614V1.74748H97.7214C100.703 1.74748 103.251 2.28481 105.365 3.35947C107.48 4.39948 109.057 5.83814 110.097 7.67547C111.172 9.47814 111.709 11.5235 111.709 13.8115C111.709 16.2728 111.016 18.4568 109.629 20.3635C108.277 22.2701 106.319 23.6395 103.753 24.4715L111.761 38.5635H99.0734ZM92.1054 17.6595H96.6814C97.7907 17.6595 98.6227 17.4168 99.1774 16.9315C99.7321 16.4115 100.009 15.6141 100.009 14.5395C100.009 13.5688 99.7147 12.8061 99.1254 12.2515C98.5707 11.6968 97.7561 11.4195 96.6814 11.4195H92.1054V17.6595ZM120.701 10.9515V15.4755H132.141V24.1595H120.701V29.3595H133.701V38.5635H109.157V1.74748H133.701V10.9515H120.701ZM148.548 29.8275H159.676V38.5635H137.004V1.74748H148.548V29.8275ZM168.612 1.74748V38.5635H157.068V1.74748H168.612ZM189.842 38.5635L179.13 22.5995V38.5635H167.586V1.74748H179.13V17.2435L189.686 1.74748H202.738L190.05 19.3755L203.57 38.5635H189.842ZM212.144 10.9515V15.4755H223.584V24.1595H212.144V29.3595H225.144V38.5635H200.6V1.74748H225.144V10.9515H212.144ZM259.955 1.74748V10.8995H250.179V38.5635H238.635V10.8995H228.963V1.74748H259.955ZM290.905 1.74748V38.5635H279.361V24.2115H268.389V38.5635H256.845V1.74748H268.389V15.0075H279.361V1.74748H290.905ZM301.403 1.74748V38.5635H289.859V1.74748H301.403ZM314.781 38.9275C310.379 38.9275 306.739 37.9048 303.861 35.8595C301.019 33.7795 299.476 30.7461 299.233 26.7595H311.505C311.679 28.8741 312.615 29.9315 314.313 29.9315C314.937 29.9315 315.457 29.7928 315.873 29.5155C316.324 29.2035 316.549 28.7355 316.549 28.1115C316.549 27.2448 316.081 26.5515 315.145 26.0315C314.209 25.4768 312.753 24.8528 310.777 24.1595C308.42 23.3275 306.461 22.5128 304.901 21.7155C303.376 20.9181 302.059 19.7568 300.949 18.2315C299.84 16.7061 299.303 14.7475 299.337 12.3555C299.337 9.96348 299.944 7.93548 301.157 6.27147C302.405 4.57281 304.087 3.29014 306.201 2.42347C308.351 1.55681 310.76 1.12348 313.429 1.12348C317.936 1.12348 321.507 2.16348 324.141 4.24348C326.811 6.32348 328.215 9.25281 328.353 13.0315H315.925C315.891 11.9915 315.631 11.2461 315.145 10.7955C314.66 10.3448 314.071 10.1195 313.377 10.1195C312.892 10.1195 312.493 10.2928 312.181 10.6395C311.869 10.9515 311.713 11.4021 311.713 11.9915C311.713 12.8235 312.164 13.5168 313.065 14.0715C314.001 14.5915 315.475 15.2328 317.485 15.9955C319.808 16.8621 321.715 17.6941 323.205 18.4915C324.731 19.2888 326.048 20.3981 327.157 21.8195C328.267 23.2408 328.821 25.0261 328.821 27.1755C328.821 29.4288 328.267 31.4568 327.157 33.2595C326.048 35.0275 324.436 36.4141 322.321 37.4195C320.207 38.4248 317.693 38.9275 314.781 38.9275Z" fill="white"/>
<path d="M46.852 1.74748H47.852V0.747476H46.852V1.74748ZM46.852 38.5635V39.5635H47.852V38.5635H46.852ZM35.36 38.5635H34.36V39.5635H35.36V38.5635ZM35.36 20.2075H36.36L34.4045 19.9124L35.36 20.2075ZM29.692 38.5635V39.5635H30.4298L30.6475 38.8585L29.692 38.5635ZM19.812 38.5635L18.8565 38.8585L19.0742 39.5635H19.812V38.5635ZM14.144 20.2075L15.0995 19.9124L13.144 20.2075H14.144ZM14.144 38.5635V39.5635H15.144V38.5635H14.144ZM2.6 38.5635H1.6V39.5635H2.6V38.5635ZM2.6 1.74748V0.747476H1.6V1.74748H2.6ZM16.744 1.74748L17.6828 1.4029L17.4422 0.747476H16.744V1.74748ZM24.856 23.8475L23.9172 24.1921L24.8682 26.7828L25.7976 24.1842L24.856 23.8475ZM32.76 1.74748V0.747476H32.0556L31.8184 1.41072L32.76 1.74748ZM46.852 1.74748H45.852V38.5635H46.852H47.852V1.74748H46.852ZM46.852 38.5635V37.5635H35.36V38.5635V39.5635H46.852V38.5635ZM35.36 38.5635H36.36V20.2075H35.36H34.36V38.5635H35.36ZM35.36 20.2075L34.4045 19.9124L28.7365 38.2684L29.692 38.5635L30.6475 38.8585L36.3155 20.5025L35.36 20.2075ZM29.692 38.5635V37.5635H19.812V38.5635V39.5635H29.692V38.5635ZM19.812 38.5635L20.7675 38.2684L15.0995 19.9124L14.144 20.2075L13.1885 20.5025L18.8565 38.8585L19.812 38.5635ZM14.144 20.2075H13.144V38.5635H14.144H15.144V20.2075H14.144ZM14.144 38.5635V37.5635H2.6V38.5635V39.5635H14.144V38.5635ZM2.6 38.5635H3.6V1.74748H2.6H1.6V38.5635H2.6ZM2.6 1.74748V2.74748H16.744V1.74748V0.747476H2.6V1.74748ZM16.744 1.74748L15.8052 2.09206L23.9172 24.1921L24.856 23.8475L25.7948 23.5029L17.6828 1.4029L16.744 1.74748ZM24.856 23.8475L25.7976 24.1842L33.7016 2.08423L32.76 1.74748L31.8184 1.41072L23.9144 23.5107L24.856 23.8475ZM32.76 1.74748V2.74748H46.852V1.74748V0.747476H32.76V1.74748ZM54.1929 36.4835L53.7002 37.3537L53.7047 37.3562L54.1929 36.4835ZM47.3289 29.7235L46.4678 30.2319L46.4678 30.2319L47.3289 29.7235ZM54.1929 3.56747L54.6777 4.44214L54.6812 4.44016L54.1929 3.56747ZM73.2769 3.56747L72.7842 4.43768L72.7922 4.44213L73.2769 3.56747ZM80.0889 10.2755L79.2232 10.7761L79.2278 10.7839L80.0889 10.2755ZM80.0889 29.7235L79.2278 29.2151L79.2233 29.2229L80.0889 29.7235ZM73.2249 36.4835L72.7366 35.6108L72.7322 35.6133L73.2249 36.4835ZM69.0649 25.9795L69.8242 26.6303L69.8317 26.6214L69.0649 25.9795ZM69.0649 14.0195L68.2981 14.6615L68.3057 14.6703L69.0649 14.0195ZM58.4049 14.0195L59.1642 14.6703L59.1717 14.6614L58.4049 14.0195ZM58.4049 25.9795L57.6381 26.6215L57.6457 26.6303L58.4049 25.9795ZM63.7609 38.9275V37.9275C60.4583 37.9275 57.4381 37.1533 54.6812 35.6108L54.1929 36.4835L53.7047 37.3562C56.7718 39.0723 60.1302 39.9275 63.7609 39.9275V38.9275ZM54.1929 36.4835L54.6857 35.6133C51.9624 34.0712 49.8007 31.9433 48.1901 29.2151L47.3289 29.7235L46.4678 30.2319C48.2545 33.2583 50.6688 35.6371 53.7002 37.3536L54.1929 36.4835ZM47.3289 29.7235L48.1901 29.2151C46.5895 26.5039 45.7809 23.4406 45.7809 19.9995H44.7809H43.7809C43.7809 23.769 44.6711 27.1884 46.4678 30.2319L47.3289 29.7235ZM44.7809 19.9995H45.7809C45.7809 16.5584 46.5895 13.4951 48.1901 10.7839L47.3289 10.2755L46.4678 9.7671C44.6711 12.8105 43.7809 16.2299 43.7809 19.9995H44.7809ZM47.3289 10.2755L48.1901 10.7839C49.7996 8.05743 51.9588 5.949 54.6777 4.44213L54.1929 3.56747L53.7082 2.69282C50.6725 4.37528 48.2556 6.73885 46.4678 9.7671L47.3289 10.2755ZM54.1929 3.56747L54.6812 4.44016C57.4381 2.89762 60.4583 2.12348 63.7609 2.12348V1.12348V0.123475C60.1302 0.123475 56.7718 0.97866 53.7047 2.69479L54.1929 3.56747ZM63.7609 1.12348V2.12348C67.0636 2.12348 70.0645 2.89759 72.7842 4.43765L73.2769 3.56747L73.7697 2.6973C70.7347 0.97869 67.3916 0.123475 63.7609 0.123475V1.12348ZM73.2769 3.56747L72.7922 4.44213C75.5093 5.94798 77.649 8.05394 79.2233 10.7761L80.0889 10.2755L80.9546 9.77485C79.2009 6.74234 76.7993 4.3763 73.7617 2.69282L73.2769 3.56747ZM80.0889 10.2755L79.2278 10.7839C80.8284 13.4951 81.6369 16.5583 81.6369 19.9995H82.6369H83.6369C83.6369 16.2299 82.7468 12.8105 80.9501 9.7671L80.0889 10.2755ZM82.6369 19.9995H81.6369C81.6369 23.4406 80.8284 26.5039 79.2278 29.2151L80.0889 29.7235L80.9501 30.2319C82.7468 27.1884 83.6369 23.769 83.6369 19.9995H82.6369ZM80.0889 29.7235L79.2233 29.2229C77.6497 31.9438 75.4923 34.0689 72.7367 35.6108L73.2249 36.4835L73.7132 37.3562C76.7815 35.6394 79.2002 33.2578 80.9546 30.2241L80.0889 29.7235ZM73.2249 36.4835L72.7322 35.6133C70.011 37.1542 67.0271 37.9275 63.7609 37.9275V38.9275V39.9275C67.3588 39.9275 70.6842 39.0714 73.7177 37.3536L73.2249 36.4835ZM63.7609 28.1635V29.1635C66.2789 29.1635 68.3493 28.351 69.8242 26.6303L69.0649 25.9795L68.3057 25.3287C67.2846 26.5199 65.819 27.1635 63.7609 27.1635V28.1635ZM69.0649 25.9795L69.8317 26.6214C71.2689 24.9047 71.9369 22.6622 71.9369 19.9995H70.9369H69.9369C69.9369 22.3287 69.357 24.0729 68.2982 25.3375L69.0649 25.9795ZM70.9369 19.9995H71.9369C71.9369 17.3075 71.2714 15.0571 69.8242 13.3687L69.0649 14.0195L68.3057 14.6703C69.3545 15.8939 69.9369 17.6302 69.9369 19.9995H70.9369ZM69.0649 14.0195L69.8317 13.3775C68.3593 11.6189 66.2869 10.7835 63.7609 10.7835V11.7835V12.7835C65.811 12.7835 67.2745 13.4387 68.2982 14.6614L69.0649 14.0195ZM63.7609 11.7835V10.7835C61.2059 10.7835 59.1136 11.6153 57.6382 13.3775L58.4049 14.0195L59.1717 14.6614C60.1923 13.4423 61.6706 12.7835 63.7609 12.7835V11.7835ZM58.4049 14.0195L57.6457 13.3687C56.1985 15.0571 55.5329 17.3075 55.5329 19.9995H56.5329H57.5329C57.5329 17.6302 58.1154 15.8939 59.1642 14.6703L58.4049 14.0195ZM56.5329 19.9995H55.5329C55.5329 22.6622 56.201 24.9047 57.6382 26.6214L58.4049 25.9795L59.1717 25.3375C58.1129 24.0729 57.5329 22.3287 57.5329 19.9995H56.5329ZM58.4049 25.9795L57.6457 26.6303C59.1236 28.3545 61.2138 29.1635 63.7609 29.1635V28.1635V27.1635C61.6627 27.1635 60.1823 26.5165 59.1642 25.3287L58.4049 25.9795ZM99.0734 38.5635L98.1875 39.0274L98.4682 39.5635H99.0734V38.5635ZM92.1574 25.3555L93.0433 24.8916L92.7626 24.3555H92.1574V25.3555ZM92.1054 25.3555V24.3555H91.1054V25.3555H92.1054ZM92.1054 38.5635V39.5635H93.1054V38.5635H92.1054ZM80.5614 38.5635H79.5614V39.5635H80.5614V38.5635ZM80.5614 1.74748V0.747476H79.5614V1.74748H80.5614ZM105.365 3.35947L104.912 4.25104L104.924 4.25682L105.365 3.35947ZM110.097 7.67547L109.227 8.16807L109.233 8.17787L109.238 8.18754L110.097 7.67547ZM109.629 20.3635L108.821 19.7753L108.814 19.785L109.629 20.3635ZM103.753 24.4715L103.445 23.5203L102.278 23.8988L102.884 24.9655L103.753 24.4715ZM111.761 38.5635V39.5635H113.48L112.631 38.0694L111.761 38.5635ZM92.1054 17.6595H91.1054V18.6595H92.1054V17.6595ZM99.1774 16.9315L99.8359 17.6841L99.8488 17.6728L99.8614 17.661L99.1774 16.9315ZM99.1254 12.2515L98.4183 12.9586L98.429 12.9693L98.44 12.9797L99.1254 12.2515ZM92.1054 11.4195V10.4195H91.1054V11.4195H92.1054ZM99.0734 38.5635L99.9593 38.0996L93.0433 24.8916L92.1574 25.3555L91.2715 25.8194L98.1875 39.0274L99.0734 38.5635ZM92.1574 25.3555V24.3555H92.1054V25.3555V26.3555H92.1574V25.3555ZM92.1054 25.3555H91.1054V38.5635H92.1054H93.1054V25.3555H92.1054ZM92.1054 38.5635V37.5635H80.5614V38.5635V39.5635H92.1054V38.5635ZM80.5614 38.5635H81.5614V1.74748H80.5614H79.5614V38.5635H80.5614ZM80.5614 1.74748V2.74748H97.7214V1.74748V0.747476H80.5614V1.74748ZM97.7214 1.74748V2.74748C100.585 2.74748 102.969 3.26359 104.912 4.25096L105.365 3.35947L105.818 2.46799C103.532 1.30603 100.821 0.747476 97.7214 0.747476V1.74748ZM105.365 3.35947L104.924 4.25682C106.88 5.21881 108.298 6.52572 109.227 8.16807L110.097 7.67547L110.968 7.18288C109.817 5.15057 108.08 3.58014 105.807 2.46212L105.365 3.35947ZM110.097 7.67547L109.238 8.18754C110.213 9.82154 110.709 11.687 110.709 13.8115H111.709H112.709C112.709 11.36 112.132 9.13474 110.956 7.16341L110.097 7.67547ZM111.709 13.8115H110.709C110.709 16.0714 110.077 18.0474 108.821 19.7753L109.629 20.3635L110.438 20.9516C111.955 18.8662 112.709 16.4742 112.709 13.8115H111.709ZM109.629 20.3635L108.814 19.785C107.605 21.4899 105.838 22.744 103.445 23.5203L103.753 24.4715L104.062 25.4227C106.799 24.5349 108.95 23.0504 110.445 20.9419L109.629 20.3635ZM103.753 24.4715L102.884 24.9655L110.892 39.0575L111.761 38.5635L112.631 38.0694L104.623 23.9774L103.753 24.4715ZM111.761 38.5635V37.5635H99.0734V38.5635V39.5635H111.761V38.5635ZM92.1054 17.6595V18.6595H96.6814V17.6595V16.6595H92.1054V17.6595ZM96.6814 17.6595V18.6595C97.9145 18.6595 99.0261 18.3926 99.8359 17.6841L99.1774 16.9315L98.5189 16.1789C98.2194 16.441 97.667 16.6595 96.6814 16.6595V17.6595ZM99.1774 16.9315L99.8614 17.661C100.689 16.8847 101.009 15.7738 101.009 14.5395H100.009H99.0094C99.0094 15.4545 98.7747 15.9383 98.4935 16.2019L99.1774 16.9315ZM100.009 14.5395H101.009C101.009 13.3525 100.64 12.3041 99.8108 11.5233L99.1254 12.2515L98.44 12.9797C98.7891 13.3082 99.0094 13.7851 99.0094 14.5395H100.009ZM99.1254 12.2515L99.8325 11.5444C99.0296 10.7414 97.9209 10.4195 96.6814 10.4195V11.4195V12.4195C97.5913 12.4195 98.1119 12.6522 98.4183 12.9586L99.1254 12.2515ZM96.6814 11.4195V10.4195H92.1054V11.4195V12.4195H96.6814V11.4195ZM92.1054 11.4195H91.1054V17.6595H92.1054H93.1054V11.4195H92.1054ZM120.701 10.9515V9.95148H119.701V10.9515H120.701ZM120.701 15.4755H119.701V16.4755H120.701V15.4755ZM132.141 15.4755H133.141V14.4755H132.141V15.4755ZM132.141 24.1595V25.1595H133.141V24.1595H132.141ZM120.701 24.1595V23.1595H119.701V24.1595H120.701ZM120.701 29.3595H119.701V30.3595H120.701V29.3595ZM133.701 29.3595H134.701V28.3595H133.701V29.3595ZM133.701 38.5635V39.5635H134.701V38.5635H133.701ZM109.157 38.5635H108.157V39.5635H109.157V38.5635ZM109.157 1.74748V0.747476H108.157V1.74748H109.157ZM133.701 1.74748H134.701V0.747476H133.701V1.74748ZM133.701 10.9515V11.9515H134.701V10.9515H133.701ZM120.701 10.9515H119.701V15.4755H120.701H121.701V10.9515H120.701ZM120.701 15.4755V16.4755H132.141V15.4755V14.4755H120.701V15.4755ZM132.141 15.4755H131.141V24.1595H132.141H133.141V15.4755H132.141ZM132.141 24.1595V23.1595H120.701V24.1595V25.1595H132.141V24.1595ZM120.701 24.1595H119.701V29.3595H120.701H121.701V24.1595H120.701ZM120.701 29.3595V30.3595H133.701V29.3595V28.3595H120.701V29.3595ZM133.701 29.3595H132.701V38.5635H133.701H134.701V29.3595H133.701ZM133.701 38.5635V37.5635H109.157V38.5635V39.5635H133.701V38.5635ZM109.157 38.5635H110.157V1.74748H109.157H108.157V38.5635H109.157ZM109.157 1.74748V2.74748H133.701V1.74748V0.747476H109.157V1.74748ZM133.701 1.74748H132.701V10.9515H133.701H134.701V1.74748H133.701ZM133.701 10.9515V9.95148H120.701V10.9515V11.9515H133.701V10.9515ZM148.548 29.8275H147.548V30.8275H148.548V29.8275ZM159.676 29.8275H160.676V28.8275H159.676V29.8275ZM159.676 38.5635V39.5635H160.676V38.5635H159.676ZM137.004 38.5635H136.004V39.5635H137.004V38.5635ZM137.004 1.74748V0.747476H136.004V1.74748H137.004ZM148.548 1.74748H149.548V0.747476H148.548V1.74748ZM148.548 29.8275V30.8275H159.676V29.8275V28.8275H148.548V29.8275ZM159.676 29.8275H158.676V38.5635H159.676H160.676V29.8275H159.676ZM159.676 38.5635V37.5635H137.004V38.5635V39.5635H159.676V38.5635ZM137.004 38.5635H138.004V1.74748H137.004H136.004V38.5635H137.004ZM137.004 1.74748V2.74748H148.548V1.74748V0.747476H137.004V1.74748ZM148.548 1.74748H147.548V29.8275H148.548H149.548V1.74748H148.548ZM168.612 1.74748H169.612V0.747476H168.612V1.74748ZM168.612 38.5635V39.5635H169.612V38.5635H168.612ZM157.068 38.5635H156.068V39.5635H157.068V38.5635ZM157.068 1.74748V0.747476H156.068V1.74748H157.068ZM168.612 1.74748H167.612V38.5635H168.612H169.612V1.74748H168.612ZM168.612 38.5635V37.5635H157.068V38.5635V39.5635H168.612V38.5635ZM157.068 38.5635H158.068V1.74748H157.068H156.068V38.5635H157.068ZM157.068 1.74748V2.74748H168.612V1.74748V0.747476H157.068V1.74748ZM189.842 38.5635L189.012 39.1207L189.309 39.5635H189.842V38.5635ZM179.13 22.5995L179.961 22.0423L178.13 19.3145V22.5995H179.13ZM179.13 38.5635V39.5635H180.13V38.5635H179.13ZM167.586 38.5635H166.586V39.5635H167.586V38.5635ZM167.586 1.74748V0.747476H166.586V1.74748H167.586ZM179.13 1.74748H180.13V0.747476H179.13V1.74748ZM179.13 17.2435H178.13V20.4877L179.957 17.8065L179.13 17.2435ZM189.686 1.74748V0.747476H189.157L188.86 1.18448L189.686 1.74748ZM202.738 1.74748L203.55 2.33165L204.69 0.747476H202.738V1.74748ZM190.05 19.3755L189.239 18.7913L188.823 19.3693L189.233 19.9515L190.05 19.3755ZM203.57 38.5635V39.5635H205.498L204.388 37.9875L203.57 38.5635ZM189.842 38.5635L190.673 38.0063L179.961 22.0423L179.13 22.5995L178.3 23.1567L189.012 39.1207L189.842 38.5635ZM179.13 22.5995H178.13V38.5635H179.13H180.13V22.5995H179.13ZM179.13 38.5635V37.5635H167.586V38.5635V39.5635H179.13V38.5635ZM167.586 38.5635H168.586V1.74748H167.586H166.586V38.5635H167.586ZM167.586 1.74748V2.74748H179.13V1.74748V0.747476H167.586V1.74748ZM179.13 1.74748H178.13V17.2435H179.13H180.13V1.74748H179.13ZM179.13 17.2435L179.957 17.8065L190.513 2.31047L189.686 1.74748L188.86 1.18448L178.304 16.6805L179.13 17.2435ZM189.686 1.74748V2.74748H202.738V1.74748V0.747476H189.686V1.74748ZM202.738 1.74748L201.927 1.1633L189.239 18.7913L190.05 19.3755L190.862 19.9597L203.55 2.33165L202.738 1.74748ZM190.05 19.3755L189.233 19.9515L202.753 39.1395L203.57 38.5635L204.388 37.9875L190.868 18.7995L190.05 19.3755ZM203.57 38.5635V37.5635H189.842V38.5635V39.5635H203.57V38.5635ZM212.144 10.9515V9.95148H211.144V10.9515H212.144ZM212.144 15.4755H211.144V16.4755H212.144V15.4755ZM223.584 15.4755H224.584V14.4755H223.584V15.4755ZM223.584 24.1595V25.1595H224.584V24.1595H223.584ZM212.144 24.1595V23.1595H211.144V24.1595H212.144ZM212.144 29.3595H211.144V30.3595H212.144V29.3595ZM225.144 29.3595H226.144V28.3595H225.144V29.3595ZM225.144 38.5635V39.5635H226.144V38.5635H225.144ZM200.6 38.5635H199.6V39.5635H200.6V38.5635ZM200.6 1.74748V0.747476H199.6V1.74748H200.6ZM225.144 1.74748H226.144V0.747476H225.144V1.74748ZM225.144 10.9515V11.9515H226.144V10.9515H225.144ZM212.144 10.9515H211.144V15.4755H212.144H213.144V10.9515H212.144ZM212.144 15.4755V16.4755H223.584V15.4755V14.4755H212.144V15.4755ZM223.584 15.4755H222.584V24.1595H223.584H224.584V15.4755H223.584ZM223.584 24.1595V23.1595H212.144V24.1595V25.1595H223.584V24.1595ZM212.144 24.1595H211.144V29.3595H212.144H213.144V24.1595H212.144ZM212.144 29.3595V30.3595H225.144V29.3595V28.3595H212.144V29.3595ZM225.144 29.3595H224.144V38.5635H225.144H226.144V29.3595H225.144ZM225.144 38.5635V37.5635H200.6V38.5635V39.5635H225.144V38.5635ZM200.6 38.5635H201.6V1.74748H200.6H199.6V38.5635H200.6ZM200.6 1.74748V2.74748H225.144V1.74748V0.747476H200.6V1.74748ZM225.144 1.74748H224.144V10.9515H225.144H226.144V1.74748H225.144ZM225.144 10.9515V9.95148H212.144V10.9515V11.9515H225.144V10.9515ZM259.955 1.74748H260.955V0.747476H259.955V1.74748ZM259.955 10.8995V11.8995H260.955V10.8995H259.955ZM250.179 10.8995V9.89948H249.179V10.8995H250.179ZM250.179 38.5635V39.5635H251.179V38.5635H250.179ZM238.635 38.5635H237.635V39.5635H238.635V38.5635ZM238.635 10.8995H239.635V9.89948H238.635V10.8995ZM228.963 10.8995H227.963V11.8995H228.963V10.8995ZM228.963 1.74748V0.747476H227.963V1.74748H228.963ZM259.955 1.74748H258.955V10.8995H259.955H260.955V1.74748H259.955ZM259.955 10.8995V9.89948H250.179V10.8995V11.8995H259.955V10.8995ZM250.179 10.8995H249.179V38.5635H250.179H251.179V10.8995H250.179ZM250.179 38.5635V37.5635H238.635V38.5635V39.5635H250.179V38.5635ZM238.635 38.5635H239.635V10.8995H238.635H237.635V38.5635H238.635ZM238.635 10.8995V9.89948H228.963V10.8995V11.8995H238.635V10.8995ZM228.963 10.8995H229.963V1.74748H228.963H227.963V10.8995H228.963ZM228.963 1.74748V2.74748H259.955V1.74748V0.747476H228.963V1.74748ZM290.905 1.74748H291.905V0.747476H290.905V1.74748ZM290.905 38.5635V39.5635H291.905V38.5635H290.905ZM279.361 38.5635H278.361V39.5635H279.361V38.5635ZM279.361 24.2115H280.361V23.2115H279.361V24.2115ZM268.389 24.2115V23.2115H267.389V24.2115H268.389ZM268.389 38.5635V39.5635H269.389V38.5635H268.389ZM256.845 38.5635H255.845V39.5635H256.845V38.5635ZM256.845 1.74748V0.747476H255.845V1.74748H256.845ZM268.389 1.74748H269.389V0.747476H268.389V1.74748ZM268.389 15.0075H267.389V16.0075H268.389V15.0075ZM279.361 15.0075V16.0075H280.361V15.0075H279.361ZM279.361 1.74748V0.747476H278.361V1.74748H279.361ZM290.905 1.74748H289.905V38.5635H290.905H291.905V1.74748H290.905ZM290.905 38.5635V37.5635H279.361V38.5635V39.5635H290.905V38.5635ZM279.361 38.5635H280.361V24.2115H279.361H278.361V38.5635H279.361ZM279.361 24.2115V23.2115H268.389V24.2115V25.2115H279.361V24.2115ZM268.389 24.2115H267.389V38.5635H268.389H269.389V24.2115H268.389ZM268.389 38.5635V37.5635H256.845V38.5635V39.5635H268.389V38.5635ZM256.845 38.5635H257.845V1.74748H256.845H255.845V38.5635H256.845ZM256.845 1.74748V2.74748H268.389V1.74748V0.747476H256.845V1.74748ZM268.389 1.74748H267.389V15.0075H268.389H269.389V1.74748H268.389ZM268.389 15.0075V16.0075H279.361V15.0075V14.0075H268.389V15.0075ZM279.361 15.0075H280.361V1.74748H279.361H278.361V15.0075H279.361ZM279.361 1.74748V2.74748H290.905V1.74748V0.747476H279.361V1.74748ZM301.403 1.74748H302.403V0.747476H301.403V1.74748ZM301.403 38.5635V39.5635H302.403V38.5635H301.403ZM289.859 38.5635H288.859V39.5635H289.859V38.5635ZM289.859 1.74748V0.747476H288.859V1.74748H289.859ZM301.403 1.74748H300.403V38.5635H301.403H302.403V1.74748H301.403ZM301.403 38.5635V37.5635H289.859V38.5635V39.5635H301.403V38.5635ZM289.859 38.5635H290.859V1.74748H289.859H288.859V38.5635H289.859ZM289.859 1.74748V2.74748H301.403V1.74748V0.747476H289.859V1.74748ZM303.861 35.8595L303.271 36.6666L303.282 36.6745L303.861 35.8595ZM299.233 26.7595V25.7595H298.17L298.235 26.8202L299.233 26.7595ZM311.505 26.7595L312.502 26.6778L312.427 25.7595H311.505V26.7595ZM315.873 29.5155L316.428 30.3475L316.435 30.3427L316.442 30.3377L315.873 29.5155ZM315.145 26.0315L314.635 26.8918L314.647 26.8989L314.66 26.9056L315.145 26.0315ZM310.777 24.1595L310.444 25.1025L310.446 25.1031L310.777 24.1595ZM304.901 21.7155L304.438 22.6017L304.446 22.6059L304.901 21.7155ZM300.949 18.2315L301.758 17.6433L301.758 17.6433L300.949 18.2315ZM299.337 12.3555L300.337 12.37L300.337 12.3627V12.3555H299.337ZM301.157 6.27147L300.351 5.67939L300.349 5.6823L301.157 6.27147ZM306.201 2.42347L305.827 1.49602L305.822 1.49817L306.201 2.42347ZM324.141 4.24348L323.522 5.02837L323.527 5.03228L324.141 4.24348ZM328.353 13.0315V14.0315H329.391L329.353 12.9948L328.353 13.0315ZM315.925 13.0315L314.926 13.0648L314.958 14.0315H315.925V13.0315ZM312.181 10.6395L312.888 11.3466L312.907 11.328L312.924 11.3084L312.181 10.6395ZM313.065 14.0715L312.541 14.9231L312.56 14.9348L312.58 14.9456L313.065 14.0715ZM317.485 15.9955L317.131 16.9305L317.136 16.9324L317.485 15.9955ZM323.205 18.4915L322.734 19.3733L322.742 19.3777L323.205 18.4915ZM327.157 21.8195L326.369 22.4347L326.369 22.4347L327.157 21.8195ZM327.157 33.2595L328.004 33.791L328.009 33.7836L327.157 33.2595ZM322.321 37.4195L321.892 36.5163L322.321 37.4195ZM314.781 38.9275V37.9275C310.534 37.9275 307.111 36.9426 304.441 35.0444L303.861 35.8595L303.282 36.6745C306.366 38.8671 310.223 39.9275 314.781 39.9275V38.9275ZM303.861 35.8595L304.452 35.0524C301.883 33.173 300.459 30.4331 300.231 26.6987L299.233 26.7595L298.235 26.8202C298.493 31.0592 300.154 34.386 303.271 36.6665L303.861 35.8595ZM299.233 26.7595V27.7595H311.505V26.7595V25.7595H299.233V26.7595ZM311.505 26.7595L310.509 26.8412C310.604 28.0111 310.921 29.0477 311.588 29.8013C312.285 30.5877 313.241 30.9315 314.313 30.9315V29.9315V28.9315C313.687 28.9315 313.326 28.7466 313.086 28.4756C312.817 28.172 312.579 27.6225 312.502 26.6778L311.505 26.7595ZM314.313 29.9315V30.9315C315.086 30.9315 315.811 30.7588 316.428 30.3475L315.873 29.5155L315.318 28.6834C315.103 28.8269 314.789 28.9315 314.313 28.9315V29.9315ZM315.873 29.5155L316.442 30.3377C317.203 29.8108 317.549 29.0109 317.549 28.1115H316.549H315.549C315.549 28.46 315.444 28.5962 315.304 28.6933L315.873 29.5155ZM316.549 28.1115H317.549C317.549 26.791 316.796 25.8048 315.631 25.1573L315.145 26.0315L314.66 26.9056C315.366 27.2982 315.549 27.6986 315.549 28.1115H316.549ZM315.145 26.0315L315.655 25.1712C314.632 24.5649 313.101 23.9149 311.108 23.2159L310.777 24.1595L310.446 25.1031C312.406 25.7907 313.786 26.3887 314.635 26.8918L315.145 26.0315ZM310.777 24.1595L311.11 23.2165C308.778 22.3936 306.864 21.5957 305.356 20.825L304.901 21.7155L304.446 22.6059C306.058 23.43 308.061 24.2614 310.444 25.1025L310.777 24.1595ZM304.901 21.7155L305.364 20.8293C303.988 20.11 302.785 19.0561 301.758 17.6433L300.949 18.2315L300.14 18.8196C301.332 20.4575 302.763 21.7263 304.438 22.6017L304.901 21.7155ZM300.949 18.2315L301.758 17.6433C300.806 16.335 300.305 14.6043 300.337 12.37L299.337 12.3555L298.337 12.341C298.3 14.8906 298.873 17.0773 300.14 18.8196L300.949 18.2315ZM299.337 12.3555H300.337C300.337 10.1398 300.896 8.32699 301.965 6.86065L301.157 6.27147L300.349 5.6823C298.992 7.54396 298.337 9.78712 298.337 12.3555H299.337ZM301.157 6.27147L301.963 6.86355C303.093 5.3255 304.621 4.1518 306.58 3.34878L306.201 2.42347L305.822 1.49817C303.552 2.42848 301.717 3.82011 300.351 5.6794L301.157 6.27147ZM306.201 2.42347L306.575 3.35092C308.589 2.53888 310.869 2.12348 313.429 2.12348V1.12348V0.123475C310.651 0.123475 308.112 0.574734 305.827 1.49603L306.201 2.42347ZM313.429 1.12348V2.12348C317.788 2.12348 321.115 3.12879 323.522 5.02836L324.141 4.24348L324.761 3.45859C321.898 1.19816 318.084 0.123475 313.429 0.123475V1.12348ZM324.141 4.24348L323.527 5.03228C325.934 6.90799 327.225 9.54569 327.354 13.0681L328.353 13.0315L329.353 12.9948C329.204 8.95992 327.687 5.73896 324.756 3.45467L324.141 4.24348ZM328.353 13.0315V12.0315H315.925V13.0315V14.0315H328.353V13.0315ZM315.925 13.0315L316.925 12.9982C316.886 11.8395 316.593 10.7752 315.826 10.0627L315.145 10.7955L314.465 11.5283C314.668 11.7171 314.895 12.1435 314.926 13.0648L315.925 13.0315ZM315.145 10.7955L315.826 10.0627C315.146 9.4316 314.31 9.11947 313.377 9.11947V10.1195V11.1195C313.831 11.1195 314.174 11.258 314.465 11.5283L315.145 10.7955ZM313.377 10.1195V9.11947C312.621 9.11947 311.948 9.40361 311.438 9.97051L312.181 10.6395L312.924 11.3084C313.038 11.182 313.162 11.1195 313.377 11.1195V10.1195ZM312.181 10.6395L311.474 9.93237C310.918 10.4882 310.713 11.2288 310.713 11.9915H311.713H312.713C312.713 11.5754 312.82 11.4148 312.888 11.3466L312.181 10.6395ZM311.713 11.9915H310.713C310.713 13.2666 311.436 14.2431 312.541 14.9231L313.065 14.0715L313.589 13.2198C312.892 12.7905 312.713 12.3804 312.713 11.9915H311.713ZM313.065 14.0715L312.58 14.9456C313.581 15.5022 315.11 16.1641 317.131 16.9305L317.485 15.9955L317.84 15.0605C315.839 14.3015 314.421 13.6808 313.551 13.1973L313.065 14.0715ZM317.485 15.9955L317.136 16.9324C319.434 17.7899 321.296 18.6043 322.734 19.3733L323.205 18.4915L323.677 17.6097C322.133 16.784 320.182 15.9344 317.835 15.0586L317.485 15.9955ZM323.205 18.4915L322.742 19.3777C324.135 20.1058 325.343 21.1204 326.369 22.4347L327.157 21.8195L327.946 21.2042C326.753 19.6759 325.326 18.4718 323.668 17.6053L323.205 18.4915ZM327.157 21.8195L326.369 22.4347C327.316 23.6483 327.821 25.2047 327.821 27.1755H328.821H329.821C329.821 24.8475 329.217 22.8333 327.946 21.2042L327.157 21.8195ZM328.821 27.1755H327.821C327.821 29.2562 327.312 31.1006 326.306 32.7354L327.157 33.2595L328.009 33.7836C329.222 31.813 329.821 29.6014 329.821 27.1755H328.821ZM327.157 33.2595L326.31 32.728C325.314 34.3158 323.856 35.5824 321.892 36.5163L322.321 37.4195L322.751 38.3226C325.015 37.2459 326.782 35.7391 328.004 33.791L327.157 33.2595ZM322.321 37.4195L321.892 36.5163C319.94 37.4443 317.58 37.9275 314.781 37.9275V38.9275V39.9275C317.806 39.9275 320.473 39.4053 322.751 38.3226L322.321 37.4195Z" fill="#C10007" mask="url(#path-1-outside-1_1225_2249)"/>
</g>
<defs>
<clipPath id="clip0_1225_2249">
<rect width="330" height="40" fill="white"/>
</clipPath>
</defs>
</svg>
