<svg width="230" height="43" viewBox="0 0 230 43" fill="none" xmlns="http://www.w3.org/2000/svg">
<g clip-path="url(#clip0_569_490)">
<mask id="path-1-outside-1_569_490" maskUnits="userSpaceOnUse" x="0.5" y="1" width="228" height="41" fill="black">
<rect fill="white" x="0.5" y="1" width="228" height="41"/>
<path d="M32.208 15.82C32.208 18.1427 31.6707 20.2573 30.596 22.164C29.5213 24.036 27.9267 25.5267 25.812 26.636C23.732 27.7453 21.2013 28.3 18.22 28.3H13.644V40H2.1V3.184H18.22C22.7267 3.184 26.176 4.328 28.568 6.616C30.9947 8.904 32.208 11.972 32.208 15.82ZM16.92 19.2C19.312 19.2 20.508 18.0733 20.508 15.82C20.508 13.5667 19.312 12.44 16.92 12.44H13.644V19.2H16.92ZM48.1415 40L41.2255 26.792H41.1735V40H29.6295V3.184H46.7895C49.7709 3.184 52.3189 3.72133 54.4335 4.796C56.5482 5.836 58.1255 7.27467 59.1655 9.112C60.2402 10.9147 60.7775 12.96 60.7775 15.248C60.7775 17.7093 60.0842 19.8933 58.6975 21.8C57.3455 23.7067 55.3869 25.076 52.8215 25.908L60.8295 40H48.1415ZM41.1735 19.096H45.7495C46.8589 19.096 47.6909 18.8533 48.2455 18.368C48.8002 17.848 49.0775 17.0507 49.0775 15.976C49.0775 15.0053 48.7829 14.2427 48.1935 13.688C47.6389 13.1333 46.8242 12.856 45.7495 12.856H41.1735V19.096ZM76.1655 40.364C72.6988 40.364 69.5095 39.5493 66.5975 37.92C63.7201 36.2907 61.4321 34.0373 59.7335 31.16C58.0348 28.2827 57.1855 25.0413 57.1855 21.436C57.1855 17.8307 58.0348 14.5893 59.7335 11.712C61.4321 8.83466 63.7201 6.59866 66.5975 5.004C69.5095 3.37467 72.6988 2.56 76.1655 2.56C79.6321 2.56 82.8041 3.37467 85.6815 5.004C88.5588 6.59866 90.8295 8.83466 92.4935 11.712C94.1921 14.5893 95.0415 17.8307 95.0415 21.436C95.0415 25.0413 94.1921 28.2827 92.4935 31.16C90.8295 34.0373 88.5415 36.2907 85.6295 37.92C82.7521 39.5493 79.5975 40.364 76.1655 40.364ZM76.1655 29.6C78.4535 29.6 80.2215 28.872 81.4695 27.416C82.7175 25.9253 83.3415 23.932 83.3415 21.436C83.3415 18.9053 82.7175 16.912 81.4695 15.456C80.2215 13.9653 78.4535 13.22 76.1655 13.22C73.8428 13.22 72.0575 13.9653 70.8095 15.456C69.5615 16.912 68.9375 18.9053 68.9375 21.436C68.9375 23.932 69.5615 25.9253 70.8095 27.416C72.0575 28.872 73.8428 29.6 76.1655 29.6ZM118.654 3.184V26.948C118.654 31.3507 117.493 34.696 115.17 36.984C112.882 39.2373 109.658 40.364 105.498 40.364C101.026 40.364 97.4726 39.1333 94.8379 36.672C92.2033 34.2107 90.8859 30.6227 90.8859 25.908H102.274C102.274 27.3987 102.517 28.456 103.002 29.08C103.487 29.6693 104.146 29.964 104.978 29.964C105.671 29.964 106.209 29.7387 106.59 29.288C106.971 28.8373 107.162 28.0573 107.162 26.948V3.184H118.654ZM128.942 12.388V16.912H140.382V25.596H128.942V30.796H141.942V40H117.398V3.184H141.942V12.388H128.942ZM139.012 21.54C139.012 17.9 139.74 14.6587 141.196 11.816C142.687 8.97333 144.802 6.772 147.54 5.212C150.279 3.61733 153.503 2.82 157.212 2.82C160.402 2.82 163.244 3.42667 165.74 4.64C168.271 5.81867 170.316 7.5 171.876 9.684C173.471 11.868 174.528 14.416 175.048 17.328H162.88C162.326 16.1147 161.528 15.1787 160.488 14.52C159.483 13.8267 158.322 13.48 157.004 13.48C155.063 13.48 153.52 14.208 152.376 15.664C151.267 17.12 150.712 19.0787 150.712 21.54C150.712 24.0013 151.267 25.96 152.376 27.416C153.52 28.872 155.063 29.6 157.004 29.6C158.322 29.6 159.483 29.2707 160.488 28.612C161.528 27.9187 162.326 26.9653 162.88 25.752H175.048C174.528 28.664 173.471 31.212 171.876 33.396C170.316 35.58 168.271 37.2787 165.74 38.492C163.244 39.6707 160.402 40.26 157.212 40.26C153.503 40.26 150.279 39.48 147.54 37.92C144.802 36.3253 142.687 34.1067 141.196 31.264C139.74 28.4213 139.012 25.18 139.012 21.54ZM201.877 3.184V12.336H192.101V40H180.557V12.336H170.885V3.184H201.877ZM213.172 40.364C208.769 40.364 205.129 39.3413 202.252 37.296C199.409 35.216 197.866 32.1827 197.624 28.196H209.896C210.069 30.3107 211.005 31.368 212.704 31.368C213.328 31.368 213.848 31.2293 214.264 30.952C214.714 30.64 214.94 30.172 214.94 29.548C214.94 28.6813 214.472 27.988 213.536 27.468C212.6 26.9133 211.144 26.2893 209.168 25.596C206.81 24.764 204.852 23.9493 203.292 23.152C201.766 22.3547 200.449 21.1933 199.34 19.668C198.23 18.1427 197.693 16.184 197.728 13.792C197.728 11.4 198.334 9.372 199.548 7.708C200.796 6.00933 202.477 4.72667 204.592 3.86C206.741 2.99333 209.15 2.56 211.82 2.56C216.326 2.56 219.897 3.6 222.532 5.68C225.201 7.76 226.605 10.6893 226.744 14.468H214.316C214.281 13.428 214.021 12.6827 213.536 12.232C213.05 11.7813 212.461 11.556 211.768 11.556C211.282 11.556 210.884 11.7293 210.572 12.076C210.26 12.388 210.104 12.8387 210.104 13.428C210.104 14.26 210.554 14.9533 211.456 15.508C212.392 16.028 213.865 16.6693 215.876 17.432C218.198 18.2987 220.105 19.1307 221.596 19.928C223.121 20.7253 224.438 21.8347 225.548 23.256C226.657 24.6773 227.212 26.4627 227.212 28.612C227.212 30.8653 226.657 32.8933 225.548 34.696C224.438 36.464 222.826 37.8507 220.712 38.856C218.597 39.8613 216.084 40.364 213.172 40.364Z"/>
</mask>
<path d="M32.208 15.82C32.208 18.1427 31.6707 20.2573 30.596 22.164C29.5213 24.036 27.9267 25.5267 25.812 26.636C23.732 27.7453 21.2013 28.3 18.22 28.3H13.644V40H2.1V3.184H18.22C22.7267 3.184 26.176 4.328 28.568 6.616C30.9947 8.904 32.208 11.972 32.208 15.82ZM16.92 19.2C19.312 19.2 20.508 18.0733 20.508 15.82C20.508 13.5667 19.312 12.44 16.92 12.44H13.644V19.2H16.92ZM48.1415 40L41.2255 26.792H41.1735V40H29.6295V3.184H46.7895C49.7709 3.184 52.3189 3.72133 54.4335 4.796C56.5482 5.836 58.1255 7.27467 59.1655 9.112C60.2402 10.9147 60.7775 12.96 60.7775 15.248C60.7775 17.7093 60.0842 19.8933 58.6975 21.8C57.3455 23.7067 55.3869 25.076 52.8215 25.908L60.8295 40H48.1415ZM41.1735 19.096H45.7495C46.8589 19.096 47.6909 18.8533 48.2455 18.368C48.8002 17.848 49.0775 17.0507 49.0775 15.976C49.0775 15.0053 48.7829 14.2427 48.1935 13.688C47.6389 13.1333 46.8242 12.856 45.7495 12.856H41.1735V19.096ZM76.1655 40.364C72.6988 40.364 69.5095 39.5493 66.5975 37.92C63.7201 36.2907 61.4321 34.0373 59.7335 31.16C58.0348 28.2827 57.1855 25.0413 57.1855 21.436C57.1855 17.8307 58.0348 14.5893 59.7335 11.712C61.4321 8.83466 63.7201 6.59866 66.5975 5.004C69.5095 3.37467 72.6988 2.56 76.1655 2.56C79.6321 2.56 82.8041 3.37467 85.6815 5.004C88.5588 6.59866 90.8295 8.83466 92.4935 11.712C94.1921 14.5893 95.0415 17.8307 95.0415 21.436C95.0415 25.0413 94.1921 28.2827 92.4935 31.16C90.8295 34.0373 88.5415 36.2907 85.6295 37.92C82.7521 39.5493 79.5975 40.364 76.1655 40.364ZM76.1655 29.6C78.4535 29.6 80.2215 28.872 81.4695 27.416C82.7175 25.9253 83.3415 23.932 83.3415 21.436C83.3415 18.9053 82.7175 16.912 81.4695 15.456C80.2215 13.9653 78.4535 13.22 76.1655 13.22C73.8428 13.22 72.0575 13.9653 70.8095 15.456C69.5615 16.912 68.9375 18.9053 68.9375 21.436C68.9375 23.932 69.5615 25.9253 70.8095 27.416C72.0575 28.872 73.8428 29.6 76.1655 29.6ZM118.654 3.184V26.948C118.654 31.3507 117.493 34.696 115.17 36.984C112.882 39.2373 109.658 40.364 105.498 40.364C101.026 40.364 97.4726 39.1333 94.8379 36.672C92.2033 34.2107 90.8859 30.6227 90.8859 25.908H102.274C102.274 27.3987 102.517 28.456 103.002 29.08C103.487 29.6693 104.146 29.964 104.978 29.964C105.671 29.964 106.209 29.7387 106.59 29.288C106.971 28.8373 107.162 28.0573 107.162 26.948V3.184H118.654ZM128.942 12.388V16.912H140.382V25.596H128.942V30.796H141.942V40H117.398V3.184H141.942V12.388H128.942ZM139.012 21.54C139.012 17.9 139.74 14.6587 141.196 11.816C142.687 8.97333 144.802 6.772 147.54 5.212C150.279 3.61733 153.503 2.82 157.212 2.82C160.402 2.82 163.244 3.42667 165.74 4.64C168.271 5.81867 170.316 7.5 171.876 9.684C173.471 11.868 174.528 14.416 175.048 17.328H162.88C162.326 16.1147 161.528 15.1787 160.488 14.52C159.483 13.8267 158.322 13.48 157.004 13.48C155.063 13.48 153.52 14.208 152.376 15.664C151.267 17.12 150.712 19.0787 150.712 21.54C150.712 24.0013 151.267 25.96 152.376 27.416C153.52 28.872 155.063 29.6 157.004 29.6C158.322 29.6 159.483 29.2707 160.488 28.612C161.528 27.9187 162.326 26.9653 162.88 25.752H175.048C174.528 28.664 173.471 31.212 171.876 33.396C170.316 35.58 168.271 37.2787 165.74 38.492C163.244 39.6707 160.402 40.26 157.212 40.26C153.503 40.26 150.279 39.48 147.54 37.92C144.802 36.3253 142.687 34.1067 141.196 31.264C139.74 28.4213 139.012 25.18 139.012 21.54ZM201.877 3.184V12.336H192.101V40H180.557V12.336H170.885V3.184H201.877ZM213.172 40.364C208.769 40.364 205.129 39.3413 202.252 37.296C199.409 35.216 197.866 32.1827 197.624 28.196H209.896C210.069 30.3107 211.005 31.368 212.704 31.368C213.328 31.368 213.848 31.2293 214.264 30.952C214.714 30.64 214.94 30.172 214.94 29.548C214.94 28.6813 214.472 27.988 213.536 27.468C212.6 26.9133 211.144 26.2893 209.168 25.596C206.81 24.764 204.852 23.9493 203.292 23.152C201.766 22.3547 200.449 21.1933 199.34 19.668C198.23 18.1427 197.693 16.184 197.728 13.792C197.728 11.4 198.334 9.372 199.548 7.708C200.796 6.00933 202.477 4.72667 204.592 3.86C206.741 2.99333 209.15 2.56 211.82 2.56C216.326 2.56 219.897 3.6 222.532 5.68C225.201 7.76 226.605 10.6893 226.744 14.468H214.316C214.281 13.428 214.021 12.6827 213.536 12.232C213.05 11.7813 212.461 11.556 211.768 11.556C211.282 11.556 210.884 11.7293 210.572 12.076C210.26 12.388 210.104 12.8387 210.104 13.428C210.104 14.26 210.554 14.9533 211.456 15.508C212.392 16.028 213.865 16.6693 215.876 17.432C218.198 18.2987 220.105 19.1307 221.596 19.928C223.121 20.7253 224.438 21.8347 225.548 23.256C226.657 24.6773 227.212 26.4627 227.212 28.612C227.212 30.8653 226.657 32.8933 225.548 34.696C224.438 36.464 222.826 37.8507 220.712 38.856C218.597 39.8613 216.084 40.364 213.172 40.364Z" fill="white"/>
<path d="M30.596 22.164L31.4633 22.6619L31.4672 22.655L30.596 22.164ZM25.812 26.636L25.3474 25.7504L25.3414 25.7536L25.812 26.636ZM13.644 28.3V27.3H12.644V28.3H13.644ZM13.644 40V41H14.644V40H13.644ZM2.1 40H1.1V41H2.1V40ZM2.1 3.184V2.184H1.1V3.184H2.1ZM28.568 6.616L27.8768 7.33866L27.882 7.34359L28.568 6.616ZM13.644 12.44V11.44H12.644V12.44H13.644ZM13.644 19.2H12.644V20.2H13.644V19.2ZM32.208 15.82H31.208C31.208 17.9815 30.7099 19.9254 29.7248 21.673L30.596 22.164L31.4672 22.655C32.6315 20.5893 33.208 18.3038 33.208 15.82H32.208ZM30.596 22.164L29.7288 21.6661C28.7586 23.356 27.3123 24.7197 25.3475 25.7505L25.812 26.636L26.2766 27.5215C28.5411 26.3336 30.284 24.716 31.4633 22.6619L30.596 22.164ZM25.812 26.636L25.3414 25.7536C23.4396 26.768 21.0797 27.3 18.22 27.3V28.3V29.3C21.323 29.3 24.0244 28.7227 26.2826 27.5184L25.812 26.636ZM18.22 28.3V27.3H13.644V28.3V29.3H18.22V28.3ZM13.644 28.3H12.644V40H13.644H14.644V28.3H13.644ZM13.644 40V39H2.1V40V41H13.644V40ZM2.1 40H3.1V3.184H2.1H1.1V40H2.1ZM2.1 3.184V4.184H18.22V3.184V2.184H2.1V3.184ZM18.22 3.184V4.184C22.564 4.184 25.7297 5.28488 27.8768 7.33864L28.568 6.616L29.2592 5.89336C26.6223 3.37112 22.8894 2.184 18.22 2.184V3.184ZM28.568 6.616L27.882 7.34359C30.0769 9.41306 31.208 12.2011 31.208 15.82H32.208H33.208C33.208 11.7429 31.9124 8.39493 29.254 5.88841L28.568 6.616ZM16.92 19.2V20.2C18.2558 20.2 19.4436 19.8866 20.2967 19.0829C21.161 18.2687 21.508 17.1166 21.508 15.82H20.508H19.508C19.508 16.7767 19.257 17.3147 18.9253 17.6271C18.5824 17.9501 17.9762 18.2 16.92 18.2V19.2ZM20.508 15.82H21.508C21.508 14.5234 21.161 13.3713 20.2967 12.5571C19.4436 11.7534 18.2558 11.44 16.92 11.44V12.44V13.44C17.9762 13.44 18.5824 13.6899 18.9253 14.0129C19.257 14.3253 19.508 14.8632 19.508 15.82H20.508ZM16.92 12.44V11.44H13.644V12.44V13.44H16.92V12.44ZM13.644 12.44H12.644V19.2H13.644H14.644V12.44H13.644ZM13.644 19.2V20.2H16.92V19.2V18.2H13.644V19.2ZM48.1415 40L47.2556 40.4639L47.5364 41H48.1415V40ZM41.2255 26.792L42.1114 26.3281L41.8307 25.792H41.2255V26.792ZM41.1735 26.792V25.792H40.1735V26.792H41.1735ZM41.1735 40V41H42.1735V40H41.1735ZM29.6295 40H28.6295V41H29.6295V40ZM29.6295 3.184V2.184H28.6295V3.184H29.6295ZM54.4335 4.796L53.9804 5.68756L53.9922 5.69335L54.4335 4.796ZM59.1655 9.112L58.2953 9.6046L58.3008 9.61439L58.3066 9.62406L59.1655 9.112ZM58.6975 21.8L57.8887 21.2118L57.8818 21.2216L58.6975 21.8ZM52.8215 25.908L52.513 24.9568L51.3459 25.3353L51.9521 26.4021L52.8215 25.908ZM60.8295 40V41H62.548L61.699 39.5059L60.8295 40ZM41.1735 19.096H40.1735V20.096H41.1735V19.096ZM48.2455 18.368L48.904 19.1206L48.917 19.1093L48.9295 19.0975L48.2455 18.368ZM48.1935 13.688L47.4864 14.3951L47.4971 14.4058L47.5082 14.4162L48.1935 13.688ZM41.1735 12.856V11.856H40.1735V12.856H41.1735ZM48.1415 40L49.0274 39.5361L42.1114 26.3281L41.2255 26.792L40.3396 27.2559L47.2556 40.4639L48.1415 40ZM41.2255 26.792V25.792H41.1735V26.792V27.792H41.2255V26.792ZM41.1735 26.792H40.1735V40H41.1735H42.1735V26.792H41.1735ZM41.1735 40V39H29.6295V40V41H41.1735V40ZM29.6295 40H30.6295V3.184H29.6295H28.6295V40H29.6295ZM29.6295 3.184V4.184H46.7895V3.184V2.184H29.6295V3.184ZM46.7895 3.184V4.184C49.6529 4.184 52.0376 4.70012 53.9805 5.68748L54.4335 4.796L54.8866 3.90451C52.6001 2.74255 49.8888 2.184 46.7895 2.184V3.184ZM54.4335 4.796L53.9922 5.69335C55.9483 6.65534 57.3656 7.96224 58.2953 9.6046L59.1655 9.112L60.0358 8.6194C58.8854 6.58709 57.1481 5.01666 54.8749 3.89865L54.4335 4.796ZM59.1655 9.112L58.3066 9.62406C59.2807 11.2581 59.7775 13.1235 59.7775 15.248H60.7775H61.7775C61.7775 12.7965 61.1997 10.5713 60.0245 8.59993L59.1655 9.112ZM60.7775 15.248H59.7775C59.7775 17.5079 59.1454 19.4839 57.8888 21.2118L58.6975 21.8L59.5063 22.3882C61.023 20.3027 61.7775 17.9108 61.7775 15.248H60.7775ZM58.6975 21.8L57.8818 21.2216C56.6729 22.9264 54.9063 24.1806 52.513 24.9568L52.8215 25.908L53.13 26.8592C55.8674 25.9714 58.0182 24.4869 59.5133 22.3784L58.6975 21.8ZM52.8215 25.908L51.9521 26.4021L59.9601 40.4941L60.8295 40L61.699 39.5059L53.691 25.4139L52.8215 25.908ZM60.8295 40V39H48.1415V40V41H60.8295V40ZM41.1735 19.096V20.096H45.7495V19.096V18.096H41.1735V19.096ZM45.7495 19.096V20.096C46.9826 20.096 48.0942 19.8291 48.904 19.1206L48.2455 18.368L47.587 17.6154C47.2875 17.8775 46.7351 18.096 45.7495 18.096V19.096ZM48.2455 18.368L48.9295 19.0975C49.7575 18.3212 50.0775 17.2103 50.0775 15.976H49.0775H48.0775C48.0775 16.891 47.8429 17.3748 47.5616 17.6385L48.2455 18.368ZM49.0775 15.976H50.0775C50.0775 14.789 49.7085 13.7406 48.8789 12.9598L48.1935 13.688L47.5082 14.4162C47.8572 14.7447 48.0775 15.2216 48.0775 15.976H49.0775ZM48.1935 13.688L48.9006 12.9809C48.0977 12.178 46.989 11.856 45.7495 11.856V12.856V13.856C46.6594 13.856 47.18 14.0887 47.4864 14.3951L48.1935 13.688ZM45.7495 12.856V11.856H41.1735V12.856V13.856H45.7495V12.856ZM41.1735 12.856H40.1735V19.096H41.1735H42.1735V12.856H41.1735ZM66.5975 37.92L66.1047 38.7902L66.1092 38.7927L66.5975 37.92ZM59.7335 31.16L58.8723 31.6684L59.7335 31.16ZM66.5975 5.004L67.0822 5.87866L67.0858 5.87668L66.5975 5.004ZM85.6815 5.004L85.1887 5.87421L85.1967 5.87865L85.6815 5.004ZM92.4935 11.712L91.6278 12.2126L91.6323 12.2204L92.4935 11.712ZM92.4935 31.16L91.6323 30.6516L91.6278 30.6594L92.4935 31.16ZM85.6295 37.92L85.1412 37.0473L85.1367 37.0498L85.6295 37.92ZM81.4695 27.416L82.2288 28.0668L82.2362 28.0579L81.4695 27.416ZM81.4695 15.456L80.7027 16.098L80.7102 16.1068L81.4695 15.456ZM70.8095 15.456L71.5688 16.1068L71.5762 16.0979L70.8095 15.456ZM70.8095 27.416L70.0427 28.058L70.0502 28.0668L70.8095 27.416ZM76.1655 40.364V39.364C72.8629 39.364 69.8426 38.5899 67.0858 37.0473L66.5975 37.92L66.1092 38.7927C69.1763 40.5088 72.5348 41.364 76.1655 41.364V40.364ZM66.5975 37.92L67.0902 37.0498C64.3669 35.5077 62.2052 33.3798 60.5946 30.6516L59.7335 31.16L58.8723 31.6684C60.659 34.6948 63.0734 37.0736 66.1047 38.7902L66.5975 37.92ZM59.7335 31.16L60.5946 30.6516C58.994 27.9404 58.1855 24.8771 58.1855 21.436H57.1855H56.1855C56.1855 25.2055 57.0756 28.6249 58.8723 31.6684L59.7335 31.16ZM57.1855 21.436H58.1855C58.1855 17.9949 58.994 14.9316 60.5946 12.2204L59.7335 11.712L58.8723 11.2036C57.0756 14.2471 56.1855 17.6665 56.1855 21.436H57.1855ZM59.7335 11.712L60.5946 12.2204C62.2042 9.49396 64.3633 7.38553 67.0822 5.87865L66.5975 5.004L66.1127 4.12934C63.077 5.8118 60.6601 8.17537 58.8723 11.2036L59.7335 11.712ZM66.5975 5.004L67.0858 5.87668C69.8426 4.33415 72.8629 3.56 76.1655 3.56V2.56V1.56C72.5348 1.56 69.1763 2.41518 66.1092 4.13132L66.5975 5.004ZM76.1655 2.56V3.56C79.4681 3.56 82.4691 4.33412 85.1887 5.87417L85.6815 5.004L86.1742 4.13383C83.1392 2.41521 79.7962 1.56 76.1655 1.56V2.56ZM85.6815 5.004L85.1967 5.87865C87.9138 7.38451 90.0535 9.49046 91.6278 12.2126L92.4935 11.712L93.3591 11.2114C91.6054 8.17887 89.2038 5.81282 86.1662 4.12934L85.6815 5.004ZM92.4935 11.712L91.6323 12.2204C93.2329 14.9316 94.0415 17.9949 94.0415 21.436H95.0415H96.0415C96.0415 17.6665 95.1513 14.2471 93.3546 11.2036L92.4935 11.712ZM95.0415 21.436H94.0415C94.0415 24.8771 93.2329 27.9404 91.6323 30.6516L92.4935 31.16L93.3546 31.6684C95.1513 28.6249 96.0415 25.2055 96.0415 21.436H95.0415ZM92.4935 31.16L91.6278 30.6594C90.0542 33.3804 87.8969 35.5054 85.1412 37.0473L85.6295 37.92L86.1178 38.7927C89.1861 37.0759 91.6047 34.6943 93.3591 31.6606L92.4935 31.16ZM85.6295 37.92L85.1367 37.0498C82.4155 38.5908 79.4316 39.364 76.1655 39.364V40.364V41.364C79.7634 41.364 83.0888 40.5079 86.1222 38.7902L85.6295 37.92ZM76.1655 29.6V30.6C78.6834 30.6 80.7538 29.7875 82.2287 28.0668L81.4695 27.416L80.7102 26.7652C79.6891 27.9565 78.2235 28.6 76.1655 28.6V29.6ZM81.4695 27.416L82.2362 28.0579C83.6734 26.3413 84.3415 24.0987 84.3415 21.436H83.3415H82.3415C82.3415 23.7653 81.7615 25.5094 80.7027 26.7741L81.4695 27.416ZM83.3415 21.436H84.3415C84.3415 18.744 83.6759 16.4936 82.2287 14.8052L81.4695 15.456L80.7102 16.1068C81.759 17.3304 82.3415 19.0667 82.3415 21.436H83.3415ZM81.4695 15.456L82.2362 14.8141C80.7639 13.0554 78.6914 12.22 76.1655 12.22V13.22V14.22C78.2156 14.22 79.6791 14.8753 80.7027 16.0979L81.4695 15.456ZM76.1655 13.22V12.22C73.6104 12.22 71.5181 13.0518 70.0427 14.8141L70.8095 15.456L71.5762 16.0979C72.5969 14.8788 74.0752 14.22 76.1655 14.22V13.22ZM70.8095 15.456L70.0502 14.8052C68.603 16.4936 67.9375 18.744 67.9375 21.436H68.9375H69.9375C69.9375 19.0667 70.5199 17.3304 71.5687 16.1068L70.8095 15.456ZM68.9375 21.436H67.9375C67.9375 24.0987 68.6055 26.3413 70.0427 28.0579L70.8095 27.416L71.5762 26.7741C70.5174 25.5094 69.9375 23.7653 69.9375 21.436H68.9375ZM70.8095 27.416L70.0502 28.0668C71.5281 29.791 73.6184 30.6 76.1655 30.6V29.6V28.6C74.0672 28.6 72.5868 27.953 71.5687 26.7652L70.8095 27.416ZM118.654 3.184H119.654V2.184H118.654V3.184ZM115.17 36.984L115.872 37.6965L115.872 37.6964L115.17 36.984ZM94.8379 36.672L95.5206 35.9413L94.8379 36.672ZM90.8859 25.908V24.908H89.8859V25.908H90.8859ZM102.274 25.908H103.274V24.908H102.274V25.908ZM103.002 29.08L102.213 29.6939L102.221 29.7049L102.23 29.7157L103.002 29.08ZM106.59 29.288L105.827 28.6421L105.827 28.6421L106.59 29.288ZM107.162 3.184V2.184H106.162V3.184H107.162ZM118.654 3.184H117.654V26.948H118.654H119.654V3.184H118.654ZM118.654 26.948H117.654C117.654 31.1796 116.541 34.23 114.468 36.2716L115.17 36.984L115.872 37.6964C118.445 35.162 119.654 31.5218 119.654 26.948H118.654ZM115.17 36.984L114.468 36.2715C112.418 38.2908 109.476 39.364 105.498 39.364V40.364V41.364C109.84 41.364 113.346 40.1839 115.872 37.6965L115.17 36.984ZM105.498 40.364V39.364C101.216 39.364 97.9282 38.1904 95.5206 35.9413L94.8379 36.672L94.1553 37.4027C97.0171 40.0762 100.836 41.364 105.498 41.364V40.364ZM94.8379 36.672L95.5206 35.9413C93.1457 33.7226 91.8859 30.4353 91.8859 25.908H90.8859H89.8859C89.8859 30.8101 91.2609 34.6988 94.1553 37.4027L94.8379 36.672ZM90.8859 25.908V26.908H102.274V25.908V24.908H90.8859V25.908ZM102.274 25.908H101.274C101.274 27.4508 101.514 28.7957 102.213 29.6939L103.002 29.08L103.791 28.4661C103.519 28.1163 103.274 27.3465 103.274 25.908H102.274ZM103.002 29.08L102.23 29.7157C102.924 30.5583 103.878 30.964 104.978 30.964V29.964V28.964C104.414 28.964 104.051 28.7804 103.774 28.4443L103.002 29.08ZM104.978 29.964V30.964C105.909 30.964 106.748 30.6492 107.353 29.9339L106.59 29.288L105.827 28.6421C105.669 28.8281 105.434 28.964 104.978 28.964V29.964ZM106.59 29.288L107.353 29.9339C107.974 29.2006 108.162 28.112 108.162 26.948H107.162H106.162C106.162 28.0027 105.969 28.4741 105.827 28.6421L106.59 29.288ZM107.162 26.948H108.162V3.184H107.162H106.162V26.948H107.162ZM107.162 3.184V4.184H118.654V3.184V2.184H107.162V3.184ZM128.942 12.388V11.388H127.942V12.388H128.942ZM128.942 16.912H127.942V17.912H128.942V16.912ZM140.382 16.912H141.382V15.912H140.382V16.912ZM140.382 25.596V26.596H141.382V25.596H140.382ZM128.942 25.596V24.596H127.942V25.596H128.942ZM128.942 30.796H127.942V31.796H128.942V30.796ZM141.942 30.796H142.942V29.796H141.942V30.796ZM141.942 40V41H142.942V40H141.942ZM117.398 40H116.398V41H117.398V40ZM117.398 3.184V2.184H116.398V3.184H117.398ZM141.942 3.184H142.942V2.184H141.942V3.184ZM141.942 12.388V13.388H142.942V12.388H141.942ZM128.942 12.388H127.942V16.912H128.942H129.942V12.388H128.942ZM128.942 16.912V17.912H140.382V16.912V15.912H128.942V16.912ZM140.382 16.912H139.382V25.596H140.382H141.382V16.912H140.382ZM140.382 25.596V24.596H128.942V25.596V26.596H140.382V25.596ZM128.942 25.596H127.942V30.796H128.942H129.942V25.596H128.942ZM128.942 30.796V31.796H141.942V30.796V29.796H128.942V30.796ZM141.942 30.796H140.942V40H141.942H142.942V30.796H141.942ZM141.942 40V39H117.398V40V41H141.942V40ZM117.398 40H118.398V3.184H117.398H116.398V40H117.398ZM117.398 3.184V4.184H141.942V3.184V2.184H117.398V3.184ZM141.942 3.184H140.942V12.388H141.942H142.942V3.184H141.942ZM141.942 12.388V11.388H128.942V12.388V13.388H141.942V12.388ZM141.196 11.816L140.311 11.3516L140.306 11.3601L141.196 11.816ZM147.54 5.212L148.035 6.08096L148.044 6.07617L147.54 5.212ZM165.74 4.64L165.303 5.53937L165.311 5.543L165.318 5.5465L165.74 4.64ZM171.876 9.684L171.063 10.2653L171.069 10.2737L171.876 9.684ZM175.048 17.328V18.328H176.243L176.033 17.1522L175.048 17.328ZM162.88 17.328L161.971 17.7438L162.238 18.328H162.88V17.328ZM160.488 14.52L159.921 15.3432L159.937 15.3543L159.953 15.3648L160.488 14.52ZM152.376 15.664L151.59 15.0462L151.585 15.052L151.581 15.058L152.376 15.664ZM152.376 27.416L151.581 28.022L151.585 28.028L151.59 28.0338L152.376 27.416ZM160.488 28.612L161.036 29.4485L161.043 29.444L160.488 28.612ZM162.88 25.752V24.752H162.238L161.971 25.3362L162.88 25.752ZM175.048 25.752L176.033 25.9278L176.243 24.752H175.048V25.752ZM171.876 33.396L171.069 32.8063L171.063 32.8148L171.876 33.396ZM165.74 38.492L166.167 39.3963L166.173 39.3937L165.74 38.492ZM147.54 37.92L147.037 38.7842L147.045 38.7889L147.54 37.92ZM141.196 31.264L140.306 31.7199L140.311 31.7284L141.196 31.264ZM139.012 21.54H140.012C140.012 18.0362 140.712 14.9549 142.086 12.2719L141.196 11.816L140.306 11.3601C138.769 14.3625 138.012 17.7638 138.012 21.54H139.012ZM141.196 11.816L142.082 12.2804C143.486 9.60387 145.466 7.5444 148.035 6.08092L147.54 5.212L147.045 4.34308C144.137 5.9996 141.889 8.34279 140.311 11.3516L141.196 11.816ZM147.54 5.212L148.044 6.07617C150.605 4.58462 153.649 3.82 157.212 3.82V2.82V1.82C153.357 1.82 149.953 2.65005 147.037 4.34782L147.54 5.212ZM157.212 2.82V3.82C160.273 3.82 162.962 4.40148 165.303 5.53937L165.74 4.64L166.178 3.74063C163.526 2.45185 160.531 1.82 157.212 1.82V2.82ZM165.74 4.64L165.318 5.5465C167.699 6.65538 169.607 8.22737 171.063 10.2652L171.876 9.684L172.69 9.10276C171.026 6.77263 168.843 4.98195 166.163 3.7335L165.74 4.64ZM171.876 9.684L171.069 10.2737C172.566 12.3238 173.568 14.7271 174.064 17.5038L175.048 17.328L176.033 17.1522C175.489 14.1049 174.376 11.4122 172.684 9.09431L171.876 9.684ZM175.048 17.328V16.328H162.88V17.328V18.328H175.048V17.328ZM162.88 17.328L163.79 16.9122C163.162 15.538 162.241 14.4463 161.023 13.6752L160.488 14.52L159.953 15.3648C160.816 15.9111 161.49 16.6913 161.971 17.7438L162.88 17.328ZM160.488 14.52L161.056 13.6968C159.871 12.8792 158.508 12.48 157.004 12.48V13.48V14.48C158.136 14.48 159.096 14.7742 159.921 15.3432L160.488 14.52ZM157.004 13.48V12.48C154.773 12.48 152.934 13.3357 151.59 15.0462L152.376 15.664L153.163 16.2818C154.107 15.0803 155.353 14.48 157.004 14.48V13.48ZM152.376 15.664L151.581 15.058C150.3 16.7395 149.712 18.9346 149.712 21.54H150.712H151.712C151.712 19.2228 152.234 17.5005 153.172 16.27L152.376 15.664ZM150.712 21.54H149.712C149.712 24.1454 150.3 26.3405 151.581 28.022L152.376 27.416L153.172 26.81C152.234 25.5795 151.712 23.8572 151.712 21.54H150.712ZM152.376 27.416L151.59 28.0338C152.934 29.7443 154.773 30.6 157.004 30.6V29.6V28.6C155.353 28.6 154.107 27.9997 153.163 26.7982L152.376 27.416ZM157.004 29.6V30.6C158.497 30.6 159.853 30.224 161.036 29.4485L160.488 28.612L159.94 27.7755C159.113 28.3173 158.146 28.6 157.004 28.6V29.6ZM160.488 28.612L161.043 29.444C162.248 28.6406 163.163 27.5383 163.79 26.1678L162.88 25.752L161.971 25.3362C161.488 26.3924 160.808 27.1967 159.934 27.7799L160.488 28.612ZM162.88 25.752V26.752H175.048V25.752V24.752H162.88V25.752ZM175.048 25.752L174.064 25.5762C173.568 28.3529 172.566 30.7562 171.069 32.8063L171.876 33.396L172.684 33.9857C174.376 31.6678 175.489 28.9751 176.033 25.9278L175.048 25.752ZM171.876 33.396L171.063 32.8148C169.605 34.8551 167.694 36.4464 165.308 37.5903L165.74 38.492L166.173 39.3937C168.848 38.1109 171.027 36.3049 172.69 33.9772L171.876 33.396ZM165.74 38.492L165.313 37.5877C162.97 38.6943 160.277 39.26 157.212 39.26V40.26V41.26C160.526 41.26 163.519 40.6471 166.167 39.3962L165.74 38.492ZM157.212 40.26V39.26C153.646 39.26 150.598 38.5111 148.035 37.0511L147.54 37.92L147.045 38.7889C149.96 40.4489 153.36 41.26 157.212 41.26V40.26ZM147.54 37.92L148.044 37.0558C145.47 35.5571 143.486 33.478 142.082 30.7996L141.196 31.264L140.311 31.7284C141.888 34.7354 144.134 37.0936 147.037 38.7842L147.54 37.92ZM141.196 31.264L142.086 30.8081C140.712 28.1251 140.012 25.0438 140.012 21.54H139.012H138.012C138.012 25.3162 138.769 28.7175 140.306 31.7199L141.196 31.264ZM201.877 3.184H202.877V2.184H201.877V3.184ZM201.877 12.336V13.336H202.877V12.336H201.877ZM192.101 12.336V11.336H191.101V12.336H192.101ZM192.101 40V41H193.101V40H192.101ZM180.557 40H179.557V41H180.557V40ZM180.557 12.336H181.557V11.336H180.557V12.336ZM170.885 12.336H169.885V13.336H170.885V12.336ZM170.885 3.184V2.184H169.885V3.184H170.885ZM201.877 3.184H200.877V12.336H201.877H202.877V3.184H201.877ZM201.877 12.336V11.336H192.101V12.336V13.336H201.877V12.336ZM192.101 12.336H191.101V40H192.101H193.101V12.336H192.101ZM192.101 40V39H180.557V40V41H192.101V40ZM180.557 40H181.557V12.336H180.557H179.557V40H180.557ZM180.557 12.336V11.336H170.885V12.336V13.336H180.557V12.336ZM170.885 12.336H171.885V3.184H170.885H169.885V12.336H170.885ZM170.885 3.184V4.184H201.877V3.184V2.184H170.885V3.184ZM202.252 37.296L201.661 38.1031L201.672 38.1111L202.252 37.296ZM197.624 28.196V27.196H196.561L196.626 28.2568L197.624 28.196ZM209.896 28.196L210.892 28.1143L210.817 27.196H209.896V28.196ZM214.264 30.952L214.818 31.784L214.826 31.7792L214.833 31.7742L214.264 30.952ZM213.536 27.468L213.026 28.3283L213.038 28.3354L213.05 28.3422L213.536 27.468ZM209.168 25.596L208.835 26.539L208.837 26.5396L209.168 25.596ZM203.292 23.152L202.828 24.0383L202.837 24.0424L203.292 23.152ZM199.34 19.668L200.148 19.0798L199.34 19.668ZM197.728 13.792L198.728 13.8065L198.728 13.7992V13.792H197.728ZM199.548 7.708L198.742 7.11592L198.74 7.11883L199.548 7.708ZM204.592 3.86L204.218 2.93254L204.212 2.93469L204.592 3.86ZM222.532 5.68L221.912 6.4649L221.917 6.4688L222.532 5.68ZM226.744 14.468V15.468H227.781L227.743 14.4313L226.744 14.468ZM214.316 14.468L213.316 14.5013L213.348 15.468H214.316V14.468ZM210.572 12.076L211.279 12.7831L211.297 12.7645L211.315 12.745L210.572 12.076ZM211.456 15.508L210.932 16.3597L210.951 16.3713L210.97 16.3822L211.456 15.508ZM215.876 17.432L215.521 18.367L215.526 18.3689L215.876 17.432ZM221.596 19.928L221.124 20.8098L221.132 20.8142L221.596 19.928ZM225.548 23.256L224.759 23.8713L225.548 23.256ZM225.548 34.696L226.395 35.2275L226.399 35.2201L225.548 34.696ZM220.712 38.856L220.282 37.9529L220.712 38.856ZM213.172 40.364V39.364C208.925 39.364 205.501 38.3791 202.831 36.4809L202.252 37.296L201.672 38.1111C204.757 40.3036 208.613 41.364 213.172 41.364V40.364ZM202.252 37.296L202.842 36.489C200.274 34.6095 198.849 31.8696 198.622 28.1352L197.624 28.196L196.626 28.2568C196.884 32.4958 198.544 35.8225 201.661 38.103L202.252 37.296ZM197.624 28.196V29.196H209.896V28.196V27.196H197.624V28.196ZM209.896 28.196L208.899 28.2777C208.995 29.4476 209.312 30.4842 209.979 31.2378C210.675 32.0242 211.631 32.368 212.704 32.368V31.368V30.368C212.077 30.368 211.716 30.1831 211.476 29.9122C211.208 29.6085 210.97 29.059 210.892 28.1143L209.896 28.196ZM212.704 31.368V32.368C213.476 32.368 214.202 32.1953 214.818 31.784L214.264 30.952L213.709 30.1199C213.494 30.2634 213.179 30.368 212.704 30.368V31.368ZM214.264 30.952L214.833 31.7742C215.594 31.2473 215.94 30.4475 215.94 29.548H214.94H213.94C213.94 29.8965 213.835 30.0327 213.694 30.1298L214.264 30.952ZM214.94 29.548H215.94C215.94 28.2275 215.187 27.2413 214.021 26.5938L213.536 27.468L213.05 28.3422C213.757 28.7347 213.94 29.1352 213.94 29.548H214.94ZM213.536 27.468L214.045 26.6077C213.022 26.0014 211.491 25.3515 209.499 24.6524L209.168 25.596L208.837 26.5396C210.796 27.2272 212.177 27.8252 213.026 28.3283L213.536 27.468ZM209.168 25.596L209.5 24.653C207.169 23.8301 205.254 23.0322 203.747 22.2616L203.292 23.152L202.837 24.0424C204.449 24.8665 206.452 25.6979 208.835 26.539L209.168 25.596ZM203.292 23.152L203.755 22.2658C202.379 21.5465 201.176 20.4926 200.148 19.0798L199.34 19.668L198.531 20.2562C199.722 21.894 201.154 23.1629 202.828 24.0382L203.292 23.152ZM199.34 19.668L200.148 19.0798C199.197 17.7715 198.695 16.0408 198.728 13.8065L197.728 13.792L196.728 13.7775C196.691 16.3272 197.264 18.5138 198.531 20.2562L199.34 19.668ZM197.728 13.792H198.728C198.728 11.5764 199.286 9.76351 200.356 8.29717L199.548 7.708L198.74 7.11883C197.382 8.98049 196.728 11.2236 196.728 13.792H197.728ZM199.548 7.708L200.354 8.30007C201.484 6.76203 203.012 5.58832 204.971 4.7853L204.592 3.86L204.212 2.93469C201.942 3.86501 200.108 5.25664 198.742 7.11592L199.548 7.708ZM204.592 3.86L204.966 4.78744C206.979 3.9754 209.259 3.56 211.82 3.56V2.56V1.56C209.041 1.56 206.503 2.01126 204.218 2.93256L204.592 3.86ZM211.82 2.56V3.56C216.178 3.56 219.506 4.56532 221.912 6.46488L222.532 5.68L223.151 4.89512C220.288 2.63468 216.474 1.56 211.82 1.56V2.56ZM222.532 5.68L221.917 6.4688C224.324 8.34452 225.615 10.9822 225.744 14.5047L226.744 14.468L227.743 14.4313C227.595 10.3964 226.078 7.17548 223.146 4.8912L222.532 5.68ZM226.744 14.468V13.468H214.316V14.468V15.468H226.744V14.468ZM214.316 14.468L215.315 14.4347C215.276 13.276 214.983 12.2117 214.216 11.4992L213.536 12.232L212.855 12.9648C213.059 13.1536 213.286 13.58 213.316 14.5013L214.316 14.468ZM213.536 12.232L214.216 11.4992C213.536 10.8681 212.7 10.556 211.768 10.556V11.556V12.556C212.222 12.556 212.564 12.6945 212.855 12.9648L213.536 12.232ZM211.768 11.556V10.556C211.012 10.556 210.339 10.8401 209.828 11.407L210.572 12.076L211.315 12.745C211.429 12.6185 211.553 12.556 211.768 12.556V11.556ZM210.572 12.076L209.865 11.3689C209.309 11.9247 209.104 12.6654 209.104 13.428H210.104H211.104C211.104 13.012 211.211 12.8513 211.279 12.7831L210.572 12.076ZM210.104 13.428H209.104C209.104 14.7031 209.827 15.6796 210.932 16.3597L211.456 15.508L211.98 14.6563C211.282 14.227 211.104 13.8169 211.104 13.428H210.104ZM211.456 15.508L210.97 16.3822C211.972 16.9387 213.501 17.6007 215.521 18.367L215.876 17.432L216.23 16.497C214.229 15.738 212.812 15.1173 211.941 14.6338L211.456 15.508ZM215.876 17.432L215.526 18.3689C217.824 19.2264 219.686 20.0408 221.124 20.8098L221.596 19.928L222.067 19.0462C220.524 18.2206 218.572 17.3709 216.225 16.4951L215.876 17.432ZM221.596 19.928L221.132 20.8142C222.525 21.5423 223.734 22.5569 224.759 23.8713L225.548 23.256L226.336 22.6407C225.143 21.1124 223.717 19.9083 222.059 19.0418L221.596 19.928ZM225.548 23.256L224.759 23.8713C225.707 25.0848 226.212 26.6413 226.212 28.612H227.212H228.212C228.212 26.2841 227.607 24.2698 226.336 22.6407L225.548 23.256ZM227.212 28.612H226.212C226.212 30.6927 225.702 32.5371 224.696 34.1719L225.548 34.696L226.399 35.2201C227.612 33.2495 228.212 31.0379 228.212 28.612H227.212ZM225.548 34.696L224.701 34.1645C223.704 35.7523 222.247 37.0189 220.282 37.9529L220.712 38.856L221.141 39.7591C223.406 38.6824 225.172 37.1757 226.395 35.2275L225.548 34.696ZM220.712 38.856L220.282 37.9529C218.33 38.8808 215.97 39.364 213.172 39.364V40.364V41.364C216.197 41.364 218.864 40.8418 221.141 39.7591L220.712 38.856Z" fill="#C10007" mask="url(#path-1-outside-1_569_490)"/>
</g>
<defs>
<clipPath id="clip0_569_490">
<rect width="230" height="43" fill="white"/>
</clipPath>
</defs>
</svg>
