<svg width="314" height="43" viewBox="0 0 314 43" fill="none" xmlns="http://www.w3.org/2000/svg">
<mask id="path-1-outside-1_569_490" maskUnits="userSpaceOnUse" x="0.5" y="1" width="313" height="41" fill="black">
<rect fill="white" x="0.5" y="1" width="313" height="41"/>
<path d="M28.708 34.436H16.436L14.616 40H2.5L15.968 3.184H29.28L42.696 40H30.528L28.708 34.436ZM25.9 25.752L22.572 15.508L19.244 25.752H25.9ZM50.6228 31.264H61.7508V40H39.0788V3.184H50.6228V31.264ZM70.6874 31.264H81.8154V40H59.1434V3.184H70.6874V31.264ZM117.104 15.82C117.104 18.1427 116.567 20.2573 115.492 22.164C114.417 24.036 112.823 25.5267 110.708 26.636C108.628 27.7453 106.097 28.3 103.116 28.3H98.5399V40H86.9959V3.184H103.116C107.623 3.184 111.072 4.328 113.464 6.616C115.891 8.904 117.104 11.972 117.104 15.82ZM101.816 19.2C104.208 19.2 105.404 18.0733 105.404 15.82C105.404 13.5667 104.208 12.44 101.816 12.44H98.5399V19.2H101.816ZM133.037 40L126.121 26.792H126.069V40H114.525V3.184H131.685C134.667 3.184 137.215 3.72133 139.329 4.796C141.444 5.836 143.021 7.27467 144.061 9.112C145.136 10.9147 145.673 12.96 145.673 15.248C145.673 17.7093 144.98 19.8933 143.593 21.8C142.241 23.7067 140.283 25.076 137.717 25.908L145.725 40H133.037ZM126.069 19.096H130.645C131.755 19.096 132.587 18.8533 133.141 18.368C133.696 17.848 133.973 17.0507 133.973 15.976C133.973 15.0053 133.679 14.2427 133.089 13.688C132.535 13.1333 131.72 12.856 130.645 12.856H126.069V19.096ZM161.061 40.364C157.595 40.364 154.405 39.5493 151.493 37.92C148.616 36.2907 146.328 34.0373 144.629 31.16C142.931 28.2827 142.081 25.0413 142.081 21.436C142.081 17.8307 142.931 14.5893 144.629 11.712C146.328 8.83466 148.616 6.59866 151.493 5.004C154.405 3.37467 157.595 2.56 161.061 2.56C164.528 2.56 167.7 3.37467 170.577 5.004C173.455 6.59866 175.725 8.83466 177.389 11.712C179.088 14.5893 179.937 17.8307 179.937 21.436C179.937 25.0413 179.088 28.2827 177.389 31.16C175.725 34.0373 173.437 36.2907 170.525 37.92C167.648 39.5493 164.493 40.364 161.061 40.364ZM161.061 29.6C163.349 29.6 165.117 28.872 166.365 27.416C167.613 25.9253 168.237 23.932 168.237 21.436C168.237 18.9053 167.613 16.912 166.365 15.456C165.117 13.9653 163.349 13.22 161.061 13.22C158.739 13.22 156.953 13.9653 155.705 15.456C154.457 16.912 153.833 18.9053 153.833 21.436C153.833 23.932 154.457 25.9253 155.705 27.416C156.953 28.872 158.739 29.6 161.061 29.6ZM203.55 3.184V26.948C203.55 31.3507 202.389 34.696 200.066 36.984C197.778 39.2373 194.554 40.364 190.394 40.364C185.922 40.364 182.369 39.1333 179.734 36.672C177.099 34.2107 175.782 30.6227 175.782 25.908H187.17C187.17 27.3987 187.413 28.456 187.898 29.08C188.383 29.6693 189.042 29.964 189.874 29.964C190.567 29.964 191.105 29.7387 191.486 29.288C191.867 28.8373 192.058 28.0573 192.058 26.948V3.184H203.55ZM213.838 12.388V16.912H225.278V25.596H213.838V30.796H226.838V40H202.294V3.184H226.838V12.388H213.838ZM223.908 21.54C223.908 17.9 224.636 14.6587 226.092 11.816C227.583 8.97333 229.698 6.772 232.436 5.212C235.175 3.61733 238.399 2.82 242.108 2.82C245.298 2.82 248.14 3.42667 250.636 4.64C253.167 5.81867 255.212 7.5 256.772 9.684C258.367 11.868 259.424 14.416 259.944 17.328H247.776C247.222 16.1147 246.424 15.1787 245.384 14.52C244.379 13.8267 243.218 13.48 241.9 13.48C239.959 13.48 238.416 14.208 237.272 15.664C236.163 17.12 235.608 19.0787 235.608 21.54C235.608 24.0013 236.163 25.96 237.272 27.416C238.416 28.872 239.959 29.6 241.9 29.6C243.218 29.6 244.379 29.2707 245.384 28.612C246.424 27.9187 247.222 26.9653 247.776 25.752H259.944C259.424 28.664 258.367 31.212 256.772 33.396C255.212 35.58 253.167 37.2787 250.636 38.492C248.14 39.6707 245.298 40.26 242.108 40.26C238.399 40.26 235.175 39.48 232.436 37.92C229.698 36.3253 227.583 34.1067 226.092 31.264C224.636 28.4213 223.908 25.18 223.908 21.54ZM286.773 3.184V12.336H276.997V40H265.453V12.336H255.781V3.184H286.773ZM298.068 40.364C293.665 40.364 290.025 39.3413 287.148 37.296C284.305 35.216 282.762 32.1827 282.52 28.196H294.792C294.965 30.3107 295.901 31.368 297.6 31.368C298.224 31.368 298.744 31.2293 299.16 30.952C299.61 30.64 299.836 30.172 299.836 29.548C299.836 28.6813 299.368 27.988 298.432 27.468C297.496 26.9133 296.04 26.2893 294.064 25.596C291.706 24.764 289.748 23.9493 288.188 23.152C286.662 22.3547 285.345 21.1933 284.236 19.668C283.126 18.1427 282.589 16.184 282.624 13.792C282.624 11.4 283.23 9.372 284.444 7.708C285.692 6.00933 287.373 4.72667 289.488 3.86C291.637 2.99333 294.046 2.56 296.716 2.56C301.222 2.56 304.793 3.6 307.428 5.68C310.097 7.76 311.501 10.6893 311.64 14.468H299.212C299.177 13.428 298.917 12.6827 298.432 12.232C297.946 11.7813 297.357 11.556 296.664 11.556C296.178 11.556 295.78 11.7293 295.468 12.076C295.156 12.388 295 12.8387 295 13.428C295 14.26 295.45 14.9533 296.352 15.508C297.288 16.028 298.761 16.6693 300.772 17.432C303.094 18.2987 305.001 19.1307 306.492 19.928C308.017 20.7253 309.334 21.8347 310.444 23.256C311.553 24.6773 312.108 26.4627 312.108 28.612C312.108 30.8653 311.553 32.8933 310.444 34.696C309.334 36.464 307.722 37.8507 305.608 38.856C303.493 39.8613 300.98 40.364 298.068 40.364Z"/>
</mask>
<path d="M28.708 34.436H16.436L14.616 40H2.5L15.968 3.184H29.28L42.696 40H30.528L28.708 34.436ZM25.9 25.752L22.572 15.508L19.244 25.752H25.9ZM50.6228 31.264H61.7508V40H39.0788V3.184H50.6228V31.264ZM70.6874 31.264H81.8154V40H59.1434V3.184H70.6874V31.264ZM117.104 15.82C117.104 18.1427 116.567 20.2573 115.492 22.164C114.417 24.036 112.823 25.5267 110.708 26.636C108.628 27.7453 106.097 28.3 103.116 28.3H98.5399V40H86.9959V3.184H103.116C107.623 3.184 111.072 4.328 113.464 6.616C115.891 8.904 117.104 11.972 117.104 15.82ZM101.816 19.2C104.208 19.2 105.404 18.0733 105.404 15.82C105.404 13.5667 104.208 12.44 101.816 12.44H98.5399V19.2H101.816ZM133.037 40L126.121 26.792H126.069V40H114.525V3.184H131.685C134.667 3.184 137.215 3.72133 139.329 4.796C141.444 5.836 143.021 7.27467 144.061 9.112C145.136 10.9147 145.673 12.96 145.673 15.248C145.673 17.7093 144.98 19.8933 143.593 21.8C142.241 23.7067 140.283 25.076 137.717 25.908L145.725 40H133.037ZM126.069 19.096H130.645C131.755 19.096 132.587 18.8533 133.141 18.368C133.696 17.848 133.973 17.0507 133.973 15.976C133.973 15.0053 133.679 14.2427 133.089 13.688C132.535 13.1333 131.72 12.856 130.645 12.856H126.069V19.096ZM161.061 40.364C157.595 40.364 154.405 39.5493 151.493 37.92C148.616 36.2907 146.328 34.0373 144.629 31.16C142.931 28.2827 142.081 25.0413 142.081 21.436C142.081 17.8307 142.931 14.5893 144.629 11.712C146.328 8.83466 148.616 6.59866 151.493 5.004C154.405 3.37467 157.595 2.56 161.061 2.56C164.528 2.56 167.7 3.37467 170.577 5.004C173.455 6.59866 175.725 8.83466 177.389 11.712C179.088 14.5893 179.937 17.8307 179.937 21.436C179.937 25.0413 179.088 28.2827 177.389 31.16C175.725 34.0373 173.437 36.2907 170.525 37.92C167.648 39.5493 164.493 40.364 161.061 40.364ZM161.061 29.6C163.349 29.6 165.117 28.872 166.365 27.416C167.613 25.9253 168.237 23.932 168.237 21.436C168.237 18.9053 167.613 16.912 166.365 15.456C165.117 13.9653 163.349 13.22 161.061 13.22C158.739 13.22 156.953 13.9653 155.705 15.456C154.457 16.912 153.833 18.9053 153.833 21.436C153.833 23.932 154.457 25.9253 155.705 27.416C156.953 28.872 158.739 29.6 161.061 29.6ZM203.55 3.184V26.948C203.55 31.3507 202.389 34.696 200.066 36.984C197.778 39.2373 194.554 40.364 190.394 40.364C185.922 40.364 182.369 39.1333 179.734 36.672C177.099 34.2107 175.782 30.6227 175.782 25.908H187.17C187.17 27.3987 187.413 28.456 187.898 29.08C188.383 29.6693 189.042 29.964 189.874 29.964C190.567 29.964 191.105 29.7387 191.486 29.288C191.867 28.8373 192.058 28.0573 192.058 26.948V3.184H203.55ZM213.838 12.388V16.912H225.278V25.596H213.838V30.796H226.838V40H202.294V3.184H226.838V12.388H213.838ZM223.908 21.54C223.908 17.9 224.636 14.6587 226.092 11.816C227.583 8.97333 229.698 6.772 232.436 5.212C235.175 3.61733 238.399 2.82 242.108 2.82C245.298 2.82 248.14 3.42667 250.636 4.64C253.167 5.81867 255.212 7.5 256.772 9.684C258.367 11.868 259.424 14.416 259.944 17.328H247.776C247.222 16.1147 246.424 15.1787 245.384 14.52C244.379 13.8267 243.218 13.48 241.9 13.48C239.959 13.48 238.416 14.208 237.272 15.664C236.163 17.12 235.608 19.0787 235.608 21.54C235.608 24.0013 236.163 25.96 237.272 27.416C238.416 28.872 239.959 29.6 241.9 29.6C243.218 29.6 244.379 29.2707 245.384 28.612C246.424 27.9187 247.222 26.9653 247.776 25.752H259.944C259.424 28.664 258.367 31.212 256.772 33.396C255.212 35.58 253.167 37.2787 250.636 38.492C248.14 39.6707 245.298 40.26 242.108 40.26C238.399 40.26 235.175 39.48 232.436 37.92C229.698 36.3253 227.583 34.1067 226.092 31.264C224.636 28.4213 223.908 25.18 223.908 21.54ZM286.773 3.184V12.336H276.997V40H265.453V12.336H255.781V3.184H286.773ZM298.068 40.364C293.665 40.364 290.025 39.3413 287.148 37.296C284.305 35.216 282.762 32.1827 282.52 28.196H294.792C294.965 30.3107 295.901 31.368 297.6 31.368C298.224 31.368 298.744 31.2293 299.16 30.952C299.61 30.64 299.836 30.172 299.836 29.548C299.836 28.6813 299.368 27.988 298.432 27.468C297.496 26.9133 296.04 26.2893 294.064 25.596C291.706 24.764 289.748 23.9493 288.188 23.152C286.662 22.3547 285.345 21.1933 284.236 19.668C283.126 18.1427 282.589 16.184 282.624 13.792C282.624 11.4 283.23 9.372 284.444 7.708C285.692 6.00933 287.373 4.72667 289.488 3.86C291.637 2.99333 294.046 2.56 296.716 2.56C301.222 2.56 304.793 3.6 307.428 5.68C310.097 7.76 311.501 10.6893 311.64 14.468H299.212C299.177 13.428 298.917 12.6827 298.432 12.232C297.946 11.7813 297.357 11.556 296.664 11.556C296.178 11.556 295.78 11.7293 295.468 12.076C295.156 12.388 295 12.8387 295 13.428C295 14.26 295.45 14.9533 296.352 15.508C297.288 16.028 298.761 16.6693 300.772 17.432C303.094 18.2987 305.001 19.1307 306.492 19.928C308.017 20.7253 309.334 21.8347 310.444 23.256C311.553 24.6773 312.108 26.4627 312.108 28.612C312.108 30.8653 311.553 32.8933 310.444 34.696C309.334 36.464 307.722 37.8507 305.608 38.856C303.493 39.8613 300.98 40.364 298.068 40.364Z" fill="white"/>
<path d="M28.708 34.436L29.6584 34.1251L29.433 33.436H28.708V34.436ZM16.436 34.436V33.436H15.711L15.4856 34.1251L16.436 34.436ZM14.616 40V41H15.341L15.5664 40.3109L14.616 40ZM2.5 40L1.56087 39.6564L1.06937 41H2.5V40ZM15.968 3.184V2.184H15.269L15.0289 2.84045L15.968 3.184ZM29.28 3.184L30.2196 2.84162L29.9799 2.184H29.28V3.184ZM42.696 40V41H44.1247L43.6356 39.6576L42.696 40ZM30.528 40L29.5776 40.3109L29.803 41H30.528V40ZM25.9 25.752V26.752H27.2763L26.8511 25.443L25.9 25.752ZM22.572 15.508L23.5231 15.199L22.572 12.2715L21.6209 15.199L22.572 15.508ZM19.244 25.752L18.2929 25.443L17.8677 26.752H19.244V25.752ZM28.708 34.436V33.436H16.436V34.436V35.436H28.708V34.436ZM16.436 34.436L15.4856 34.1251L13.6656 39.6891L14.616 40L15.5664 40.3109L17.3864 34.7469L16.436 34.436ZM14.616 40V39H2.5V40V41H14.616V40ZM2.5 40L3.43913 40.3436L16.9071 3.52755L15.968 3.184L15.0289 2.84045L1.56087 39.6564L2.5 40ZM15.968 3.184V4.184H29.28V3.184V2.184H15.968V3.184ZM29.28 3.184L28.3404 3.52638L41.7564 40.3424L42.696 40L43.6356 39.6576L30.2196 2.84162L29.28 3.184ZM42.696 40V39H30.528V40V41H42.696V40ZM30.528 40L31.4784 39.6891L29.6584 34.1251L28.708 34.436L27.7576 34.7469L29.5776 40.3109L30.528 40ZM25.9 25.752L26.8511 25.443L23.5231 15.199L22.572 15.508L21.6209 15.817L24.9489 26.061L25.9 25.752ZM22.572 15.508L21.6209 15.199L18.2929 25.443L19.244 25.752L20.1951 26.061L23.5231 15.817L22.572 15.508ZM19.244 25.752V26.752H25.9V25.752V24.752H19.244V25.752ZM50.6228 31.264H49.6228V32.264H50.6228V31.264ZM61.7508 31.264H62.7508V30.264H61.7508V31.264ZM61.7508 40V41H62.7508V40H61.7508ZM39.0788 40H38.0788V41H39.0788V40ZM39.0788 3.184V2.184H38.0788V3.184H39.0788ZM50.6228 3.184H51.6228V2.184H50.6228V3.184ZM50.6228 31.264V32.264H61.7508V31.264V30.264H50.6228V31.264ZM61.7508 31.264H60.7508V40H61.7508H62.7508V31.264H61.7508ZM61.7508 40V39H39.0788V40V41H61.7508V40ZM39.0788 40H40.0788V3.184H39.0788H38.0788V40H39.0788ZM39.0788 3.184V4.184H50.6228V3.184V2.184H39.0788V3.184ZM50.6228 3.184H49.6228V31.264H50.6228H51.6228V3.184H50.6228ZM70.6874 31.264H69.6874V32.264H70.6874V31.264ZM81.8154 31.264H82.8154V30.264H81.8154V31.264ZM81.8154 40V41H82.8154V40H81.8154ZM59.1434 40H58.1434V41H59.1434V40ZM59.1434 3.184V2.184H58.1434V3.184H59.1434ZM70.6874 3.184H71.6874V2.184H70.6874V3.184ZM70.6874 31.264V32.264H81.8154V31.264V30.264H70.6874V31.264ZM81.8154 31.264H80.8154V40H81.8154H82.8154V31.264H81.8154ZM81.8154 40V39H59.1434V40V41H81.8154V40ZM59.1434 40H60.1434V3.184H59.1434H58.1434V40H59.1434ZM59.1434 3.184V4.184H70.6874V3.184V2.184H59.1434V3.184ZM70.6874 3.184H69.6874V31.264H70.6874H71.6874V3.184H70.6874ZM115.492 22.164L116.359 22.6619L116.363 22.655L115.492 22.164ZM110.708 26.636L110.243 25.7504L110.237 25.7536L110.708 26.636ZM98.5399 28.3V27.3H97.5399V28.3H98.5399ZM98.5399 40V41H99.5399V40H98.5399ZM86.9959 40H85.9959V41H86.9959V40ZM86.9959 3.184V2.184H85.9959V3.184H86.9959ZM113.464 6.616L112.773 7.33866L112.778 7.34359L113.464 6.616ZM98.5399 12.44V11.44H97.5399V12.44H98.5399ZM98.5399 19.2H97.5399V20.2H98.5399V19.2ZM117.104 15.82H116.104C116.104 17.9815 115.606 19.9254 114.621 21.673L115.492 22.164L116.363 22.655C117.527 20.5893 118.104 18.3038 118.104 15.82H117.104ZM115.492 22.164L114.625 21.6661C113.655 23.356 112.208 24.7197 110.243 25.7505L110.708 26.636L111.172 27.5215C113.437 26.3336 115.18 24.716 116.359 22.6619L115.492 22.164ZM110.708 26.636L110.237 25.7536C108.336 26.768 105.976 27.3 103.116 27.3V28.3V29.3C106.219 29.3 108.92 28.7227 111.179 27.5184L110.708 26.636ZM103.116 28.3V27.3H98.5399V28.3V29.3H103.116V28.3ZM98.5399 28.3H97.5399V40H98.5399H99.5399V28.3H98.5399ZM98.5399 40V39H86.9959V40V41H98.5399V40ZM86.9959 40H87.9959V3.184H86.9959H85.9959V40H86.9959ZM86.9959 3.184V4.184H103.116V3.184V2.184H86.9959V3.184ZM103.116 3.184V4.184C107.46 4.184 110.626 5.28488 112.773 7.33864L113.464 6.616L114.155 5.89336C111.518 3.37112 107.785 2.184 103.116 2.184V3.184ZM113.464 6.616L112.778 7.34359C114.973 9.41306 116.104 12.2011 116.104 15.82H117.104H118.104C118.104 11.7429 116.808 8.39493 114.15 5.88841L113.464 6.616ZM101.816 19.2V20.2C103.152 20.2 104.34 19.8866 105.193 19.0829C106.057 18.2687 106.404 17.1166 106.404 15.82H105.404H104.404C104.404 16.7767 104.153 17.3147 103.821 17.6271C103.478 17.9501 102.872 18.2 101.816 18.2V19.2ZM105.404 15.82H106.404C106.404 14.5234 106.057 13.3713 105.193 12.5571C104.34 11.7534 103.152 11.44 101.816 11.44V12.44V13.44C102.872 13.44 103.478 13.6899 103.821 14.0129C104.153 14.3253 104.404 14.8632 104.404 15.82H105.404ZM101.816 12.44V11.44H98.5399V12.44V13.44H101.816V12.44ZM98.5399 12.44H97.5399V19.2H98.5399H99.5399V12.44H98.5399ZM98.5399 19.2V20.2H101.816V19.2V18.2H98.5399V19.2ZM133.037 40L132.152 40.4639L132.432 41H133.037V40ZM126.121 26.792L127.007 26.3281L126.727 25.792H126.121V26.792ZM126.069 26.792V25.792H125.069V26.792H126.069ZM126.069 40V41H127.069V40H126.069ZM114.525 40H113.525V41H114.525V40ZM114.525 3.184V2.184H113.525V3.184H114.525ZM139.329 4.796L138.876 5.68756L138.888 5.69335L139.329 4.796ZM144.061 9.112L143.191 9.6046L143.197 9.61439L143.203 9.62406L144.061 9.112ZM143.593 21.8L142.785 21.2118L142.778 21.2216L143.593 21.8ZM137.717 25.908L137.409 24.9568L136.242 25.3353L136.848 26.4021L137.717 25.908ZM145.725 40V41H147.444L146.595 39.5059L145.725 40ZM126.069 19.096H125.069V20.096H126.069V19.096ZM133.141 18.368L133.8 19.1206L133.813 19.1093L133.825 19.0975L133.141 18.368ZM133.089 13.688L132.382 14.3951L132.393 14.4058L132.404 14.4162L133.089 13.688ZM126.069 12.856V11.856H125.069V12.856H126.069ZM133.037 40L133.923 39.5361L127.007 26.3281L126.121 26.792L125.236 27.2559L132.152 40.4639L133.037 40ZM126.121 26.792V25.792H126.069V26.792V27.792H126.121V26.792ZM126.069 26.792H125.069V40H126.069H127.069V26.792H126.069ZM126.069 40V39H114.525V40V41H126.069V40ZM114.525 40H115.525V3.184H114.525H113.525V40H114.525ZM114.525 3.184V4.184H131.685V3.184V2.184H114.525V3.184ZM131.685 3.184V4.184C134.549 4.184 136.934 4.70012 138.876 5.68748L139.329 4.796L139.783 3.90451C137.496 2.74255 134.785 2.184 131.685 2.184V3.184ZM139.329 4.796L138.888 5.69335C140.844 6.65534 142.262 7.96224 143.191 9.6046L144.061 9.112L144.932 8.6194C143.781 6.58709 142.044 5.01666 139.771 3.89865L139.329 4.796ZM144.061 9.112L143.203 9.62406C144.177 11.2581 144.673 13.1235 144.673 15.248H145.673H146.673C146.673 12.7965 146.096 10.5713 144.92 8.59993L144.061 9.112ZM145.673 15.248H144.673C144.673 17.5079 144.041 19.4839 142.785 21.2118L143.593 21.8L144.402 22.3882C145.919 20.3027 146.673 17.9108 146.673 15.248H145.673ZM143.593 21.8L142.778 21.2216C141.569 22.9264 139.802 24.1806 137.409 24.9568L137.717 25.908L138.026 26.8592C140.763 25.9714 142.914 24.4869 144.409 22.3784L143.593 21.8ZM137.717 25.908L136.848 26.4021L144.856 40.4941L145.725 40L146.595 39.5059L138.587 25.4139L137.717 25.908ZM145.725 40V39H133.037V40V41H145.725V40ZM126.069 19.096V20.096H130.645V19.096V18.096H126.069V19.096ZM130.645 19.096V20.096C131.879 20.096 132.99 19.8291 133.8 19.1206L133.141 18.368L132.483 17.6154C132.183 17.8775 131.631 18.096 130.645 18.096V19.096ZM133.141 18.368L133.825 19.0975C134.653 18.3212 134.973 17.2103 134.973 15.976H133.973H132.973C132.973 16.891 132.739 17.3748 132.458 17.6385L133.141 18.368ZM133.973 15.976H134.973C134.973 14.789 134.604 13.7406 133.775 12.9598L133.089 13.688L132.404 14.4162C132.753 14.7447 132.973 15.2216 132.973 15.976H133.973ZM133.089 13.688L133.797 12.9809C132.994 12.178 131.885 11.856 130.645 11.856V12.856V13.856C131.555 13.856 132.076 14.0887 132.382 14.3951L133.089 13.688ZM130.645 12.856V11.856H126.069V12.856V13.856H130.645V12.856ZM126.069 12.856H125.069V19.096H126.069H127.069V12.856H126.069ZM151.493 37.92L151.001 38.7902L151.005 38.7927L151.493 37.92ZM144.629 31.16L143.768 31.6684L144.629 31.16ZM151.493 5.004L151.978 5.87866L151.982 5.87668L151.493 5.004ZM170.577 5.004L170.085 5.87421L170.093 5.87865L170.577 5.004ZM177.389 11.712L176.524 12.2126L176.528 12.2204L177.389 11.712ZM177.389 31.16L176.528 30.6516L176.524 30.6594L177.389 31.16ZM170.525 37.92L170.037 37.0473L170.033 37.0498L170.525 37.92ZM166.365 27.416L167.125 28.0668L167.132 28.0579L166.365 27.416ZM166.365 15.456L165.599 16.098L165.606 16.1068L166.365 15.456ZM155.705 15.456L156.465 16.1068L156.472 16.0979L155.705 15.456ZM155.705 27.416L154.939 28.058L154.946 28.0668L155.705 27.416ZM161.061 40.364V39.364C157.759 39.364 154.739 38.5899 151.982 37.0473L151.493 37.92L151.005 38.7927C154.072 40.5088 157.431 41.364 161.061 41.364V40.364ZM151.493 37.92L151.986 37.0498C149.263 35.5077 147.101 33.3798 145.491 30.6516L144.629 31.16L143.768 31.6684C145.555 34.6948 147.969 37.0736 151.001 38.7902L151.493 37.92ZM144.629 31.16L145.491 30.6516C143.89 27.9404 143.081 24.8771 143.081 21.436H142.081H141.081C141.081 25.2055 141.972 28.6249 143.768 31.6684L144.629 31.16ZM142.081 21.436H143.081C143.081 17.9949 143.89 14.9316 145.491 12.2204L144.629 11.712L143.768 11.2036C141.972 14.2471 141.081 17.6665 141.081 21.436H142.081ZM144.629 11.712L145.491 12.2204C147.1 9.49396 149.259 7.38553 151.978 5.87865L151.493 5.004L151.009 4.12934C147.973 5.8118 145.556 8.17537 143.768 11.2036L144.629 11.712ZM151.493 5.004L151.982 5.87668C154.739 4.33415 157.759 3.56 161.061 3.56V2.56V1.56C157.431 1.56 154.072 2.41518 151.005 4.13132L151.493 5.004ZM161.061 2.56V3.56C164.364 3.56 167.365 4.33412 170.085 5.87417L170.577 5.004L171.07 4.13383C168.035 2.41521 164.692 1.56 161.061 1.56V2.56ZM170.577 5.004L170.093 5.87865C172.81 7.38451 174.949 9.49046 176.524 12.2126L177.389 11.712L178.255 11.2114C176.501 8.17887 174.1 5.81282 171.062 4.12934L170.577 5.004ZM177.389 11.712L176.528 12.2204C178.129 14.9316 178.937 17.9949 178.937 21.436H179.937H180.937C180.937 17.6665 180.047 14.2471 178.251 11.2036L177.389 11.712ZM179.937 21.436H178.937C178.937 24.8771 178.129 27.9404 176.528 30.6516L177.389 31.16L178.251 31.6684C180.047 28.6249 180.937 25.2055 180.937 21.436H179.937ZM177.389 31.16L176.524 30.6594C174.95 33.3804 172.793 35.5054 170.037 37.0473L170.525 37.92L171.014 38.7927C174.082 37.0759 176.501 34.6943 178.255 31.6606L177.389 31.16ZM170.525 37.92L170.033 37.0498C167.311 38.5908 164.328 39.364 161.061 39.364V40.364V41.364C164.659 41.364 167.985 40.5079 171.018 38.7902L170.525 37.92ZM161.061 29.6V30.6C163.579 30.6 165.65 29.7875 167.125 28.0668L166.365 27.416L165.606 26.7652C164.585 27.9565 163.119 28.6 161.061 28.6V29.6ZM166.365 27.416L167.132 28.0579C168.569 26.3413 169.237 24.0987 169.237 21.436H168.237H167.237C167.237 23.7653 166.657 25.5094 165.599 26.7741L166.365 27.416ZM168.237 21.436H169.237C169.237 18.744 168.572 16.4936 167.125 14.8052L166.365 15.456L165.606 16.1068C166.655 17.3304 167.237 19.0667 167.237 21.436H168.237ZM166.365 15.456L167.132 14.8141C165.66 13.0554 163.587 12.22 161.061 12.22V13.22V14.22C163.111 14.22 164.575 14.8753 165.599 16.0979L166.365 15.456ZM161.061 13.22V12.22C158.506 12.22 156.414 13.0518 154.939 14.8141L155.705 15.456L156.472 16.0979C157.493 14.8788 158.971 14.22 161.061 14.22V13.22ZM155.705 15.456L154.946 14.8052C153.499 16.4936 152.833 18.744 152.833 21.436H153.833H154.833C154.833 19.0667 155.416 17.3304 156.465 16.1068L155.705 15.456ZM153.833 21.436H152.833C152.833 24.0987 153.501 26.3413 154.939 28.0579L155.705 27.416L156.472 26.7741C155.413 25.5094 154.833 23.7653 154.833 21.436H153.833ZM155.705 27.416L154.946 28.0668C156.424 29.791 158.514 30.6 161.061 30.6V29.6V28.6C158.963 28.6 157.483 27.953 156.465 26.7652L155.705 27.416ZM203.55 3.184H204.55V2.184H203.55V3.184ZM200.066 36.984L200.768 37.6965L200.768 37.6964L200.066 36.984ZM179.734 36.672L180.417 35.9413L179.734 36.672ZM175.782 25.908V24.908H174.782V25.908H175.782ZM187.17 25.908H188.17V24.908H187.17V25.908ZM187.898 29.08L187.109 29.6939L187.117 29.7049L187.126 29.7157L187.898 29.08ZM191.486 29.288L190.722 28.6421V28.6421L191.486 29.288ZM192.058 3.184V2.184H191.058V3.184H192.058ZM203.55 3.184H202.55V26.948H203.55H204.55V3.184H203.55ZM203.55 26.948H202.55C202.55 31.1796 201.437 34.23 199.364 36.2716L200.066 36.984L200.768 37.6964C203.34 35.162 204.55 31.5218 204.55 26.948H203.55ZM200.066 36.984L199.364 36.2715C197.314 38.2908 194.372 39.364 190.394 39.364V40.364V41.364C194.736 41.364 198.242 40.1839 200.768 37.6965L200.066 36.984ZM190.394 40.364V39.364C186.111 39.364 182.824 38.1904 180.417 35.9413L179.734 36.672L179.051 37.4027C181.913 40.0762 185.732 41.364 190.394 41.364V40.364ZM179.734 36.672L180.417 35.9413C178.042 33.7226 176.782 30.4353 176.782 25.908H175.782H174.782C174.782 30.8101 176.157 34.6988 179.051 37.4027L179.734 36.672ZM175.782 25.908V26.908H187.17V25.908V24.908H175.782V25.908ZM187.17 25.908H186.17C186.17 27.4508 186.41 28.7957 187.109 29.6939L187.898 29.08L188.687 28.4661C188.415 28.1163 188.17 27.3465 188.17 25.908H187.17ZM187.898 29.08L187.126 29.7157C187.82 30.5583 188.774 30.964 189.874 30.964V29.964V28.964C189.31 28.964 188.947 28.7804 188.67 28.4443L187.898 29.08ZM189.874 29.964V30.964C190.805 30.964 191.644 30.6492 192.249 29.9339L191.486 29.288L190.722 28.6421C190.565 28.8281 190.33 28.964 189.874 28.964V29.964ZM191.486 29.288L192.249 29.9339C192.87 29.2006 193.058 28.112 193.058 26.948H192.058H191.058C191.058 28.0027 190.865 28.4741 190.722 28.6421L191.486 29.288ZM192.058 26.948H193.058V3.184H192.058H191.058V26.948H192.058ZM192.058 3.184V4.184H203.55V3.184V2.184H192.058V3.184ZM213.838 12.388V11.388H212.838V12.388H213.838ZM213.838 16.912H212.838V17.912H213.838V16.912ZM225.278 16.912H226.278V15.912H225.278V16.912ZM225.278 25.596V26.596H226.278V25.596H225.278ZM213.838 25.596V24.596H212.838V25.596H213.838ZM213.838 30.796H212.838V31.796H213.838V30.796ZM226.838 30.796H227.838V29.796H226.838V30.796ZM226.838 40V41H227.838V40H226.838ZM202.294 40H201.294V41H202.294V40ZM202.294 3.184V2.184H201.294V3.184H202.294ZM226.838 3.184H227.838V2.184H226.838V3.184ZM226.838 12.388V13.388H227.838V12.388H226.838ZM213.838 12.388H212.838V16.912H213.838H214.838V12.388H213.838ZM213.838 16.912V17.912H225.278V16.912V15.912H213.838V16.912ZM225.278 16.912H224.278V25.596H225.278H226.278V16.912H225.278ZM225.278 25.596V24.596H213.838V25.596V26.596H225.278V25.596ZM213.838 25.596H212.838V30.796H213.838H214.838V25.596H213.838ZM213.838 30.796V31.796H226.838V30.796V29.796H213.838V30.796ZM226.838 30.796H225.838V40H226.838H227.838V30.796H226.838ZM226.838 40V39H202.294V40V41H226.838V40ZM202.294 40H203.294V3.184H202.294H201.294V40H202.294ZM202.294 3.184V4.184H226.838V3.184V2.184H202.294V3.184ZM226.838 3.184H225.838V12.388H226.838H227.838V3.184H226.838ZM226.838 12.388V11.388H213.838V12.388V13.388H226.838V12.388ZM226.092 11.816L225.207 11.3516L225.202 11.3601L226.092 11.816ZM232.436 5.212L232.931 6.08096L232.939 6.07617L232.436 5.212ZM250.636 4.64L250.199 5.53937L250.207 5.543L250.214 5.5465L250.636 4.64ZM256.772 9.684L255.959 10.2653L255.965 10.2737L256.772 9.684ZM259.944 17.328V18.328H261.139L260.929 17.1522L259.944 17.328ZM247.776 17.328L246.867 17.7438L247.134 18.328H247.776V17.328ZM245.384 14.52L244.817 15.3432L244.833 15.3543L244.849 15.3648L245.384 14.52ZM237.272 15.664L236.486 15.0462L236.481 15.052L236.477 15.058L237.272 15.664ZM237.272 27.416L236.477 28.022L236.481 28.028L236.486 28.0338L237.272 27.416ZM245.384 28.612L245.932 29.4485L245.939 29.444L245.384 28.612ZM247.776 25.752V24.752H247.134L246.867 25.3362L247.776 25.752ZM259.944 25.752L260.929 25.9278L261.139 24.752H259.944V25.752ZM256.772 33.396L255.965 32.8063L255.959 32.8148L256.772 33.396ZM250.636 38.492L251.063 39.3963L251.069 39.3937L250.636 38.492ZM232.436 37.92L231.933 38.7842L231.941 38.7889L232.436 37.92ZM226.092 31.264L225.202 31.7199L225.207 31.7284L226.092 31.264ZM223.908 21.54H224.908C224.908 18.0362 225.608 14.9549 226.982 12.2719L226.092 11.816L225.202 11.3601C223.664 14.3625 222.908 17.7638 222.908 21.54H223.908ZM226.092 11.816L226.978 12.2804C228.381 9.60387 230.362 7.5444 232.931 6.08092L232.436 5.212L231.941 4.34308C229.033 5.9996 226.784 8.34279 225.207 11.3516L226.092 11.816ZM232.436 5.212L232.939 6.07617C235.501 4.58462 238.545 3.82 242.108 3.82V2.82V1.82C238.253 1.82 234.849 2.65005 231.933 4.34782L232.436 5.212ZM242.108 2.82V3.82C245.169 3.82 247.858 4.40148 250.199 5.53937L250.636 4.64L251.073 3.74063C248.422 2.45185 245.426 1.82 242.108 1.82V2.82ZM250.636 4.64L250.214 5.5465C252.595 6.65538 254.503 8.22737 255.959 10.2652L256.772 9.684L257.586 9.10276C255.922 6.77263 253.739 4.98195 251.058 3.7335L250.636 4.64ZM256.772 9.684L255.965 10.2737C257.462 12.3238 258.464 14.7271 258.96 17.5038L259.944 17.328L260.929 17.1522C260.385 14.1049 259.272 11.4122 257.58 9.09431L256.772 9.684ZM259.944 17.328V16.328H247.776V17.328V18.328H259.944V17.328ZM247.776 17.328L248.686 16.9122C248.058 15.538 247.137 14.4463 245.919 13.6752L245.384 14.52L244.849 15.3648C245.712 15.9111 246.386 16.6913 246.867 17.7438L247.776 17.328ZM245.384 14.52L245.952 13.6968C244.766 12.8792 243.404 12.48 241.9 12.48V13.48V14.48C243.032 14.48 243.991 14.7742 244.817 15.3432L245.384 14.52ZM241.9 13.48V12.48C239.669 12.48 237.83 13.3357 236.486 15.0462L237.272 15.664L238.059 16.2818C239.003 15.0803 240.249 14.48 241.9 14.48V13.48ZM237.272 15.664L236.477 15.058C235.196 16.7395 234.608 18.9346 234.608 21.54H235.608H236.608C236.608 19.2228 237.13 17.5005 238.068 16.27L237.272 15.664ZM235.608 21.54H234.608C234.608 24.1454 235.196 26.3405 236.477 28.022L237.272 27.416L238.068 26.81C237.13 25.5795 236.608 23.8572 236.608 21.54H235.608ZM237.272 27.416L236.486 28.0338C237.83 29.7443 239.669 30.6 241.9 30.6V29.6V28.6C240.249 28.6 239.003 27.9997 238.059 26.7982L237.272 27.416ZM241.9 29.6V30.6C243.393 30.6 244.749 30.224 245.932 29.4485L245.384 28.612L244.836 27.7755C244.009 28.3173 243.042 28.6 241.9 28.6V29.6ZM245.384 28.612L245.939 29.444C247.144 28.6406 248.059 27.5383 248.686 26.1678L247.776 25.752L246.867 25.3362C246.384 26.3924 245.704 27.1967 244.83 27.7799L245.384 28.612ZM247.776 25.752V26.752H259.944V25.752V24.752H247.776V25.752ZM259.944 25.752L258.96 25.5762C258.464 28.3529 257.462 30.7562 255.965 32.8063L256.772 33.396L257.58 33.9857C259.272 31.6678 260.385 28.9751 260.929 25.9278L259.944 25.752ZM256.772 33.396L255.959 32.8148C254.501 34.8551 252.59 36.4464 250.204 37.5903L250.636 38.492L251.069 39.3937C253.744 38.1109 255.923 36.3049 257.586 33.9772L256.772 33.396ZM250.636 38.492L250.209 37.5877C247.866 38.6943 245.173 39.26 242.108 39.26V40.26V41.26C245.422 41.26 248.415 40.6471 251.063 39.3962L250.636 38.492ZM242.108 40.26V39.26C238.542 39.26 235.494 38.5111 232.931 37.0511L232.436 37.92L231.941 38.7889C234.856 40.4489 238.256 41.26 242.108 41.26V40.26ZM232.436 37.92L232.939 37.0558C230.366 35.5571 228.382 33.478 226.978 30.7996L226.092 31.264L225.207 31.7284C226.783 34.7354 229.03 37.0936 231.933 38.7842L232.436 37.92ZM226.092 31.264L226.982 30.8081C225.608 28.1251 224.908 25.0438 224.908 21.54H223.908H222.908C222.908 25.3162 223.664 28.7175 225.202 31.7199L226.092 31.264ZM286.773 3.184H287.773V2.184H286.773V3.184ZM286.773 12.336V13.336H287.773V12.336H286.773ZM276.997 12.336V11.336H275.997V12.336H276.997ZM276.997 40V41H277.997V40H276.997ZM265.453 40H264.453V41H265.453V40ZM265.453 12.336H266.453V11.336H265.453V12.336ZM255.781 12.336H254.781V13.336H255.781V12.336ZM255.781 3.184V2.184H254.781V3.184H255.781ZM286.773 3.184H285.773V12.336H286.773H287.773V3.184H286.773ZM286.773 12.336V11.336H276.997V12.336V13.336H286.773V12.336ZM276.997 12.336H275.997V40H276.997H277.997V12.336H276.997ZM276.997 40V39H265.453V40V41H276.997V40ZM265.453 40H266.453V12.336H265.453H264.453V40H265.453ZM265.453 12.336V11.336H255.781V12.336V13.336H265.453V12.336ZM255.781 12.336H256.781V3.184H255.781H254.781V12.336H255.781ZM255.781 3.184V4.184H286.773V3.184V2.184H255.781V3.184ZM287.148 37.296L286.557 38.1031L286.568 38.1111L287.148 37.296ZM282.52 28.196V27.196H281.457L281.521 28.2568L282.52 28.196ZM294.792 28.196L295.788 28.1143L295.713 27.196H294.792V28.196ZM299.16 30.952L299.714 31.784L299.722 31.7792L299.729 31.7742L299.16 30.952ZM298.432 27.468L297.922 28.3283L297.934 28.3354L297.946 28.3422L298.432 27.468ZM294.064 25.596L293.731 26.539L293.733 26.5396L294.064 25.596ZM288.188 23.152L287.724 24.0383L287.732 24.0424L288.188 23.152ZM284.236 19.668L285.044 19.0798L284.236 19.668ZM282.624 13.792L283.624 13.8065L283.624 13.7992V13.792H282.624ZM284.444 7.708L283.638 7.11592L283.636 7.11883L284.444 7.708ZM289.488 3.86L289.114 2.93254L289.108 2.93469L289.488 3.86ZM307.428 5.68L306.808 6.4649L306.813 6.4688L307.428 5.68ZM311.64 14.468V15.468H312.677L312.639 14.4313L311.64 14.468ZM299.212 14.468L298.212 14.5013L298.244 15.468H299.212V14.468ZM295.468 12.076L296.175 12.7831L296.193 12.7645L296.211 12.745L295.468 12.076ZM296.352 15.508L295.828 16.3597L295.846 16.3713L295.866 16.3822L296.352 15.508ZM300.772 17.432L300.417 18.367L300.422 18.3689L300.772 17.432ZM306.492 19.928L306.02 20.8098L306.028 20.8142L306.492 19.928ZM310.444 23.256L309.655 23.8713L310.444 23.256ZM310.444 34.696L311.291 35.2275L311.295 35.2201L310.444 34.696ZM305.608 38.856L305.178 37.9529L305.608 38.856ZM298.068 40.364V39.364C293.821 39.364 290.397 38.3791 287.727 36.4809L287.148 37.296L286.568 38.1111C289.653 40.3036 293.509 41.364 298.068 41.364V40.364ZM287.148 37.296L287.738 36.489C285.17 34.6095 283.745 31.8696 283.518 28.1352L282.52 28.196L281.521 28.2568C281.779 32.4958 283.44 35.8225 286.557 38.103L287.148 37.296ZM282.52 28.196V29.196H294.792V28.196V27.196H282.52V28.196ZM294.792 28.196L293.795 28.2777C293.891 29.4476 294.208 30.4842 294.875 31.2378C295.571 32.0242 296.527 32.368 297.6 32.368V31.368V30.368C296.973 30.368 296.612 30.1831 296.372 29.9122C296.104 29.6085 295.866 29.059 295.788 28.1143L294.792 28.196ZM297.6 31.368V32.368C298.372 32.368 299.097 32.1953 299.714 31.784L299.16 30.952L298.605 30.1199C298.39 30.2634 298.075 30.368 297.6 30.368V31.368ZM299.16 30.952L299.729 31.7742C300.49 31.2473 300.836 30.4475 300.836 29.548H299.836H298.836C298.836 29.8965 298.731 30.0327 298.59 30.1298L299.16 30.952ZM299.836 29.548H300.836C300.836 28.2275 300.083 27.2413 298.917 26.5938L298.432 27.468L297.946 28.3422C298.653 28.7347 298.836 29.1352 298.836 29.548H299.836ZM298.432 27.468L298.941 26.6077C297.918 26.0014 296.387 25.3515 294.395 24.6524L294.064 25.596L293.733 26.5396C295.692 27.2272 297.073 27.8252 297.922 28.3283L298.432 27.468ZM294.064 25.596L294.396 24.653C292.065 23.8301 290.15 23.0322 288.643 22.2616L288.188 23.152L287.732 24.0424C289.345 24.8665 291.348 25.6979 293.731 26.539L294.064 25.596ZM288.188 23.152L288.651 22.2658C287.275 21.5465 286.072 20.4926 285.044 19.0798L284.236 19.668L283.427 20.2562C284.618 21.894 286.05 23.1629 287.724 24.0382L288.188 23.152ZM284.236 19.668L285.044 19.0798C284.093 17.7715 283.591 16.0408 283.624 13.8065L282.624 13.792L281.624 13.7775C281.587 16.3272 282.16 18.5138 283.427 20.2562L284.236 19.668ZM282.624 13.792H283.624C283.624 11.5764 284.182 9.76351 285.252 8.29717L284.444 7.708L283.636 7.11883C282.278 8.98049 281.624 11.2236 281.624 13.792H282.624ZM284.444 7.708L285.249 8.30007C286.379 6.76203 287.907 5.58832 289.867 4.7853L289.488 3.86L289.108 2.93469C286.838 3.86501 285.004 5.25664 283.638 7.11592L284.444 7.708ZM289.488 3.86L289.862 4.78744C291.875 3.9754 294.155 3.56 296.716 3.56V2.56V1.56C293.937 1.56 291.398 2.01126 289.114 2.93256L289.488 3.86ZM296.716 2.56V3.56C301.074 3.56 304.402 4.56532 306.808 6.46488L307.428 5.68L308.047 4.89512C305.184 2.63468 301.37 1.56 296.716 1.56V2.56ZM307.428 5.68L306.813 6.4688C309.22 8.34452 310.511 10.9822 310.64 14.5047L311.64 14.468L312.639 14.4313C312.491 10.3964 310.974 7.17548 308.042 4.8912L307.428 5.68ZM311.64 14.468V13.468H299.212V14.468V15.468H311.64V14.468ZM299.212 14.468L300.211 14.4347C300.172 13.276 299.879 12.2117 299.112 11.4992L298.432 12.232L297.751 12.9648C297.955 13.1536 298.181 13.58 298.212 14.5013L299.212 14.468ZM298.432 12.232L299.112 11.4992C298.432 10.8681 297.596 10.556 296.664 10.556V11.556V12.556C297.118 12.556 297.46 12.6945 297.751 12.9648L298.432 12.232ZM296.664 11.556V10.556C295.908 10.556 295.235 10.8401 294.724 11.407L295.468 12.076L296.211 12.745C296.325 12.6185 296.449 12.556 296.664 12.556V11.556ZM295.468 12.076L294.76 11.3689C294.205 11.9247 294 12.6654 294 13.428H295H296C296 13.012 296.107 12.8513 296.175 12.7831L295.468 12.076ZM295 13.428H294C294 14.7031 294.722 15.6796 295.828 16.3597L296.352 15.508L296.876 14.6563C296.178 14.227 296 13.8169 296 13.428H295ZM296.352 15.508L295.866 16.3822C296.868 16.9387 298.397 17.6007 300.417 18.367L300.772 17.432L301.126 16.497C299.125 15.738 297.707 15.1173 296.837 14.6338L296.352 15.508ZM300.772 17.432L300.422 18.3689C302.72 19.2264 304.582 20.0408 306.02 20.8098L306.492 19.928L306.963 19.0462C305.42 18.2206 303.468 17.3709 301.121 16.4951L300.772 17.432ZM306.492 19.928L306.028 20.8142C307.421 21.5423 308.629 22.5569 309.655 23.8713L310.444 23.256L311.232 22.6407C310.039 21.1124 308.613 19.9083 306.955 19.0418L306.492 19.928ZM310.444 23.256L309.655 23.8713C310.602 25.0848 311.108 26.6413 311.108 28.612H312.108H313.108C313.108 26.2841 312.503 24.2698 311.232 22.6407L310.444 23.256ZM312.108 28.612H311.108C311.108 30.6927 310.598 32.5371 309.592 34.1719L310.444 34.696L311.295 35.2201C312.508 33.2495 313.108 31.0379 313.108 28.612H312.108ZM310.444 34.696L309.597 34.1645C308.6 35.7523 307.143 37.0189 305.178 37.9529L305.608 38.856L306.037 39.7591C308.302 38.6824 310.068 37.1757 311.291 35.2275L310.444 34.696ZM305.608 38.856L305.178 37.9529C303.226 38.8808 300.866 39.364 298.068 39.364V40.364V41.364C301.093 41.364 303.76 40.8418 306.037 39.7591L305.608 38.856Z" fill="#CC0000" mask="url(#path-1-outside-1_569_490)"/>
</svg>
