<svg width="36" height="36" viewBox="0 0 36 36" fill="none" xmlns="http://www.w3.org/2000/svg">
<path d="M0 18C0 8.05888 8.05888 0 18 0C27.9411 0 36 8.05888 36 18C36 27.9411 27.9411 36 18 36C8.05888 36 0 27.9411 0 18Z" fill="#873EFF"/>
<path fill-rule="evenodd" clip-rule="evenodd" d="M27.648 11C26.4454 11 25.6622 11.4126 24.963 12.7979L21.7745 19.1347V13.5053C21.7745 11.8253 21.0194 11 19.6209 11C18.2225 11 17.6351 11.5011 16.9359 12.9158L13.9152 19.1347V13.5642C13.9152 11.7663 13.216 11 11.5099 11H8.04174C6.72719 11 6 11.6484 6 12.8274C6 14.0063 6.69923 14.7137 7.9858 14.7137H9.41222V21.8168C9.41222 23.8211 10.6988 25 12.5448 25C14.3907 25 15.2298 24.2337 16.1528 22.4358L18.1665 18.4568V21.8168C18.1665 23.7916 19.3972 25 21.2711 25C23.145 25 23.8442 24.3221 24.9071 22.4358L29.5499 14.1832C30.5568 12.3853 29.8576 11 27.6201 11C27.6201 11 27.6201 11 27.648 11Z" fill="white"/>
</svg>
