<svg width="36" height="36" viewBox="0 0 36 36" fill="none" xmlns="http://www.w3.org/2000/svg">
<g clip-path="url(#clip0_312_205)">
<path d="M34.7259 3.88676L27.308 0.314882C26.4501 -0.0985558 25.4236 0.0758193 24.75 0.749413L0.466861 22.8894C-0.18564 23.4857 -0.18564 24.5136 0.468267 25.1085L2.45108 26.9113C2.98545 27.3979 3.79124 27.433 4.36639 26.9971L33.6094 4.81348C34.5909 4.06957 36 4.76848 36 6.00035V5.91457C36 5.04973 35.505 4.26082 34.7259 3.88676Z" fill="#0065A9"/>
<path d="M34.7259 32.1131L27.308 35.685C26.4501 36.0985 25.4236 35.9241 24.75 35.2505L0.466861 13.1105C-0.18564 12.5156 -0.18564 11.4863 0.468267 10.8928L2.45108 9.09002C2.98545 8.60346 3.79124 8.5683 4.36639 9.00424L33.6094 31.1864C34.5909 31.9303 36 31.2314 36 29.9995V30.0853C36 30.9502 35.505 31.7391 34.7259 32.1131Z" fill="#007ACC"/>
<path d="M27.3094 35.685C26.4502 36.0984 25.425 35.9241 24.75 35.2491C25.5797 36.0788 27 35.4909 27 34.3167V1.68188C27 0.50766 25.5797 -0.0801522 24.75 0.749535C25.4236 0.0759416 26.4502 -0.0984334 27.3094 0.313598L34.7259 3.87985C35.505 4.25532 36.0014 5.04282 36.0014 5.90766V30.0909C36.0014 30.9558 35.5064 31.7433 34.7259 32.1188L27.3094 35.685Z" fill="#1F9CF0"/>
<g opacity="0.25">
<path fill-rule="evenodd" clip-rule="evenodd" d="M25.5065 35.7538C26.0733 35.9746 26.7201 35.9606 27.2925 35.6849L34.7048 32.1187C35.4839 31.7446 35.9789 30.9557 35.9789 30.0909V5.909C35.9789 5.04416 35.4839 4.25666 34.7048 3.88119L27.2925 0.314937C26.5415 -0.0464696 25.6626 0.0421241 25.0031 0.521655C24.9089 0.590562 24.8189 0.666499 24.7345 0.750874L10.5455 13.6954L4.36499 9.00275C3.78983 8.5654 2.98545 8.60197 2.45108 9.08853L0.468267 10.8913C-0.18564 11.4862 -0.18564 12.5142 0.46686 13.1104L5.82749 17.9999L0.46686 22.8895C-0.18564 23.4857 -0.18564 24.5137 0.468267 25.1085L2.45108 26.9113C2.98545 27.3979 3.78983 27.4331 4.36499 26.9971L10.5455 22.3059L24.7345 35.2504C24.9595 35.474 25.2225 35.6442 25.5065 35.7538ZM26.9831 9.82822L16.2169 17.9999L26.9831 26.1731V9.82822Z" fill="url(#paint0_linear_312_205)"/>
</g>
</g>
<defs>
<linearGradient id="paint0_linear_312_205" x1="17.978" y1="0.0927492" x2="17.978" y2="35.9072" gradientUnits="userSpaceOnUse">
<stop stop-color="white"/>
<stop offset="1" stop-color="white" stop-opacity="0"/>
</linearGradient>
<clipPath id="clip0_312_205">
<rect width="36" height="36" fill="white"/>
</clipPath>
</defs>
</svg>
