<svg width="37" height="36" viewBox="0 0 37 36" fill="none" xmlns="http://www.w3.org/2000/svg">
<path fill-rule="evenodd" clip-rule="evenodd" d="M0.189453 17.9955C0.189453 20.4056 3.1748 22.6884 7.75391 24.1066C6.69629 28.8231 7.16797 32.5745 9.23633 33.7766C9.71387 34.0578 10.2705 34.1911 10.8799 34.1911V32.536C10.543 32.536 10.2705 32.4679 10.042 32.3435C9.04297 31.7662 8.6123 29.5633 8.94922 26.7299C9.03125 26.0341 9.16309 25.2998 9.32422 24.5507C10.7627 24.906 12.333 25.1814 13.9824 25.359C14.9727 26.7299 16.001 27.9764 17.0352 29.0659C14.6445 31.3161 12.4004 32.5449 10.874 32.5449V34.2C12.8926 34.2 15.5322 32.7462 18.2041 30.2236C20.876 32.7314 23.5156 34.1703 25.5342 34.1703V32.5153C24.0166 32.5153 21.7637 31.2924 19.3701 29.06C20.3984 27.9704 21.4238 26.7328 22.3994 25.359C24.0576 25.1814 25.6279 24.906 27.0664 24.5448C27.2363 25.285 27.3594 26.0045 27.4473 26.6943C27.793 29.5278 27.3652 31.7306 26.375 32.3169C26.1553 32.4501 25.8682 32.5093 25.5312 32.5093V34.1615C26.1465 34.1615 26.7061 34.0282 27.1895 33.7469C29.252 32.5449 29.7148 28.7995 28.6484 24.0977C33.2188 22.6765 36.1895 20.3997 36.1895 17.9955C36.1895 15.5854 33.2041 13.3026 28.625 11.8844C29.6826 7.16787 29.2109 3.41655 27.1426 2.21446C26.665 1.93319 26.1084 1.79995 25.4902 1.79995C23.4717 1.79995 20.832 3.2537 18.1602 5.7763C15.4883 3.26851 12.8486 1.82956 10.8301 1.82956C10.2148 1.82956 9.65527 1.9628 9.17188 2.24407C7.10938 3.44615 6.64648 7.19156 7.71289 11.8933C3.16016 13.3086 0.189453 15.5943 0.189453 17.9955ZM14.8438 17.9955C14.8438 19.8667 16.3438 21.3856 18.1982 21.3856C20.0498 21.3856 21.5527 19.8697 21.5527 17.9955C21.5527 16.1213 20.0527 14.6054 18.1982 14.6054C16.3438 14.6084 14.8438 16.1243 14.8438 17.9955ZM9.74317 22.943C10.0156 21.9867 10.3525 21.0007 10.7334 20.0148C11.0352 20.6069 11.3486 21.2021 11.6943 21.7942C12.0312 22.3864 12.3916 22.9667 12.752 23.5292C11.709 23.3723 10.7041 23.1799 9.74317 22.943ZM13.1035 15.0436C13.6748 14.0428 14.2637 13.0924 14.873 12.2101C15.9658 12.1124 17.0732 12.0621 18.1895 12.0621C19.2969 12.0621 20.4043 12.1154 21.4912 12.2042C22.1006 13.0865 22.6953 14.028 23.2666 15.0229C23.8232 15.994 24.3301 16.98 24.793 17.9748C24.3389 18.9696 23.8232 19.9615 23.2754 20.9326C22.7041 21.9334 22.1152 22.8838 21.5059 23.7661C20.4131 23.8638 19.3057 23.9141 18.1895 23.9141C17.082 23.9141 15.9746 23.8608 14.8877 23.772C14.2783 22.8897 13.6836 21.9482 13.1123 20.9533C12.5557 19.9822 12.0488 18.9963 11.5859 18.0014C12.0488 17.0096 12.5527 16.0177 13.1035 15.0436ZM10.7334 16.0088C10.3379 15.014 10.001 14.0221 9.71973 13.0569C10.6807 12.82 11.6943 12.6187 12.7432 12.4647C12.3828 13.0362 12.0254 13.6224 11.6855 14.2235C11.3516 14.8156 11.0352 15.4167 10.7334 16.0088ZM18.1748 8.09756C18.8574 8.80816 19.54 9.60165 20.2139 10.4692C19.5547 10.4396 18.8779 10.4159 18.1953 10.4159C17.5068 10.4159 16.8242 10.4307 16.1562 10.4692C16.8184 9.60165 17.501 8.80816 18.1748 8.09756ZM23.6328 12.4647C24.6758 12.6217 25.6807 12.8141 26.6416 13.051C26.3691 14.0073 26.0322 14.9933 25.6514 15.9792C25.3496 15.387 25.0361 14.7919 24.6904 14.1998C24.3447 13.6046 23.9932 13.0273 23.6328 12.4647ZM18.2129 27.8964C17.5303 27.1858 16.8477 26.3923 16.1738 25.5248C16.833 25.5544 17.5098 25.5781 18.1924 25.5781C18.8809 25.5781 19.5635 25.5633 20.2314 25.5248C19.5693 26.3923 18.8867 27.1858 18.2129 27.8964ZM23.6416 23.5292C24.002 22.9578 24.3594 22.3716 24.6992 21.7705C25.0361 21.1784 25.3525 20.5832 25.6543 19.9911C26.0498 20.9859 26.3867 21.9778 26.668 22.943C25.7041 23.1739 24.6904 23.3723 23.6416 23.5292ZM30.2832 14.2442C32.8818 15.3634 34.5605 16.8319 34.5605 17.9955C34.5605 19.1591 32.8789 20.6365 30.2832 21.7468C29.6533 22.0222 28.9619 22.265 28.25 22.4959C27.8311 21.0422 27.2803 19.5292 26.5977 17.9807C27.2715 16.4381 27.8164 14.934 28.2266 13.4862C28.9531 13.7172 29.6445 13.9688 30.2832 14.2442ZM26.334 3.64749C27.333 4.22484 27.7637 6.42768 27.4268 9.26116C27.3447 9.95695 27.2129 10.6912 27.0518 11.4403C25.6133 11.085 24.043 10.8097 22.3936 10.632C21.4033 9.26116 20.375 8.01466 19.3408 6.92509C21.7344 4.67784 23.9785 3.44615 25.5049 3.44615C25.8359 3.45503 26.1143 3.52017 26.334 3.64749ZM8.92871 9.29669C8.58301 6.46321 9.01074 4.26037 10.001 3.67414C10.2207 3.5409 10.5078 3.48168 10.8447 3.48168C12.3623 3.48168 14.6152 4.70449 17.0088 6.93693C15.9805 8.02651 14.9551 9.26412 13.9795 10.6379C12.3213 10.8156 10.751 11.0909 9.3125 11.4551C9.14258 10.706 9.01074 9.98655 8.92871 9.29669ZM6.10449 14.2442C6.73438 13.9688 7.42578 13.726 8.1377 13.4951C8.55664 14.9488 9.10742 16.4618 9.79004 18.0103C9.11621 19.5529 8.57129 21.057 8.16113 22.5048C7.43457 22.2739 6.74609 22.0222 6.09863 21.7498C3.5 20.6306 1.82129 19.1621 1.82129 17.9985C1.82715 16.8319 3.50586 15.3574 6.10449 14.2442Z" fill="#00D8FF"/>
</svg>
