<svg width="36" height="33" viewBox="0 0 36 33" fill="none" xmlns="http://www.w3.org/2000/svg">
<g clip-path="url(#clip0_2643_219)">
<path d="M35.3978 16.5H27.1444C26.3546 16.5 25.7143 15.8562 25.7143 15.0619L25.7143 0.605505C25.7143 0.271089 25.4447 0 25.1121 0H21.1736C20.841 0 20.5714 0.271089 20.5714 0.605505V15.0619C20.5714 15.8562 19.9311 16.5 19.1413 16.5H16.8587C16.0689 16.5 15.4287 15.8562 15.4286 15.0621V0.605505C15.4286 0.271089 15.159 0 14.8264 0H10.8879C10.5553 0 10.2857 0.271089 10.2857 0.605505L10.2857 15.0619C10.2857 15.8562 9.64541 16.5 8.85557 16.5H0.602158C0.269591 16.5 0 16.7711 0 17.1055V32.3945C0 32.7289 0.269591 33 0.602158 33H9.68355C10.0161 33 10.2857 32.7289 10.2857 32.3945V17.9379C10.2858 17.1438 10.926 16.5 11.7158 16.5H13.9984C14.7883 16.5 15.4286 17.1438 15.4286 17.9381V32.3945C15.4286 32.7289 15.6982 33 16.0307 33H19.9693C20.3018 33 20.5714 32.7289 20.5714 32.3945V17.9381C20.5714 17.1438 21.2117 16.5 22.0016 16.5H24.2842C25.0739 16.5 25.7142 17.1438 25.7143 17.9379V32.3945C25.7143 32.7289 25.9839 33 26.3164 33H35.3978C35.7304 33 36 32.7289 36 32.3945V17.1055C36 16.7711 35.7304 16.5 35.3978 16.5Z" fill="black"/>
</g>
<defs>
<clipPath id="clip0_2643_219">
<rect width="36" height="33" fill="white"/>
</clipPath>
</defs>
</svg>
