<svg width="36" height="36" viewBox="0 0 36 36" fill="none" xmlns="http://www.w3.org/2000/svg">
<path fill-rule="evenodd" clip-rule="evenodd" d="M0 18V0H36V36H0V18Z" fill="#007ACC"/>
<path fill-rule="evenodd" clip-rule="evenodd" d="M7.89258 18.0616V19.5294H12.5713V32.8507H15.8936V19.5294H20.5723V18.088C20.5723 17.2794 20.5723 16.6202 20.5371 16.6026C20.5371 16.5762 17.6836 16.5675 14.2178 16.5675L7.91895 16.5938V18.0704L7.89258 18.0616ZM28.9248 16.5587C29.8418 16.7755 30.5449 17.1885 31.1748 17.8448C31.5088 18.2051 32.0039 18.835 32.0391 18.9962C32.0391 19.0489 30.4834 20.1036 29.5371 20.6895C29.502 20.7159 29.3584 20.5635 29.2119 20.3292C28.7432 19.6641 28.2656 19.3741 27.5186 19.3214C26.4375 19.2481 25.7197 19.8165 25.7197 20.7598C25.7197 21.0469 25.7725 21.211 25.8809 21.4425C26.124 21.9376 26.5752 22.2335 27.9697 22.8458C30.5449 23.9532 31.6611 24.6827 32.335 25.7257C33.0996 26.8946 33.2695 28.7315 32.7568 30.1085C32.1797 31.6114 30.7764 32.628 28.7695 32.962C28.1396 33.0704 26.6982 33.0528 26.0244 32.9356C24.5859 32.6661 23.2061 31.9454 22.3623 31.0196C22.0283 30.6592 21.3896 29.6954 21.4277 29.6339L21.7705 29.4171L23.1211 28.6348L24.1377 28.0401L24.3721 28.3565C24.668 28.8253 25.3359 29.4551 25.7227 29.6719C26.8916 30.2755 28.459 30.1934 29.2324 29.4932C29.5664 29.1885 29.71 28.8634 29.71 28.4122C29.71 27.9991 29.6455 27.8087 29.4404 27.4952C29.1533 27.0997 28.5762 26.7745 26.9561 26.0567C25.0928 25.2657 24.3018 24.7618 23.5635 23.9854C23.1416 23.5167 22.7549 22.7872 22.5732 22.1866C22.4385 21.6651 22.3945 20.3878 22.5205 19.8721C22.9072 18.0733 24.2666 16.8135 26.2119 16.4532C26.8418 16.3272 28.3271 16.38 28.9482 16.544L28.9248 16.5587Z" fill="white"/>
</svg>
