<svg width="36" height="36" viewBox="0 0 36 36" fill="none" xmlns="http://www.w3.org/2000/svg">
<path d="M7.45455 0C6.09894 0 5 1.09894 5 2.45455V33.5455C5 34.9011 6.09894 36 7.45455 36H28.7273C30.0829 36 31.1818 34.9011 31.1818 33.5455V9.81818L21.3636 0H7.45455Z" fill="#4E8DF5"/>
<path d="M7.45455 35.9999C6.09894 35.9999 5 34.9009 5 33.5453V33.1362C5 34.4918 6.09894 35.5908 7.45455 35.5908H28.7273C30.0829 35.5908 31.1818 34.4918 31.1818 33.1362V33.5453C31.1818 34.9009 30.0829 35.9999 28.7273 35.9999H7.45455Z" fill="#417EE9"/>
<path d="M7.45455 0C6.09894 0 5 1.09894 5 2.45455V2.86364C5 1.50803 6.09894 0.409091 7.45455 0.409091H21.7727L21.3636 0H7.45455Z" fill="#639AF6"/>
<path d="M31.1818 18.2044V9.81805L29.75 8.38623H22.8451C22.2984 8.38623 22.0246 9.0472 22.4112 9.43377L31.1818 18.2044Z" fill="url(#paint0_linear_1632_228)"/>
<path d="M21.3635 0L31.1817 9.81818H23.8181C22.4625 9.81818 21.3635 8.71924 21.3635 7.36364V0Z" fill="#A6C5FA"/>
<path d="M24.6363 18H11.5454V19.6364H24.6363V18Z" fill="white"/>
<path d="M24.6363 21.2727H11.5454V22.9091H24.6363V21.2727Z" fill="white"/>
<path d="M11.5454 24.5455H24.6363V26.1818H11.5454V24.5455Z" fill="white"/>
<path d="M21.3636 27.8182H11.5454V29.4545H21.3636V27.8182Z" fill="white"/>
<defs>
<linearGradient id="paint0_linear_1632_228" x1="26.2727" y1="18.2044" x2="26.2727" y2="8.18169" gradientUnits="userSpaceOnUse">
<stop stop-color="#4E8DF5"/>
<stop offset="1" stop-color="#3D6ACD"/>
</linearGradient>
</defs>
</svg>
