<svg width="36" height="36" viewBox="0 0 36 36" fill="none" xmlns="http://www.w3.org/2000/svg">
<path d="M0 23.799C0 23.1285 0.808097 22.7927 1.28071 23.2669L4.71928 26.7157C5.1919 27.1897 4.85717 28.0002 4.1888 28.0002H0.750225C0.33588 28.0002 0 27.6634 0 27.2478V23.799ZM0 20.1662C0 20.3657 0.0790417 20.5571 0.219735 20.6983L7.28025 27.7798C7.42095 27.9209 7.61178 28.0002 7.81073 28.0002H11.6888C12.3571 28.0002 12.6919 27.1897 12.2193 26.7157L1.28071 15.7445C0.808097 15.2704 0 15.6061 0 16.2765V20.1662ZM0 12.6438C0 12.8433 0.0790417 13.0347 0.219735 13.1759L14.7802 27.7798C14.9209 27.9209 15.1117 28.0002 15.3107 28.0002H19.1888C19.8571 28.0002 20.1919 27.1897 19.7193 26.7157L1.28071 8.22214C0.808109 7.74811 0 8.08386 0 8.75423V12.6438ZM7.49999 12.6438C7.49999 12.8433 7.57907 13.0347 7.71974 13.1759L21.2192 26.7157C21.6918 27.1897 22.5 26.854 22.5 26.1836V22.294C22.5 22.0944 22.4209 21.903 22.2802 21.7619L8.78069 8.22214C8.30806 7.74811 7.49999 8.08386 7.49999 8.75423V12.6438ZM16.2807 8.22214C15.8081 7.74811 15 8.08386 15 8.75423V12.6438C15 12.8433 15.0791 13.0347 15.2197 13.1759L21.2192 19.1933C21.6918 19.6673 22.5 19.3316 22.5 18.6612V14.7716C22.5 14.572 22.4209 14.3806 22.2802 14.2396L16.2807 8.22214Z" fill="#F9BD2B"/>
<path d="M31.9031 23.8894L24.8415 16.8067C24.3688 16.3325 23.5609 16.6683 23.5609 17.3387V27.2459C23.5609 27.6615 23.8967 27.9984 24.311 27.9984H35.2497C35.6641 27.9984 36 27.6615 36 27.2459V26.3437C36 25.9281 35.6627 25.5964 35.2518 25.5426C33.9908 25.378 32.8114 24.8003 31.9031 23.8894ZM27.1607 25.5912C26.4984 25.5912 25.9607 25.0521 25.9607 24.3878C25.9607 23.7233 26.4984 23.184 27.1607 23.184C27.8232 23.184 28.3609 23.7233 28.3609 24.3878C28.3609 25.0521 27.8232 25.5912 27.1607 25.5912Z" fill="black"/>
<path d="M1.21726 23.2095L1.28071 23.2668L4.71929 26.7156C5.17135 27.1691 4.88474 27.9303 4.27404 27.9956L4.1888 28.0001H0.750225C0.365488 28.0001 0.0483793 27.7097 0.00504759 27.3354L0 27.2476V23.7988C0 23.1576 0.739351 22.8226 1.21726 23.2095ZM1.21726 15.6872L1.28071 15.7445L7.49999 21.9823V28.0002L0.219735 20.6983C0.102484 20.5806 0.0280633 20.4281 0.00650415 20.2652L0 20.1662V16.2766C0 15.6353 0.739351 15.3003 1.21726 15.6872ZM0 8.75423C0 8.11296 0.739351 7.77797 1.21726 8.16485L1.28071 8.22215L7.49999 14.46V20.4779L0.219735 13.1759C0.102484 13.0583 0.0280633 12.9058 0.00650415 12.7427L0 12.6438V8.75423Z" fill="#1D4AFF"/>
<path d="M7.50006 14.46L14.7803 21.7619C14.8975 21.8796 14.972 22.0321 14.9936 22.1952L15 22.294V28.0002L7.7198 20.6983C7.60258 20.5806 7.52814 20.4281 7.50658 20.2652L7.50006 20.1662V14.46ZM7.50006 21.9822L12.2193 26.7156C12.6714 27.1691 12.3848 27.9303 11.7742 27.9956L11.6889 28.0001H7.50006V21.9822ZM8.71732 8.16485L8.78076 8.22215L14.7803 14.2396C14.8975 14.3571 14.972 14.5097 14.9936 14.6727L15 14.7716V20.4779L7.7198 13.1759C7.60258 13.0583 7.52814 12.9058 7.50658 12.7427L7.50006 12.6438V8.75423C7.50006 8.11296 8.23945 7.77797 8.71732 8.16485Z" fill="#F54E00"/>
</svg>
