<svg width="36" height="36" viewBox="0 0 36 36" fill="none" xmlns="http://www.w3.org/2000/svg">
<path d="M24.8629 4.29545V31.2955C24.8629 34.3166 26.9472 36 29.1584 36C31.2038 36 33.4538 34.5682 33.4538 31.2955V4.5C33.4538 1.73045 31.4084 0 29.1584 0C26.9084 0 24.8629 1.90841 24.8629 4.29545Z" fill="#F9AB00"/>
<path d="M13.6129 18V31.2955C13.6129 34.3166 15.6972 36 17.9084 36C19.9538 36 22.2038 34.5682 22.2038 31.2955V18.2046C22.2038 15.435 20.1584 13.7046 17.9084 13.7046C15.6584 13.7046 13.6129 15.613 13.6129 18Z" fill="#E37400"/>
<path d="M6.65837 35.9998C9.03068 35.9998 10.9538 34.0767 10.9538 31.7044C10.9538 29.3321 9.03068 27.4089 6.65837 27.4089C4.28606 27.4089 2.36292 29.3321 2.36292 31.7044C2.36292 34.0767 4.28606 35.9998 6.65837 35.9998Z" fill="#E37400"/>
</svg>
