<svg width="36" height="36" viewBox="0 0 36 36" fill="none" xmlns="http://www.w3.org/2000/svg">
<g clip-path="url(#clip0_1235_692)">
<path d="M36 0H0V36H36V0Z" fill="#AE1C59"/>
<path d="M20.4961 21.9718C22.2361 20.8798 25.2001 19.0318 26.7241 17.9518C28.4641 16.7038 29.7241 15.6718 28.9441 14.3158C28.2721 13.1518 26.8441 13.4038 24.4081 14.1718C22.1641 14.8798 19.2001 15.9358 17.3641 16.5958C17.1481 16.6798 16.9921 16.3798 17.1841 16.2478C19.3801 14.7598 21.9001 12.9598 23.2201 11.7958C24.0721 11.0518 24.1681 10.1278 23.7241 9.57581C23.3401 9.10781 22.8241 8.61581 20.4361 9.39581C18.7081 9.95981 16.5121 10.8958 14.5321 11.6878C14.3281 11.7718 14.1601 11.4958 14.3281 11.3518C14.8081 10.9558 15.7321 10.2478 16.2241 9.71981C17.0281 8.86781 17.0401 8.05181 16.6321 7.49981C16.4161 7.21181 15.9481 6.74381 14.6161 6.85181C13.5241 6.93581 12.2401 7.16381 10.5241 7.64381C9.27609 7.99181 9.44409 9.94781 11.2321 9.62381C11.6881 9.53981 12.3361 9.40781 12.8041 9.31181C13.0081 9.26381 13.1281 9.52781 12.9721 9.65981C11.7841 10.5958 10.3801 11.7238 9.73209 12.3118C8.89209 13.0678 8.54409 13.8598 9.10809 14.6038C9.68409 15.3718 10.8361 15.1318 12.2161 14.7358C13.0681 14.4958 14.3761 14.0518 15.3241 13.7158C15.5401 13.6438 15.6961 13.9438 15.4921 14.0638C13.7521 15.1558 10.7881 17.0038 9.26409 18.0838C7.52409 19.3318 6.26409 20.3638 7.04409 21.7198C7.71609 22.8838 9.14409 22.6318 11.5801 21.8638C13.8241 21.1558 16.7881 20.0998 18.6241 19.4398C18.8401 19.3558 18.9961 19.6558 18.8041 19.7878C16.6081 21.2758 14.0881 23.0758 12.7681 24.2398C11.9161 24.9838 11.8201 25.9078 12.2641 26.4598C12.6481 26.9278 13.1641 27.4198 15.5521 26.6398C17.2801 26.0758 19.4761 25.1398 21.4561 24.3478C21.6601 24.2638 21.8281 24.5398 21.6601 24.6838C21.1801 25.0798 20.2561 25.7878 19.7641 26.3158C18.9601 27.1678 18.9481 27.9838 19.3561 28.5358C19.5721 28.8238 20.0401 29.2918 21.3721 29.1838C22.4641 29.0998 23.7481 28.8718 25.4641 28.3918C26.7121 28.0438 26.5441 26.0878 24.7561 26.4118C24.3001 26.4958 23.6521 26.6278 23.1841 26.7238C22.9801 26.7718 22.8601 26.5078 23.0161 26.3758C24.2041 25.4398 25.6081 24.3118 26.2561 23.7238C27.0961 22.9678 27.4441 22.1758 26.8801 21.4318C26.3041 20.6638 25.1521 20.9038 23.7721 21.2998C22.9201 21.5398 21.6121 21.9838 20.6641 22.3198C20.4481 22.4038 20.3041 22.1038 20.4961 21.9718Z" fill="white"/>
</g>
<defs>
<clipPath id="clip0_1235_692">
<rect width="36" height="36" fill="white"/>
</clipPath>
</defs>
</svg>
