<svg width="36" height="36" viewBox="0 0 36 36" fill="none" xmlns="http://www.w3.org/2000/svg">
<path d="M3.97125 7.2899C3.90375 5.31819 5.4232 3.5 7.47703 3.5H28.5258C30.5796 3.5 32.0991 5.31819 32.0316 7.2899C31.9662 9.18414 32.0505 11.6371 32.6616 13.6379C33.2747 15.6445 34.3076 16.9132 36 17.076V18.924C34.3076 19.0868 33.2747 20.3555 32.6616 22.3621C32.0505 24.3629 31.9662 26.8159 32.0316 28.7101C32.0991 30.6818 30.5796 32.5 28.5258 32.5H7.47703C5.4232 32.5 3.90375 30.6818 3.97125 28.7101C4.03664 26.8159 3.95156 24.3629 3.34125 22.3621C2.72813 20.3555 1.69242 19.0868 0 18.924V17.076C1.69242 16.9132 2.72813 15.6445 3.34125 13.6379C3.95156 11.6371 4.03664 9.18414 3.97125 7.2899Z" fill="url(#paint0_linear_1119_1363)"/>
<path fill-rule="evenodd" clip-rule="evenodd" d="M24.1101 21.3478C24.1101 24.063 22.1062 25.7092 18.7804 25.7092H12.5085V10.2852H18.7481C21.5212 10.2852 23.3409 11.8027 23.3409 14.1326C23.3409 15.7681 22.1175 17.2331 20.5572 17.489V17.575C22.6807 17.8102 24.1101 19.2958 24.1101 21.3478ZM14.935 23.7531V18.676H18.1413C20.4377 18.676 21.6295 19.531 21.6295 21.1985C21.6295 22.866 20.4707 23.7531 18.2826 23.7531H14.935ZM14.935 12.2412H18.1631C19.9181 12.2412 20.9144 13.0323 20.9144 14.4646C20.9144 15.9928 19.7557 16.8478 17.654 16.8478H14.935V12.2412Z" fill="white"/>
<defs>
<linearGradient id="paint0_linear_1119_1363" x1="5.34375" y1="4.21078" x2="37.0362" y2="29.1092" gradientUnits="userSpaceOnUse">
<stop stop-color="#9013FE"/>
<stop offset="1" stop-color="#6610F2"/>
</linearGradient>
</defs>
</svg>
