<svg width="36" height="36" viewBox="0 0 36 36" fill="none" xmlns="http://www.w3.org/2000/svg">
<path d="M34.3705 0H2.16L5.00211 32.2105L18.2653 36L31.5284 32.2105L34.3705 0Z" fill="#0277BD"/>
<path d="M18.2653 2.84204V33.0631L28.8758 30.0315L31.2442 2.84204H18.2653Z" fill="#039BE5"/>
<path d="M26.8863 7.5791H18.2653V11.3686H22.9074L22.6232 15.158H18.2653V18.9475H22.4337L22.1495 23.2107L18.2653 24.537V28.5159L25.7495 26.0528L26.4126 15.158L26.8863 7.5791Z" fill="white"/>
<path d="M18.2653 7.5791V11.3686H9.83368L9.54947 7.5791H18.2653ZM13.9074 15.158L14.0968 18.9475H18.2653V15.158H13.9074ZM14.2863 20.8423H10.4968L10.781 26.0528L18.2653 28.5159V24.537L14.381 23.2107L14.2863 20.8423Z" fill="#EEEEEE"/>
</svg>
