<svg width="36" height="35" viewBox="0 0 36 35" fill="none" xmlns="http://www.w3.org/2000/svg">
<g clip-path="url(#clip0_1324_1124)">
<path d="M29.6249 0H6.37505C2.85421 0 0 2.8461 0 6.35694V28.6431C0 32.1539 2.85421 35 6.37505 35H29.6249C33.1458 35 36 32.1539 36 28.6431V6.35694C36 2.8461 33.1458 0 29.6249 0Z" fill="#330000"/>
<path d="M17.4446 21.004H11.8656L10.731 24.5197C10.716 24.5841 10.6787 24.6412 10.6257 24.6809C10.5726 24.7206 10.5072 24.7403 10.441 24.7366H7.61561C7.45419 24.7366 7.39788 24.6482 7.44668 24.4713L12.2767 10.5979C12.3236 10.4533 12.372 10.2895 12.4217 10.1066C12.4844 9.78512 12.5167 9.45848 12.5181 9.13098C12.5153 9.11161 12.5163 9.09186 12.5211 9.07288C12.5259 9.05389 12.5345 9.03605 12.5462 9.02039C12.558 9.00472 12.5728 8.99154 12.5897 8.98161C12.6067 8.97168 12.6254 8.96519 12.6448 8.96253C12.6588 8.96041 12.6731 8.96041 12.6871 8.96253H16.5267C16.6394 8.96253 16.7034 9.00253 16.7203 9.08255L22.2021 24.4952C22.2507 24.6552 22.2021 24.7359 22.0571 24.7359H18.9178C18.8639 24.7419 18.8097 24.7281 18.7653 24.6971C18.7208 24.6661 18.6892 24.62 18.6764 24.5674L17.4446 21.004ZM12.7356 17.9677H16.5507C16.4545 17.6462 16.3419 17.285 16.2128 16.884C16.0838 16.4829 15.947 16.0534 15.8025 15.5953L15.3675 14.2231C15.2225 13.7655 15.0897 13.3238 14.9691 12.898C14.8485 12.4722 14.7389 12.0838 14.6403 11.7329H14.6164C14.4804 12.3831 14.311 13.0259 14.1089 13.6588C13.8837 14.3817 13.6542 15.1204 13.4205 15.8747C13.1868 16.6289 12.9585 17.3266 12.7356 17.9677Z" fill="#FF9A00"/>
<path d="M25.4627 11.5166C25.2163 11.5264 24.9707 11.4843 24.7419 11.3929C24.513 11.3016 24.306 11.1632 24.1344 10.9867C23.9633 10.8025 23.8305 10.5864 23.7435 10.3507C23.6565 10.1151 23.6171 9.86467 23.6276 9.61382C23.6193 9.36595 23.6633 9.1191 23.7569 8.88934C23.8506 8.65957 23.9917 8.45204 24.171 8.28024C24.3487 8.11021 24.5583 7.97691 24.7878 7.88801C25.0173 7.79911 25.2622 7.75637 25.5084 7.76225C26.0879 7.76225 26.5426 7.93492 26.8725 8.28024C27.2072 8.64229 27.3844 9.1218 27.3652 9.61382C27.3754 9.86569 27.3347 10.117 27.2454 10.3529C27.1562 10.5887 27.0203 10.8043 26.8458 10.9867C26.6642 11.1652 26.4477 11.3044 26.2097 11.3955C25.9717 11.4867 25.7174 11.5279 25.4627 11.5166ZM23.7966 24.4958V12.9849C23.7966 12.8404 23.8606 12.7681 23.9894 12.7681H26.9591C27.0872 12.7681 27.152 12.8383 27.152 12.9849V24.4958C27.152 24.6558 27.0879 24.7365 26.9591 24.7365H24.0141C23.8691 24.7372 23.7966 24.6565 23.7966 24.4958Z" fill="#FF9A00"/>
</g>
<defs>
<clipPath id="clip0_1324_1124">
<rect width="36" height="35" fill="white"/>
</clipPath>
</defs>
</svg>
