<svg width="36" height="35" viewBox="0 0 36 35" fill="none" xmlns="http://www.w3.org/2000/svg">
<g clip-path="url(#clip0_1235_701)">
<path d="M29.6253 0H6.37471C2.85405 0 0 2.8459 0 6.35649V28.6435C0 32.1541 2.85405 35 6.37471 35H29.6253C33.1459 35 36 32.1541 36 28.6435V6.35649C36 2.8459 33.1459 0 29.6253 0Z" fill="#001E36"/>
<path d="M8.10661 24.5442V9.15588C8.10661 9.04435 8.15445 8.98753 8.25153 8.98753C8.50829 8.98753 8.74394 8.98753 9.09567 8.97561C9.4474 8.96368 9.83219 8.95947 10.243 8.95176L11.5472 8.92721C12.0059 8.91926 12.4605 8.91528 12.9112 8.91528C14.1348 8.91528 15.1665 9.06773 16.0064 9.37263C16.7615 9.62785 17.4502 10.0474 18.0225 10.6009C18.5078 11.0809 18.8828 11.6603 19.1213 12.2991C19.347 12.921 19.461 13.5778 19.4583 14.2393C19.4583 15.5243 19.1605 16.5839 18.5649 17.4182C17.9651 18.256 17.1223 18.8906 16.1499 19.2363C15.1355 19.6137 14.0079 19.7414 12.7684 19.7414C12.4167 19.7414 12.1648 19.7379 12.0199 19.7295C11.875 19.721 11.6577 19.7175 11.3678 19.7175V24.5217C11.3715 24.5467 11.3702 24.5721 11.364 24.5965C11.3577 24.6209 11.3467 24.6439 11.3315 24.664C11.3164 24.6842 11.2973 24.7011 11.2756 24.7139C11.2538 24.7267 11.2297 24.735 11.2046 24.7385C11.1867 24.7413 11.1684 24.7413 11.1505 24.7385H8.27544C8.16008 24.7364 8.10661 24.6725 8.10661 24.5442ZM11.3678 11.8775V16.8963C11.577 16.9127 11.7702 16.9206 11.9475 16.9202H12.7445C13.331 16.9182 13.9135 16.8254 14.4715 16.6452C14.9497 16.5041 15.3773 16.229 15.7032 15.8526C16.017 15.4836 16.1738 14.9692 16.1738 14.3094C16.186 13.8435 16.0639 13.3839 15.8221 12.9851C15.5687 12.5993 15.2022 12.3007 14.7726 12.13C14.2125 11.9131 13.6144 11.8108 13.0139 11.8291C12.627 11.8291 12.2849 11.8331 11.9876 11.841C11.6902 11.849 11.4848 11.8611 11.3713 11.8775H11.3678Z" fill="#31A8FF"/>
<path d="M28.7959 15.9839C28.3421 15.7511 27.8586 15.5809 27.3588 15.4781C26.8082 15.352 26.2452 15.2873 25.6803 15.2852C25.3748 15.2771 25.0698 15.3137 24.775 15.3939C24.5871 15.4354 24.4201 15.5421 24.3037 15.6949C24.225 15.8171 24.1832 15.9593 24.1834 16.1045C24.1876 16.2453 24.2386 16.3808 24.3283 16.4896C24.4692 16.6542 24.6417 16.7892 24.8355 16.8866C25.1796 17.0709 25.5343 17.2348 25.8977 17.3776C26.7082 17.6483 27.4828 18.0163 28.2043 18.4733C28.6954 18.7829 29.1019 19.209 29.3875 19.7134C29.6282 20.1919 29.7489 20.7214 29.7393 21.2566C29.7535 21.9624 29.5513 22.6557 29.1596 23.2438C28.74 23.8403 28.1574 24.3041 27.4812 24.5801C26.7468 24.9018 25.8402 25.0627 24.7616 25.0627C24.0767 25.069 23.3931 25.0044 22.7216 24.8698C22.1924 24.773 21.6773 24.6111 21.1881 24.3879C21.1351 24.3608 21.0911 24.3192 21.061 24.268C21.031 24.2168 21.0163 24.1581 21.0185 24.0989V21.4986C21.0155 21.4731 21.0195 21.4473 21.0302 21.4239C21.0408 21.4005 21.0577 21.3805 21.079 21.3661C21.0997 21.3543 21.1236 21.3491 21.1474 21.3512C21.1711 21.3533 21.1937 21.3627 21.212 21.378C21.7903 21.7179 22.4183 21.9657 23.0733 22.1124C23.6502 22.2568 24.2421 22.3335 24.8369 22.3411C25.3996 22.3411 25.8142 22.2688 26.0806 22.1243C26.2005 22.0695 26.3019 21.9813 26.3726 21.8703C26.4432 21.7592 26.4801 21.6301 26.4787 21.4986C26.4787 21.2896 26.358 21.0887 26.1165 20.8961C25.8749 20.7034 25.3835 20.4719 24.642 20.2017C23.8837 19.9385 23.1648 19.574 22.5049 19.1179C22.033 18.791 21.6442 18.3586 21.3695 17.8553C21.1315 17.3809 21.0109 16.8566 21.0178 16.3262C21.0157 15.6872 21.1916 15.0602 21.5257 14.515C21.9054 13.916 22.4506 13.4393 23.0958 13.1423C23.804 12.7892 24.6894 12.6127 25.7521 12.6127C26.3746 12.6075 26.9965 12.6516 27.612 12.7446C28.0576 12.8017 28.4931 12.9197 28.9064 13.0953C28.9392 13.1047 28.9693 13.1216 28.9945 13.1446C29.0196 13.1676 29.0391 13.1961 29.0513 13.2279C29.0676 13.2866 29.0757 13.3472 29.0752 13.4082V15.8408C29.0771 15.8689 29.0717 15.897 29.0593 15.9224C29.047 15.9477 29.0282 15.9694 29.0048 15.9853C28.9723 16.0012 28.9365 16.0093 28.9002 16.0091C28.864 16.0088 28.8283 16.0002 28.7959 15.9839Z" fill="#31A8FF"/>
</g>
<defs>
<clipPath id="clip0_1235_701">
<rect width="36" height="35" fill="white"/>
</clipPath>
</defs>
</svg>
