<svg width="36" height="36" viewBox="0 0 36 36" fill="none" xmlns="http://www.w3.org/2000/svg">
<path fill-rule="evenodd" clip-rule="evenodd" d="M33.9032 0L31.0116 32.3965L18.0125 36L5.04868 32.4023L2.16 0H33.9032Z" fill="#E44D26"/>
<path fill-rule="evenodd" clip-rule="evenodd" d="M18.0301 33.2463L28.536 30.3342L31.0057 2.64868H18.0301V33.2463Z" fill="#F16529"/>
<path fill-rule="evenodd" clip-rule="evenodd" d="M12.411 10.5967H18.0331V6.62402H8.06625L8.16 7.69043L9.13559 18.6416H18.0272V14.666H12.7743L12.411 10.5967ZM13.3045 20.6279H9.31723L9.87387 26.8682L18.0155 29.1269L18.0331 29.1211V24.9873L18.0155 24.9932L13.5887 23.7979L13.3045 20.6279Z" fill="#EBEBEB"/>
<path fill-rule="evenodd" clip-rule="evenodd" d="M18.0184 18.6418H22.911L22.451 23.7952L18.0184 24.9905V29.1243L26.1659 26.8655L26.2245 26.1946L27.159 15.7327L27.2557 14.6663H18.0184V18.6418ZM18.0184 10.5881V10.5969H27.6161L27.6952 9.70337L27.8768 7.68774L27.9706 6.62134H18.0184V10.5881Z" fill="white"/>
</svg>
