<svg width="36" height="36" viewBox="0 0 36 36" fill="none" xmlns="http://www.w3.org/2000/svg">
<path fill-rule="evenodd" clip-rule="evenodd" d="M17.999 0.00647221C8.06008 0.00647221 0 8.26838 0 18.4592C0 26.6129 5.15679 33.5275 12.3087 35.9687C13.2089 36.1396 13.5398 35.5675 13.5398 35.0798C13.5398 34.6398 13.5219 33.1863 13.5145 31.6456C8.50658 32.762 7.4509 29.4674 7.4509 29.4674C6.63237 27.3341 5.45244 26.7668 5.45244 26.7668C3.81942 25.6204 5.57669 25.6456 5.57669 25.6456C7.38374 25.7751 8.33514 27.546 8.33514 27.546C9.94161 30.3672 12.5472 29.5505 13.5737 29.0798C13.7358 27.8872 14.2008 27.0726 14.7164 26.6115C10.7182 26.1463 6.51543 24.5634 6.51543 17.492C6.51543 15.4779 7.21966 13.831 8.36967 12.5396C8.18236 12.0737 7.56582 10.1979 8.54309 7.65665C8.54309 7.65665 10.0545 7.16014 13.4946 9.54813C14.9297 9.14014 16.469 8.93444 17.9977 8.92763C19.5277 8.93444 21.0697 9.13945 22.5067 9.54813C25.9422 7.16152 27.4522 7.65665 27.4522 7.65665C28.4309 10.1986 27.817 12.0757 27.6297 12.5396C28.7837 13.831 29.4819 15.4779 29.4819 17.492C29.4819 24.5797 25.2698 26.138 21.263 26.5951C21.9088 27.1672 22.4855 28.2904 22.4855 30.0109C22.4855 32.4786 22.4649 34.4674 22.4649 35.0743C22.4649 35.5654 22.7891 36.1396 23.7019 35.9597C30.8498 33.5173 36 26.6019 36 18.453C36 8.26354 27.9413 0.000244141 18.0003 0.000244141L17.999 0.00647221Z" fill="black"/>
</svg>
