<svg width="34" height="36" viewBox="0 0 34 36" fill="none" xmlns="http://www.w3.org/2000/svg">
<g clip-path="url(#clip0_1246_752)">
<path d="M25.5158 17.4909C25.7789 17.46 26.0302 17.4585 26.2609 17.4909C26.3946 17.1837 26.4182 16.6546 26.2976 16.0786C26.1183 15.2218 25.8759 14.703 25.3762 14.7838C24.875 14.8646 24.8574 15.4848 25.0367 16.3416C25.1366 16.8237 25.3159 17.2351 25.5158 17.4909Z" fill="black"/>
<path d="M21.2171 18.1684C21.5757 18.3256 21.7962 18.43 21.8814 18.3388C21.9373 18.2815 21.9196 18.1742 21.8344 18.0346C21.658 17.7466 21.2936 17.4527 20.9085 17.2895C20.1193 16.95 19.1788 17.0632 18.4528 17.5849C18.2132 17.7598 17.9854 18.0038 18.0178 18.1507C18.028 18.1992 18.0648 18.2345 18.1486 18.2463C18.3455 18.2683 19.0362 17.92 19.8313 17.8715C20.3941 17.8362 20.8585 18.0111 21.2171 18.1684Z" fill="black"/>
<path d="M20.497 18.5799C20.0312 18.6533 19.7725 18.8077 19.6079 18.9502C19.4668 19.0737 19.3801 19.2103 19.3801 19.3059C19.3801 19.3514 19.4007 19.3779 19.4154 19.3911C19.436 19.4102 19.4624 19.4205 19.4918 19.4205C19.5976 19.4205 19.8328 19.3264 19.8328 19.3264C20.4823 19.0942 20.91 19.1222 21.3347 19.1707C21.5698 19.1971 21.6801 19.2118 21.7315 19.131C21.7462 19.1075 21.7653 19.0575 21.7183 18.9825C21.611 18.8032 21.1392 18.5034 20.497 18.5799Z" fill="black"/>
<path d="M24.0638 20.0892C24.3812 20.2449 24.7295 20.1832 24.8427 19.9525C24.9559 19.7218 24.7913 19.4087 24.4753 19.253C24.1579 19.0972 23.8096 19.1589 23.6964 19.3896C23.5818 19.6204 23.7478 19.9334 24.0638 20.0892Z" fill="black"/>
<path d="M26.1007 18.3094C25.8435 18.305 25.6304 18.5872 25.6246 18.9399C25.6187 19.2926 25.823 19.5821 26.0801 19.5866C26.3373 19.591 26.5504 19.3088 26.5563 18.9561C26.5622 18.6034 26.3579 18.3139 26.1007 18.3094Z" fill="black"/>
<path d="M8.81495 24.6729C8.75029 24.5921 8.64594 24.6171 8.54454 24.6406C8.474 24.6568 8.39317 24.6759 8.30499 24.6744C8.11541 24.6715 7.95522 24.5892 7.86557 24.451C7.748 24.2717 7.75535 24.0028 7.88468 23.6956C7.90231 23.6545 7.92289 23.6089 7.94493 23.5575C8.15068 23.0946 8.49751 22.3201 8.10953 21.5808C7.81707 21.0253 7.34091 20.6785 6.76923 20.6065C6.21959 20.5374 5.65378 20.7402 5.29372 21.1385C4.72498 21.766 4.63533 22.6213 4.74555 22.9226C4.78523 23.0328 4.84842 23.0637 4.89545 23.0696C4.99245 23.0828 5.135 23.0123 5.22465 22.7712C5.23053 22.7536 5.23935 22.7271 5.24963 22.6933C5.28931 22.5655 5.36426 22.3274 5.48624 22.1378C5.63321 21.9086 5.86247 21.7498 6.13141 21.6925C6.40476 21.6337 6.68546 21.6867 6.91913 21.8395C7.3174 22.1011 7.47171 22.589 7.30123 23.0549C7.21306 23.2959 7.0705 23.7574 7.10136 24.1365C7.16456 24.9037 7.63631 25.2108 8.06103 25.2446C8.47253 25.2608 8.76057 25.0286 8.83405 24.8596C8.8752 24.7596 8.83846 24.6994 8.81495 24.6729Z" fill="black"/>
<path d="M32.5935 23.2709C32.5774 23.2151 32.476 22.8418 32.3349 22.3921C32.1938 21.9424 32.0498 21.6249 32.0498 21.6249C32.6126 20.7814 32.6229 20.0274 32.548 19.6013C32.4686 19.0722 32.2482 18.621 31.8029 18.1551C31.359 17.6893 30.4508 17.2116 29.1737 16.853C29.0282 16.8119 28.5462 16.6796 28.5036 16.6664C28.5006 16.6385 28.4683 15.088 28.4389 14.4208C28.4183 13.9388 28.3757 13.1878 28.1435 12.4471C27.8657 11.4448 27.3808 10.5689 26.7767 10.0075C28.4448 8.27924 29.4853 6.3746 29.4838 4.74038C29.4794 1.59831 25.6201 0.647462 20.8644 2.61676C20.86 2.61823 19.8636 3.04149 19.8563 3.04442C19.8519 3.04002 18.0354 1.25736 18.0075 1.23384C12.5875 -3.49542 -4.36467 15.3482 1.05532 19.9246L2.23984 20.9283C1.93268 21.7249 1.81217 22.636 1.91064 23.6163C2.03703 24.8757 2.6866 26.0838 3.74033 27.0155C4.73967 27.9017 6.05352 28.4616 7.32916 28.4602C9.43807 33.3202 14.257 36.3021 19.9077 36.4696C25.9684 36.6504 31.0563 33.8052 33.1887 28.6968C33.3283 28.3382 33.9206 26.7231 33.9206 25.2961C33.9206 23.8646 33.1108 23.2709 32.5935 23.2709ZM7.79503 27.0964C7.61133 27.1272 7.42321 27.1404 7.23363 27.136C5.40247 27.0875 3.42583 25.4386 3.22889 23.484C3.01139 21.3237 4.11508 19.6615 6.06969 19.2662C6.30336 19.2191 6.58553 19.1912 6.88974 19.2074C7.98461 19.2676 9.59826 20.1083 9.96714 22.4935C10.2949 24.6068 9.77609 26.7583 7.79503 27.0964ZM5.75078 17.9744C4.53392 18.211 3.4611 18.9002 2.80564 19.8526C2.41325 19.5263 1.68285 18.8929 1.55499 18.646C0.508614 16.6576 2.69689 12.7925 4.22677 10.6101C8.00665 5.21654 13.9263 1.13244 16.6672 1.87313C17.1125 1.99952 18.588 3.71017 18.588 3.71017C18.588 3.71017 15.8486 5.22976 13.3076 7.34896C9.88631 9.98548 7.29976 13.8168 5.75078 17.9744ZM24.9662 26.2881C25.0058 26.2719 25.0338 26.2263 25.0294 26.1808C25.0235 26.1249 24.9735 26.0852 24.9191 26.0911C24.9191 26.0911 22.0519 26.5159 19.3419 25.5239C19.6373 24.5642 20.4221 24.911 21.6081 25.0065C23.7464 25.1344 25.6613 24.8214 27.078 24.4158C28.3052 24.063 29.9159 23.3694 31.168 22.3818C31.5898 23.3091 31.7397 24.329 31.7397 24.329C31.7397 24.329 32.0659 24.2703 32.3393 24.4393C32.5979 24.598 32.786 24.9287 32.6567 25.781C32.3937 27.3756 31.7162 28.6703 30.5772 29.8607C29.8835 30.6073 29.0414 31.2569 28.0788 31.7286C27.5674 31.9976 27.0222 32.2298 26.4475 32.4179C22.1533 33.8199 17.7576 32.2783 16.3409 28.9672C16.2278 28.7188 16.1322 28.4572 16.0573 28.1853C15.4533 26.003 15.9662 23.3855 17.5681 21.7366C17.5681 21.7366 17.5681 21.7366 17.5681 21.7352C17.6665 21.6308 17.7679 21.5074 17.7679 21.3516C17.7679 21.2208 17.6856 21.0841 17.6136 20.9871C17.0537 20.1744 15.1108 18.7885 15.5003 16.1065C15.7795 14.1798 17.4652 12.8233 19.0362 12.9042C19.1685 12.9115 19.3022 12.9189 19.4345 12.9277C20.1149 12.9674 20.7086 13.0555 21.27 13.079C22.2077 13.1202 23.0512 12.9835 24.0506 12.1502C24.3871 11.8695 24.6575 11.6256 25.1146 11.5492C25.1631 11.5403 25.2821 11.4977 25.5217 11.5095C25.7656 11.5227 25.9978 11.5888 26.2065 11.7285C27.0075 12.2619 27.1206 13.5523 27.1618 14.4958C27.1853 15.0351 27.25 16.3387 27.2735 16.7134C27.3249 17.5688 27.5498 17.6907 28.0039 17.8406C28.2596 17.9244 28.4977 17.9876 28.8474 18.0861C29.907 18.3844 30.536 18.6857 30.9328 19.0737C31.1695 19.3161 31.2797 19.5733 31.3135 19.8188C31.4384 20.7299 30.6051 21.8571 28.4007 22.88C25.9905 23.9984 23.0659 24.282 21.0452 24.0572C20.8909 24.0395 20.3398 23.9778 20.3368 23.9778C18.7202 23.7603 17.7988 25.8486 18.7687 27.2801C19.3933 28.203 21.0966 28.8026 22.7999 28.8026C26.7062 28.8026 29.7086 27.1346 30.8256 25.6943C30.8594 25.6517 30.8623 25.6458 30.9152 25.5665C30.9696 25.4842 30.9255 25.4386 30.8564 25.4842C29.9438 26.1088 25.8906 28.5866 21.5566 27.8415C21.5566 27.8415 21.0305 27.7547 20.5485 27.5681C20.1664 27.4197 19.3669 27.0523 19.2699 26.2307C22.7632 27.3109 24.9662 26.2881 24.9662 26.2881ZM19.4242 25.6341C19.4257 25.6355 19.4257 25.6355 19.4257 25.637C19.4257 25.6355 19.4257 25.6341 19.4242 25.6341ZM12.7315 10.588C14.0747 9.03463 15.7295 7.68551 17.2109 6.92718C17.2624 6.90073 17.3167 6.95657 17.2888 7.00654C17.1713 7.21964 16.9449 7.67522 16.8729 8.02205C16.8612 8.07643 16.9199 8.11611 16.9655 8.08525C17.887 7.45625 19.4918 6.78316 20.8982 6.69645C20.9585 6.69204 20.9879 6.76993 20.9394 6.80667C20.7248 6.97127 20.4911 7.19759 20.3207 7.42686C20.2913 7.46654 20.3192 7.52238 20.3677 7.52238C21.3553 7.52973 22.7485 7.87509 23.6553 8.38358C23.717 8.41738 23.6729 8.53642 23.6038 8.52173C22.2312 8.20723 19.9827 7.96768 17.6474 8.53789C15.5635 9.04638 13.9719 9.83117 12.8109 10.6762C12.755 10.7203 12.6845 10.6439 12.7315 10.588Z" fill="black"/>
</g>
<defs>
<clipPath id="clip0_1246_752">
<rect width="33.9205" height="36" fill="white"/>
</clipPath>
</defs>
</svg>
