<svg width="36" height="36" viewBox="0 0 36 36" fill="none" xmlns="http://www.w3.org/2000/svg">
<path d="M18 0C8.05957 0 0 8.05957 0 18C0 27.9404 8.05957 36 18 36C27.9404 36 36 27.9404 36 18C36 8.05957 27.9404 0 18 0ZM31.1631 10.8047C31.2275 11.2822 31.2627 11.7949 31.2627 12.3457C31.2627 13.8662 30.9785 15.5771 30.123 17.7188L25.541 30.9639C30 28.3652 33 23.5312 33 18C33 15.3926 32.335 12.9404 31.1631 10.8047ZM18.2637 19.3125L13.7637 32.3906C15.1084 32.7861 16.5293 33.0029 18 33.0029C19.7461 33.0029 21.4219 32.7012 22.9805 32.1533C22.9395 32.0889 22.9043 32.0215 22.8721 31.9453L18.2637 19.3125ZM28.125 17.2441C28.125 15.3896 27.46 14.1064 26.8887 13.1074C26.127 11.8711 25.415 10.8252 25.415 9.58887C25.415 8.20898 26.4609 6.92578 27.9346 6.92578C28.002 6.92578 28.0635 6.93457 28.1279 6.9375C25.459 4.49121 21.9023 3 18 3C12.7588 3 8.15039 5.68945 5.4668 9.76172C5.81836 9.77344 6.14941 9.7793 6.43359 9.7793C8.00098 9.7793 10.4326 9.58887 10.4326 9.58887C11.2412 9.54199 11.335 10.7285 10.5293 10.8252C10.5293 10.8252 9.71777 10.9189 8.8125 10.9688L14.2734 27.2168L17.5576 17.373L15.2197 10.9688C14.4111 10.9219 13.6465 10.8252 13.6465 10.8252C12.8379 10.7783 12.9316 9.54199 13.7402 9.58887C13.7402 9.58887 16.2158 9.7793 17.6895 9.7793C19.2568 9.7793 21.6885 9.58887 21.6885 9.58887C22.4971 9.54199 22.5908 10.7285 21.7852 10.8252C21.7852 10.8252 20.9707 10.9189 20.0684 10.9688L25.4883 27.0908L27.0352 22.1865C27.7236 20.0449 28.125 18.5273 28.125 17.2441ZM3 18C3 23.9385 6.45117 29.0684 11.4551 31.5L4.29785 11.8945C3.46582 13.7607 3 15.8232 3 18ZM18 1.08105C20.2852 1.08105 22.5 1.5293 24.5859 2.41113C25.5879 2.83594 26.5547 3.36035 27.46 3.96973C28.3564 4.57617 29.2002 5.27051 29.9648 6.03516C30.7295 6.7998 31.4268 7.64355 32.0303 8.54004C32.6426 9.44531 33.167 10.4121 33.5889 11.4141C34.4707 13.5 34.9189 15.7148 34.9189 18C34.9189 20.2852 34.4707 22.5 33.5889 24.5859C33.1641 25.5879 32.6396 26.5547 32.0303 27.46C31.4238 28.3564 30.7295 29.2002 29.9648 29.9648C29.2002 30.7295 28.3564 31.4268 27.46 32.0303C26.5547 32.6426 25.5879 33.167 24.5859 33.5889C22.5 34.4707 20.2852 34.9189 18 34.9189C15.7148 34.9189 13.5 34.4707 11.4141 33.5889C10.4121 33.1641 9.44531 32.6396 8.54004 32.0303C7.64355 31.4238 6.7998 30.7295 6.03516 29.9648C5.27051 29.2002 4.57324 28.3564 3.96973 27.46C3.35742 26.5547 2.83301 25.5879 2.41113 24.5859C1.52637 22.5 1.08105 20.2852 1.08105 18C1.08105 15.7148 1.5293 13.5 2.41113 11.4141C2.83594 10.4121 3.36035 9.44531 3.96973 8.54004C4.57617 7.64355 5.27051 6.7998 6.03516 6.03516C6.7998 5.27051 7.64355 4.57324 8.54004 3.96973C9.44531 3.35742 10.4121 2.83301 11.4141 2.41113C13.5 1.52637 15.7148 1.08105 18 1.08105Z" fill="#23282D"/>
</svg>
