<svg width="36" height="36" viewBox="0 0 36 36" fill="none" xmlns="http://www.w3.org/2000/svg">
<g clip-path="url(#clip0_2656_225)">
<path d="M17.9802 17.9802H35.9604C35.9604 22.7489 34.0661 27.3222 30.6942 30.6942C27.3222 34.0661 22.7489 35.9604 17.9802 35.9604V17.9802Z" fill="#5854FF"/>
<path d="M17.9802 0H0V17.9802C0 22.7489 1.89434 27.3222 5.26628 30.6942C8.63823 34.0661 13.2116 35.9604 17.9802 35.9604V0Z" fill="#FF3666"/>
<path d="M26.9703 17.9802C31.9352 17.9802 35.9604 13.9553 35.9604 8.99011C35.9604 4.02527 31.9356 0 26.9703 0C22.0055 0 17.9802 4.02488 17.9802 8.99011C17.9802 13.9549 22.0051 17.9802 26.9703 17.9802Z" fill="#FFC329"/>
</g>
<defs>
<clipPath id="clip0_2656_225">
<rect width="36" height="36" fill="white"/>
</clipPath>
</defs>
</svg>
