<svg width="36" height="36" viewBox="0 0 36 36" fill="none" xmlns="http://www.w3.org/2000/svg">
<path d="M18 8C13.2 8 10.2 10.4 9 15.2C10.8 12.8 12.9 11.9 15.3 12.5C16.6695 12.842 17.6476 13.835 18.7319 14.936C20.4975 16.727 22.539 18.8 27 18.8C31.7999 18.8 34.8 16.4 36 11.6C34.2 14 32.1 14.9 29.7 14.3C28.3305 13.958 27.3526 12.965 26.268 11.864C24.504 10.073 22.4625 8 18 8ZM9 18.8C4.20001 18.8 1.2 21.2001 0 26C1.8 23.6 3.9 22.7 6.3 23.3C7.6695 23.642 8.64751 24.635 9.732 25.7361C11.4975 27.527 13.539 29.6 18 29.6C22.7999 29.6 25.8 27.2 27 22.4C25.2 24.8001 23.1 25.7001 20.7 25.1C19.3305 24.758 18.3524 23.765 17.268 22.664C15.504 20.873 13.4625 18.8 9 18.8Z" fill="#00D8FF"/>
</svg>
