<svg width="36" height="36" viewBox="0 0 36 36" fill="none" xmlns="http://www.w3.org/2000/svg">
<g clip-path="url(#clip0_1231_2316)">
<rect width="36" height="36" fill="black"/>
<path d="M36 36H0V0H36V36ZM0.220183 35.7798H35.7798V0.220183H0.220183V35.7798Z" fill="white"/>
<path d="M8.12466 13.519V19.6842C8.12466 19.9484 8.12466 20.2126 8.14668 20.4548C8.1687 20.697 8.21273 20.9172 8.27879 21.0934C8.36686 21.2695 8.47695 21.4016 8.6531 21.5117C8.80723 21.6218 9.04943 21.6658 9.35769 21.6658C9.84209 21.6658 10.1944 21.5117 10.3705 21.2255C10.5467 20.9392 10.6568 20.4328 10.6568 19.7502V13.519H11.6256V19.6842C11.6256 19.8383 11.6256 20.0145 11.6036 20.2346C11.6036 20.4328 11.5595 20.653 11.5375 20.8512C11.4935 21.0493 11.4274 21.2695 11.3393 21.4677C11.2513 21.6658 11.1192 21.842 10.943 21.9961C10.7669 22.1502 10.5687 22.2823 10.3045 22.3704C10.0403 22.4585 9.732 22.5245 9.33567 22.5245C8.78521 22.5245 8.36686 22.4365 8.05861 22.2603C7.75035 22.0842 7.53016 21.864 7.39805 21.5998C7.26594 21.3356 7.17787 21.0273 7.15585 20.697C7.13383 20.3667 7.11182 20.0365 7.11182 19.7062V13.5411H8.12466V13.519Z" fill="white"/>
<path d="M12.5283 13.519H13.6072L14.7962 16.6897L16.0292 13.519H17.02L15.3026 17.5924L17.2622 22.3484H16.1173L14.7081 18.6713L13.2989 22.3484H12.3081L14.2457 17.7466L12.5283 13.519Z" fill="white"/>
<path d="M18.0991 13.519H19.8166C20.2789 13.519 20.6753 13.5631 21.0055 13.6512C21.3138 13.7392 21.6 13.9374 21.8422 14.2236C21.9083 14.3117 21.9744 14.3998 22.0404 14.5099C22.1065 14.62 22.1725 14.7521 22.2386 14.9062C22.3046 15.0603 22.3487 15.2365 22.3707 15.4346C22.4147 15.6328 22.4147 15.875 22.4147 16.1392C22.4147 16.4915 22.3707 16.8218 22.2826 17.1301C22.1945 17.4383 22.0624 17.7245 21.8643 17.9667C21.6661 18.209 21.4239 18.3851 21.1156 18.5392C20.8074 18.6713 20.4331 18.7374 19.9707 18.7374H19.112V22.3264H18.0991V13.519ZM19.112 17.9007H19.9487C20.1468 17.9007 20.345 17.8787 20.5211 17.8346C20.6973 17.7906 20.8514 17.7025 20.9835 17.5924C21.1156 17.4603 21.2257 17.2842 21.2918 17.064C21.3578 16.8438 21.4019 16.5356 21.4019 16.1833C21.4019 15.7429 21.3358 15.3906 21.2257 15.1484C21.1156 14.9062 20.9615 14.7301 20.8074 14.62C20.6533 14.5099 20.4771 14.4438 20.301 14.4218C20.1248 14.3998 19.9927 14.3998 19.8606 14.3998H19.0899V17.9007H19.112Z" fill="white"/>
<path d="M24.1759 13.519V14.642H23.1851V13.519H24.1759ZM23.2291 15.831H24.1318V22.3484H23.2291V15.831Z" fill="white"/>
<path d="M25.167 15.8309H26.0037V16.8217C26.0257 16.7557 26.0697 16.6456 26.1358 16.5135C26.2019 16.3813 26.2899 16.2492 26.4 16.1391C26.5101 16.007 26.6642 15.8969 26.8184 15.8089C26.9945 15.7208 27.1927 15.6768 27.4349 15.6768C27.7211 15.6768 27.9633 15.7428 28.1615 15.8529C28.3597 15.985 28.5358 16.1391 28.6239 16.3373C28.734 16.5355 28.8 16.7997 28.822 17.152C28.8441 17.4823 28.8441 17.8346 28.8441 18.2089V22.3483H27.9633V18.2089C27.9633 18.0107 27.9633 17.8125 27.9413 17.5924C27.9413 17.3942 27.8973 17.218 27.8532 17.0419C27.8092 16.8878 27.7211 16.7557 27.611 16.6456C27.5009 16.5355 27.3468 16.4914 27.1486 16.4914C26.9064 16.4914 26.7303 16.5575 26.5762 16.7116C26.4441 16.8657 26.334 17.0419 26.2679 17.2401C26.2019 17.4602 26.1578 17.6804 26.1358 17.9226C26.1138 18.1648 26.1138 18.385 26.1138 18.5612V22.3263H25.211V15.8309H25.167Z" fill="white"/>
</g>
<defs>
<clipPath id="clip0_1231_2316">
<rect width="36" height="36" fill="white"/>
</clipPath>
</defs>
</svg>
