<svg width="36" height="36" viewBox="0 0 36 36" fill="none" xmlns="http://www.w3.org/2000/svg">
<g clip-path="url(#clip0_2158_246)">
<mask id="mask0_2158_246" style="mask-type:luminance" maskUnits="userSpaceOnUse" x="-1" y="-1" width="38" height="38">
<path d="M-0.0829926 -0.0270996H36.0087V36.0191H-0.0829926V-0.0270996Z" fill="white"/>
</mask>
<g mask="url(#mask0_2158_246)">
<path d="M36.0004 17.9998C36.0004 18.2944 35.9929 18.589 35.9785 18.8832C35.9642 19.1774 35.9424 19.4709 35.9137 19.7643C35.8847 20.0574 35.8485 20.3497 35.8055 20.641C35.7622 20.9325 35.712 21.2226 35.6544 21.5116C35.5971 21.8005 35.5322 22.0879 35.461 22.3735C35.3894 22.6594 35.3106 22.9431 35.2254 23.2249C35.1398 23.5071 35.0475 23.7866 34.9479 24.0639C34.8488 24.3412 34.7429 24.6159 34.6302 24.8883C34.5174 25.1603 34.3979 25.4297 34.272 25.696C34.1461 25.962 34.0138 26.2254 33.8747 26.485C33.736 26.745 33.5909 27.0012 33.4393 27.2536C33.2878 27.5065 33.1302 27.7552 32.9666 28.0001C32.803 28.245 32.6334 28.4858 32.4581 28.7225C32.2824 28.9591 32.1011 29.1912 31.9145 29.4189C31.7276 29.6469 31.5353 29.8696 31.3374 30.0878C31.1395 30.3064 30.9363 30.5194 30.7282 30.7278C30.5198 30.9362 30.3064 31.1394 30.0882 31.3369C29.8699 31.5348 29.6471 31.7271 29.4194 31.9141C29.1918 32.101 28.9595 32.282 28.7228 32.4577C28.4861 32.633 28.2456 32.8027 28.0006 32.9664C27.7555 33.13 27.5067 33.2877 27.2542 33.4389C27.0012 33.5906 26.7453 33.7358 26.4852 33.8746C26.2255 34.0134 25.9623 34.1459 25.6962 34.2719C25.4301 34.3976 25.1605 34.5168 24.8884 34.6297C24.6162 34.7426 24.3414 34.8483 24.0643 34.9476C23.7869 35.047 23.5072 35.1395 23.2252 35.2249C22.9433 35.3103 22.6594 35.3889 22.3737 35.4604C22.0879 35.5319 21.8007 35.5966 21.5119 35.6542C21.2228 35.7114 20.9326 35.7618 20.6412 35.8051C20.3498 35.8483 20.0576 35.8844 19.7644 35.9134C19.4715 35.942 19.1774 35.9638 18.8834 35.9781C18.589 35.9928 18.2946 36 18.0002 36C17.7054 36 17.411 35.9928 17.117 35.9781C16.8226 35.9638 16.5289 35.942 16.236 35.9134C15.9427 35.8844 15.6502 35.8483 15.3588 35.8051C15.0674 35.7618 14.7775 35.7114 14.4884 35.6542C14.1997 35.5966 13.9124 35.5319 13.6263 35.4604C13.3406 35.3889 13.0567 35.3103 12.7751 35.2249C12.4932 35.1395 12.2135 35.047 11.936 34.9476C11.6586 34.8483 11.3842 34.7426 11.112 34.6297C10.8398 34.5168 10.5703 34.3976 10.3042 34.2719C10.0377 34.1459 9.77491 34.0134 9.51481 33.8746C9.25508 33.7358 8.99875 33.5906 8.74618 33.4389C8.49362 33.2877 8.24483 33.13 7.9998 32.9664C7.75478 32.8027 7.51428 32.633 7.27755 32.4577C7.04082 32.282 6.80861 32.101 6.58093 31.9141C6.35324 31.7271 6.13046 31.5348 5.9122 31.3369C5.69356 31.1394 5.48058 30.9362 5.27212 30.7278C5.06404 30.5194 4.86086 30.3064 4.66295 30.0878C4.46505 29.8696 4.2728 29.6469 4.08583 29.4189C3.89885 29.1912 3.71791 28.9591 3.54225 28.7225C3.36696 28.4858 3.19733 28.245 3.03373 28.0001C2.87013 27.7552 2.71256 27.5065 2.56102 27.2536C2.40948 27.0012 2.26435 26.745 2.12563 26.485C1.98653 26.2254 1.85422 25.962 1.72832 25.696C1.60241 25.4297 1.48292 25.1603 1.3702 24.8883C1.25749 24.6159 1.15157 24.3412 1.05243 24.0639C0.95291 23.7866 0.860554 23.5071 0.774984 23.2249C0.689791 22.9431 0.611007 22.6594 0.539384 22.3735C0.467762 22.0879 0.403302 21.8005 0.346004 21.5116C0.288329 21.2226 0.238193 20.9325 0.194843 20.641C0.151492 20.3497 0.115681 20.0574 0.086655 19.7643C0.0580061 19.4709 0.0361424 19.1774 0.021818 18.8832C0.00711649 18.589 -4.57764e-05 18.2944 -4.57764e-05 17.9998C-4.57764e-05 17.7052 0.00711649 17.411 0.021818 17.1168C0.0361424 16.8226 0.0580061 16.5287 0.086655 16.2356C0.115681 15.9425 0.151492 15.6502 0.194843 15.3586C0.238193 15.0674 0.288329 14.7773 0.346004 14.4884C0.403302 14.1994 0.467762 13.912 0.539384 13.6261C0.611007 13.3405 0.689791 13.0568 0.774984 12.7747C0.860554 12.4929 0.95291 12.2133 1.05243 11.936C1.15157 11.6584 1.25749 11.3837 1.3702 11.1117C1.48292 10.8393 1.60241 10.5703 1.72832 10.3039C1.85422 10.0375 1.98653 9.77456 2.12563 9.51458C2.26435 9.25498 2.40948 8.99877 2.56102 8.74594C2.71256 8.49348 2.87013 8.24442 3.03373 7.99949C3.19733 7.75456 3.36696 7.51377 3.54225 7.27712C3.71791 7.04084 3.89885 6.80871 4.08583 6.58071C4.2728 6.35309 4.46505 6.12998 4.66295 5.91177C4.86086 5.69355 5.06404 5.48022 5.27212 5.27179C5.48058 5.06373 5.69356 4.86057 5.9122 4.66267C6.13046 4.46477 6.35324 4.27251 6.58093 4.08553C6.80861 3.89891 7.04082 3.71757 7.27755 3.54224C7.51428 3.36654 7.75478 3.19724 7.9998 3.03358C8.24483 2.86991 8.49362 2.71227 8.74618 2.56065C8.99875 2.4094 9.25508 2.26418 9.51481 2.12535C9.77491 1.98652 10.0377 1.85408 10.3042 1.72804C10.5703 1.602 10.8398 1.48274 11.112 1.36987C11.3842 1.25737 11.6586 1.15128 11.936 1.05195C12.2135 0.953001 12.4932 0.860447 12.7751 0.775042C13.0567 0.689261 13.3406 0.611004 13.6263 0.539143C13.9124 0.467659 14.1997 0.403323 14.4884 0.345759C14.7775 0.288195 15.0674 0.23778 15.3588 0.194513C15.6502 0.151622 15.9427 0.115504 16.236 0.0865339C16.5289 0.0575638 16.8226 0.0361185 17.117 0.0214453C17.411 0.00714847 17.7054 0 18.0002 0C18.2946 0 18.589 0.00714847 18.8834 0.0214453C19.1774 0.0361185 19.4715 0.0575638 19.7644 0.0865339C20.0576 0.115504 20.3498 0.151622 20.6412 0.194513C20.9326 0.23778 21.2228 0.288195 21.5119 0.345759C21.8007 0.403323 22.0879 0.467659 22.3737 0.539143C22.6594 0.611004 22.9433 0.689261 23.2252 0.775042C23.5072 0.860447 23.7869 0.953001 24.0643 1.05195C24.3414 1.15128 24.6162 1.25737 24.8884 1.36987C25.1605 1.48274 25.4301 1.602 25.6962 1.72804C25.9623 1.85408 26.2255 1.98652 26.4852 2.12535C26.7453 2.26418 27.0012 2.4094 27.2542 2.56065C27.5067 2.71227 27.7555 2.86991 28.0006 3.03358C28.2456 3.19724 28.4861 3.36654 28.7228 3.54224C28.9595 3.71757 29.1918 3.89891 29.4194 4.08553C29.6471 4.27251 29.8699 4.46477 30.0882 4.66267C30.3064 4.86057 30.5198 5.06373 30.7282 5.27179C30.9363 5.48022 31.1395 5.69355 31.3374 5.91177C31.5353 6.12998 31.7276 6.35309 31.9145 6.58071C32.1015 6.80871 32.2824 7.04084 32.4581 7.27712C32.6334 7.51377 32.803 7.75456 32.9666 7.99949C33.1302 8.24442 33.2878 8.49348 33.4393 8.74594C33.5909 8.99877 33.736 9.25498 33.8747 9.51458C34.0138 9.77456 34.1461 10.0375 34.272 10.3039C34.3979 10.5703 34.5174 10.8393 34.6302 11.1117C34.7429 11.3837 34.8488 11.6584 34.9479 11.936C35.0475 12.2133 35.1398 12.4929 35.2254 12.7747C35.3106 13.0568 35.3894 13.3405 35.461 13.6261C35.5322 13.912 35.5971 14.1994 35.6544 14.4884C35.712 14.7773 35.7622 15.0674 35.8055 15.3586C35.8485 15.6502 35.8847 15.9425 35.9137 16.2356C35.9424 16.5287 35.9642 16.8226 35.9785 17.1168C35.9929 17.411 36.0004 17.7052 36.0004 17.9998Z" fill="#D50C2D"/>
</g>
<path d="M26.9967 8.28931H24.283C23.6723 8.28931 23.4103 8.54214 23.4103 9.16142V16.0258H12.5987V9.16142C12.5987 8.55079 12.3458 8.28931 11.726 8.28931H8.99458C8.37524 8.28931 8.12192 8.54214 8.12192 9.16142V26.8241C8.12192 27.4434 8.37524 27.6962 8.99458 27.6962H11.726C12.3367 27.6962 12.5987 27.452 12.5987 26.8241V19.8461H23.419V26.8241C23.419 27.4347 23.6723 27.6962 24.2916 27.6962H27.0057C27.6164 27.6962 27.8784 27.4434 27.8784 26.8241V9.16142C27.8607 8.56847 27.6077 8.28931 26.9967 8.28931Z" fill="white"/>
</g>
<defs>
<clipPath id="clip0_2158_246">
<rect width="36" height="36" fill="white"/>
</clipPath>
</defs>
</svg>
