<svg width="36" height="36" viewBox="0 0 36 36" fill="none" xmlns="http://www.w3.org/2000/svg">
<path d="M17.1354 17.5988C17.2407 17.5705 17.3429 17.5423 17.448 17.512C19.7557 16.8595 22.0005 15.9558 24.2311 15.0198C26.4149 14.1035 28.5746 13.0033 30.4722 11.4547C32.4196 9.86639 33.9858 7.80879 34.8504 5.25694C34.9722 4.90181 35.2211 4.38959 35.2451 4C32.2128 8.15744 20.1841 8.58648 20.1841 8.58648L23.0227 5.97535C11.6115 5.99721 3.64842 10.8538 0 13.451C4.66903 13.9533 8.89556 15.936 12.2046 18.9219C13.8327 18.4164 15.4946 18.0512 17.1354 17.5988Z" fill="#FF6200"/>
<path d="M36.0002 17.1907C36.0002 17.1907 24.9012 16.3397 13.3721 20.062C14.9017 21.6642 16.1909 23.4969 17.179 25.5065C23.2408 22.1233 31.6463 17.8008 36.0002 17.1907Z" fill="#FF6200"/>
<path d="M17.9385 27.2434C18.6424 29.0583 19.1145 30.989 19.3103 33.0001L29.8759 22.1045L17.9385 27.2434Z" fill="#FF6200"/>
</svg>
