<svg width="36" height="36" viewBox="0 0 36 36" fill="none" xmlns="http://www.w3.org/2000/svg">
<g clip-path="url(#clip0_2083_236)">
<path fill-rule="evenodd" clip-rule="evenodd" d="M1.15214 0.0408423C35.9355 0.0408423 35.9447 0.0384754 35.9663 0.0609895C36 0.0959799 35.9999 35.9107 35.9663 35.9429C35.9429 35.9654 35.9342 35.9631 1.46699 35.9631C0.078768 35.9631 6.46176e-06 35.9884 0.00363392 35.8521C0.0107603 35.5838 0.00474787 0.454167 0.00674725 0.151018C0.00766126 0.0118263 0.0835238 0.0408423 1.15214 0.0408423Z" fill="#A7F076"/>
<path fill-rule="evenodd" clip-rule="evenodd" d="M9.67727 8.41436C9.67783 8.25355 9.67349 8.25633 9.67837 8.09793C9.68183 7.98627 9.88394 7.95349 10.4211 7.79646C17.8748 5.61751 26.2349 6.06228 27.6279 9.90214C29.4901 15.0355 20.233 16.68 16.2027 19.7987C13.3239 22.0263 14.3575 24.4866 16.3526 24.817C21.4018 25.6533 25.6018 16.1306 25.8361 15.6394C25.8696 15.5693 25.8917 15.564 27.2846 15.5676C27.4475 15.568 27.406 15.7066 27.406 16.3628C27.406 29.1339 27.407 29.1357 27.3978 29.1517C27.3712 29.1979 27.3532 29.1924 22.7418 29.1924C20.8219 29.1924 20.7543 29.2067 20.7693 29.117C20.9996 27.7416 23.445 23.7537 23.8902 22.9964C25.2063 20.7578 26.0492 18.9332 26.0732 18.7884C26.0936 18.6647 25.553 18.5336 25.5238 18.5429C25.3397 18.6011 23.1179 24.2759 19.0513 27.5416C14.2761 31.3762 8.17046 29.7157 7.69476 24.8929C6.77083 15.5258 23.3189 15.6371 25.8206 12.2469C27.2919 10.2531 24.1474 8.96118 19.007 10.1594C13.4828 11.4471 9.81106 14.4479 9.69828 14.4315C9.67507 14.4281 9.67717 14.4149 9.67726 8.41434L9.67727 8.41436Z" fill="#201D1B"/>
</g>
<defs>
<clipPath id="clip0_2083_236">
<rect width="36" height="36" fill="white"/>
</clipPath>
</defs>
</svg>
