<svg width="37" height="36" viewBox="0 0 37 36" fill="none" xmlns="http://www.w3.org/2000/svg">
<path d="M6.38424 0.469238H29.6683C31.3615 0.469238 32.9854 1.14186 34.1827 2.33914C35.3799 3.53642 36.0526 5.16027 36.0526 6.85348V29.2361C36.0526 30.9293 35.3799 32.5532 34.1827 33.7505C32.9854 34.9477 31.3615 35.6204 29.6683 35.6204H6.38424C4.69103 35.6204 3.06718 34.9477 1.8699 33.7505C0.672623 32.5532 0 30.9293 0 29.2361L0 6.85348C0 5.16027 0.672623 3.53642 1.8699 2.33914C3.06718 1.14186 4.69103 0.469238 6.38424 0.469238Z" fill="#470137"/>
<path d="M18.9526 9.71369L14.4547 17.1391L19.2679 25.0238C19.2989 25.0789 19.3077 25.1438 19.2924 25.2052C19.2759 25.2621 19.2204 25.2261 19.1232 25.2419H15.6881C15.4462 25.2419 15.277 25.2333 15.1805 25.072C14.8575 24.4432 14.5349 23.8192 14.2128 23.2C13.8907 22.5808 13.5483 21.9479 13.1854 21.3014C12.8225 20.6567 12.4637 20.0037 12.109 19.3423H12.0845C11.7615 19.9874 11.4269 20.6323 11.0808 21.2769C10.7347 21.9215 10.3923 22.5626 10.0534 23.2C9.71498 23.837 9.36842 24.4699 9.0137 25.0987C8.9489 25.2427 8.83586 25.2585 8.6753 25.2585H5.3633C5.29922 25.2585 5.2625 25.2837 5.25458 25.2196C5.24545 25.1607 5.25826 25.1005 5.29058 25.0504L9.95834 17.3839L5.40938 9.68993C5.36138 9.62561 5.35322 9.57329 5.3849 9.53297C5.40265 9.51252 5.42487 9.49642 5.44984 9.48593C5.47481 9.47544 5.50186 9.47084 5.5289 9.4725H8.93882C9.01259 9.46852 9.08633 9.48081 9.15482 9.50849C9.21228 9.54143 9.26151 9.58697 9.29882 9.64169C9.58682 10.2868 9.90938 10.9317 10.2665 11.5763C10.6236 12.221 10.9824 12.8579 11.3429 13.4872C11.7058 14.116 12.0403 14.753 12.3466 15.3981H12.3711C12.6936 14.7371 13.0203 14.0923 13.351 13.4635C13.6817 12.8347 14.0203 12.2018 14.3669 11.5648C14.7135 10.9283 15.048 10.2955 15.3706 9.66617C15.389 9.60658 15.4222 9.5526 15.4671 9.50921C15.5269 9.47895 15.5941 9.46646 15.6607 9.47321H18.8287C18.8594 9.46523 18.8919 9.46802 18.9207 9.48111C18.9496 9.49421 18.9731 9.51683 18.9872 9.54517C19.0014 9.57351 19.0054 9.60586 18.9986 9.6368C18.9917 9.66774 18.9745 9.6954 18.9497 9.71513L18.9526 9.71369Z" fill="#FF61F6"/>
<path d="M25.8933 25.5556C24.7802 25.5726 23.6773 25.3411 22.6648 24.8781C21.7215 24.4417 20.9329 23.7291 20.4033 22.8348C19.8215 21.7907 19.5371 20.607 19.5811 19.4126C19.5721 18.3027 19.8557 17.21 20.4033 16.2446C20.9675 15.2612 21.7971 14.4564 22.7973 13.9226C23.968 13.313 25.2753 13.0133 26.5946 13.0521C26.6752 13.0521 26.7801 13.0562 26.9092 13.0644C27.0384 13.0725 27.1915 13.0845 27.3686 13.1004V8.33539C27.3686 8.22307 27.4168 8.16619 27.5126 8.16619H30.5611C30.5946 8.16167 30.6285 8.17056 30.6555 8.19092C30.6824 8.21128 30.7003 8.24146 30.7051 8.27491C30.7069 8.28684 30.7069 8.29898 30.7051 8.31091V22.6051C30.7051 22.8792 30.7171 23.1775 30.7411 23.5C30.7651 23.8226 30.7852 24.1128 30.8016 24.3705C30.8047 24.4206 30.7926 24.4705 30.7669 24.5137C30.7412 24.5568 30.7031 24.5913 30.6576 24.6124C29.8713 24.9405 29.0524 25.1837 28.2146 25.3382C27.4486 25.479 26.6715 25.5513 25.8926 25.5542M27.3679 22.5554V15.953C27.2372 15.9178 27.1037 15.8937 26.969 15.881C26.8042 15.8643 26.6386 15.8562 26.4729 15.8565C25.8861 15.8506 25.3062 15.9831 24.7802 16.2432C24.2165 16.5119 23.7468 16.9441 23.4319 17.4833C23.1171 18.0226 22.9717 18.6442 23.0148 19.2671C23.0031 19.7944 23.0893 20.3193 23.2689 20.8152C23.4152 21.2147 23.6464 21.5777 23.9464 21.8793C24.2337 22.1569 24.5815 22.3639 24.9624 22.4841C25.3646 22.6144 25.7851 22.6798 26.208 22.6778C26.4336 22.6778 26.6431 22.6696 26.8365 22.6533C27.0168 22.6399 27.1951 22.6075 27.3686 22.5568" fill="#FF61F6"/>
</svg>
