<svg width="36" height="36" viewBox="0 0 36 36" fill="none" xmlns="http://www.w3.org/2000/svg">
<path d="M17.7595 18C17.7596 16.6119 18.2409 15.2669 19.1215 14.1939C20.0021 13.121 21.2275 12.3865 22.5889 12.1158C23.9503 11.845 25.3634 12.0546 26.5876 12.709C27.8117 13.3633 28.7711 14.4218 29.3023 15.7042C29.8335 16.9866 29.9036 18.4135 29.5007 19.7418C29.0978 21.0701 28.2468 22.2176 27.0927 22.9888C25.9386 23.76 24.5528 24.1071 23.1715 23.9712C21.7901 23.8352 20.4986 23.2244 19.517 22.243C18.9598 21.6858 18.5178 21.0243 18.2162 20.2963C17.9147 19.5683 17.7595 18.788 17.7595 18Z" fill="#1ABCFE"/>
<path d="M5.76 30.0002C5.76 28.409 6.39212 26.8829 7.51729 25.7578C8.64246 24.6326 10.1685 24.0005 11.7598 24.0005H17.7595V30.0002C17.7595 31.5915 17.1274 33.1175 16.0022 34.2427C14.8771 35.3679 13.351 36 11.7598 36C10.1685 36 8.64246 35.3679 7.51729 34.2427C6.39212 33.1175 5.76 31.5915 5.76 30.0002Z" fill="#0ACF83"/>
<path d="M17.7595 0.000244141V12.0005H23.7593C25.3506 12.0005 26.8768 11.3683 28.002 10.2431C29.1273 9.11785 29.7594 7.5917 29.7594 6.00036C29.7594 4.40903 29.1273 2.88288 28.002 1.75764C26.8768 0.632398 25.3506 0.000244141 23.7593 0.000244141H17.7595Z" fill="#FF7262"/>
<path d="M5.76 6C5.76 7.59124 6.39212 9.1173 7.51729 10.2425C8.64246 11.3676 10.1685 11.9998 11.7598 11.9998H17.7595V0.000244141H11.7598C10.1685 0.000244141 8.64246 0.63236 7.51729 1.75753C6.39212 2.88271 5.76 4.40877 5.76 6Z" fill="#F24E1E"/>
<path d="M5.76 18.0002C5.76 19.5915 6.39212 21.1175 7.51729 22.2427C8.64246 23.3679 10.1685 24 11.7598 24H17.7595V12.0005H11.7598C10.1685 12.0005 8.64246 12.6326 7.51729 13.7578C6.39212 14.883 5.76 16.409 5.76 18.0002Z" fill="#A259FF"/>
</svg>
