<svg width="36" height="36" viewBox="0 0 36 36" fill="none" xmlns="http://www.w3.org/2000/svg">
<g clip-path="url(#clip0_312_167)">
<path d="M0.269997 9.1803C0.269997 4.21379 4.30232 0.179932 9.27036 0.179932H27.2696C32.2376 0.179932 36.27 4.21225 36.27 9.1803V27.1796C36.27 32.1476 32.2376 36.1799 27.2696 36.1799H9.27036C4.30232 36.1799 0.269997 32.1476 0.269997 27.1796V9.1803Z" fill="#FFDD33"/>
<path fill-rule="evenodd" clip-rule="evenodd" d="M23.9016 6.96167H20.6766L23.3666 11.6868L17.4516 6.96167H14.2265L17.1841 12.7324L11.0014 6.96167H7.77638L11.0014 14.313L7.77638 29.0142H11.0014L17.1841 13.2659L14.2265 29.0142H17.4516L23.3666 12.2126L20.6766 29.0142H23.9016L29.8167 10.6411L23.9016 6.96927V6.96167Z" fill="#1C1C1E"/>
</g>
<defs>
<clipPath id="clip0_312_167">
<rect width="36" height="36" fill="white"/>
</clipPath>
</defs>
</svg>
