<svg width="290" height="41" viewBox="0 0 290 41" fill="none" xmlns="http://www.w3.org/2000/svg">
<g clip-path="url(#clip0_186_284)">
<mask id="path-1-outside-1_186_284" maskUnits="userSpaceOnUse" x="0" y="0.25" width="290" height="41" fill="black">
<rect fill="white" y="0.25" width="290" height="41"/>
<path d="M1.56 20.79C1.56 17.15 2.288 13.9087 3.744 11.066C5.23467 8.22333 7.34933 6.022 10.088 4.462C12.8267 2.86733 16.0507 2.07 19.76 2.07C22.9493 2.07 25.792 2.67667 28.288 3.89C30.8187 5.06867 32.864 6.75 34.424 8.934C36.0187 11.118 37.076 13.666 37.596 16.578H25.428C24.8733 15.3647 24.076 14.4287 23.036 13.77C22.0307 13.0767 20.8693 12.73 19.552 12.73C17.6107 12.73 16.068 13.458 14.924 14.914C13.8147 16.37 13.26 18.3287 13.26 20.79C13.26 23.2513 13.8147 25.21 14.924 26.666C16.068 28.122 17.6107 28.85 19.552 28.85C20.8693 28.85 22.0307 28.5207 23.036 27.862C24.076 27.1687 24.8733 26.2153 25.428 25.002H37.596C37.076 27.914 36.0187 30.462 34.424 32.646C32.864 34.83 30.8187 36.5287 28.288 37.742C25.792 38.9207 22.9493 39.51 19.76 39.51C16.0507 39.51 12.8267 38.73 10.088 37.17C7.34933 35.5753 5.23467 33.3567 3.744 30.514C2.288 27.6713 1.56 24.43 1.56 20.79ZM53.4523 39.614C49.9857 39.614 46.7963 38.7993 43.8843 37.17C41.007 35.5407 38.719 33.2873 37.0203 30.41C35.3217 27.5327 34.4723 24.2913 34.4723 20.686C34.4723 17.0807 35.3217 13.8393 37.0203 10.962C38.719 8.08466 41.007 5.84866 43.8843 4.254C46.7963 2.62467 49.9857 1.81 53.4523 1.81C56.919 1.81 60.091 2.62467 62.9683 4.254C65.8457 5.84866 68.1163 8.08466 69.7803 10.962C71.479 13.8393 72.3283 17.0807 72.3283 20.686C72.3283 24.2913 71.479 27.5327 69.7803 30.41C68.1163 33.2873 65.8283 35.5407 62.9163 37.17C60.039 38.7993 56.8843 39.614 53.4523 39.614ZM53.4523 28.85C55.7403 28.85 57.5083 28.122 58.7563 26.666C60.0043 25.1753 60.6283 23.182 60.6283 20.686C60.6283 18.1553 60.0043 16.162 58.7563 14.706C57.5083 13.2153 55.7403 12.47 53.4523 12.47C51.1297 12.47 49.3443 13.2153 48.0963 14.706C46.8483 16.162 46.2243 18.1553 46.2243 20.686C46.2243 23.182 46.8483 25.1753 48.0963 26.666C49.3443 28.122 51.1297 28.85 53.4523 28.85ZM105.561 39.25H94.0168L81.7968 20.738V39.25H70.2528V2.434H81.7968L94.0168 21.258V2.434H105.561V39.25ZM133.448 2.434V11.586H123.672V39.25H112.128V11.586H102.456V2.434H133.448ZM146.147 33.686H133.875L132.055 39.25H119.939L133.407 2.434H146.719L160.135 39.25H147.967L146.147 33.686ZM143.339 25.002L140.011 14.758L136.683 25.002H143.339ZM152.878 20.79C152.878 17.15 153.606 13.9087 155.062 11.066C156.553 8.22333 158.667 6.022 161.406 4.462C164.145 2.86733 167.369 2.07 171.078 2.07C174.267 2.07 177.11 2.67667 179.606 3.89C182.137 5.06867 184.182 6.75 185.742 8.934C187.337 11.118 188.394 13.666 188.914 16.578H176.746C176.191 15.3647 175.394 14.4287 174.354 13.77C173.349 13.0767 172.187 12.73 170.87 12.73C168.929 12.73 167.386 13.458 166.242 14.914C165.133 16.37 164.578 18.3287 164.578 20.79C164.578 23.2513 165.133 25.21 166.242 26.666C167.386 28.122 168.929 28.85 170.87 28.85C172.187 28.85 173.349 28.5207 174.354 27.862C175.394 27.1687 176.191 26.2153 176.746 25.002H188.914C188.394 27.914 187.337 30.462 185.742 32.646C184.182 34.83 182.137 36.5287 179.606 37.742C177.11 38.9207 174.267 39.51 171.078 39.51C167.369 39.51 164.145 38.73 161.406 37.17C158.667 35.5753 156.553 33.3567 155.062 30.514C153.606 27.6713 152.878 24.43 152.878 20.79ZM215.742 2.434V11.586H205.966V39.25H194.422V11.586H184.75V2.434H215.742ZM264.673 2.434V39.25H253.181V20.894L247.513 39.25H237.633L231.965 20.894V39.25H220.421V2.434H234.565L242.677 24.534L250.581 2.434H264.673ZM275.186 11.638V16.162H286.626V24.846H275.186V30.046H288.186V39.25H263.642V2.434H288.186V11.638H275.186Z"/>
</mask>
<path d="M1.56 20.79C1.56 17.15 2.288 13.9087 3.744 11.066C5.23467 8.22333 7.34933 6.022 10.088 4.462C12.8267 2.86733 16.0507 2.07 19.76 2.07C22.9493 2.07 25.792 2.67667 28.288 3.89C30.8187 5.06867 32.864 6.75 34.424 8.934C36.0187 11.118 37.076 13.666 37.596 16.578H25.428C24.8733 15.3647 24.076 14.4287 23.036 13.77C22.0307 13.0767 20.8693 12.73 19.552 12.73C17.6107 12.73 16.068 13.458 14.924 14.914C13.8147 16.37 13.26 18.3287 13.26 20.79C13.26 23.2513 13.8147 25.21 14.924 26.666C16.068 28.122 17.6107 28.85 19.552 28.85C20.8693 28.85 22.0307 28.5207 23.036 27.862C24.076 27.1687 24.8733 26.2153 25.428 25.002H37.596C37.076 27.914 36.0187 30.462 34.424 32.646C32.864 34.83 30.8187 36.5287 28.288 37.742C25.792 38.9207 22.9493 39.51 19.76 39.51C16.0507 39.51 12.8267 38.73 10.088 37.17C7.34933 35.5753 5.23467 33.3567 3.744 30.514C2.288 27.6713 1.56 24.43 1.56 20.79ZM53.4523 39.614C49.9857 39.614 46.7963 38.7993 43.8843 37.17C41.007 35.5407 38.719 33.2873 37.0203 30.41C35.3217 27.5327 34.4723 24.2913 34.4723 20.686C34.4723 17.0807 35.3217 13.8393 37.0203 10.962C38.719 8.08466 41.007 5.84866 43.8843 4.254C46.7963 2.62467 49.9857 1.81 53.4523 1.81C56.919 1.81 60.091 2.62467 62.9683 4.254C65.8457 5.84866 68.1163 8.08466 69.7803 10.962C71.479 13.8393 72.3283 17.0807 72.3283 20.686C72.3283 24.2913 71.479 27.5327 69.7803 30.41C68.1163 33.2873 65.8283 35.5407 62.9163 37.17C60.039 38.7993 56.8843 39.614 53.4523 39.614ZM53.4523 28.85C55.7403 28.85 57.5083 28.122 58.7563 26.666C60.0043 25.1753 60.6283 23.182 60.6283 20.686C60.6283 18.1553 60.0043 16.162 58.7563 14.706C57.5083 13.2153 55.7403 12.47 53.4523 12.47C51.1297 12.47 49.3443 13.2153 48.0963 14.706C46.8483 16.162 46.2243 18.1553 46.2243 20.686C46.2243 23.182 46.8483 25.1753 48.0963 26.666C49.3443 28.122 51.1297 28.85 53.4523 28.85ZM105.561 39.25H94.0168L81.7968 20.738V39.25H70.2528V2.434H81.7968L94.0168 21.258V2.434H105.561V39.25ZM133.448 2.434V11.586H123.672V39.25H112.128V11.586H102.456V2.434H133.448ZM146.147 33.686H133.875L132.055 39.25H119.939L133.407 2.434H146.719L160.135 39.25H147.967L146.147 33.686ZM143.339 25.002L140.011 14.758L136.683 25.002H143.339ZM152.878 20.79C152.878 17.15 153.606 13.9087 155.062 11.066C156.553 8.22333 158.667 6.022 161.406 4.462C164.145 2.86733 167.369 2.07 171.078 2.07C174.267 2.07 177.11 2.67667 179.606 3.89C182.137 5.06867 184.182 6.75 185.742 8.934C187.337 11.118 188.394 13.666 188.914 16.578H176.746C176.191 15.3647 175.394 14.4287 174.354 13.77C173.349 13.0767 172.187 12.73 170.87 12.73C168.929 12.73 167.386 13.458 166.242 14.914C165.133 16.37 164.578 18.3287 164.578 20.79C164.578 23.2513 165.133 25.21 166.242 26.666C167.386 28.122 168.929 28.85 170.87 28.85C172.187 28.85 173.349 28.5207 174.354 27.862C175.394 27.1687 176.191 26.2153 176.746 25.002H188.914C188.394 27.914 187.337 30.462 185.742 32.646C184.182 34.83 182.137 36.5287 179.606 37.742C177.11 38.9207 174.267 39.51 171.078 39.51C167.369 39.51 164.145 38.73 161.406 37.17C158.667 35.5753 156.553 33.3567 155.062 30.514C153.606 27.6713 152.878 24.43 152.878 20.79ZM215.742 2.434V11.586H205.966V39.25H194.422V11.586H184.75V2.434H215.742ZM264.673 2.434V39.25H253.181V20.894L247.513 39.25H237.633L231.965 20.894V39.25H220.421V2.434H234.565L242.677 24.534L250.581 2.434H264.673ZM275.186 11.638V16.162H286.626V24.846H275.186V30.046H288.186V39.25H263.642V2.434H288.186V11.638H275.186Z" fill="white"/>
<path d="M3.744 11.066L2.85834 10.6016L2.85396 10.6101L3.744 11.066ZM10.088 4.462L10.583 5.33096L10.5912 5.32617L10.088 4.462ZM28.288 3.89L27.8508 4.78937L27.8583 4.793L27.8658 4.7965L28.288 3.89ZM34.424 8.934L33.6102 9.51527L33.6164 9.52369L34.424 8.934ZM37.596 16.578V17.578H38.7904L38.5804 16.4022L37.596 16.578ZM25.428 16.578L24.5185 16.9938L24.7856 17.578H25.428V16.578ZM23.036 13.77L22.4683 14.5932L22.4844 14.6043L22.5009 14.6148L23.036 13.77ZM14.924 14.914L14.1377 14.2962L14.1331 14.302L14.1286 14.308L14.924 14.914ZM14.924 26.666L14.1286 27.272L14.1331 27.278L14.1377 27.2838L14.924 26.666ZM23.036 27.862L23.584 28.6985L23.5907 28.694L23.036 27.862ZM25.428 25.002V24.002H24.7856L24.5185 24.5862L25.428 25.002ZM37.596 25.002L38.5804 25.1778L38.7904 24.002H37.596V25.002ZM34.424 32.646L33.6163 32.0563L33.6103 32.0648L34.424 32.646ZM28.288 37.742L28.715 38.6463L28.7203 38.6437L28.288 37.742ZM10.088 37.17L9.58479 38.0342L9.59305 38.0389L10.088 37.17ZM3.744 30.514L2.85392 30.9699L2.85838 30.9784L3.744 30.514ZM1.56 20.79H2.56C2.56 17.2862 3.25984 14.2049 4.63404 11.5219L3.744 11.066L2.85396 10.6101C1.31617 13.6125 0.56 17.0138 0.56 20.79H1.56ZM3.744 11.066L4.62962 11.5304C6.03317 8.85387 8.01373 6.7944 10.583 5.33092L10.088 4.462L9.59305 3.59308C6.68493 5.2496 4.43616 7.59279 2.85838 10.6016L3.744 11.066ZM10.088 4.462L10.5912 5.32617C13.1528 3.83462 16.197 3.07 19.76 3.07V2.07V1.07C15.9043 1.07 12.5006 1.90005 9.58481 3.59782L10.088 4.462ZM19.76 2.07V3.07C22.8205 3.07 25.51 3.65148 27.8508 4.78937L28.288 3.89L28.7252 2.99063C26.074 1.70185 23.0782 1.07 19.76 1.07V2.07ZM28.288 3.89L27.8658 4.7965C30.2466 5.90538 32.1546 7.47737 33.6103 9.51524L34.424 8.934L35.2377 8.35276C33.5734 6.02263 31.3907 4.23195 28.7102 2.9835L28.288 3.89ZM34.424 8.934L33.6164 9.52369C35.1133 11.5738 36.1157 13.9771 36.6116 16.7538L37.596 16.578L38.5804 16.4022C38.0363 13.3549 36.9241 10.6622 35.2316 8.34431L34.424 8.934ZM37.596 16.578V15.578H25.428V16.578V17.578H37.596V16.578ZM25.428 16.578L26.3375 16.1622C25.7093 14.788 24.7885 13.6963 23.5711 12.9252L23.036 13.77L22.5009 14.6148C23.3635 15.1611 24.0374 15.9413 24.5185 16.9938L25.428 16.578ZM23.036 13.77L23.6037 12.9468C22.4182 12.1292 21.0554 11.73 19.552 11.73V12.73V13.73C20.6833 13.73 21.6432 14.0242 22.4683 14.5932L23.036 13.77ZM19.552 12.73V11.73C17.321 11.73 15.4817 12.5857 14.1377 14.2962L14.924 14.914L15.7103 15.5318C16.6543 14.3303 17.9003 13.73 19.552 13.73V12.73ZM14.924 14.914L14.1286 14.308C12.8474 15.9895 12.26 18.1846 12.26 20.79H13.26H14.26C14.26 18.4728 14.782 16.7505 15.7194 15.52L14.924 14.914ZM13.26 20.79H12.26C12.26 23.3954 12.8474 25.5905 14.1286 27.272L14.924 26.666L15.7194 26.06C14.782 24.8295 14.26 23.1072 14.26 20.79H13.26ZM14.924 26.666L14.1377 27.2838C15.4817 28.9943 17.321 29.85 19.552 29.85V28.85V27.85C17.9003 27.85 16.6543 27.2497 15.7103 26.0482L14.924 26.666ZM19.552 28.85V29.85C21.0446 29.85 22.4003 29.474 23.584 28.6985L23.036 27.862L22.488 27.0255C21.6611 27.5673 20.6941 27.85 19.552 27.85V28.85ZM23.036 27.862L23.5907 28.694C24.7959 27.8906 25.711 26.7883 26.3375 25.4178L25.428 25.002L24.5185 24.5862C24.0357 25.6424 23.3561 26.4467 22.4813 27.0299L23.036 27.862ZM25.428 25.002V26.002H37.596V25.002V24.002H25.428V25.002ZM37.596 25.002L36.6116 24.8262C36.1157 27.6029 35.1133 30.0062 33.6164 32.0563L34.424 32.646L35.2316 33.2357C36.9241 30.9178 38.0363 28.2251 38.5804 25.1778L37.596 25.002ZM34.424 32.646L33.6103 32.0648C32.1529 34.1051 30.2414 35.6964 27.8557 36.8403L28.288 37.742L28.7203 38.6437C31.3959 37.3609 33.5751 35.5549 35.2377 33.2272L34.424 32.646ZM28.288 37.742L27.861 36.8377C25.5178 37.9443 22.8246 38.51 19.76 38.51V39.51V40.51C23.0741 40.51 26.0662 39.8971 28.715 38.6462L28.288 37.742ZM19.76 39.51V38.51C16.1933 38.51 13.1461 37.7611 10.583 36.3011L10.088 37.17L9.59305 38.0389C12.5073 39.6989 15.908 40.51 19.76 40.51V39.51ZM10.088 37.17L10.5912 36.3058C8.01725 34.8071 6.03413 32.728 4.62962 30.0496L3.744 30.514L2.85838 30.9784C4.43521 33.9854 6.68141 36.3436 9.58481 38.0342L10.088 37.17ZM3.744 30.514L4.63404 30.0581C3.25984 27.3751 2.56 24.2938 2.56 20.79H1.56H0.56C0.56 24.5662 1.31617 27.9675 2.85396 30.9699L3.744 30.514ZM43.8843 37.17L43.3916 38.0402L43.3961 38.0427L43.8843 37.17ZM37.0203 30.41L36.1592 30.9184L37.0203 30.41ZM43.8843 4.254L44.3691 5.12866L44.3726 5.12668L43.8843 4.254ZM62.9683 4.254L62.4756 5.12421L62.4836 5.12865L62.9683 4.254ZM69.7803 10.962L68.9146 11.4626L68.9192 11.4704L69.7803 10.962ZM69.7803 30.41L68.9192 29.9016L68.9147 29.9094L69.7803 30.41ZM62.9163 37.17L62.4281 36.2973L62.4236 36.2998L62.9163 37.17ZM58.7563 26.666L59.5157 27.3168L59.5231 27.3079L58.7563 26.666ZM58.7563 14.706L57.9895 15.348L57.9971 15.3568L58.7563 14.706ZM48.0963 14.706L48.8557 15.3568L48.8631 15.3479L48.0963 14.706ZM48.0963 26.666L47.3295 27.308L47.3371 27.3168L48.0963 26.666ZM53.4523 39.614V38.614C50.1497 38.614 47.1295 37.8399 44.3726 36.2973L43.8843 37.17L43.3961 38.0427C46.4632 39.7588 49.8216 40.614 53.4523 40.614V39.614ZM43.8843 37.17L44.3771 36.2998C41.6538 34.7577 39.4921 32.6298 37.8815 29.9016L37.0203 30.41L36.1592 30.9184C37.9459 33.9448 40.3602 36.3236 43.3916 38.0402L43.8843 37.17ZM37.0203 30.41L37.8815 29.9016C36.2809 27.1904 35.4723 24.1271 35.4723 20.686H34.4723H33.4723C33.4723 24.4555 34.3625 27.8749 36.1592 30.9184L37.0203 30.41ZM34.4723 20.686H35.4723C35.4723 17.2449 36.2809 14.1816 37.8815 11.4704L37.0203 10.962L36.1592 10.4536C34.3625 13.4971 33.4723 16.9165 33.4723 20.686H34.4723ZM37.0203 10.962L37.8815 11.4704C39.4911 8.74396 41.6502 6.63553 44.3691 5.12865L43.8843 4.254L43.3996 3.37934C40.3639 5.0618 37.947 7.42537 36.1592 10.4536L37.0203 10.962ZM43.8843 4.254L44.3726 5.12668C47.1295 3.58415 50.1497 2.81 53.4523 2.81V1.81V0.809998C49.8216 0.809998 46.4632 1.66518 43.3961 3.38132L43.8843 4.254ZM53.4523 1.81V2.81C56.755 2.81 59.7559 3.58412 62.4756 5.12417L62.9683 4.254L63.4611 3.38383C60.4261 1.66521 57.083 0.809998 53.4523 0.809998V1.81ZM62.9683 4.254L62.4836 5.12865C65.2007 6.63451 67.3404 8.74046 68.9147 11.4626L69.7803 10.962L70.646 10.4614C68.8923 7.42887 66.4907 5.06282 63.4531 3.37934L62.9683 4.254ZM69.7803 10.962L68.9192 11.4704C70.5198 14.1816 71.3283 17.2449 71.3283 20.686H72.3283H73.3283C73.3283 16.9165 72.4382 13.4971 70.6415 10.4536L69.7803 10.962ZM72.3283 20.686H71.3283C71.3283 24.1271 70.5198 27.1904 68.9192 29.9016L69.7803 30.41L70.6415 30.9184C72.4382 27.8749 73.3283 24.4555 73.3283 20.686H72.3283ZM69.7803 30.41L68.9147 29.9094C67.3411 32.6304 65.1837 34.7554 62.4281 36.2973L62.9163 37.17L63.4046 38.0427C66.4729 36.3259 68.8916 33.9443 70.646 30.9106L69.7803 30.41ZM62.9163 37.17L62.4236 36.2998C59.7024 37.8408 56.7185 38.614 53.4523 38.614V39.614V40.614C57.0502 40.614 60.3757 39.7579 63.4091 38.0402L62.9163 37.17ZM53.4523 28.85V29.85C55.9703 29.85 58.0407 29.0375 59.5156 27.3168L58.7563 26.666L57.9971 26.0152C56.976 27.2065 55.5104 27.85 53.4523 27.85V28.85ZM58.7563 26.666L59.5231 27.3079C60.9603 25.5913 61.6283 23.3487 61.6283 20.686H60.6283H59.6283C59.6283 23.0153 59.0484 24.7594 57.9896 26.0241L58.7563 26.666ZM60.6283 20.686H61.6283C61.6283 17.994 60.9628 15.7436 59.5156 14.0552L58.7563 14.706L57.9971 15.3568C59.0459 16.5804 59.6283 18.3167 59.6283 20.686H60.6283ZM58.7563 14.706L59.5231 14.0641C58.0507 12.3054 55.9783 11.47 53.4523 11.47V12.47V13.47C55.5024 13.47 56.966 14.1253 57.9896 15.3479L58.7563 14.706ZM53.4523 12.47V11.47C50.8973 11.47 48.805 12.3018 47.3296 14.0641L48.0963 14.706L48.8631 15.3479C49.8837 14.1288 51.362 13.47 53.4523 13.47V12.47ZM48.0963 14.706L47.3371 14.0552C45.8899 15.7436 45.2243 17.994 45.2243 20.686H46.2243H47.2243C47.2243 18.3167 47.8068 16.5804 48.8556 15.3568L48.0963 14.706ZM46.2243 20.686H45.2243C45.2243 23.3487 45.8924 25.5913 47.3296 27.3079L48.0963 26.666L48.8631 26.0241C47.8043 24.7594 47.2243 23.0153 47.2243 20.686H46.2243ZM48.0963 26.666L47.3371 27.3168C48.815 29.041 50.9052 29.85 53.4523 29.85V28.85V27.85C51.3541 27.85 49.8737 27.203 48.8556 26.0152L48.0963 26.666ZM105.561 39.25V40.25H106.561V39.25H105.561ZM94.0168 39.25L93.1823 39.8009L93.4787 40.25H94.0168V39.25ZM81.7968 20.738L82.6314 20.1871L80.7968 17.4079V20.738H81.7968ZM81.7968 39.25V40.25H82.7968V39.25H81.7968ZM70.2528 39.25H69.2528V40.25H70.2528V39.25ZM70.2528 2.434V1.434H69.2528V2.434H70.2528ZM81.7968 2.434L82.6356 1.8895L82.3399 1.434H81.7968V2.434ZM94.0168 21.258L93.1781 21.8025L95.0168 24.635V21.258H94.0168ZM94.0168 2.434V1.434H93.0168V2.434H94.0168ZM105.561 2.434H106.561V1.434H105.561V2.434ZM105.561 39.25V38.25H94.0168V39.25V40.25H105.561V39.25ZM94.0168 39.25L94.8514 38.6991L82.6314 20.1871L81.7968 20.738L80.9622 21.2889L93.1823 39.8009L94.0168 39.25ZM81.7968 20.738H80.7968V39.25H81.7968H82.7968V20.738H81.7968ZM81.7968 39.25V38.25H70.2528V39.25V40.25H81.7968V39.25ZM70.2528 39.25H71.2528V2.434H70.2528H69.2528V39.25H70.2528ZM70.2528 2.434V3.434H81.7968V2.434V1.434H70.2528V2.434ZM81.7968 2.434L80.9581 2.9785L93.1781 21.8025L94.0168 21.258L94.8556 20.7135L82.6356 1.8895L81.7968 2.434ZM94.0168 21.258H95.0168V2.434H94.0168H93.0168V21.258H94.0168ZM94.0168 2.434V3.434H105.561V2.434V1.434H94.0168V2.434ZM105.561 2.434H104.561V39.25H105.561H106.561V2.434H105.561ZM133.448 2.434H134.448V1.434H133.448V2.434ZM133.448 11.586V12.586H134.448V11.586H133.448ZM123.672 11.586V10.586H122.672V11.586H123.672ZM123.672 39.25V40.25H124.672V39.25H123.672ZM112.128 39.25H111.128V40.25H112.128V39.25ZM112.128 11.586H113.128V10.586H112.128V11.586ZM102.456 11.586H101.456V12.586H102.456V11.586ZM102.456 2.434V1.434H101.456V2.434H102.456ZM133.448 2.434H132.448V11.586H133.448H134.448V2.434H133.448ZM133.448 11.586V10.586H123.672V11.586V12.586H133.448V11.586ZM123.672 11.586H122.672V39.25H123.672H124.672V11.586H123.672ZM123.672 39.25V38.25H112.128V39.25V40.25H123.672V39.25ZM112.128 39.25H113.128V11.586H112.128H111.128V39.25H112.128ZM112.128 11.586V10.586H102.456V11.586V12.586H112.128V11.586ZM102.456 11.586H103.456V2.434H102.456H101.456V11.586H102.456ZM102.456 2.434V3.434H133.448V2.434V1.434H102.456V2.434ZM146.147 33.686L147.098 33.3751L146.872 32.686H146.147V33.686ZM133.875 33.686V32.686H133.15L132.925 33.3751L133.875 33.686ZM132.055 39.25V40.25H132.78L133.006 39.5609L132.055 39.25ZM119.939 39.25L119 38.9064L118.509 40.25H119.939V39.25ZM133.407 2.434V1.434H132.708L132.468 2.09045L133.407 2.434ZM146.719 2.434L147.659 2.09162L147.419 1.434H146.719V2.434ZM160.135 39.25V40.25H161.564L161.075 38.9076L160.135 39.25ZM147.967 39.25L147.017 39.5609L147.242 40.25H147.967V39.25ZM143.339 25.002V26.002H144.716L144.29 24.693L143.339 25.002ZM140.011 14.758L140.962 14.449L140.011 11.5215L139.06 14.449L140.011 14.758ZM136.683 25.002L135.732 24.693L135.307 26.002H136.683V25.002ZM146.147 33.686V32.686H133.875V33.686V34.686H146.147V33.686ZM133.875 33.686L132.925 33.3751L131.105 38.9391L132.055 39.25L133.006 39.5609L134.826 33.9969L133.875 33.686ZM132.055 39.25V38.25H119.939V39.25V40.25H132.055V39.25ZM119.939 39.25L120.878 39.5936L134.346 2.77755L133.407 2.434L132.468 2.09045L119 38.9064L119.939 39.25ZM133.407 2.434V3.434H146.719V2.434V1.434H133.407V2.434ZM146.719 2.434L145.78 2.77638L159.196 39.5924L160.135 39.25L161.075 38.9076L147.659 2.09162L146.719 2.434ZM160.135 39.25V38.25H147.967V39.25V40.25H160.135V39.25ZM147.967 39.25L148.918 38.9391L147.098 33.3751L146.147 33.686L145.197 33.9969L147.017 39.5609L147.967 39.25ZM143.339 25.002L144.29 24.693L140.962 14.449L140.011 14.758L139.06 15.067L142.388 25.311L143.339 25.002ZM140.011 14.758L139.06 14.449L135.732 24.693L136.683 25.002L137.634 25.311L140.962 15.067L140.011 14.758ZM136.683 25.002V26.002H143.339V25.002V24.002H136.683V25.002ZM155.062 11.066L154.176 10.6016L154.172 10.6101L155.062 11.066ZM161.406 4.462L161.901 5.33096L161.909 5.32617L161.406 4.462ZM179.606 3.89L179.169 4.78937L179.176 4.793L179.184 4.7965L179.606 3.89ZM185.742 8.934L184.928 9.51527L184.934 9.52369L185.742 8.934ZM188.914 16.578V17.578H190.108L189.898 16.4022L188.914 16.578ZM176.746 16.578L175.836 16.9938L176.104 17.578H176.746V16.578ZM174.354 13.77L173.786 14.5932L173.802 14.6043L173.819 14.6148L174.354 13.77ZM166.242 14.914L165.456 14.2962L165.451 14.302L165.447 14.308L166.242 14.914ZM166.242 26.666L165.447 27.272L165.451 27.278L165.456 27.2838L166.242 26.666ZM174.354 27.862L174.902 28.6985L174.909 28.694L174.354 27.862ZM176.746 25.002V24.002H176.104L175.836 24.5862L176.746 25.002ZM188.914 25.002L189.898 25.1778L190.108 24.002H188.914V25.002ZM185.742 32.646L184.934 32.0563L184.928 32.0648L185.742 32.646ZM179.606 37.742L180.033 38.6463L180.038 38.6437L179.606 37.742ZM161.406 37.17L160.903 38.0342L160.911 38.0389L161.406 37.17ZM155.062 30.514L154.172 30.9699L154.176 30.9784L155.062 30.514ZM152.878 20.79H153.878C153.878 17.2862 154.578 14.2049 155.952 11.5219L155.062 11.066L154.172 10.6101C152.634 13.6125 151.878 17.0138 151.878 20.79H152.878ZM155.062 11.066L155.948 11.5304C157.351 8.85387 159.332 6.7944 161.901 5.33092L161.406 4.462L160.911 3.59308C158.003 5.2496 155.754 7.59279 154.176 10.6016L155.062 11.066ZM161.406 4.462L161.909 5.32617C164.471 3.83462 167.515 3.07 171.078 3.07V2.07V1.07C167.222 1.07 163.819 1.90005 160.903 3.59782L161.406 4.462ZM171.078 2.07V3.07C174.138 3.07 176.828 3.65148 179.169 4.78937L179.606 3.89L180.043 2.99063C177.392 1.70185 174.396 1.07 171.078 1.07V2.07ZM179.606 3.89L179.184 4.7965C181.565 5.90538 183.473 7.47737 184.928 9.51524L185.742 8.934L186.556 8.35276C184.891 6.02263 182.709 4.23195 180.028 2.9835L179.606 3.89ZM185.742 8.934L184.934 9.52369C186.431 11.5738 187.434 13.9771 187.93 16.7538L188.914 16.578L189.898 16.4022C189.354 13.3549 188.242 10.6622 186.55 8.34431L185.742 8.934ZM188.914 16.578V15.578H176.746V16.578V17.578H188.914V16.578ZM176.746 16.578L177.655 16.1622C177.027 14.788 176.107 13.6963 174.889 12.9252L174.354 13.77L173.819 14.6148C174.681 15.1611 175.355 15.9413 175.836 16.9938L176.746 16.578ZM174.354 13.77L174.922 12.9468C173.736 12.1292 172.373 11.73 170.87 11.73V12.73V13.73C172.001 13.73 172.961 14.0242 173.786 14.5932L174.354 13.77ZM170.87 12.73V11.73C168.639 11.73 166.8 12.5857 165.456 14.2962L166.242 14.914L167.028 15.5318C167.972 14.3303 169.218 13.73 170.87 13.73V12.73ZM166.242 14.914L165.447 14.308C164.165 15.9895 163.578 18.1846 163.578 20.79H164.578H165.578C165.578 18.4728 166.1 16.7505 167.037 15.52L166.242 14.914ZM164.578 20.79H163.578C163.578 23.3954 164.165 25.5905 165.447 27.272L166.242 26.666L167.037 26.06C166.1 24.8295 165.578 23.1072 165.578 20.79H164.578ZM166.242 26.666L165.456 27.2838C166.8 28.9943 168.639 29.85 170.87 29.85V28.85V27.85C169.218 27.85 167.972 27.2497 167.028 26.0482L166.242 26.666ZM170.87 28.85V29.85C172.363 29.85 173.718 29.474 174.902 28.6985L174.354 27.862L173.806 27.0255C172.979 27.5673 172.012 27.85 170.87 27.85V28.85ZM174.354 27.862L174.909 28.694C176.114 27.8906 177.029 26.7883 177.655 25.4178L176.746 25.002L175.836 24.5862C175.354 25.6424 174.674 26.4467 173.799 27.0299L174.354 27.862ZM176.746 25.002V26.002H188.914V25.002V24.002H176.746V25.002ZM188.914 25.002L187.93 24.8262C187.434 27.6029 186.431 30.0062 184.934 32.0563L185.742 32.646L186.55 33.2357C188.242 30.9178 189.354 28.2251 189.898 25.1778L188.914 25.002ZM185.742 32.646L184.928 32.0648C183.471 34.1051 181.559 35.6964 179.174 36.8403L179.606 37.742L180.038 38.6437C182.714 37.3609 184.893 35.5549 186.556 33.2272L185.742 32.646ZM179.606 37.742L179.179 36.8377C176.836 37.9443 174.143 38.51 171.078 38.51V39.51V40.51C174.392 40.51 177.384 39.8971 180.033 38.6462L179.606 37.742ZM171.078 39.51V38.51C167.511 38.51 164.464 37.7611 161.901 36.3011L161.406 37.17L160.911 38.0389C163.825 39.6989 167.226 40.51 171.078 40.51V39.51ZM161.406 37.17L161.909 36.3058C159.335 34.8071 157.352 32.728 155.948 30.0496L155.062 30.514L154.176 30.9784C155.753 33.9854 157.999 36.3436 160.903 38.0342L161.406 37.17ZM155.062 30.514L155.952 30.0581C154.578 27.3751 153.878 24.2938 153.878 20.79H152.878H151.878C151.878 24.5662 152.634 27.9675 154.172 30.9699L155.062 30.514ZM215.742 2.434H216.742V1.434H215.742V2.434ZM215.742 11.586V12.586H216.742V11.586H215.742ZM205.966 11.586V10.586H204.966V11.586H205.966ZM205.966 39.25V40.25H206.966V39.25H205.966ZM194.422 39.25H193.422V40.25H194.422V39.25ZM194.422 11.586H195.422V10.586H194.422V11.586ZM184.75 11.586H183.75V12.586H184.75V11.586ZM184.75 2.434V1.434H183.75V2.434H184.75ZM215.742 2.434H214.742V11.586H215.742H216.742V2.434H215.742ZM215.742 11.586V10.586H205.966V11.586V12.586H215.742V11.586ZM205.966 11.586H204.966V39.25H205.966H206.966V11.586H205.966ZM205.966 39.25V38.25H194.422V39.25V40.25H205.966V39.25ZM194.422 39.25H195.422V11.586H194.422H193.422V39.25H194.422ZM194.422 11.586V10.586H184.75V11.586V12.586H194.422V11.586ZM184.75 11.586H185.75V2.434H184.75H183.75V11.586H184.75ZM184.75 2.434V3.434H215.742V2.434V1.434H184.75V2.434ZM264.673 2.434H265.673V1.434H264.673V2.434ZM264.673 39.25V40.25H265.673V39.25H264.673ZM253.181 39.25H252.181V40.25H253.181V39.25ZM253.181 20.894H254.181L252.226 20.599L253.181 20.894ZM247.513 39.25V40.25H248.251L248.469 39.545L247.513 39.25ZM237.633 39.25L236.678 39.545L236.895 40.25H237.633V39.25ZM231.965 20.894L232.921 20.599L230.965 20.894H231.965ZM231.965 39.25V40.25H232.965V39.25H231.965ZM220.421 39.25H219.421V40.25H220.421V39.25ZM220.421 2.434V1.434H219.421V2.434H220.421ZM234.565 2.434L235.504 2.08942L235.263 1.434H234.565V2.434ZM242.677 24.534L241.738 24.8786L242.689 27.4694L243.619 24.8708L242.677 24.534ZM250.581 2.434V1.434H249.877L249.639 2.09724L250.581 2.434ZM264.673 2.434H263.673V39.25H264.673H265.673V2.434H264.673ZM264.673 39.25V38.25H253.181V39.25V40.25H264.673V39.25ZM253.181 39.25H254.181V20.894H253.181H252.181V39.25H253.181ZM253.181 20.894L252.226 20.599L246.558 38.955L247.513 39.25L248.469 39.545L254.137 21.189L253.181 20.894ZM247.513 39.25V38.25H237.633V39.25V40.25H247.513V39.25ZM237.633 39.25L238.589 38.955L232.921 20.599L231.965 20.894L231.01 21.189L236.678 39.545L237.633 39.25ZM231.965 20.894H230.965V39.25H231.965H232.965V20.894H231.965ZM231.965 39.25V38.25H220.421V39.25V40.25H231.965V39.25ZM220.421 39.25H221.421V2.434H220.421H219.421V39.25H220.421ZM220.421 2.434V3.434H234.565V2.434V1.434H220.421V2.434ZM234.565 2.434L233.626 2.77858L241.738 24.8786L242.677 24.534L243.616 24.1894L235.504 2.08942L234.565 2.434ZM242.677 24.534L243.619 24.8708L251.523 2.77076L250.581 2.434L249.639 2.09724L241.736 24.1972L242.677 24.534ZM250.581 2.434V3.434H264.673V2.434V1.434H250.581V2.434ZM275.186 11.638V10.638H274.186V11.638H275.186ZM275.186 16.162H274.186V17.162H275.186V16.162ZM286.626 16.162H287.626V15.162H286.626V16.162ZM286.626 24.846V25.846H287.626V24.846H286.626ZM275.186 24.846V23.846H274.186V24.846H275.186ZM275.186 30.046H274.186V31.046H275.186V30.046ZM288.186 30.046H289.186V29.046H288.186V30.046ZM288.186 39.25V40.25H289.186V39.25H288.186ZM263.642 39.25H262.642V40.25H263.642V39.25ZM263.642 2.434V1.434H262.642V2.434H263.642ZM288.186 2.434H289.186V1.434H288.186V2.434ZM288.186 11.638V12.638H289.186V11.638H288.186ZM275.186 11.638H274.186V16.162H275.186H276.186V11.638H275.186ZM275.186 16.162V17.162H286.626V16.162V15.162H275.186V16.162ZM286.626 16.162H285.626V24.846H286.626H287.626V16.162H286.626ZM286.626 24.846V23.846H275.186V24.846V25.846H286.626V24.846ZM275.186 24.846H274.186V30.046H275.186H276.186V24.846H275.186ZM275.186 30.046V31.046H288.186V30.046V29.046H275.186V30.046ZM288.186 30.046H287.186V39.25H288.186H289.186V30.046H288.186ZM288.186 39.25V38.25H263.642V39.25V40.25H288.186V39.25ZM263.642 39.25H264.642V2.434H263.642H262.642V39.25H263.642ZM263.642 2.434V3.434H288.186V2.434V1.434H263.642V2.434ZM288.186 2.434H287.186V11.638H288.186H289.186V2.434H288.186ZM288.186 11.638V10.638H275.186V11.638V12.638H288.186V11.638Z" fill="#CC0000" mask="url(#path-1-outside-1_186_284)"/>
</g>
<defs>
<clipPath id="clip0_186_284">
<rect width="290" height="41" fill="white"/>
</clipPath>
</defs>
</svg>
