<svg width="374" height="41" viewBox="0 0 374 41" fill="none" xmlns="http://www.w3.org/2000/svg">
<mask id="path-1-outside-1_613_157" maskUnits="userSpaceOnUse" x="0" y="0" width="374" height="41" fill="black">
<rect fill="white" width="374" height="41"/>
<path d="M27.6 2.184V11.336H13.144V16.432H23.544V25.116H13.144V39H1.6V2.184H27.6ZM36.8142 11.388V15.912H48.2542V24.596H36.8142V29.796H49.8142V39H25.2702V2.184H49.8142V11.388H36.8142ZM71.5327 33.436H59.2607L57.4407 39H45.3247L58.7927 2.184H72.1047L85.5207 39H73.3527L71.5327 33.436ZM68.7247 24.752L65.3967 14.508L62.0687 24.752H68.7247ZM104.055 2.184V11.336H94.2794V39H82.7354V11.336H73.0634V2.184H104.055ZM112.23 2.184V22.932C112.23 24.6307 112.594 25.9827 113.322 26.988C114.085 27.9587 115.298 28.444 116.962 28.444C118.626 28.444 119.857 27.9587 120.654 26.988C121.452 25.9827 121.85 24.6307 121.85 22.932V2.184H133.342V22.932C133.342 26.4333 132.614 29.432 131.158 31.928C129.702 34.3893 127.709 36.244 125.178 37.492C122.648 38.74 119.822 39.364 116.702 39.364C113.582 39.364 110.809 38.74 108.382 37.492C105.99 36.244 104.118 34.3893 102.766 31.928C101.414 29.4667 100.738 26.468 100.738 22.932V2.184H112.23ZM150.593 39L143.677 25.792H143.625V39H132.081V2.184H149.241C152.223 2.184 154.771 2.72133 156.885 3.796C159 4.836 160.577 6.27467 161.617 8.112C162.692 9.91466 163.229 11.96 163.229 14.248C163.229 16.7093 162.536 18.8933 161.149 20.8C159.797 22.7067 157.839 24.076 155.273 24.908L163.281 39H150.593ZM143.625 18.096H148.201C149.311 18.096 150.143 17.8533 150.697 17.368C151.252 16.848 151.529 16.0507 151.529 14.976C151.529 14.0053 151.235 13.2427 150.645 12.688C150.091 12.1333 149.276 11.856 148.201 11.856H143.625V18.096ZM172.221 11.388V15.912H183.661V24.596H172.221V29.796H185.221V39H160.677V2.184H185.221V11.388H172.221ZM198.672 2.184C202.52 2.184 205.883 2.964 208.76 4.524C211.672 6.084 213.908 8.25066 215.468 11.024C217.028 13.7973 217.808 16.952 217.808 20.488C217.808 23.9893 217.028 27.144 215.468 29.952C213.908 32.76 211.672 34.9787 208.76 36.608C205.883 38.2027 202.52 39 198.672 39H183.332V2.184H198.672ZM197.632 28.704C200.232 28.704 202.295 27.9933 203.82 26.572C205.345 25.1507 206.108 23.1227 206.108 20.488C206.108 17.8533 205.345 15.8253 203.82 14.404C202.295 12.9827 200.232 12.272 197.632 12.272H194.876V28.704H197.632ZM276.564 2.184L268.14 39H253.788L249.524 18.096L245.26 39H230.908L222.484 2.184H234.912L238.24 25.376L243.232 2.184H255.816L260.808 25.376L264.136 2.184H276.564ZM290.324 39.364C286.857 39.364 283.668 38.5493 280.756 36.92C277.879 35.2907 275.591 33.0373 273.892 30.16C272.193 27.2827 271.344 24.0413 271.344 20.436C271.344 16.8307 272.193 13.5893 273.892 10.712C275.591 7.83466 277.879 5.59866 280.756 4.004C283.668 2.37467 286.857 1.56 290.324 1.56C293.791 1.56 296.963 2.37467 299.84 4.004C302.717 5.59866 304.988 7.83466 306.652 10.712C308.351 13.5893 309.2 16.8307 309.2 20.436C309.2 24.0413 308.351 27.2827 306.652 30.16C304.988 33.0373 302.7 35.2907 299.788 36.92C296.911 38.5493 293.756 39.364 290.324 39.364ZM290.324 28.6C292.612 28.6 294.38 27.872 295.628 26.416C296.876 24.9253 297.5 22.932 297.5 20.436C297.5 17.9053 296.876 15.912 295.628 14.456C294.38 12.9653 292.612 12.22 290.324 12.22C288.001 12.22 286.216 12.9653 284.968 14.456C283.72 15.912 283.096 17.9053 283.096 20.436C283.096 22.932 283.72 24.9253 284.968 26.416C286.216 27.872 288.001 28.6 290.324 28.6ZM325.636 39L318.72 25.792H318.668V39H307.124V2.184H324.284C327.266 2.184 329.814 2.72133 331.928 3.796C334.043 4.836 335.62 6.27467 336.66 8.112C337.735 9.91466 338.272 11.96 338.272 14.248C338.272 16.7093 337.579 18.8933 336.192 20.8C334.84 22.7067 332.882 24.076 330.316 24.908L338.324 39H325.636ZM318.668 18.096H323.244C324.354 18.096 325.186 17.8533 325.74 17.368C326.295 16.848 326.572 16.0507 326.572 14.976C326.572 14.0053 326.278 13.2427 325.688 12.688C325.134 12.1333 324.319 11.856 323.244 11.856H318.668V18.096ZM357.976 39L347.264 23.036V39H335.72V2.184H347.264V17.68L357.82 2.184H370.872L358.184 19.812L371.704 39H357.976Z"/>
</mask>
<path d="M27.6 2.184V11.336H13.144V16.432H23.544V25.116H13.144V39H1.6V2.184H27.6ZM36.8142 11.388V15.912H48.2542V24.596H36.8142V29.796H49.8142V39H25.2702V2.184H49.8142V11.388H36.8142ZM71.5327 33.436H59.2607L57.4407 39H45.3247L58.7927 2.184H72.1047L85.5207 39H73.3527L71.5327 33.436ZM68.7247 24.752L65.3967 14.508L62.0687 24.752H68.7247ZM104.055 2.184V11.336H94.2794V39H82.7354V11.336H73.0634V2.184H104.055ZM112.23 2.184V22.932C112.23 24.6307 112.594 25.9827 113.322 26.988C114.085 27.9587 115.298 28.444 116.962 28.444C118.626 28.444 119.857 27.9587 120.654 26.988C121.452 25.9827 121.85 24.6307 121.85 22.932V2.184H133.342V22.932C133.342 26.4333 132.614 29.432 131.158 31.928C129.702 34.3893 127.709 36.244 125.178 37.492C122.648 38.74 119.822 39.364 116.702 39.364C113.582 39.364 110.809 38.74 108.382 37.492C105.99 36.244 104.118 34.3893 102.766 31.928C101.414 29.4667 100.738 26.468 100.738 22.932V2.184H112.23ZM150.593 39L143.677 25.792H143.625V39H132.081V2.184H149.241C152.223 2.184 154.771 2.72133 156.885 3.796C159 4.836 160.577 6.27467 161.617 8.112C162.692 9.91466 163.229 11.96 163.229 14.248C163.229 16.7093 162.536 18.8933 161.149 20.8C159.797 22.7067 157.839 24.076 155.273 24.908L163.281 39H150.593ZM143.625 18.096H148.201C149.311 18.096 150.143 17.8533 150.697 17.368C151.252 16.848 151.529 16.0507 151.529 14.976C151.529 14.0053 151.235 13.2427 150.645 12.688C150.091 12.1333 149.276 11.856 148.201 11.856H143.625V18.096ZM172.221 11.388V15.912H183.661V24.596H172.221V29.796H185.221V39H160.677V2.184H185.221V11.388H172.221ZM198.672 2.184C202.52 2.184 205.883 2.964 208.76 4.524C211.672 6.084 213.908 8.25066 215.468 11.024C217.028 13.7973 217.808 16.952 217.808 20.488C217.808 23.9893 217.028 27.144 215.468 29.952C213.908 32.76 211.672 34.9787 208.76 36.608C205.883 38.2027 202.52 39 198.672 39H183.332V2.184H198.672ZM197.632 28.704C200.232 28.704 202.295 27.9933 203.82 26.572C205.345 25.1507 206.108 23.1227 206.108 20.488C206.108 17.8533 205.345 15.8253 203.82 14.404C202.295 12.9827 200.232 12.272 197.632 12.272H194.876V28.704H197.632ZM276.564 2.184L268.14 39H253.788L249.524 18.096L245.26 39H230.908L222.484 2.184H234.912L238.24 25.376L243.232 2.184H255.816L260.808 25.376L264.136 2.184H276.564ZM290.324 39.364C286.857 39.364 283.668 38.5493 280.756 36.92C277.879 35.2907 275.591 33.0373 273.892 30.16C272.193 27.2827 271.344 24.0413 271.344 20.436C271.344 16.8307 272.193 13.5893 273.892 10.712C275.591 7.83466 277.879 5.59866 280.756 4.004C283.668 2.37467 286.857 1.56 290.324 1.56C293.791 1.56 296.963 2.37467 299.84 4.004C302.717 5.59866 304.988 7.83466 306.652 10.712C308.351 13.5893 309.2 16.8307 309.2 20.436C309.2 24.0413 308.351 27.2827 306.652 30.16C304.988 33.0373 302.7 35.2907 299.788 36.92C296.911 38.5493 293.756 39.364 290.324 39.364ZM290.324 28.6C292.612 28.6 294.38 27.872 295.628 26.416C296.876 24.9253 297.5 22.932 297.5 20.436C297.5 17.9053 296.876 15.912 295.628 14.456C294.38 12.9653 292.612 12.22 290.324 12.22C288.001 12.22 286.216 12.9653 284.968 14.456C283.72 15.912 283.096 17.9053 283.096 20.436C283.096 22.932 283.72 24.9253 284.968 26.416C286.216 27.872 288.001 28.6 290.324 28.6ZM325.636 39L318.72 25.792H318.668V39H307.124V2.184H324.284C327.266 2.184 329.814 2.72133 331.928 3.796C334.043 4.836 335.62 6.27467 336.66 8.112C337.735 9.91466 338.272 11.96 338.272 14.248C338.272 16.7093 337.579 18.8933 336.192 20.8C334.84 22.7067 332.882 24.076 330.316 24.908L338.324 39H325.636ZM318.668 18.096H323.244C324.354 18.096 325.186 17.8533 325.74 17.368C326.295 16.848 326.572 16.0507 326.572 14.976C326.572 14.0053 326.278 13.2427 325.688 12.688C325.134 12.1333 324.319 11.856 323.244 11.856H318.668V18.096ZM357.976 39L347.264 23.036V39H335.72V2.184H347.264V17.68L357.82 2.184H370.872L358.184 19.812L371.704 39H357.976Z" fill="white"/>
<path d="M27.6 2.184H28.6V1.184H27.6V2.184ZM27.6 11.336V12.336H28.6V11.336H27.6ZM13.144 11.336V10.336H12.144V11.336H13.144ZM13.144 16.432H12.144V17.432H13.144V16.432ZM23.544 16.432H24.544V15.432H23.544V16.432ZM23.544 25.116V26.116H24.544V25.116H23.544ZM13.144 25.116V24.116H12.144V25.116H13.144ZM13.144 39V40H14.144V39H13.144ZM1.6 39H0.6V40H1.6V39ZM1.6 2.184V1.184H0.6V2.184H1.6ZM27.6 2.184H26.6V11.336H27.6H28.6V2.184H27.6ZM27.6 11.336V10.336H13.144V11.336V12.336H27.6V11.336ZM13.144 11.336H12.144V16.432H13.144H14.144V11.336H13.144ZM13.144 16.432V17.432H23.544V16.432V15.432H13.144V16.432ZM23.544 16.432H22.544V25.116H23.544H24.544V16.432H23.544ZM23.544 25.116V24.116H13.144V25.116V26.116H23.544V25.116ZM13.144 25.116H12.144V39H13.144H14.144V25.116H13.144ZM13.144 39V38H1.6V39V40H13.144V39ZM1.6 39H2.6V2.184H1.6H0.6V39H1.6ZM1.6 2.184V3.184H27.6V2.184V1.184H1.6V2.184ZM36.8142 11.388V10.388H35.8142V11.388H36.8142ZM36.8142 15.912H35.8142V16.912H36.8142V15.912ZM48.2542 15.912H49.2542V14.912H48.2542V15.912ZM48.2542 24.596V25.596H49.2542V24.596H48.2542ZM36.8142 24.596V23.596H35.8142V24.596H36.8142ZM36.8142 29.796H35.8142V30.796H36.8142V29.796ZM49.8142 29.796H50.8142V28.796H49.8142V29.796ZM49.8142 39V40H50.8142V39H49.8142ZM25.2702 39H24.2702V40H25.2702V39ZM25.2702 2.184V1.184H24.2702V2.184H25.2702ZM49.8142 2.184H50.8142V1.184H49.8142V2.184ZM49.8142 11.388V12.388H50.8142V11.388H49.8142ZM36.8142 11.388H35.8142V15.912H36.8142H37.8142V11.388H36.8142ZM36.8142 15.912V16.912H48.2542V15.912V14.912H36.8142V15.912ZM48.2542 15.912H47.2542V24.596H48.2542H49.2542V15.912H48.2542ZM48.2542 24.596V23.596H36.8142V24.596V25.596H48.2542V24.596ZM36.8142 24.596H35.8142V29.796H36.8142H37.8142V24.596H36.8142ZM36.8142 29.796V30.796H49.8142V29.796V28.796H36.8142V29.796ZM49.8142 29.796H48.8142V39H49.8142H50.8142V29.796H49.8142ZM49.8142 39V38H25.2702V39V40H49.8142V39ZM25.2702 39H26.2702V2.184H25.2702H24.2702V39H25.2702ZM25.2702 2.184V3.184H49.8142V2.184V1.184H25.2702V2.184ZM49.8142 2.184H48.8142V11.388H49.8142H50.8142V2.184H49.8142ZM49.8142 11.388V10.388H36.8142V11.388V12.388H49.8142V11.388ZM71.5327 33.436L72.4831 33.1251L72.2577 32.436H71.5327V33.436ZM59.2607 33.436V32.436H58.5357L58.3102 33.1251L59.2607 33.436ZM57.4407 39V40H58.1657L58.3911 39.3109L57.4407 39ZM45.3247 39L44.3856 38.6564L43.8941 40H45.3247V39ZM58.7927 2.184V1.184H58.0937L57.8536 1.84045L58.7927 2.184ZM72.1047 2.184L73.0443 1.84162L72.8046 1.184H72.1047V2.184ZM85.5207 39V40H86.9494L86.4603 38.6576L85.5207 39ZM73.3527 39L72.4022 39.3109L72.6277 40H73.3527V39ZM68.7247 24.752V25.752H70.101L69.6758 24.443L68.7247 24.752ZM65.3967 14.508L66.3478 14.199L65.3967 11.2715L64.4456 14.199L65.3967 14.508ZM62.0687 24.752L61.1176 24.443L60.6924 25.752H62.0687V24.752ZM71.5327 33.436V32.436H59.2607V33.436V34.436H71.5327V33.436ZM59.2607 33.436L58.3102 33.1251L56.4902 38.6891L57.4407 39L58.3911 39.3109L60.2111 33.7469L59.2607 33.436ZM57.4407 39V38H45.3247V39V40H57.4407V39ZM45.3247 39L46.2638 39.3436L59.7318 2.52755L58.7927 2.184L57.8536 1.84045L44.3856 38.6564L45.3247 39ZM58.7927 2.184V3.184H72.1047V2.184V1.184H58.7927V2.184ZM72.1047 2.184L71.1651 2.52638L84.5811 39.3424L85.5207 39L86.4603 38.6576L73.0443 1.84162L72.1047 2.184ZM85.5207 39V38H73.3527V39V40H85.5207V39ZM73.3527 39L74.3031 38.6891L72.4831 33.1251L71.5327 33.436L70.5822 33.7469L72.4022 39.3109L73.3527 39ZM68.7247 24.752L69.6758 24.443L66.3478 14.199L65.3967 14.508L64.4456 14.817L67.7736 25.061L68.7247 24.752ZM65.3967 14.508L64.4456 14.199L61.1176 24.443L62.0687 24.752L63.0198 25.061L66.3478 14.817L65.3967 14.508ZM62.0687 24.752V25.752H68.7247V24.752V23.752H62.0687V24.752ZM104.055 2.184H105.055V1.184H104.055V2.184ZM104.055 11.336V12.336H105.055V11.336H104.055ZM94.2794 11.336V10.336H93.2794V11.336H94.2794ZM94.2794 39V40H95.2794V39H94.2794ZM82.7354 39H81.7354V40H82.7354V39ZM82.7354 11.336H83.7354V10.336H82.7354V11.336ZM73.0634 11.336H72.0634V12.336H73.0634V11.336ZM73.0634 2.184V1.184H72.0634V2.184H73.0634ZM104.055 2.184H103.055V11.336H104.055H105.055V2.184H104.055ZM104.055 11.336V10.336H94.2794V11.336V12.336H104.055V11.336ZM94.2794 11.336H93.2794V39H94.2794H95.2794V11.336H94.2794ZM94.2794 39V38H82.7354V39V40H94.2794V39ZM82.7354 39H83.7354V11.336H82.7354H81.7354V39H82.7354ZM82.7354 11.336V10.336H73.0634V11.336V12.336H82.7354V11.336ZM73.0634 11.336H74.0634V2.184H73.0634H72.0634V11.336H73.0634ZM73.0634 2.184V3.184H104.055V2.184V1.184H73.0634V2.184ZM112.23 2.184H113.23V1.184H112.23V2.184ZM113.322 26.988L112.512 27.5745L112.524 27.5904L112.536 27.6058L113.322 26.988ZM120.654 26.988L121.427 27.6227L121.433 27.6161L121.438 27.6094L120.654 26.988ZM121.85 2.184V1.184H120.85V2.184H121.85ZM133.342 2.184H134.342V1.184H133.342V2.184ZM131.158 31.928L132.019 32.4371L132.022 32.4319L131.158 31.928ZM125.178 37.492L125.621 38.3889V38.3889L125.178 37.492ZM108.382 37.492L107.92 38.3786L107.925 38.3813L108.382 37.492ZM102.766 31.928L101.89 32.4094V32.4094L102.766 31.928ZM100.738 2.184V1.184H99.7384V2.184H100.738ZM112.23 2.184H111.23V22.932H112.23H113.23V2.184H112.23ZM112.23 22.932H111.23C111.23 24.7652 111.623 26.3458 112.512 27.5745L113.322 26.988L114.132 26.4015C113.566 25.6195 113.23 24.4961 113.23 22.932H112.23ZM113.322 26.988L112.536 27.6058C113.549 28.8953 115.106 29.444 116.962 29.444V28.444V27.444C115.491 27.444 114.621 27.022 114.109 26.3702L113.322 26.988ZM116.962 28.444V29.444C118.822 29.444 120.382 28.8945 121.427 27.6227L120.654 26.988L119.882 26.3533C119.332 27.0229 118.431 27.444 116.962 27.444V28.444ZM120.654 26.988L121.438 27.6094C122.415 26.3774 122.85 24.783 122.85 22.932H121.85H120.85C120.85 24.4783 120.488 25.588 119.871 26.3666L120.654 26.988ZM121.85 22.932H122.85V2.184H121.85H120.85V22.932H121.85ZM121.85 2.184V3.184H133.342V2.184V1.184H121.85V2.184ZM133.342 2.184H132.342V22.932H133.342H134.342V2.184H133.342ZM133.342 22.932H132.342C132.342 26.2937 131.644 29.1105 130.295 31.4241L131.158 31.928L132.022 32.4319C133.585 29.7536 134.342 26.5729 134.342 22.932H133.342ZM131.158 31.928L130.298 31.4189C128.939 33.7155 127.09 35.4342 124.736 36.5951L125.178 37.492L125.621 38.3889C128.328 37.0538 130.466 35.0632 132.019 32.4371L131.158 31.928ZM125.178 37.492L124.736 36.5951C122.357 37.7684 119.685 38.364 116.702 38.364V39.364V40.364C119.959 40.364 122.938 39.7116 125.621 38.3889L125.178 37.492ZM116.702 39.364V38.364C113.719 38.364 111.106 37.7681 108.84 36.6027L108.382 37.492L107.925 38.3813C110.512 39.7119 113.446 40.364 116.702 40.364V39.364ZM108.382 37.492L108.845 36.6054C106.635 35.4525 104.904 33.7424 103.643 31.4466L102.766 31.928L101.89 32.4094C103.333 35.0362 105.346 37.0355 107.92 38.3786L108.382 37.492ZM102.766 31.928L103.643 31.4466C102.39 29.1662 101.738 26.3425 101.738 22.932H100.738H99.7384C99.7384 26.5935 100.439 29.7671 101.89 32.4094L102.766 31.928ZM100.738 22.932H101.738V2.184H100.738H99.7384V22.932H100.738ZM100.738 2.184V3.184H112.23V2.184V1.184H100.738V2.184ZM150.593 39L149.708 39.4639L149.988 40H150.593V39ZM143.677 25.792L144.563 25.3281L144.283 24.792H143.677V25.792ZM143.625 25.792V24.792H142.625V25.792H143.625ZM143.625 39V40H144.625V39H143.625ZM132.081 39H131.081V40H132.081V39ZM132.081 2.184V1.184H131.081V2.184H132.081ZM156.885 3.796L156.432 4.68756L156.444 4.69335L156.885 3.796ZM161.617 8.112L160.747 8.6046L160.753 8.61439L160.758 8.62406L161.617 8.112ZM161.149 20.8L160.341 20.2118L160.334 20.2216L161.149 20.8ZM155.273 24.908L154.965 23.9568L153.798 24.3353L154.404 25.4021L155.273 24.908ZM163.281 39V40H165L164.151 38.5059L163.281 39ZM143.625 18.096H142.625V19.096H143.625V18.096ZM150.697 17.368L151.356 18.1206L151.369 18.1093L151.381 18.0975L150.697 17.368ZM150.645 12.688L149.938 13.3951L149.949 13.4058L149.96 13.4162L150.645 12.688ZM143.625 11.856V10.856H142.625V11.856H143.625ZM150.593 39L151.479 38.5361L144.563 25.3281L143.677 25.792L142.792 26.2559L149.708 39.4639L150.593 39ZM143.677 25.792V24.792H143.625V25.792V26.792H143.677V25.792ZM143.625 25.792H142.625V39H143.625H144.625V25.792H143.625ZM143.625 39V38H132.081V39V40H143.625V39ZM132.081 39H133.081V2.184H132.081H131.081V39H132.081ZM132.081 2.184V3.184H149.241V2.184V1.184H132.081V2.184ZM149.241 2.184V3.184C152.105 3.184 154.489 3.70012 156.432 4.68748L156.885 3.796L157.338 2.90451C155.052 1.74255 152.341 1.184 149.241 1.184V2.184ZM156.885 3.796L156.444 4.69335C158.4 5.65534 159.818 6.96224 160.747 8.6046L161.617 8.112L162.488 7.6194C161.337 5.58709 159.6 4.01666 157.327 2.89865L156.885 3.796ZM161.617 8.112L160.758 8.62406C161.733 10.2581 162.229 12.1235 162.229 14.248H163.229H164.229C164.229 11.7965 163.652 9.57127 162.476 7.59993L161.617 8.112ZM163.229 14.248H162.229C162.229 16.5079 161.597 18.4839 160.341 20.2118L161.149 20.8L161.958 21.3882C163.475 19.3027 164.229 16.9108 164.229 14.248H163.229ZM161.149 20.8L160.334 20.2216C159.125 21.9264 157.358 23.1806 154.965 23.9568L155.273 24.908L155.582 25.8592C158.319 24.9714 160.47 23.4869 161.965 21.3784L161.149 20.8ZM155.273 24.908L154.404 25.4021L162.412 39.4941L163.281 39L164.151 38.5059L156.143 24.4139L155.273 24.908ZM163.281 39V38H150.593V39V40H163.281V39ZM143.625 18.096V19.096H148.201V18.096V17.096H143.625V18.096ZM148.201 18.096V19.096C149.435 19.096 150.546 18.8291 151.356 18.1206L150.697 17.368L150.039 16.6154C149.739 16.8775 149.187 17.096 148.201 17.096V18.096ZM150.697 17.368L151.381 18.0975C152.209 17.3212 152.529 16.2103 152.529 14.976H151.529H150.529C150.529 15.891 150.295 16.3748 150.013 16.6385L150.697 17.368ZM151.529 14.976H152.529C152.529 13.789 152.16 12.7406 151.331 11.9598L150.645 12.688L149.96 13.4162C150.309 13.7447 150.529 14.2216 150.529 14.976H151.529ZM150.645 12.688L151.353 11.9809C150.55 11.178 149.441 10.856 148.201 10.856V11.856V12.856C149.111 12.856 149.632 13.0887 149.938 13.3951L150.645 12.688ZM148.201 11.856V10.856H143.625V11.856V12.856H148.201V11.856ZM143.625 11.856H142.625V18.096H143.625H144.625V11.856H143.625ZM172.221 11.388V10.388H171.221V11.388H172.221ZM172.221 15.912H171.221V16.912H172.221V15.912ZM183.661 15.912H184.661V14.912H183.661V15.912ZM183.661 24.596V25.596H184.661V24.596H183.661ZM172.221 24.596V23.596H171.221V24.596H172.221ZM172.221 29.796H171.221V30.796H172.221V29.796ZM185.221 29.796H186.221V28.796H185.221V29.796ZM185.221 39V40H186.221V39H185.221ZM160.677 39H159.677V40H160.677V39ZM160.677 2.184V1.184H159.677V2.184H160.677ZM185.221 2.184H186.221V1.184H185.221V2.184ZM185.221 11.388V12.388H186.221V11.388H185.221ZM172.221 11.388H171.221V15.912H172.221H173.221V11.388H172.221ZM172.221 15.912V16.912H183.661V15.912V14.912H172.221V15.912ZM183.661 15.912H182.661V24.596H183.661H184.661V15.912H183.661ZM183.661 24.596V23.596H172.221V24.596V25.596H183.661V24.596ZM172.221 24.596H171.221V29.796H172.221H173.221V24.596H172.221ZM172.221 29.796V30.796H185.221V29.796V28.796H172.221V29.796ZM185.221 29.796H184.221V39H185.221H186.221V29.796H185.221ZM185.221 39V38H160.677V39V40H185.221V39ZM160.677 39H161.677V2.184H160.677H159.677V39H160.677ZM160.677 2.184V3.184H185.221V2.184V1.184H160.677V2.184ZM185.221 2.184H184.221V11.388H185.221H186.221V2.184H185.221ZM185.221 11.388V10.388H172.221V11.388V12.388H185.221V11.388ZM208.76 4.524L208.283 5.40312L208.288 5.40548L208.76 4.524ZM215.468 11.024L216.339 10.5337V10.5337L215.468 11.024ZM215.468 29.952L216.342 30.4376V30.4376L215.468 29.952ZM208.76 36.608L209.245 37.4827L209.248 37.4807L208.76 36.608ZM183.332 39H182.332V40H183.332V39ZM183.332 2.184V1.184H182.332V2.184H183.332ZM203.82 26.572L204.502 27.3036V27.3036L203.82 26.572ZM203.82 14.404L204.502 13.6724V13.6724L203.82 14.404ZM194.876 12.272V11.272H193.876V12.272H194.876ZM194.876 28.704H193.876V29.704H194.876V28.704ZM198.672 2.184V3.184C202.383 3.184 205.576 3.93533 208.283 5.4031L208.76 4.524L209.236 3.64489C206.189 1.99267 202.657 1.184 198.672 1.184V2.184ZM208.76 4.524L208.288 5.40548C211.039 6.8793 213.133 8.91319 214.596 11.5143L215.468 11.024L216.339 10.5337C214.683 7.58814 212.305 5.28869 209.232 3.64252L208.76 4.524ZM215.468 11.024L214.596 11.5143C216.063 14.1218 216.808 17.1042 216.808 20.488H217.808H218.808C218.808 16.7998 217.993 13.4729 216.339 10.5337L215.468 11.024ZM217.808 20.488H216.808C216.808 23.8351 216.064 26.8201 214.594 29.4664L215.468 29.952L216.342 30.4376C217.992 27.4679 218.808 24.1436 218.808 20.488H217.808ZM215.468 29.952L214.594 29.4664C213.128 32.1055 211.028 34.193 208.272 35.7353L208.76 36.608L209.248 37.4807C212.316 35.7644 214.688 33.4145 216.342 30.4376L215.468 29.952ZM208.76 36.608L208.275 35.7333C205.57 37.2328 202.379 38 198.672 38V39V40C202.661 40 206.196 39.1725 209.245 37.4827L208.76 36.608ZM198.672 39V38H183.332V39V40H198.672V39ZM183.332 39H184.332V2.184H183.332H182.332V39H183.332ZM183.332 2.184V3.184H198.672V2.184V1.184H183.332V2.184ZM197.632 28.704V29.704C200.42 29.704 202.748 28.9374 204.502 27.3036L203.82 26.572L203.138 25.8404C201.841 27.0493 200.044 27.704 197.632 27.704V28.704ZM203.82 26.572L204.502 27.3036C206.281 25.6459 207.108 23.3223 207.108 20.488H206.108H205.108C205.108 22.9231 204.41 24.6555 203.138 25.8404L203.82 26.572ZM206.108 20.488H207.108C207.108 17.6537 206.281 15.3301 204.502 13.6724L203.82 14.404L203.138 15.1356C204.41 16.3205 205.108 18.0529 205.108 20.488H206.108ZM203.82 14.404L204.502 13.6724C202.748 12.0386 200.42 11.272 197.632 11.272V12.272V13.272C200.044 13.272 201.841 13.9267 203.138 15.1356L203.82 14.404ZM197.632 12.272V11.272H194.876V12.272V13.272H197.632V12.272ZM194.876 12.272H193.876V28.704H194.876H195.876V12.272H194.876ZM194.876 28.704V29.704H197.632V28.704V27.704H194.876V28.704ZM276.564 2.184L277.539 2.40705L277.819 1.184H276.564V2.184ZM268.14 39V40H268.937L269.115 39.223L268.14 39ZM253.788 39L252.808 39.1999L252.972 40H253.788V39ZM249.524 18.096L250.504 17.8961H248.544L249.524 18.096ZM245.26 39V40H246.077L246.24 39.1999L245.26 39ZM230.908 39L229.933 39.223L230.111 40H230.908V39ZM222.484 2.184V1.184H221.23L221.509 2.40705L222.484 2.184ZM234.912 2.184L235.902 2.04196L235.779 1.184H234.912V2.184ZM238.24 25.376L237.25 25.518L239.218 25.5864L238.24 25.376ZM243.232 2.184V1.184H242.425L242.255 1.97357L243.232 2.184ZM255.816 2.184L256.794 1.97357L256.624 1.184H255.816V2.184ZM260.808 25.376L259.831 25.5864L261.798 25.518L260.808 25.376ZM264.136 2.184V1.184H263.269L263.146 2.04196L264.136 2.184ZM276.564 2.184L275.589 1.96095L267.165 38.777L268.14 39L269.115 39.223L277.539 2.40705L276.564 2.184ZM268.14 39V38H253.788V39V40H268.14V39ZM253.788 39L254.768 38.8001L250.504 17.8961L249.524 18.096L248.544 18.2959L252.808 39.1999L253.788 39ZM249.524 18.096L248.544 17.8961L244.28 38.8001L245.26 39L246.24 39.1999L250.504 18.2959L249.524 18.096ZM245.26 39V38H230.908V39V40H245.26V39ZM230.908 39L231.883 38.777L223.459 1.96095L222.484 2.184L221.509 2.40705L229.933 39.223L230.908 39ZM222.484 2.184V3.184H234.912V2.184V1.184H222.484V2.184ZM234.912 2.184L233.922 2.32604L237.25 25.518L238.24 25.376L239.23 25.234L235.902 2.04196L234.912 2.184ZM238.24 25.376L239.218 25.5864L244.21 2.39443L243.232 2.184L242.255 1.97357L237.263 25.1656L238.24 25.376ZM243.232 2.184V3.184H255.816V2.184V1.184H243.232V2.184ZM255.816 2.184L254.839 2.39443L259.831 25.5864L260.808 25.376L261.786 25.1656L256.794 1.97357L255.816 2.184ZM260.808 25.376L261.798 25.518L265.126 2.32604L264.136 2.184L263.146 2.04196L259.818 25.234L260.808 25.376ZM264.136 2.184V3.184H276.564V2.184V1.184H264.136V2.184ZM280.756 36.92L280.263 37.7902L280.268 37.7927L280.756 36.92ZM273.892 30.16L273.031 30.6684V30.6684L273.892 30.16ZM280.756 4.004L281.241 4.87866L281.244 4.87668L280.756 4.004ZM299.84 4.004L299.347 4.87421L299.355 4.87865L299.84 4.004ZM306.652 10.712L305.786 11.2126L305.791 11.2204L306.652 10.712ZM306.652 30.16L305.791 29.6516L305.786 29.6594L306.652 30.16ZM299.788 36.92L299.3 36.0473L299.295 36.0498L299.788 36.92ZM295.628 26.416L296.387 27.0668L296.395 27.0579L295.628 26.416ZM295.628 14.456L294.861 15.098L294.869 15.1068L295.628 14.456ZM284.968 14.456L285.727 15.1068L285.735 15.0979L284.968 14.456ZM284.968 26.416L284.201 27.058L284.209 27.0668L284.968 26.416ZM290.324 39.364V38.364C287.021 38.364 284.001 37.5899 281.244 36.0473L280.756 36.92L280.268 37.7927C283.335 39.5088 286.693 40.364 290.324 40.364V39.364ZM280.756 36.92L281.249 36.0498C278.525 34.5077 276.364 32.3798 274.753 29.6516L273.892 30.16L273.031 30.6684C274.817 33.6948 277.232 36.0736 280.263 37.7902L280.756 36.92ZM273.892 30.16L274.753 29.6516C273.152 26.9404 272.344 23.8771 272.344 20.436H271.344H270.344C270.344 24.2055 271.234 27.6249 273.031 30.6684L273.892 30.16ZM271.344 20.436H272.344C272.344 16.9949 273.152 13.9316 274.753 11.2204L273.892 10.712L273.031 10.2036C271.234 13.2471 270.344 16.6665 270.344 20.436H271.344ZM273.892 10.712L274.753 11.2204C276.363 8.49396 278.522 6.38553 281.241 4.87865L280.756 4.004L280.271 3.12934C277.235 4.8118 274.819 7.17537 273.031 10.2036L273.892 10.712ZM280.756 4.004L281.244 4.87668C284.001 3.33415 287.021 2.56 290.324 2.56V1.56V0.559998C286.693 0.559998 283.335 1.41518 280.268 3.13132L280.756 4.004ZM290.324 1.56V2.56C293.627 2.56 296.628 3.33412 299.347 4.87417L299.84 4.004L300.333 3.13383C297.298 1.41521 293.955 0.559998 290.324 0.559998V1.56ZM299.84 4.004L299.355 4.87865C302.072 6.38451 304.212 8.49046 305.786 11.2126L306.652 10.712L307.518 10.2114C305.764 7.17887 303.362 4.81282 300.325 3.12934L299.84 4.004ZM306.652 10.712L305.791 11.2204C307.391 13.9316 308.2 16.9949 308.2 20.436H309.2H310.2C310.2 16.6665 309.31 13.2471 307.513 10.2036L306.652 10.712ZM309.2 20.436H308.2C308.2 23.8771 307.391 26.9404 305.791 29.6516L306.652 30.16L307.513 30.6684C309.31 27.6249 310.2 24.2055 310.2 20.436H309.2ZM306.652 30.16L305.786 29.6594C304.213 32.3804 302.055 34.5054 299.3 36.0473L299.788 36.92L300.276 37.7927C303.345 36.0759 305.763 33.6943 307.518 30.6606L306.652 30.16ZM299.788 36.92L299.295 36.0498C296.574 37.5908 293.59 38.364 290.324 38.364V39.364V40.364C293.922 40.364 297.247 39.5079 300.281 37.7902L299.788 36.92ZM290.324 28.6V29.6C292.842 29.6 294.912 28.7875 296.387 27.0668L295.628 26.416L294.869 25.7652C293.848 26.9565 292.382 27.6 290.324 27.6V28.6ZM295.628 26.416L296.395 27.0579C297.832 25.3413 298.5 23.0987 298.5 20.436H297.5H296.5C296.5 22.7653 295.92 24.5094 294.861 25.7741L295.628 26.416ZM297.5 20.436H298.5C298.5 17.744 297.834 15.4936 296.387 13.8052L295.628 14.456L294.869 15.1068C295.917 16.3304 296.5 18.0667 296.5 20.436H297.5ZM295.628 14.456L296.395 13.8141C294.922 12.0554 292.85 11.22 290.324 11.22V12.22V13.22C292.374 13.22 293.838 13.8753 294.861 15.0979L295.628 14.456ZM290.324 12.22V11.22C287.769 11.22 285.677 12.0518 284.201 13.8141L284.968 14.456L285.735 15.0979C286.755 13.8788 288.234 13.22 290.324 13.22V12.22ZM284.968 14.456L284.209 13.8052C282.761 15.4936 282.096 17.744 282.096 20.436H283.096H284.096C284.096 18.0667 284.678 16.3304 285.727 15.1068L284.968 14.456ZM283.096 20.436H282.096C282.096 23.0987 282.764 25.3413 284.201 27.0579L284.968 26.416L285.735 25.7741C284.676 24.5094 284.096 22.7653 284.096 20.436H283.096ZM284.968 26.416L284.209 27.0668C285.687 28.791 287.777 29.6 290.324 29.6V28.6V27.6C288.226 27.6 286.745 26.953 285.727 25.7652L284.968 26.416ZM325.636 39L324.75 39.4639L325.031 40H325.636V39ZM318.72 25.792L319.606 25.3281L319.326 24.792H318.72V25.792ZM318.668 25.792V24.792H317.668V25.792H318.668ZM318.668 39V40H319.668V39H318.668ZM307.124 39H306.124V40H307.124V39ZM307.124 2.184V1.184H306.124V2.184H307.124ZM331.928 3.796L331.475 4.68756L331.487 4.69335L331.928 3.796ZM336.66 8.112L335.79 8.6046L335.796 8.61439L335.801 8.62406L336.66 8.112ZM336.192 20.8L335.384 20.2118L335.377 20.2216L336.192 20.8ZM330.316 24.908L330.008 23.9568L328.841 24.3353L329.447 25.4021L330.316 24.908ZM338.324 39V40H340.043L339.194 38.5059L338.324 39ZM318.668 18.096H317.668V19.096H318.668V18.096ZM325.74 17.368L326.399 18.1206L326.412 18.1093L326.424 18.0975L325.74 17.368ZM325.688 12.688L324.981 13.3951L324.992 13.4058L325.003 13.4162L325.688 12.688ZM318.668 11.856V10.856H317.668V11.856H318.668ZM325.636 39L326.522 38.5361L319.606 25.3281L318.72 25.792L317.834 26.2559L324.75 39.4639L325.636 39ZM318.72 25.792V24.792H318.668V25.792V26.792H318.72V25.792ZM318.668 25.792H317.668V39H318.668H319.668V25.792H318.668ZM318.668 39V38H307.124V39V40H318.668V39ZM307.124 39H308.124V2.184H307.124H306.124V39H307.124ZM307.124 2.184V3.184H324.284V2.184V1.184H307.124V2.184ZM324.284 2.184V3.184C327.148 3.184 329.532 3.70012 331.475 4.68748L331.928 3.796L332.381 2.90451C330.095 1.74255 327.384 1.184 324.284 1.184V2.184ZM331.928 3.796L331.487 4.69335C333.443 5.65534 334.861 6.96224 335.79 8.6046L336.66 8.112L337.531 7.6194C336.38 5.58709 334.643 4.01666 332.37 2.89865L331.928 3.796ZM336.66 8.112L335.801 8.62406C336.776 10.2581 337.272 12.1235 337.272 14.248H338.272H339.272C339.272 11.7965 338.695 9.57127 337.519 7.59993L336.66 8.112ZM338.272 14.248H337.272C337.272 16.5079 336.64 18.4839 335.384 20.2118L336.192 20.8L337.001 21.3882C338.518 19.3027 339.272 16.9108 339.272 14.248H338.272ZM336.192 20.8L335.377 20.2216C334.168 21.9264 332.401 23.1806 330.008 23.9568L330.316 24.908L330.625 25.8592C333.362 24.9714 335.513 23.4869 337.008 21.3784L336.192 20.8ZM330.316 24.908L329.447 25.4021L337.455 39.4941L338.324 39L339.194 38.5059L331.186 24.4139L330.316 24.908ZM338.324 39V38H325.636V39V40H338.324V39ZM318.668 18.096V19.096H323.244V18.096V17.096H318.668V18.096ZM323.244 18.096V19.096C324.478 19.096 325.589 18.8291 326.399 18.1206L325.74 17.368L325.082 16.6154C324.782 16.8775 324.23 17.096 323.244 17.096V18.096ZM325.74 17.368L326.424 18.0975C327.252 17.3212 327.572 16.2103 327.572 14.976H326.572H325.572C325.572 15.891 325.338 16.3748 325.056 16.6385L325.74 17.368ZM326.572 14.976H327.572C327.572 13.789 327.203 12.7406 326.374 11.9598L325.688 12.688L325.003 13.4162C325.352 13.7447 325.572 14.2216 325.572 14.976H326.572ZM325.688 12.688L326.395 11.9809C325.593 11.178 324.484 10.856 323.244 10.856V11.856V12.856C324.154 12.856 324.675 13.0887 324.981 13.3951L325.688 12.688ZM323.244 11.856V10.856H318.668V11.856V12.856H323.244V11.856ZM318.668 11.856H317.668V18.096H318.668H319.668V11.856H318.668ZM357.976 39L357.146 39.5572L357.443 40H357.976V39ZM347.264 23.036L348.095 22.4788L346.264 19.751V23.036H347.264ZM347.264 39V40H348.264V39H347.264ZM335.72 39H334.72V40H335.72V39ZM335.72 2.184V1.184H334.72V2.184H335.72ZM347.264 2.184H348.264V1.184H347.264V2.184ZM347.264 17.68H346.264V20.9242L348.091 18.243L347.264 17.68ZM357.82 2.184V1.184H357.292L356.994 1.62101L357.82 2.184ZM370.872 2.184L371.684 2.76818L372.824 1.184H370.872V2.184ZM358.184 19.812L357.373 19.2278L356.957 19.8058L357.367 20.388L358.184 19.812ZM371.704 39V40H373.632L372.522 38.424L371.704 39ZM357.976 39L358.807 38.4428L348.095 22.4788L347.264 23.036L346.434 23.5932L357.146 39.5572L357.976 39ZM347.264 23.036H346.264V39H347.264H348.264V23.036H347.264ZM347.264 39V38H335.72V39V40H347.264V39ZM335.72 39H336.72V2.184H335.72H334.72V39H335.72ZM335.72 2.184V3.184H347.264V2.184V1.184H335.72V2.184ZM347.264 2.184H346.264V17.68H347.264H348.264V2.184H347.264ZM347.264 17.68L348.091 18.243L358.647 2.74699L357.82 2.184L356.994 1.62101L346.438 17.117L347.264 17.68ZM357.82 2.184V3.184H370.872V2.184V1.184H357.82V2.184ZM370.872 2.184L370.061 1.59982L357.373 19.2278L358.184 19.812L358.996 20.3962L371.684 2.76818L370.872 2.184ZM358.184 19.812L357.367 20.388L370.887 39.576L371.704 39L372.522 38.424L359.002 19.236L358.184 19.812ZM371.704 39V38H357.976V39V40H371.704V39Z" fill="#C10007" mask="url(#path-1-outside-1_613_157)"/>
</svg>
