<svg width="239" height="42" viewBox="0 0 239 42" fill="none" xmlns="http://www.w3.org/2000/svg">
<g clip-path="url(#clip0_186_246)">
<mask id="path-1-outside-1_186_246" maskUnits="userSpaceOnUse" x="0" y="-0.5" width="239" height="43" fill="black">
<rect fill="white" y="-0.5" width="239" height="43"/>
<path d="M29.208 33.936H16.936L15.116 39.5H3L16.468 2.684H29.78L43.196 39.5H31.028L29.208 33.936ZM26.4 25.252L23.072 15.008L19.744 25.252H26.4ZM64.2268 20.624C66.4454 21.144 68.1614 22.2187 69.3748 23.848C70.6228 25.4427 71.2468 27.2973 71.2468 29.412C71.2468 32.636 70.1721 35.132 68.0228 36.9C65.9081 38.6333 62.8574 39.5 58.8708 39.5H39.5788V2.684H58.3508C62.0948 2.684 65.0414 3.49867 67.1908 5.128C69.3401 6.75733 70.4148 9.132 70.4148 12.252C70.4148 14.4013 69.8428 16.2213 68.6988 17.712C67.5894 19.168 66.0988 20.1387 64.2268 20.624ZM51.1228 17.036H55.5948C56.6348 17.036 57.3974 16.828 57.8828 16.412C58.4028 15.996 58.6628 15.3547 58.6628 14.488C58.6628 13.5867 58.4028 12.928 57.8828 12.512C57.3974 12.0613 56.6348 11.836 55.5948 11.836H51.1228V17.036ZM56.3748 30.244C57.4148 30.244 58.1774 30.0533 58.6628 29.672C59.1828 29.256 59.4428 28.5973 59.4428 27.696C59.4428 25.928 58.4201 25.044 56.3748 25.044H51.1228V30.244H56.3748ZM86.8256 39.864C83.359 39.864 80.1696 39.0493 77.2576 37.42C74.3803 35.7907 72.0923 33.5373 70.3936 30.66C68.695 27.7827 67.8456 24.5413 67.8456 20.936C67.8456 17.3307 68.695 14.0893 70.3936 11.212C72.0923 8.33466 74.3803 6.09866 77.2576 4.504C80.1696 2.87467 83.359 2.06 86.8256 2.06C90.2923 2.06 93.4643 2.87467 96.3416 4.504C99.219 6.09866 101.49 8.33466 103.154 11.212C104.852 14.0893 105.702 17.3307 105.702 20.936C105.702 24.5413 104.852 27.7827 103.154 30.66C101.49 33.5373 99.2016 35.7907 96.2896 37.42C93.4123 39.0493 90.2576 39.864 86.8256 39.864ZM86.8256 29.1C89.1136 29.1 90.8816 28.372 92.1296 26.916C93.3776 25.4253 94.0016 23.432 94.0016 20.936C94.0016 18.4053 93.3776 16.412 92.1296 14.956C90.8816 13.4653 89.1136 12.72 86.8256 12.72C84.503 12.72 82.7176 13.4653 81.4696 14.956C80.2216 16.412 79.5976 18.4053 79.5976 20.936C79.5976 23.432 80.2216 25.4253 81.4696 26.916C82.7176 28.372 84.503 29.1 86.8256 29.1ZM114.91 2.684V23.432C114.91 25.1307 115.274 26.4827 116.002 27.488C116.765 28.4587 117.978 28.944 119.642 28.944C121.306 28.944 122.537 28.4587 123.334 27.488C124.131 26.4827 124.53 25.1307 124.53 23.432V2.684H136.022V23.432C136.022 26.9333 135.294 29.932 133.838 32.428C132.382 34.8893 130.389 36.744 127.858 37.992C125.327 39.24 122.502 39.864 119.382 39.864C116.262 39.864 113.489 39.24 111.062 37.992C108.67 36.744 106.798 34.8893 105.446 32.428C104.094 29.9667 103.418 26.968 103.418 23.432V2.684H114.91ZM163.673 2.684V11.836H153.897V39.5H142.353V11.836H132.681V2.684H163.673ZM212.604 2.684V39.5H201.112V21.144L195.444 39.5H185.564L179.896 21.144V39.5H168.352V2.684H182.496L190.608 24.784L198.512 2.684H212.604ZM223.117 11.888V16.412H234.557V25.096H223.117V30.296H236.117V39.5H211.573V2.684H236.117V11.888H223.117Z"/>
</mask>
<path d="M29.208 33.936H16.936L15.116 39.5H3L16.468 2.684H29.78L43.196 39.5H31.028L29.208 33.936ZM26.4 25.252L23.072 15.008L19.744 25.252H26.4ZM64.2268 20.624C66.4454 21.144 68.1614 22.2187 69.3748 23.848C70.6228 25.4427 71.2468 27.2973 71.2468 29.412C71.2468 32.636 70.1721 35.132 68.0228 36.9C65.9081 38.6333 62.8574 39.5 58.8708 39.5H39.5788V2.684H58.3508C62.0948 2.684 65.0414 3.49867 67.1908 5.128C69.3401 6.75733 70.4148 9.132 70.4148 12.252C70.4148 14.4013 69.8428 16.2213 68.6988 17.712C67.5894 19.168 66.0988 20.1387 64.2268 20.624ZM51.1228 17.036H55.5948C56.6348 17.036 57.3974 16.828 57.8828 16.412C58.4028 15.996 58.6628 15.3547 58.6628 14.488C58.6628 13.5867 58.4028 12.928 57.8828 12.512C57.3974 12.0613 56.6348 11.836 55.5948 11.836H51.1228V17.036ZM56.3748 30.244C57.4148 30.244 58.1774 30.0533 58.6628 29.672C59.1828 29.256 59.4428 28.5973 59.4428 27.696C59.4428 25.928 58.4201 25.044 56.3748 25.044H51.1228V30.244H56.3748ZM86.8256 39.864C83.359 39.864 80.1696 39.0493 77.2576 37.42C74.3803 35.7907 72.0923 33.5373 70.3936 30.66C68.695 27.7827 67.8456 24.5413 67.8456 20.936C67.8456 17.3307 68.695 14.0893 70.3936 11.212C72.0923 8.33466 74.3803 6.09866 77.2576 4.504C80.1696 2.87467 83.359 2.06 86.8256 2.06C90.2923 2.06 93.4643 2.87467 96.3416 4.504C99.219 6.09866 101.49 8.33466 103.154 11.212C104.852 14.0893 105.702 17.3307 105.702 20.936C105.702 24.5413 104.852 27.7827 103.154 30.66C101.49 33.5373 99.2016 35.7907 96.2896 37.42C93.4123 39.0493 90.2576 39.864 86.8256 39.864ZM86.8256 29.1C89.1136 29.1 90.8816 28.372 92.1296 26.916C93.3776 25.4253 94.0016 23.432 94.0016 20.936C94.0016 18.4053 93.3776 16.412 92.1296 14.956C90.8816 13.4653 89.1136 12.72 86.8256 12.72C84.503 12.72 82.7176 13.4653 81.4696 14.956C80.2216 16.412 79.5976 18.4053 79.5976 20.936C79.5976 23.432 80.2216 25.4253 81.4696 26.916C82.7176 28.372 84.503 29.1 86.8256 29.1ZM114.91 2.684V23.432C114.91 25.1307 115.274 26.4827 116.002 27.488C116.765 28.4587 117.978 28.944 119.642 28.944C121.306 28.944 122.537 28.4587 123.334 27.488C124.131 26.4827 124.53 25.1307 124.53 23.432V2.684H136.022V23.432C136.022 26.9333 135.294 29.932 133.838 32.428C132.382 34.8893 130.389 36.744 127.858 37.992C125.327 39.24 122.502 39.864 119.382 39.864C116.262 39.864 113.489 39.24 111.062 37.992C108.67 36.744 106.798 34.8893 105.446 32.428C104.094 29.9667 103.418 26.968 103.418 23.432V2.684H114.91ZM163.673 2.684V11.836H153.897V39.5H142.353V11.836H132.681V2.684H163.673ZM212.604 2.684V39.5H201.112V21.144L195.444 39.5H185.564L179.896 21.144V39.5H168.352V2.684H182.496L190.608 24.784L198.512 2.684H212.604ZM223.117 11.888V16.412H234.557V25.096H223.117V30.296H236.117V39.5H211.573V2.684H236.117V11.888H223.117Z" fill="white"/>
<path d="M29.208 33.936L31.1089 33.3142L30.6581 31.936H29.208V33.936ZM16.936 33.936V31.936H15.4859L15.0351 33.3142L16.936 33.936ZM15.116 39.5V41.5H16.5661L17.0169 40.1218L15.116 39.5ZM3 39.5L1.12173 38.8129L0.138738 41.5H3V39.5ZM16.468 2.684V0.684H15.07L14.5897 1.99689L16.468 2.684ZM29.78 2.684L31.6591 1.99924L31.1798 0.684H29.78V2.684ZM43.196 39.5V41.5H46.0535L45.0751 38.8152L43.196 39.5ZM31.028 39.5L29.1271 40.1218L29.5779 41.5H31.028V39.5ZM26.4 25.252V27.252H29.1526L28.3021 24.634L26.4 25.252ZM23.072 15.008L24.9741 14.39L23.072 8.53502L21.1699 14.39L23.072 15.008ZM19.744 25.252L17.8419 24.634L16.9914 27.252H19.744V25.252ZM29.208 33.936V31.936H16.936V33.936V35.936H29.208V33.936ZM16.936 33.936L15.0351 33.3142L13.2151 38.8782L15.116 39.5L17.0169 40.1218L18.8369 34.5578L16.936 33.936ZM15.116 39.5V37.5H3V39.5V41.5H15.116V39.5ZM3 39.5L4.87827 40.1871L18.3463 3.37111L16.468 2.684L14.5897 1.99689L1.12173 38.8129L3 39.5ZM16.468 2.684V4.684H29.78V2.684V0.684H16.468V2.684ZM29.78 2.684L27.9009 3.36876L41.3169 40.1848L43.196 39.5L45.0751 38.8152L31.6591 1.99924L29.78 2.684ZM43.196 39.5V37.5H31.028V39.5V41.5H43.196V39.5ZM31.028 39.5L32.9289 38.8782L31.1089 33.3142L29.208 33.936L27.3071 34.5578L29.1271 40.1218L31.028 39.5ZM26.4 25.252L28.3021 24.634L24.9741 14.39L23.072 15.008L21.1699 15.626L24.4979 25.87L26.4 25.252ZM23.072 15.008L21.1699 14.39L17.8419 24.634L19.744 25.252L21.6461 25.87L24.9741 15.626L23.072 15.008ZM19.744 25.252V27.252H26.4V25.252V23.252H19.744V25.252ZM64.2268 20.624L63.7248 18.688L63.7704 22.5712L64.2268 20.624ZM69.3748 23.848L67.7707 25.0425L67.785 25.0617L67.7997 25.0806L69.3748 23.848ZM68.0228 36.9L69.2906 38.4468L69.2933 38.4446L68.0228 36.9ZM39.5788 39.5H37.5788V41.5H39.5788V39.5ZM39.5788 2.684V0.684H37.5788V2.684H39.5788ZM68.6988 17.712L67.1121 16.4944L67.1079 16.4999L68.6988 17.712ZM51.1228 17.036H49.1228V19.036H51.1228V17.036ZM57.8828 16.412L56.6334 14.8503L56.6069 14.8714L56.5812 14.8935L57.8828 16.412ZM57.8828 12.512L56.5219 13.9776L56.5758 14.0277L56.6334 14.0737L57.8828 12.512ZM51.1228 11.836V9.836H49.1228V11.836H51.1228ZM58.6628 29.672L59.8984 31.2446L59.9053 31.2392L59.9121 31.2337L58.6628 29.672ZM51.1228 25.044V23.044H49.1228V25.044H51.1228ZM51.1228 30.244H49.1228V32.244H51.1228V30.244ZM64.2268 20.624L63.7704 22.5712C65.5892 22.9975 66.8737 23.838 67.7707 25.0425L69.3748 23.848L70.9788 22.6535C69.4492 20.5994 67.3016 19.2905 64.6831 18.6768L64.2268 20.624ZM69.3748 23.848L67.7997 25.0806C68.7595 26.307 69.2468 27.7228 69.2468 29.412H71.2468H73.2468C73.2468 26.8718 72.486 24.5783 70.9498 22.6154L69.3748 23.848ZM71.2468 29.412H69.2468C69.2468 32.1439 68.3637 34.0299 66.7522 35.3554L68.0228 36.9L69.2933 38.4446C71.9805 36.2341 73.2468 33.1281 73.2468 29.412H71.2468ZM68.0228 36.9L66.7549 35.3532C65.1298 36.6853 62.6009 37.5 58.8708 37.5V39.5V41.5C63.114 41.5 66.6864 40.5814 69.2906 38.4468L68.0228 36.9ZM58.8708 39.5V37.5H39.5788V39.5V41.5H58.8708V39.5ZM39.5788 39.5H41.5788V2.684H39.5788H37.5788V39.5H39.5788ZM39.5788 2.684V4.684H58.3508V2.684V0.684H39.5788V2.684ZM58.3508 2.684V4.684C61.8245 4.684 64.2933 5.44122 65.9825 6.72181L67.1908 5.128L68.399 3.53419C65.7896 1.55611 62.365 0.684 58.3508 0.684V2.684ZM67.1908 5.128L65.9825 6.72181C67.5506 7.91047 68.4148 9.64652 68.4148 12.252H70.4148H72.4148C72.4148 8.61748 71.1296 5.60419 68.399 3.53419L67.1908 5.128ZM70.4148 12.252H68.4148C68.4148 14.0273 67.9503 15.4022 67.1121 16.4944L68.6988 17.712L70.2854 18.9296C71.7352 17.0405 72.4148 14.7754 72.4148 12.252H70.4148ZM68.6988 17.712L67.1079 16.4999C66.2862 17.5784 65.1893 18.3083 63.7248 18.688L64.2268 20.624L64.7287 22.56C67.0082 21.969 68.8926 20.7576 70.2896 18.9241L68.6988 17.712ZM51.1228 17.036V19.036H55.5948V17.036V15.036H51.1228V17.036ZM55.5948 17.036V19.036C56.8323 19.036 58.1693 18.8006 59.1843 17.9305L57.8828 16.412L56.5812 14.8935C56.6101 14.8687 56.5822 14.9064 56.4205 14.9505C56.2548 14.9957 55.9894 15.036 55.5948 15.036V17.036ZM57.8828 16.412L59.1321 17.9737C60.2622 17.0697 60.6628 15.7642 60.6628 14.488H58.6628H56.6628C56.6628 14.7264 56.6265 14.8375 56.6143 14.8676C56.6087 14.8813 56.6077 14.8798 56.6146 14.8704C56.6217 14.8608 56.6294 14.8534 56.6334 14.8503L57.8828 16.412ZM58.6628 14.488H60.6628C60.6628 13.2081 60.2805 11.8689 59.1321 10.9503L57.8828 12.512L56.6334 14.0737C56.6239 14.0662 56.6134 14.0553 56.6054 14.0443C56.5978 14.0338 56.6001 14.0337 56.6074 14.0523C56.6238 14.0937 56.6628 14.223 56.6628 14.488H58.6628ZM57.8828 12.512L59.2437 11.0464C58.2263 10.1018 56.8634 9.836 55.5948 9.836V11.836V13.836C56.4061 13.836 56.5685 14.0209 56.5219 13.9776L57.8828 12.512ZM55.5948 11.836V9.836H51.1228V11.836V13.836H55.5948V11.836ZM51.1228 11.836H49.1228V17.036H51.1228H53.1228V11.836H51.1228ZM56.3748 30.244V32.244C57.5833 32.244 58.8905 32.0365 59.8984 31.2446L58.6628 29.672L57.4271 28.0994C57.4578 28.0753 57.4218 28.1157 57.2417 28.1607C57.0605 28.206 56.7804 28.244 56.3748 28.244V30.244ZM58.6628 29.672L59.9121 31.2337C61.0605 30.3151 61.4428 28.9759 61.4428 27.696H59.4428H57.4428C57.4428 27.961 57.4038 28.0903 57.3874 28.1317C57.3801 28.1503 57.3778 28.1502 57.3854 28.1397C57.3934 28.1287 57.4039 28.1178 57.4134 28.1103L58.6628 29.672ZM59.4428 27.696H61.4428C61.4428 26.4216 61.0606 25.1249 59.9837 24.1939C58.9624 23.3112 57.6401 23.044 56.3748 23.044V25.044V27.044C57.1548 27.044 57.3664 27.2188 57.3678 27.2201C57.3692 27.2212 57.3693 27.2215 57.3688 27.2209C57.3682 27.2202 57.368 27.2199 57.3683 27.2204C57.3684 27.2204 57.3751 27.2299 57.3849 27.2553C57.4056 27.3088 57.4428 27.4422 57.4428 27.696H59.4428ZM56.3748 25.044V23.044H51.1228V25.044V27.044H56.3748V25.044ZM51.1228 25.044H49.1228V30.244H51.1228H53.1228V25.044H51.1228ZM51.1228 30.244V32.244H56.3748V30.244V28.244H51.1228V30.244ZM77.2576 37.42L76.2721 39.1604L76.2811 39.1654L77.2576 37.42ZM70.3936 30.66L68.6714 31.6768L68.6714 31.6768L70.3936 30.66ZM77.2576 4.504L78.2271 6.25332L78.2342 6.24936L77.2576 4.504ZM96.3416 4.504L95.3561 6.24434L95.3641 6.24886L95.3721 6.25331L96.3416 4.504ZM103.154 11.212L101.422 12.2132L101.427 12.221L101.431 12.2288L103.154 11.212ZM103.154 30.66L101.431 29.6432L101.427 29.651L101.422 29.6587L103.154 30.66ZM96.2896 37.42L95.313 35.6746L95.3041 35.6797L96.2896 37.42ZM92.1296 26.916L93.6481 28.2176L93.6557 28.2088L93.6631 28.1999L92.1296 26.916ZM92.1296 14.956L90.5961 16.2399L90.6036 16.2488L90.6111 16.2576L92.1296 14.956ZM81.4696 14.956L82.9881 16.2576L82.9957 16.2488L83.0031 16.2399L81.4696 14.956ZM81.4696 26.916L79.9361 28.1999L79.9436 28.2088L79.9511 28.2176L81.4696 26.916ZM86.8256 39.864V37.864C83.6871 37.864 80.8359 37.1304 78.2342 35.6746L77.2576 37.42L76.2811 39.1654C79.5033 40.9683 83.0309 41.864 86.8256 41.864V39.864ZM77.2576 37.42L78.2431 35.6797C75.6738 34.2248 73.6385 32.2224 72.1159 29.6432L70.3936 30.66L68.6714 31.6768C70.5461 34.8523 73.0868 37.3566 76.2721 39.1603L77.2576 37.42ZM70.3936 30.66L72.1159 29.6432C70.6134 27.0981 69.8456 24.2129 69.8456 20.936H67.8456H65.8456C65.8456 24.8697 66.7766 28.4672 68.6714 31.6768L70.3936 30.66ZM67.8456 20.936H69.8456C69.8456 17.6591 70.6134 14.7739 72.1159 12.2288L70.3936 11.212L68.6714 10.1952C66.7766 13.4048 65.8456 17.0022 65.8456 20.936H67.8456ZM70.3936 11.212L72.1159 12.2288C73.6364 9.65325 75.6666 7.67239 78.2271 6.25331L77.2576 4.504L76.2881 2.75469C73.094 4.52494 70.5482 7.01608 68.6714 10.1952L70.3936 11.212ZM77.2576 4.504L78.2342 6.24936C80.8359 4.79363 83.6871 4.06 86.8256 4.06V2.06V0.0599985C83.0309 0.0599985 79.5033 0.955703 76.2811 2.75863L77.2576 4.504ZM86.8256 2.06V4.06C89.9643 4.06 92.7941 4.79357 95.3561 6.24434L96.3416 4.504L97.3271 2.76365C94.1345 0.955762 90.6203 0.0599985 86.8256 0.0599985V2.06ZM96.3416 4.504L95.3721 6.25331C97.929 7.67035 99.9378 9.64626 101.422 12.2132L103.154 11.212L104.885 10.2107C103.041 7.02307 100.509 4.52698 97.3111 2.75469L96.3416 4.504ZM103.154 11.212L101.431 12.2288C102.934 14.7739 103.702 17.6591 103.702 20.936H105.702H107.702C107.702 17.0022 106.771 13.4048 104.876 10.1952L103.154 11.212ZM105.702 20.936H103.702C103.702 24.2129 102.934 27.0981 101.431 29.6432L103.154 30.66L104.876 31.6768C106.771 28.4672 107.702 24.8697 107.702 20.936H105.702ZM103.154 30.66L101.422 29.6587C99.9391 32.2234 97.9124 34.2202 95.3131 35.6746L96.2896 37.42L97.2662 39.1654C100.491 37.3611 103.04 34.8513 104.885 31.6613L103.154 30.66ZM96.2896 37.42L95.3041 35.6797C92.739 37.1322 89.9259 37.864 86.8256 37.864V39.864V41.864C90.5894 41.864 94.0856 40.9665 97.2751 39.1603L96.2896 37.42ZM86.8256 29.1V31.1C89.5735 31.1 91.9463 30.2031 93.6481 28.2176L92.1296 26.916L90.6111 25.6144C89.817 26.5409 88.6538 27.1 86.8256 27.1V29.1ZM92.1296 26.916L93.6631 28.1999C95.2896 26.2572 96.0016 23.7655 96.0016 20.936H94.0016H92.0016C92.0016 23.0985 91.4657 24.5935 90.5961 25.6321L92.1296 26.916ZM94.0016 20.936H96.0016C96.0016 18.0826 95.2946 15.5752 93.6481 13.6544L92.1296 14.956L90.6111 16.2576C91.4607 17.2488 92.0016 18.728 92.0016 20.936H94.0016ZM92.1296 14.956L93.6631 13.6721C91.9664 11.6455 89.5895 10.72 86.8256 10.72V12.72V14.72C88.6378 14.72 89.7968 15.2852 90.5961 16.2399L92.1296 14.956ZM86.8256 12.72V10.72C84.0382 10.72 81.6389 11.6383 79.9361 13.6721L81.4696 14.956L83.0031 16.2399C83.7964 15.2924 84.9677 14.72 86.8256 14.72V12.72ZM81.4696 14.956L79.9511 13.6544C78.3047 15.5752 77.5976 18.0826 77.5976 20.936H79.5976H81.5976C81.5976 18.728 82.1386 17.2488 82.9881 16.2576L81.4696 14.956ZM79.5976 20.936H77.5976C77.5976 23.7655 78.3097 26.2572 79.9361 28.1999L81.4696 26.916L83.0031 25.6321C82.1336 24.5935 81.5976 23.0985 81.5976 20.936H79.5976ZM81.4696 26.916L79.9511 28.2176C81.6589 30.21 84.0541 31.1 86.8256 31.1V29.1V27.1C84.9518 27.1 83.7763 26.534 82.9881 25.6144L81.4696 26.916ZM114.91 2.684H116.91V0.684H114.91V2.684ZM116.002 27.488L114.382 28.661L114.405 28.6928L114.429 28.7236L116.002 27.488ZM123.334 27.488L124.88 28.7575L124.89 28.7442L124.901 28.7308L123.334 27.488ZM124.53 2.684V0.684H122.53V2.684H124.53ZM136.022 2.684H138.022V0.684H136.022V2.684ZM133.838 32.428L135.559 33.4463L135.566 33.4357L133.838 32.428ZM127.858 37.992L128.743 39.7857L128.743 39.7857L127.858 37.992ZM111.062 37.992L110.137 39.7652L110.147 39.7706L111.062 37.992ZM105.446 32.428L103.693 33.3909L103.693 33.3909L105.446 32.428ZM103.418 2.684V0.684H101.418V2.684H103.418ZM114.91 2.684H112.91V23.432H114.91H116.91V2.684H114.91ZM114.91 23.432H112.91C112.91 25.3998 113.331 27.209 114.382 28.661L116.002 27.488L117.622 26.315C117.217 25.7563 116.91 24.8615 116.91 23.432H114.91ZM116.002 27.488L114.429 28.7236C115.693 30.332 117.593 30.944 119.642 30.944V28.944V26.944C118.363 26.944 117.836 26.5853 117.575 26.2524L116.002 27.488ZM119.642 28.944V30.944C121.697 30.944 123.588 30.3303 124.88 28.7575L123.334 27.488L121.789 26.2185C121.486 26.587 120.915 26.944 119.642 26.944V28.944ZM123.334 27.488L124.901 28.7308C126.058 27.2721 126.53 25.4354 126.53 23.432H124.53H122.53C122.53 24.8259 122.205 25.6933 121.767 26.2452L123.334 27.488ZM124.53 23.432H126.53V2.684H124.53H122.53V23.432H124.53ZM124.53 2.684V4.684H136.022V2.684V0.684H124.53V2.684ZM136.022 2.684H134.022V23.432H136.022H138.022V2.684H136.022ZM136.022 23.432H134.022C134.022 26.6541 133.354 29.2889 132.111 31.4203L133.838 32.428L135.566 33.4357C137.234 30.5751 138.022 27.2126 138.022 23.432H136.022ZM133.838 32.428L132.117 31.4097C130.856 33.5416 129.151 35.1245 126.974 36.1983L127.858 37.992L128.743 39.7857C131.627 38.3635 133.909 36.2371 135.559 33.4463L133.838 32.428ZM127.858 37.992L126.974 36.1983C124.746 37.2968 122.228 37.864 119.382 37.864V39.864V41.864C122.776 41.864 125.909 41.1832 128.743 39.7857L127.858 37.992ZM119.382 39.864V37.864C116.534 37.864 114.082 37.2963 111.977 36.2134L111.062 37.992L110.147 39.7706C112.895 41.1837 115.99 41.864 119.382 41.864V39.864ZM111.062 37.992L111.987 36.2188C109.96 35.1611 108.369 33.5955 107.199 31.4651L105.446 32.428L103.693 33.3909C105.227 36.1831 107.38 38.3269 110.137 39.7652L111.062 37.992ZM105.446 32.428L107.199 31.4651C106.046 29.3658 105.418 26.717 105.418 23.432H103.418H101.418C101.418 27.219 102.142 30.5676 103.693 33.3909L105.446 32.428ZM103.418 23.432H105.418V2.684H103.418H101.418V23.432H103.418ZM103.418 2.684V4.684H114.91V2.684V0.684H103.418V2.684ZM163.673 2.684H165.673V0.684H163.673V2.684ZM163.673 11.836V13.836H165.673V11.836H163.673ZM153.897 11.836V9.836H151.897V11.836H153.897ZM153.897 39.5V41.5H155.897V39.5H153.897ZM142.353 39.5H140.353V41.5H142.353V39.5ZM142.353 11.836H144.353V9.836H142.353V11.836ZM132.681 11.836H130.681V13.836H132.681V11.836ZM132.681 2.684V0.684H130.681V2.684H132.681ZM163.673 2.684H161.673V11.836H163.673H165.673V2.684H163.673ZM163.673 11.836V9.836H153.897V11.836V13.836H163.673V11.836ZM153.897 11.836H151.897V39.5H153.897H155.897V11.836H153.897ZM153.897 39.5V37.5H142.353V39.5V41.5H153.897V39.5ZM142.353 39.5H144.353V11.836H142.353H140.353V39.5H142.353ZM142.353 11.836V9.836H132.681V11.836V13.836H142.353V11.836ZM132.681 11.836H134.681V2.684H132.681H130.681V11.836H132.681ZM132.681 2.684V4.684H163.673V2.684V0.684H132.681V2.684ZM212.604 2.684H214.604V0.684H212.604V2.684ZM212.604 39.5V41.5H214.604V39.5H212.604ZM201.112 39.5H199.112V41.5H201.112V39.5ZM201.112 21.144H203.112L199.201 20.5539L201.112 21.144ZM195.444 39.5V41.5H196.919L197.355 40.0901L195.444 39.5ZM185.564 39.5L183.653 40.0901L184.088 41.5H185.564V39.5ZM179.896 21.144L181.807 20.5539L177.896 21.144H179.896ZM179.896 39.5V41.5H181.896V39.5H179.896ZM168.352 39.5H166.352V41.5H168.352V39.5ZM168.352 2.684V0.684H166.352V2.684H168.352ZM182.496 2.684L184.373 1.99484L183.892 0.684H182.496V2.684ZM190.608 24.784L188.73 25.4732L190.632 30.6547L192.491 25.4575L190.608 24.784ZM198.512 2.684V0.684H197.103L196.629 2.01048L198.512 2.684ZM212.604 2.684H210.604V39.5H212.604H214.604V2.684H212.604ZM212.604 39.5V37.5H201.112V39.5V41.5H212.604V39.5ZM201.112 39.5H203.112V21.144H201.112H199.112V39.5H201.112ZM201.112 21.144L199.201 20.5539L193.533 38.9099L195.444 39.5L197.355 40.0901L203.023 21.7341L201.112 21.144ZM195.444 39.5V37.5H185.564V39.5V41.5H195.444V39.5ZM185.564 39.5L187.475 38.9099L181.807 20.5539L179.896 21.144L177.985 21.7341L183.653 40.0901L185.564 39.5ZM179.896 21.144H177.896V39.5H179.896H181.896V21.144H179.896ZM179.896 39.5V37.5H168.352V39.5V41.5H179.896V39.5ZM168.352 39.5H170.352V2.684H168.352H166.352V39.5H168.352ZM168.352 2.684V4.684H182.496V2.684V0.684H168.352V2.684ZM182.496 2.684L180.618 3.37316L188.73 25.4732L190.608 24.784L192.485 24.0948L184.373 1.99484L182.496 2.684ZM190.608 24.784L192.491 25.4575L200.395 3.35751L198.512 2.684L196.629 2.01048L188.725 24.1105L190.608 24.784ZM198.512 2.684V4.684H212.604V2.684V0.684H198.512V2.684ZM223.117 11.888V9.888H221.117V11.888H223.117ZM223.117 16.412H221.117V18.412H223.117V16.412ZM234.557 16.412H236.557V14.412H234.557V16.412ZM234.557 25.096V27.096H236.557V25.096H234.557ZM223.117 25.096V23.096H221.117V25.096H223.117ZM223.117 30.296H221.117V32.296H223.117V30.296ZM236.117 30.296H238.117V28.296H236.117V30.296ZM236.117 39.5V41.5H238.117V39.5H236.117ZM211.573 39.5H209.573V41.5H211.573V39.5ZM211.573 2.684V0.684H209.573V2.684H211.573ZM236.117 2.684H238.117V0.684H236.117V2.684ZM236.117 11.888V13.888H238.117V11.888H236.117ZM223.117 11.888H221.117V16.412H223.117H225.117V11.888H223.117ZM223.117 16.412V18.412H234.557V16.412V14.412H223.117V16.412ZM234.557 16.412H232.557V25.096H234.557H236.557V16.412H234.557ZM234.557 25.096V23.096H223.117V25.096V27.096H234.557V25.096ZM223.117 25.096H221.117V30.296H223.117H225.117V25.096H223.117ZM223.117 30.296V32.296H236.117V30.296V28.296H223.117V30.296ZM236.117 30.296H234.117V39.5H236.117H238.117V30.296H236.117ZM236.117 39.5V37.5H211.573V39.5V41.5H236.117V39.5ZM211.573 39.5H213.573V2.684H211.573H209.573V39.5H211.573ZM211.573 2.684V4.684H236.117V2.684V0.684H211.573V2.684ZM236.117 2.684H234.117V11.888H236.117H238.117V2.684H236.117ZM236.117 11.888V9.888H223.117V11.888V13.888H236.117V11.888Z" fill="#CC0000" mask="url(#path-1-outside-1_186_246)"/>
</g>
<defs>
<clipPath id="clip0_186_246">
<rect width="239" height="42" fill="white"/>
</clipPath>
</defs>
</svg>
