<svg width="274" height="41" viewBox="0 0 274 41" fill="none" xmlns="http://www.w3.org/2000/svg">
<g clip-path="url(#clip0_186_301)">
<mask id="path-1-outside-1_186_301" maskUnits="userSpaceOnUse" x="0" y="0" width="274" height="41" fill="black">
<rect fill="white" width="274" height="41"/>
<path d="M32.512 2.184V11.336H22.736V39H11.192V11.336H1.52V2.184H32.512ZM40.947 11.388V15.912H52.387V24.596H40.947V29.796H53.947V39H29.403V2.184H53.947V11.388H40.947ZM51.0175 20.54C51.0175 16.9 51.7455 13.6587 53.2015 10.816C54.6922 7.97333 56.8068 5.772 59.5455 4.212C62.2842 2.61733 65.5082 1.82 69.2175 1.82C72.4068 1.82 75.2495 2.42667 77.7455 3.64C80.2762 4.81867 82.3215 6.5 83.8815 8.684C85.4762 10.868 86.5335 13.416 87.0535 16.328H74.8855C74.3308 15.1147 73.5335 14.1787 72.4935 13.52C71.4882 12.8267 70.3268 12.48 69.0095 12.48C67.0682 12.48 65.5255 13.208 64.3815 14.664C63.2722 16.12 62.7175 18.0787 62.7175 20.54C62.7175 23.0013 63.2722 24.96 64.3815 26.416C65.5255 27.872 67.0682 28.6 69.0095 28.6C70.3268 28.6 71.4882 28.2707 72.4935 27.612C73.5335 26.9187 74.3308 25.9653 74.8855 24.752H87.0535C86.5335 27.664 85.4762 30.212 83.8815 32.396C82.3215 34.58 80.2762 36.2787 77.7455 37.492C75.2495 38.6707 72.4068 39.26 69.2175 39.26C65.5082 39.26 62.2842 38.48 59.5455 36.92C56.8068 35.3253 54.6922 33.1067 53.2015 30.264C51.7455 27.4213 51.0175 24.18 51.0175 20.54ZM119.03 2.184V39H107.486V24.648H96.5138V39H84.9698V2.184H96.5138V15.444H107.486V2.184H119.03ZM140.176 39.364C135.773 39.364 132.133 38.3413 129.256 36.296C126.413 34.216 124.87 31.1827 124.628 27.196H136.9C137.073 29.3107 138.009 30.368 139.708 30.368C140.332 30.368 140.852 30.2293 141.268 29.952C141.718 29.64 141.944 29.172 141.944 28.548C141.944 27.6813 141.476 26.988 140.54 26.468C139.604 25.9133 138.148 25.2893 136.172 24.596C133.814 23.764 131.856 22.9493 130.296 22.152C128.77 21.3547 127.453 20.1933 126.344 18.668C125.234 17.1427 124.697 15.184 124.732 12.792C124.732 10.4 125.338 8.372 126.552 6.708C127.8 5.00933 129.481 3.72667 131.596 2.86C133.745 1.99333 136.154 1.56 138.824 1.56C143.33 1.56 146.901 2.6 149.536 4.68C152.205 6.76 153.609 9.68933 153.748 13.468H141.32C141.285 12.428 141.025 11.6827 140.54 11.232C140.054 10.7813 139.465 10.556 138.772 10.556C138.286 10.556 137.888 10.7293 137.576 11.076C137.264 11.388 137.108 11.8387 137.108 12.428C137.108 13.26 137.558 13.9533 138.46 14.508C139.396 15.028 140.869 15.6693 142.88 16.432C145.202 17.2987 147.109 18.1307 148.6 18.928C150.125 19.7253 151.442 20.8347 152.552 22.256C153.661 23.6773 154.216 25.4627 154.216 27.612C154.216 29.8653 153.661 31.8933 152.552 33.696C151.442 35.464 149.83 36.8507 147.716 37.856C145.601 38.8613 143.088 39.364 140.176 39.364ZM180.944 2.184V11.336H171.168V39H159.624V11.336H149.952V2.184H180.944ZM193.643 33.436H181.371L179.551 39H167.435L180.903 2.184H194.215L207.631 39H195.463L193.643 33.436ZM190.835 24.752L187.507 14.508L184.179 24.752H190.835ZM201.413 20.54C201.413 16.9 202.141 13.6587 203.597 10.816C205.088 7.97333 207.203 5.772 209.941 4.212C212.68 2.61733 215.904 1.82 219.613 1.82C222.803 1.82 225.645 2.42667 228.141 3.64C230.672 4.81867 232.717 6.5 234.277 8.684C235.872 10.868 236.929 13.416 237.449 16.328H225.281C224.727 15.1147 223.929 14.1787 222.889 13.52C221.884 12.8267 220.723 12.48 219.405 12.48C217.464 12.48 215.921 13.208 214.777 14.664C213.668 16.12 213.113 18.0787 213.113 20.54C213.113 23.0013 213.668 24.96 214.777 26.416C215.921 27.872 217.464 28.6 219.405 28.6C220.723 28.6 221.884 28.2707 222.889 27.612C223.929 26.9187 224.727 25.9653 225.281 24.752H237.449C236.929 27.664 235.872 30.212 234.277 32.396C232.717 34.58 230.672 36.2787 228.141 37.492C225.645 38.6707 222.803 39.26 219.613 39.26C215.904 39.26 212.68 38.48 209.941 36.92C207.203 35.3253 205.088 33.1067 203.597 30.264C202.141 27.4213 201.413 24.18 201.413 20.54ZM257.622 39L246.91 23.036V39H235.366V2.184H246.91V17.68L257.466 2.184H270.518L257.83 19.812L271.35 39H257.622Z"/>
</mask>
<path d="M32.512 2.184V11.336H22.736V39H11.192V11.336H1.52V2.184H32.512ZM40.947 11.388V15.912H52.387V24.596H40.947V29.796H53.947V39H29.403V2.184H53.947V11.388H40.947ZM51.0175 20.54C51.0175 16.9 51.7455 13.6587 53.2015 10.816C54.6922 7.97333 56.8068 5.772 59.5455 4.212C62.2842 2.61733 65.5082 1.82 69.2175 1.82C72.4068 1.82 75.2495 2.42667 77.7455 3.64C80.2762 4.81867 82.3215 6.5 83.8815 8.684C85.4762 10.868 86.5335 13.416 87.0535 16.328H74.8855C74.3308 15.1147 73.5335 14.1787 72.4935 13.52C71.4882 12.8267 70.3268 12.48 69.0095 12.48C67.0682 12.48 65.5255 13.208 64.3815 14.664C63.2722 16.12 62.7175 18.0787 62.7175 20.54C62.7175 23.0013 63.2722 24.96 64.3815 26.416C65.5255 27.872 67.0682 28.6 69.0095 28.6C70.3268 28.6 71.4882 28.2707 72.4935 27.612C73.5335 26.9187 74.3308 25.9653 74.8855 24.752H87.0535C86.5335 27.664 85.4762 30.212 83.8815 32.396C82.3215 34.58 80.2762 36.2787 77.7455 37.492C75.2495 38.6707 72.4068 39.26 69.2175 39.26C65.5082 39.26 62.2842 38.48 59.5455 36.92C56.8068 35.3253 54.6922 33.1067 53.2015 30.264C51.7455 27.4213 51.0175 24.18 51.0175 20.54ZM119.03 2.184V39H107.486V24.648H96.5138V39H84.9698V2.184H96.5138V15.444H107.486V2.184H119.03ZM140.176 39.364C135.773 39.364 132.133 38.3413 129.256 36.296C126.413 34.216 124.87 31.1827 124.628 27.196H136.9C137.073 29.3107 138.009 30.368 139.708 30.368C140.332 30.368 140.852 30.2293 141.268 29.952C141.718 29.64 141.944 29.172 141.944 28.548C141.944 27.6813 141.476 26.988 140.54 26.468C139.604 25.9133 138.148 25.2893 136.172 24.596C133.814 23.764 131.856 22.9493 130.296 22.152C128.77 21.3547 127.453 20.1933 126.344 18.668C125.234 17.1427 124.697 15.184 124.732 12.792C124.732 10.4 125.338 8.372 126.552 6.708C127.8 5.00933 129.481 3.72667 131.596 2.86C133.745 1.99333 136.154 1.56 138.824 1.56C143.33 1.56 146.901 2.6 149.536 4.68C152.205 6.76 153.609 9.68933 153.748 13.468H141.32C141.285 12.428 141.025 11.6827 140.54 11.232C140.054 10.7813 139.465 10.556 138.772 10.556C138.286 10.556 137.888 10.7293 137.576 11.076C137.264 11.388 137.108 11.8387 137.108 12.428C137.108 13.26 137.558 13.9533 138.46 14.508C139.396 15.028 140.869 15.6693 142.88 16.432C145.202 17.2987 147.109 18.1307 148.6 18.928C150.125 19.7253 151.442 20.8347 152.552 22.256C153.661 23.6773 154.216 25.4627 154.216 27.612C154.216 29.8653 153.661 31.8933 152.552 33.696C151.442 35.464 149.83 36.8507 147.716 37.856C145.601 38.8613 143.088 39.364 140.176 39.364ZM180.944 2.184V11.336H171.168V39H159.624V11.336H149.952V2.184H180.944ZM193.643 33.436H181.371L179.551 39H167.435L180.903 2.184H194.215L207.631 39H195.463L193.643 33.436ZM190.835 24.752L187.507 14.508L184.179 24.752H190.835ZM201.413 20.54C201.413 16.9 202.141 13.6587 203.597 10.816C205.088 7.97333 207.203 5.772 209.941 4.212C212.68 2.61733 215.904 1.82 219.613 1.82C222.803 1.82 225.645 2.42667 228.141 3.64C230.672 4.81867 232.717 6.5 234.277 8.684C235.872 10.868 236.929 13.416 237.449 16.328H225.281C224.727 15.1147 223.929 14.1787 222.889 13.52C221.884 12.8267 220.723 12.48 219.405 12.48C217.464 12.48 215.921 13.208 214.777 14.664C213.668 16.12 213.113 18.0787 213.113 20.54C213.113 23.0013 213.668 24.96 214.777 26.416C215.921 27.872 217.464 28.6 219.405 28.6C220.723 28.6 221.884 28.2707 222.889 27.612C223.929 26.9187 224.727 25.9653 225.281 24.752H237.449C236.929 27.664 235.872 30.212 234.277 32.396C232.717 34.58 230.672 36.2787 228.141 37.492C225.645 38.6707 222.803 39.26 219.613 39.26C215.904 39.26 212.68 38.48 209.941 36.92C207.203 35.3253 205.088 33.1067 203.597 30.264C202.141 27.4213 201.413 24.18 201.413 20.54ZM257.622 39L246.91 23.036V39H235.366V2.184H246.91V17.68L257.466 2.184H270.518L257.83 19.812L271.35 39H257.622Z" fill="white"/>
<path d="M32.512 2.184H33.512V1.184H32.512V2.184ZM32.512 11.336V12.336H33.512V11.336H32.512ZM22.736 11.336V10.336H21.736V11.336H22.736ZM22.736 39V40H23.736V39H22.736ZM11.192 39H10.192V40H11.192V39ZM11.192 11.336H12.192V10.336H11.192V11.336ZM1.52 11.336H0.52V12.336H1.52V11.336ZM1.52 2.184V1.184H0.52V2.184H1.52ZM32.512 2.184H31.512V11.336H32.512H33.512V2.184H32.512ZM32.512 11.336V10.336H22.736V11.336V12.336H32.512V11.336ZM22.736 11.336H21.736V39H22.736H23.736V11.336H22.736ZM22.736 39V38H11.192V39V40H22.736V39ZM11.192 39H12.192V11.336H11.192H10.192V39H11.192ZM11.192 11.336V10.336H1.52V11.336V12.336H11.192V11.336ZM1.52 11.336H2.52V2.184H1.52H0.52V11.336H1.52ZM1.52 2.184V3.184H32.512V2.184V1.184H1.52V2.184ZM40.947 11.388V10.388H39.947V11.388H40.947ZM40.947 15.912H39.947V16.912H40.947V15.912ZM52.387 15.912H53.387V14.912H52.387V15.912ZM52.387 24.596V25.596H53.387V24.596H52.387ZM40.947 24.596V23.596H39.947V24.596H40.947ZM40.947 29.796H39.947V30.796H40.947V29.796ZM53.947 29.796H54.947V28.796H53.947V29.796ZM53.947 39V40H54.947V39H53.947ZM29.403 39H28.403V40H29.403V39ZM29.403 2.184V1.184H28.403V2.184H29.403ZM53.947 2.184H54.947V1.184H53.947V2.184ZM53.947 11.388V12.388H54.947V11.388H53.947ZM40.947 11.388H39.947V15.912H40.947H41.947V11.388H40.947ZM40.947 15.912V16.912H52.387V15.912V14.912H40.947V15.912ZM52.387 15.912H51.387V24.596H52.387H53.387V15.912H52.387ZM52.387 24.596V23.596H40.947V24.596V25.596H52.387V24.596ZM40.947 24.596H39.947V29.796H40.947H41.947V24.596H40.947ZM40.947 29.796V30.796H53.947V29.796V28.796H40.947V29.796ZM53.947 29.796H52.947V39H53.947H54.947V29.796H53.947ZM53.947 39V38H29.403V39V40H53.947V39ZM29.403 39H30.403V2.184H29.403H28.403V39H29.403ZM29.403 2.184V3.184H53.947V2.184V1.184H29.403V2.184ZM53.947 2.184H52.947V11.388H53.947H54.947V2.184H53.947ZM53.947 11.388V10.388H40.947V11.388V12.388H53.947V11.388ZM53.2015 10.816L52.3158 10.3516L52.3115 10.3601L53.2015 10.816ZM59.5455 4.212L60.0405 5.08096L60.0487 5.07617L59.5455 4.212ZM77.7455 3.64L77.3083 4.53937L77.3158 4.543L77.3233 4.5465L77.7455 3.64ZM83.8815 8.684L83.0677 9.26527L83.0739 9.27369L83.8815 8.684ZM87.0535 16.328V17.328H88.2479L88.0379 16.1522L87.0535 16.328ZM74.8855 16.328L73.976 16.7438L74.2431 17.328H74.8855V16.328ZM72.4935 13.52L71.9258 14.3432L71.9419 14.3543L71.9584 14.3648L72.4935 13.52ZM64.3815 14.664L63.5952 14.0462L63.5906 14.052L63.5861 14.058L64.3815 14.664ZM64.3815 26.416L63.5861 27.022L63.5906 27.028L63.5952 27.0338L64.3815 26.416ZM72.4935 27.612L73.0415 28.4485L73.0482 28.444L72.4935 27.612ZM74.8855 24.752V23.752H74.2431L73.976 24.3362L74.8855 24.752ZM87.0535 24.752L88.0379 24.9278L88.2479 23.752H87.0535V24.752ZM83.8815 32.396L83.0738 31.8063L83.0678 31.8148L83.8815 32.396ZM77.7455 37.492L78.1725 38.3963L78.1778 38.3937L77.7455 37.492ZM59.5455 36.92L59.0423 37.7842L59.0505 37.7889L59.5455 36.92ZM53.2015 30.264L52.3114 30.7199L52.3159 30.7284L53.2015 30.264ZM51.0175 20.54H52.0175C52.0175 17.0362 52.7173 13.9549 54.0915 11.2719L53.2015 10.816L52.3115 10.3601C50.7737 13.3625 50.0175 16.7638 50.0175 20.54H51.0175ZM53.2015 10.816L54.0871 11.2804C55.4907 8.60387 57.4712 6.5444 60.0405 5.08092L59.5455 4.212L59.0505 3.34308C56.1424 4.9996 53.8937 7.34279 52.3159 10.3516L53.2015 10.816ZM59.5455 4.212L60.0487 5.07617C62.6103 3.58462 65.6545 2.82 69.2175 2.82V1.82V0.819998C65.3618 0.819998 61.9581 1.65005 59.0423 3.34782L59.5455 4.212ZM69.2175 1.82V2.82C72.278 2.82 74.9675 3.40148 77.3083 4.53937L77.7455 3.64L78.1827 2.74063C75.5315 1.45185 72.5357 0.819998 69.2175 0.819998V1.82ZM77.7455 3.64L77.3233 4.5465C79.7041 5.65538 81.6121 7.22737 83.0678 9.26524L83.8815 8.684L84.6952 8.10276C83.0309 5.77263 80.8482 3.98196 78.1677 2.7335L77.7455 3.64ZM83.8815 8.684L83.0739 9.27369C84.5708 11.3238 85.5732 13.7271 86.0691 16.5038L87.0535 16.328L88.0379 16.1522C87.4938 13.1049 86.3816 10.4122 84.6891 8.0943L83.8815 8.684ZM87.0535 16.328V15.328H74.8855V16.328V17.328H87.0535V16.328ZM74.8855 16.328L75.795 15.9122C75.1668 14.538 74.246 13.4463 73.0286 12.6752L72.4935 13.52L71.9584 14.3648C72.821 14.9111 73.4949 15.6913 73.976 16.7438L74.8855 16.328ZM72.4935 13.52L73.0612 12.6968C71.8757 11.8792 70.5129 11.48 69.0095 11.48V12.48V13.48C70.1408 13.48 71.1007 13.7742 71.9258 14.3432L72.4935 13.52ZM69.0095 12.48V11.48C66.7785 11.48 64.9392 12.3357 63.5952 14.0462L64.3815 14.664L65.1678 15.2818C66.1118 14.0803 67.3578 13.48 69.0095 13.48V12.48ZM64.3815 14.664L63.5861 14.058C62.3049 15.7395 61.7175 17.9346 61.7175 20.54H62.7175H63.7175C63.7175 18.2228 64.2395 16.5005 65.1769 15.27L64.3815 14.664ZM62.7175 20.54H61.7175C61.7175 23.1454 62.3049 25.3405 63.5861 27.022L64.3815 26.416L65.1769 25.81C64.2395 24.5795 63.7175 22.8572 63.7175 20.54H62.7175ZM64.3815 26.416L63.5952 27.0338C64.9392 28.7443 66.7785 29.6 69.0095 29.6V28.6V27.6C67.3578 27.6 66.1118 26.9997 65.1678 25.7982L64.3815 26.416ZM69.0095 28.6V29.6C70.5021 29.6 71.8578 29.224 73.0415 28.4485L72.4935 27.612L71.9455 26.7755C71.1186 27.3173 70.1516 27.6 69.0095 27.6V28.6ZM72.4935 27.612L73.0482 28.444C74.2534 27.6406 75.1685 26.5383 75.795 25.1678L74.8855 24.752L73.976 24.3362C73.4932 25.3924 72.8136 26.1967 71.9388 26.7799L72.4935 27.612ZM74.8855 24.752V25.752H87.0535V24.752V23.752H74.8855V24.752ZM87.0535 24.752L86.0691 24.5762C85.5732 27.3529 84.5708 29.7562 83.0739 31.8063L83.8815 32.396L84.6891 32.9857C86.3816 30.6678 87.4938 27.9751 88.0379 24.9278L87.0535 24.752ZM83.8815 32.396L83.0678 31.8148C81.6104 33.8551 79.6989 35.4464 77.3132 36.5903L77.7455 37.492L78.1778 38.3937C80.8534 37.1109 83.0326 35.3049 84.6952 32.9772L83.8815 32.396ZM77.7455 37.492L77.3185 36.5878C74.9753 37.6943 72.2821 38.26 69.2175 38.26V39.26V40.26C72.5316 40.26 75.5237 39.6471 78.1725 38.3962L77.7455 37.492ZM69.2175 39.26V38.26C65.6509 38.26 62.6036 37.5111 60.0405 36.0511L59.5455 36.92L59.0505 37.7889C61.9648 39.4489 65.3655 40.26 69.2175 40.26V39.26ZM59.5455 36.92L60.0487 36.0558C57.4748 34.5571 55.4916 32.478 54.0871 29.7996L53.2015 30.264L52.3159 30.7284C53.8927 33.7354 56.1389 36.0936 59.0423 37.7842L59.5455 36.92ZM53.2015 30.264L54.0915 29.8081C52.7173 27.1251 52.0175 24.0438 52.0175 20.54H51.0175H50.0175C50.0175 24.3162 50.7737 27.7175 52.3115 30.7199L53.2015 30.264ZM119.03 2.184H120.03V1.184H119.03V2.184ZM119.03 39V40H120.03V39H119.03ZM107.486 39H106.486V40H107.486V39ZM107.486 24.648H108.486V23.648H107.486V24.648ZM96.5138 24.648V23.648H95.5138V24.648H96.5138ZM96.5138 39V40H97.5138V39H96.5138ZM84.9698 39H83.9698V40H84.9698V39ZM84.9698 2.184V1.184H83.9698V2.184H84.9698ZM96.5138 2.184H97.5138V1.184H96.5138V2.184ZM96.5138 15.444H95.5138V16.444H96.5138V15.444ZM107.486 15.444V16.444H108.486V15.444H107.486ZM107.486 2.184V1.184H106.486V2.184H107.486ZM119.03 2.184H118.03V39H119.03H120.03V2.184H119.03ZM119.03 39V38H107.486V39V40H119.03V39ZM107.486 39H108.486V24.648H107.486H106.486V39H107.486ZM107.486 24.648V23.648H96.5138V24.648V25.648H107.486V24.648ZM96.5138 24.648H95.5138V39H96.5138H97.5138V24.648H96.5138ZM96.5138 39V38H84.9698V39V40H96.5138V39ZM84.9698 39H85.9698V2.184H84.9698H83.9698V39H84.9698ZM84.9698 2.184V3.184H96.5138V2.184V1.184H84.9698V2.184ZM96.5138 2.184H95.5138V15.444H96.5138H97.5138V2.184H96.5138ZM96.5138 15.444V16.444H107.486V15.444V14.444H96.5138V15.444ZM107.486 15.444H108.486V2.184H107.486H106.486V15.444H107.486ZM107.486 2.184V3.184H119.03V2.184V1.184H107.486V2.184ZM129.256 36.296L128.665 37.1031L128.676 37.1111L129.256 36.296ZM124.628 27.196V26.196H123.565L123.629 27.2568L124.628 27.196ZM136.9 27.196L137.896 27.1143L137.821 26.196H136.9V27.196ZM141.268 29.952L141.822 30.784L141.83 30.7792L141.837 30.7742L141.268 29.952ZM140.54 26.468L140.03 27.3283L140.042 27.3354L140.054 27.3422L140.54 26.468ZM136.172 24.596L135.839 25.539L135.84 25.5396L136.172 24.596ZM130.296 22.152L129.832 23.0383L129.84 23.0424L130.296 22.152ZM126.344 18.668L127.152 18.0798L127.152 18.0798L126.344 18.668ZM124.732 12.792L125.731 12.8065L125.732 12.7992V12.792H124.732ZM126.552 6.708L125.746 6.11592L125.744 6.11883L126.552 6.708ZM131.596 2.86L131.222 1.93254L131.216 1.93469L131.596 2.86ZM149.536 4.68L148.916 5.4649L148.921 5.4688L149.536 4.68ZM153.748 13.468V14.468H154.785L154.747 13.4313L153.748 13.468ZM141.32 13.468L140.32 13.5013L140.352 14.468H141.32V13.468ZM137.576 11.076L138.283 11.7831L138.301 11.7645L138.319 11.745L137.576 11.076ZM138.46 14.508L137.935 15.3597L137.954 15.3713L137.974 15.3822L138.46 14.508ZM142.88 16.432L142.525 17.367L142.53 17.3689L142.88 16.432ZM148.6 18.928L148.128 19.8098L148.136 19.8142L148.6 18.928ZM152.552 22.256L151.763 22.8713L151.763 22.8713L152.552 22.256ZM152.552 33.696L153.399 34.2275L153.403 34.2201L152.552 33.696ZM147.716 37.856L147.286 36.9529L147.716 37.856ZM140.176 39.364V38.364C135.929 38.364 132.505 37.3791 129.835 35.4809L129.256 36.296L128.676 37.1111C131.761 39.3036 135.617 40.364 140.176 40.364V39.364ZM129.256 36.296L129.846 35.489C127.277 33.6095 125.853 30.8696 125.626 27.1352L124.628 27.196L123.629 27.2568C123.887 31.4958 125.548 34.8225 128.665 37.103L129.256 36.296ZM124.628 27.196V28.196H136.9V27.196V26.196H124.628V27.196ZM136.9 27.196L135.903 27.2777C135.999 28.4476 136.316 29.4842 136.983 30.2378C137.679 31.0242 138.635 31.368 139.708 31.368V30.368V29.368C139.081 29.368 138.72 29.1831 138.48 28.9122C138.211 28.6085 137.974 28.059 137.896 27.1143L136.9 27.196ZM139.708 30.368V31.368C140.48 31.368 141.205 31.1953 141.822 30.784L141.268 29.952L140.713 29.1199C140.498 29.2634 140.183 29.368 139.708 29.368V30.368ZM141.268 29.952L141.837 30.7742C142.598 30.2473 142.944 29.4475 142.944 28.548H141.944H140.944C140.944 28.8965 140.839 29.0327 140.698 29.1298L141.268 29.952ZM141.944 28.548H142.944C142.944 27.2275 142.191 26.2413 141.025 25.5938L140.54 26.468L140.054 27.3422C140.761 27.7347 140.944 28.1352 140.944 28.548H141.944ZM140.54 26.468L141.049 25.6077C140.026 25.0014 138.495 24.3515 136.503 23.6524L136.172 24.596L135.84 25.5396C137.8 26.2272 139.181 26.8252 140.03 27.3283L140.54 26.468ZM136.172 24.596L136.504 23.653C134.173 22.8301 132.258 22.0322 130.751 21.2616L130.296 22.152L129.84 23.0424C131.453 23.8665 133.456 24.6979 135.839 25.539L136.172 24.596ZM130.296 22.152L130.759 21.2658C129.383 20.5465 128.18 19.4926 127.152 18.0798L126.344 18.668L125.535 19.2562C126.726 20.894 128.158 22.1629 129.832 23.0382L130.296 22.152ZM126.344 18.668L127.152 18.0798C126.201 16.7715 125.699 15.0408 125.731 12.8065L124.732 12.792L123.732 12.7775C123.695 15.3272 124.268 17.5138 125.535 19.2562L126.344 18.668ZM124.732 12.792H125.732C125.732 10.5764 126.29 8.76351 127.36 7.29717L126.552 6.708L125.744 6.11883C124.386 7.98049 123.732 10.2236 123.732 12.792H124.732ZM126.552 6.708L127.357 7.30007C128.487 5.76203 130.015 4.58832 131.975 3.7853L131.596 2.86L131.216 1.93469C128.946 2.86501 127.112 4.25664 125.746 6.11592L126.552 6.708ZM131.596 2.86L131.97 3.78744C133.983 2.97541 136.263 2.56 138.824 2.56V1.56V0.559999C136.045 0.559999 133.506 1.01126 131.222 1.93256L131.596 2.86ZM138.824 1.56V2.56C143.182 2.56 146.51 3.56532 148.916 5.46488L149.536 4.68L150.155 3.89512C147.292 1.63468 143.478 0.559999 138.824 0.559999V1.56ZM149.536 4.68L148.921 5.4688C151.328 7.34452 152.619 9.98222 152.748 13.5047L153.748 13.468L154.747 13.4313C154.599 9.39645 153.082 6.17548 150.15 3.8912L149.536 4.68ZM153.748 13.468V12.468H141.32V13.468V14.468H153.748V13.468ZM141.32 13.468L142.319 13.4347C142.28 12.276 141.987 11.2117 141.22 10.4992L140.54 11.232L139.859 11.9648C140.062 12.1536 140.289 12.58 140.32 13.5013L141.32 13.468ZM140.54 11.232L141.22 10.4992C140.54 9.86812 139.704 9.556 138.772 9.556V10.556V11.556C139.226 11.556 139.568 11.6945 139.859 11.9648L140.54 11.232ZM138.772 10.556V9.556C138.016 9.556 137.342 9.84013 136.832 10.407L137.576 11.076L138.319 11.745C138.433 11.6185 138.557 11.556 138.772 11.556V10.556ZM137.576 11.076L136.868 10.3689C136.313 10.9247 136.108 11.6654 136.108 12.428H137.108H138.108C138.108 12.012 138.214 11.8513 138.283 11.7831L137.576 11.076ZM137.108 12.428H136.108C136.108 13.7031 136.83 14.6796 137.935 15.3597L138.46 14.508L138.984 13.6563C138.286 13.227 138.108 12.8169 138.108 12.428H137.108ZM138.46 14.508L137.974 15.3822C138.976 15.9387 140.505 16.6007 142.525 17.367L142.88 16.432L143.234 15.497C141.233 14.738 139.815 14.1173 138.945 13.6338L138.46 14.508ZM142.88 16.432L142.53 17.3689C144.828 18.2264 146.69 19.0408 148.128 19.8098L148.6 18.928L149.071 18.0462C147.528 17.2206 145.576 16.3709 143.229 15.4951L142.88 16.432ZM148.6 18.928L148.136 19.8142C149.529 20.5423 150.737 21.5569 151.763 22.8713L152.552 22.256L153.34 21.6407C152.147 20.1124 150.721 18.9083 149.063 18.0418L148.6 18.928ZM152.552 22.256L151.763 22.8713C152.71 24.0848 153.216 25.6413 153.216 27.612H154.216H155.216C155.216 25.2841 154.611 23.2698 153.34 21.6407L152.552 22.256ZM154.216 27.612H153.216C153.216 29.6927 152.706 31.5371 151.7 33.1719L152.552 33.696L153.403 34.2201C154.616 32.2495 155.216 30.0379 155.216 27.612H154.216ZM152.552 33.696L151.704 33.1645C150.708 34.7523 149.251 36.0189 147.286 36.9529L147.716 37.856L148.145 38.7591C150.41 37.6824 152.176 36.1757 153.399 34.2275L152.552 33.696ZM147.716 37.856L147.286 36.9529C145.334 37.8808 142.974 38.364 140.176 38.364V39.364V40.364C143.201 40.364 145.868 39.8418 148.145 38.7591L147.716 37.856ZM180.944 2.184H181.944V1.184H180.944V2.184ZM180.944 11.336V12.336H181.944V11.336H180.944ZM171.168 11.336V10.336H170.168V11.336H171.168ZM171.168 39V40H172.168V39H171.168ZM159.624 39H158.624V40H159.624V39ZM159.624 11.336H160.624V10.336H159.624V11.336ZM149.952 11.336H148.952V12.336H149.952V11.336ZM149.952 2.184V1.184H148.952V2.184H149.952ZM180.944 2.184H179.944V11.336H180.944H181.944V2.184H180.944ZM180.944 11.336V10.336H171.168V11.336V12.336H180.944V11.336ZM171.168 11.336H170.168V39H171.168H172.168V11.336H171.168ZM171.168 39V38H159.624V39V40H171.168V39ZM159.624 39H160.624V11.336H159.624H158.624V39H159.624ZM159.624 11.336V10.336H149.952V11.336V12.336H159.624V11.336ZM149.952 11.336H150.952V2.184H149.952H148.952V11.336H149.952ZM149.952 2.184V3.184H180.944V2.184V1.184H149.952V2.184ZM193.643 33.436L194.593 33.1251L194.368 32.436H193.643V33.436ZM181.371 33.436V32.436H180.646L180.42 33.1251L181.371 33.436ZM179.551 39V40H180.276L180.501 39.3109L179.551 39ZM167.435 39L166.495 38.6564L166.004 40H167.435V39ZM180.903 2.184V1.184H180.204L179.963 1.84045L180.903 2.184ZM194.215 2.184L195.154 1.84162L194.914 1.184H194.215V2.184ZM207.631 39V40H209.059L208.57 38.6576L207.631 39ZM195.463 39L194.512 39.3109L194.738 40H195.463V39ZM190.835 24.752V25.752H192.211L191.786 24.443L190.835 24.752ZM187.507 14.508L188.458 14.199L187.507 11.2715L186.555 14.199L187.507 14.508ZM184.179 24.752L183.227 24.443L182.802 25.752H184.179V24.752ZM193.643 33.436V32.436H181.371V33.436V34.436H193.643V33.436ZM181.371 33.436L180.42 33.1251L178.6 38.6891L179.551 39L180.501 39.3109L182.321 33.7469L181.371 33.436ZM179.551 39V38H167.435V39V40H179.551V39ZM167.435 39L168.374 39.3436L181.842 2.52755L180.903 2.184L179.963 1.84045L166.495 38.6564L167.435 39ZM180.903 2.184V3.184H194.215V2.184V1.184H180.903V2.184ZM194.215 2.184L193.275 2.52638L206.691 39.3424L207.631 39L208.57 38.6576L195.154 1.84162L194.215 2.184ZM207.631 39V38H195.463V39V40H207.631V39ZM195.463 39L196.413 38.6891L194.593 33.1251L193.643 33.436L192.692 33.7469L194.512 39.3109L195.463 39ZM190.835 24.752L191.786 24.443L188.458 14.199L187.507 14.508L186.555 14.817L189.883 25.061L190.835 24.752ZM187.507 14.508L186.555 14.199L183.227 24.443L184.179 24.752L185.13 25.061L188.458 14.817L187.507 14.508ZM184.179 24.752V25.752H190.835V24.752V23.752H184.179V24.752ZM203.597 10.816L202.712 10.3516L202.707 10.3601L203.597 10.816ZM209.941 4.212L210.436 5.08096L210.444 5.07617L209.941 4.212ZM228.141 3.64L227.704 4.53937L227.712 4.543L227.719 4.5465L228.141 3.64ZM234.277 8.684L233.464 9.26527L233.47 9.27369L234.277 8.684ZM237.449 16.328V17.328H238.644L238.434 16.1522L237.449 16.328ZM225.281 16.328L224.372 16.7438L224.639 17.328H225.281V16.328ZM222.889 13.52L222.322 14.3432L222.338 14.3543L222.354 14.3648L222.889 13.52ZM214.777 14.664L213.991 14.0462L213.986 14.052L213.982 14.058L214.777 14.664ZM214.777 26.416L213.982 27.022L213.986 27.028L213.991 27.0338L214.777 26.416ZM222.889 27.612L223.437 28.4485L223.444 28.444L222.889 27.612ZM225.281 24.752V23.752H224.639L224.372 24.3362L225.281 24.752ZM237.449 24.752L238.434 24.9278L238.644 23.752H237.449V24.752ZM234.277 32.396L233.47 31.8063L233.464 31.8148L234.277 32.396ZM228.141 37.492L228.568 38.3963L228.574 38.3937L228.141 37.492ZM209.941 36.92L209.438 37.7842L209.446 37.7889L209.941 36.92ZM203.597 30.264L202.707 30.7199L202.712 30.7284L203.597 30.264ZM201.413 20.54H202.413C202.413 17.0362 203.113 13.9549 204.487 11.2719L203.597 10.816L202.707 10.3601C201.169 13.3625 200.413 16.7638 200.413 20.54H201.413ZM203.597 10.816L204.483 11.2804C205.886 8.60387 207.867 6.5444 210.436 5.08092L209.941 4.212L209.446 3.34308C206.538 4.9996 204.289 7.34279 202.712 10.3516L203.597 10.816ZM209.941 4.212L210.444 5.07617C213.006 3.58462 216.05 2.82 219.613 2.82V1.82V0.819998C215.758 0.819998 212.354 1.65005 209.438 3.34782L209.941 4.212ZM219.613 1.82V2.82C222.674 2.82 225.363 3.40148 227.704 4.53937L228.141 3.64L228.578 2.74063C225.927 1.45185 222.931 0.819998 219.613 0.819998V1.82ZM228.141 3.64L227.719 4.5465C230.1 5.65538 232.008 7.22737 233.464 9.26524L234.277 8.684L235.091 8.10276C233.427 5.77263 231.244 3.98196 228.563 2.7335L228.141 3.64ZM234.277 8.684L233.47 9.27369C234.967 11.3238 235.969 13.7271 236.465 16.5038L237.449 16.328L238.434 16.1522C237.89 13.1049 236.777 10.4122 235.085 8.0943L234.277 8.684ZM237.449 16.328V15.328H225.281V16.328V17.328H237.449V16.328ZM225.281 16.328L226.191 15.9122C225.563 14.538 224.642 13.4463 223.424 12.6752L222.889 13.52L222.354 14.3648C223.217 14.9111 223.891 15.6913 224.372 16.7438L225.281 16.328ZM222.889 13.52L223.457 12.6968C222.271 11.8792 220.909 11.48 219.405 11.48V12.48V13.48C220.537 13.48 221.496 13.7742 222.322 14.3432L222.889 13.52ZM219.405 12.48V11.48C217.174 11.48 215.335 12.3357 213.991 14.0462L214.777 14.664L215.564 15.2818C216.508 14.0803 217.754 13.48 219.405 13.48V12.48ZM214.777 14.664L213.982 14.058C212.701 15.7395 212.113 17.9346 212.113 20.54H213.113H214.113C214.113 18.2228 214.635 16.5005 215.573 15.27L214.777 14.664ZM213.113 20.54H212.113C212.113 23.1454 212.701 25.3405 213.982 27.022L214.777 26.416L215.573 25.81C214.635 24.5795 214.113 22.8572 214.113 20.54H213.113ZM214.777 26.416L213.991 27.0338C215.335 28.7443 217.174 29.6 219.405 29.6V28.6V27.6C217.754 27.6 216.508 26.9997 215.564 25.7982L214.777 26.416ZM219.405 28.6V29.6C220.898 29.6 222.254 29.224 223.437 28.4485L222.889 27.612L222.341 26.7755C221.514 27.3173 220.547 27.6 219.405 27.6V28.6ZM222.889 27.612L223.444 28.444C224.649 27.6406 225.564 26.5383 226.191 25.1678L225.281 24.752L224.372 24.3362C223.889 25.3924 223.209 26.1967 222.335 26.7799L222.889 27.612ZM225.281 24.752V25.752H237.449V24.752V23.752H225.281V24.752ZM237.449 24.752L236.465 24.5762C235.969 27.3529 234.967 29.7562 233.47 31.8063L234.277 32.396L235.085 32.9857C236.777 30.6678 237.89 27.9751 238.434 24.9278L237.449 24.752ZM234.277 32.396L233.464 31.8148C232.006 33.8551 230.095 35.4464 227.709 36.5903L228.141 37.492L228.574 38.3937C231.249 37.1109 233.428 35.3049 235.091 32.9772L234.277 32.396ZM228.141 37.492L227.714 36.5878C225.371 37.6943 222.678 38.26 219.613 38.26V39.26V40.26C222.927 40.26 225.92 39.6471 228.568 38.3962L228.141 37.492ZM219.613 39.26V38.26C216.047 38.26 212.999 37.5111 210.436 36.0511L209.941 36.92L209.446 37.7889C212.361 39.4489 215.761 40.26 219.613 40.26V39.26ZM209.941 36.92L210.444 36.0558C207.871 34.5571 205.887 32.478 204.483 29.7996L203.597 30.264L202.712 30.7284C204.288 33.7354 206.535 36.0936 209.438 37.7842L209.941 36.92ZM203.597 30.264L204.487 29.8081C203.113 27.1251 202.413 24.0438 202.413 20.54H201.413H200.413C200.413 24.3162 201.169 27.7175 202.707 30.7199L203.597 30.264ZM257.622 39L256.791 39.5572L257.088 40H257.622V39ZM246.91 23.036L247.74 22.4788L245.91 19.751V23.036H246.91ZM246.91 39V40H247.91V39H246.91ZM235.366 39H234.366V40H235.366V39ZM235.366 2.184V1.184H234.366V2.184H235.366ZM246.91 2.184H247.91V1.184H246.91V2.184ZM246.91 17.68H245.91V20.9242L247.736 18.243L246.91 17.68ZM257.466 2.184V1.184H256.937L256.639 1.62101L257.466 2.184ZM270.518 2.184L271.329 2.76818L272.469 1.184H270.518V2.184ZM257.83 19.812L257.018 19.2278L256.602 19.8058L257.012 20.388L257.83 19.812ZM271.35 39V40H273.278L272.167 38.424L271.35 39ZM257.622 39L258.452 38.4428L247.74 22.4788L246.91 23.036L246.079 23.5932L256.791 39.5572L257.622 39ZM246.91 23.036H245.91V39H246.91H247.91V23.036H246.91ZM246.91 39V38H235.366V39V40H246.91V39ZM235.366 39H236.366V2.184H235.366H234.366V39H235.366ZM235.366 2.184V3.184H246.91V2.184V1.184H235.366V2.184ZM246.91 2.184H245.91V17.68H246.91H247.91V2.184H246.91ZM246.91 17.68L247.736 18.243L258.292 2.74699L257.466 2.184L256.639 1.62101L246.083 17.117L246.91 17.68ZM257.466 2.184V3.184H270.518V2.184V1.184H257.466V2.184ZM270.518 2.184L269.706 1.59982L257.018 19.2278L257.83 19.812L258.641 20.3962L271.329 2.76818L270.518 2.184ZM257.83 19.812L257.012 20.388L270.532 39.576L271.35 39L272.167 38.424L258.647 19.236L257.83 19.812ZM271.35 39V38H257.622V39V40H271.35V39Z" fill="#CC0000" mask="url(#path-1-outside-1_186_301)"/>
</g>
<defs>
<clipPath id="clip0_186_301">
<rect width="274" height="41" fill="white"/>
</clipPath>
</defs>
</svg>
