<svg width="311" height="41" viewBox="0 0 311 41" fill="none" xmlns="http://www.w3.org/2000/svg">
<g clip-path="url(#clip0_613_157)">
<mask id="path-1-outside-1_613_157" maskUnits="userSpaceOnUse" x="0" y="0" width="311" height="41" fill="black">
<rect fill="white" width="311" height="41"/>
<path d="M45.852 2.184V39H34.36V20.644L28.692 39H18.812L13.144 20.644V39H1.6V2.184H15.744L23.856 24.284L31.76 2.184H45.852ZM80.1809 2.184L66.9729 27.82V39H55.4289V27.82L42.2209 2.184H55.4289L61.3049 15.236L67.1809 2.184H80.1809ZM114.461 14.82C114.461 17.1427 113.924 19.2573 112.849 21.164C111.774 23.036 110.18 24.5267 108.065 25.636C105.985 26.7453 103.454 27.3 100.473 27.3H95.8971V39H84.3531V2.184H100.473C104.98 2.184 108.429 3.328 110.821 5.616C113.248 7.904 114.461 10.972 114.461 14.82ZM99.1731 18.2C101.565 18.2 102.761 17.0733 102.761 14.82C102.761 12.5667 101.565 11.44 99.1731 11.44H95.8971V18.2H99.1731ZM130.395 39L123.479 25.792H123.427V39H111.883V2.184H129.043C132.024 2.184 134.572 2.72133 136.687 3.796C138.801 4.836 140.379 6.27467 141.419 8.112C142.493 9.91466 143.031 11.96 143.031 14.248C143.031 16.7093 142.337 18.8933 140.951 20.8C139.599 22.7067 137.64 24.076 135.075 24.908L143.083 39H130.395ZM123.427 18.096H128.003C129.112 18.096 129.944 17.8533 130.499 17.368C131.053 16.848 131.331 16.0507 131.331 14.976C131.331 14.0053 131.036 13.2427 130.447 12.688C129.892 12.1333 129.077 11.856 128.003 11.856H123.427V18.096ZM158.419 39.364C154.952 39.364 151.763 38.5493 148.851 36.92C145.973 35.2907 143.685 33.0373 141.987 30.16C140.288 27.2827 139.439 24.0413 139.439 20.436C139.439 16.8307 140.288 13.5893 141.987 10.712C143.685 7.83466 145.973 5.59866 148.851 4.004C151.763 2.37467 154.952 1.56 158.419 1.56C161.885 1.56 165.057 2.37467 167.935 4.004C170.812 5.59866 173.083 7.83466 174.747 10.712C176.445 13.5893 177.295 16.8307 177.295 20.436C177.295 24.0413 176.445 27.2827 174.747 30.16C173.083 33.0373 170.795 35.2907 167.883 36.92C165.005 38.5493 161.851 39.364 158.419 39.364ZM158.419 28.6C160.707 28.6 162.475 27.872 163.723 26.416C164.971 24.9253 165.595 22.932 165.595 20.436C165.595 17.9053 164.971 15.912 163.723 14.456C162.475 12.9653 160.707 12.22 158.419 12.22C156.096 12.22 154.311 12.9653 153.063 14.456C151.815 15.912 151.191 17.9053 151.191 20.436C151.191 22.932 151.815 24.9253 153.063 26.416C154.311 27.872 156.096 28.6 158.419 28.6ZM200.907 2.184V25.948C200.907 30.3507 199.746 33.696 197.423 35.984C195.135 38.2373 191.911 39.364 187.751 39.364C183.279 39.364 179.726 38.1333 177.091 35.672C174.456 33.2107 173.139 29.6227 173.139 24.908H184.527C184.527 26.3987 184.77 27.456 185.255 28.08C185.74 28.6693 186.399 28.964 187.231 28.964C187.924 28.964 188.462 28.7387 188.843 28.288C189.224 27.8373 189.415 27.0573 189.415 25.948V2.184H200.907ZM211.195 11.388V15.912H222.635V24.596H211.195V29.796H224.195V39H199.651V2.184H224.195V11.388H211.195ZM221.265 20.54C221.265 16.9 221.993 13.6587 223.449 10.816C224.94 7.97333 227.055 5.772 229.793 4.212C232.532 2.61733 235.756 1.82 239.465 1.82C242.655 1.82 245.497 2.42667 247.993 3.64C250.524 4.81867 252.569 6.5 254.129 8.684C255.724 10.868 256.781 13.416 257.301 16.328H245.133C244.579 15.1147 243.781 14.1787 242.741 13.52C241.736 12.8267 240.575 12.48 239.257 12.48C237.316 12.48 235.773 13.208 234.629 14.664C233.52 16.12 232.965 18.0787 232.965 20.54C232.965 23.0013 233.52 24.96 234.629 26.416C235.773 27.872 237.316 28.6 239.257 28.6C240.575 28.6 241.736 28.2707 242.741 27.612C243.781 26.9187 244.579 25.9653 245.133 24.752H257.301C256.781 27.664 255.724 30.212 254.129 32.396C252.569 34.58 250.524 36.2787 247.993 37.492C245.497 38.6707 242.655 39.26 239.465 39.26C235.756 39.26 232.532 38.48 229.793 36.92C227.055 35.3253 224.94 33.1067 223.449 30.264C221.993 27.4213 221.265 24.18 221.265 20.54ZM284.13 2.184V11.336H274.354V39H262.81V11.336H253.138V2.184H284.13ZM295.425 39.364C291.022 39.364 287.382 38.3413 284.505 36.296C281.662 34.216 280.119 31.1827 279.877 27.196H292.149C292.322 29.3107 293.258 30.368 294.957 30.368C295.581 30.368 296.101 30.2293 296.517 29.952C296.967 29.64 297.193 29.172 297.193 28.548C297.193 27.6813 296.725 26.988 295.789 26.468C294.853 25.9133 293.397 25.2893 291.421 24.596C289.063 23.764 287.105 22.9493 285.545 22.152C284.019 21.3547 282.702 20.1933 281.593 18.668C280.483 17.1427 279.946 15.184 279.981 12.792C279.981 10.4 280.587 8.372 281.801 6.708C283.049 5.00933 284.73 3.72667 286.845 2.86C288.994 1.99333 291.403 1.56 294.073 1.56C298.579 1.56 302.15 2.6 304.785 4.68C307.454 6.76 308.858 9.68933 308.997 13.468H296.569C296.534 12.428 296.274 11.6827 295.789 11.232C295.303 10.7813 294.714 10.556 294.021 10.556C293.535 10.556 293.137 10.7293 292.825 11.076C292.513 11.388 292.357 11.8387 292.357 12.428C292.357 13.26 292.807 13.9533 293.709 14.508C294.645 15.028 296.118 15.6693 298.129 16.432C300.451 17.2987 302.358 18.1307 303.849 18.928C305.374 19.7253 306.691 20.8347 307.801 22.256C308.91 23.6773 309.465 25.4627 309.465 27.612C309.465 29.8653 308.91 31.8933 307.801 33.696C306.691 35.464 305.079 36.8507 302.965 37.856C300.85 38.8613 298.337 39.364 295.425 39.364Z"/>
</mask>
<path d="M45.852 2.184V39H34.36V20.644L28.692 39H18.812L13.144 20.644V39H1.6V2.184H15.744L23.856 24.284L31.76 2.184H45.852ZM80.1809 2.184L66.9729 27.82V39H55.4289V27.82L42.2209 2.184H55.4289L61.3049 15.236L67.1809 2.184H80.1809ZM114.461 14.82C114.461 17.1427 113.924 19.2573 112.849 21.164C111.774 23.036 110.18 24.5267 108.065 25.636C105.985 26.7453 103.454 27.3 100.473 27.3H95.8971V39H84.3531V2.184H100.473C104.98 2.184 108.429 3.328 110.821 5.616C113.248 7.904 114.461 10.972 114.461 14.82ZM99.1731 18.2C101.565 18.2 102.761 17.0733 102.761 14.82C102.761 12.5667 101.565 11.44 99.1731 11.44H95.8971V18.2H99.1731ZM130.395 39L123.479 25.792H123.427V39H111.883V2.184H129.043C132.024 2.184 134.572 2.72133 136.687 3.796C138.801 4.836 140.379 6.27467 141.419 8.112C142.493 9.91466 143.031 11.96 143.031 14.248C143.031 16.7093 142.337 18.8933 140.951 20.8C139.599 22.7067 137.64 24.076 135.075 24.908L143.083 39H130.395ZM123.427 18.096H128.003C129.112 18.096 129.944 17.8533 130.499 17.368C131.053 16.848 131.331 16.0507 131.331 14.976C131.331 14.0053 131.036 13.2427 130.447 12.688C129.892 12.1333 129.077 11.856 128.003 11.856H123.427V18.096ZM158.419 39.364C154.952 39.364 151.763 38.5493 148.851 36.92C145.973 35.2907 143.685 33.0373 141.987 30.16C140.288 27.2827 139.439 24.0413 139.439 20.436C139.439 16.8307 140.288 13.5893 141.987 10.712C143.685 7.83466 145.973 5.59866 148.851 4.004C151.763 2.37467 154.952 1.56 158.419 1.56C161.885 1.56 165.057 2.37467 167.935 4.004C170.812 5.59866 173.083 7.83466 174.747 10.712C176.445 13.5893 177.295 16.8307 177.295 20.436C177.295 24.0413 176.445 27.2827 174.747 30.16C173.083 33.0373 170.795 35.2907 167.883 36.92C165.005 38.5493 161.851 39.364 158.419 39.364ZM158.419 28.6C160.707 28.6 162.475 27.872 163.723 26.416C164.971 24.9253 165.595 22.932 165.595 20.436C165.595 17.9053 164.971 15.912 163.723 14.456C162.475 12.9653 160.707 12.22 158.419 12.22C156.096 12.22 154.311 12.9653 153.063 14.456C151.815 15.912 151.191 17.9053 151.191 20.436C151.191 22.932 151.815 24.9253 153.063 26.416C154.311 27.872 156.096 28.6 158.419 28.6ZM200.907 2.184V25.948C200.907 30.3507 199.746 33.696 197.423 35.984C195.135 38.2373 191.911 39.364 187.751 39.364C183.279 39.364 179.726 38.1333 177.091 35.672C174.456 33.2107 173.139 29.6227 173.139 24.908H184.527C184.527 26.3987 184.77 27.456 185.255 28.08C185.74 28.6693 186.399 28.964 187.231 28.964C187.924 28.964 188.462 28.7387 188.843 28.288C189.224 27.8373 189.415 27.0573 189.415 25.948V2.184H200.907ZM211.195 11.388V15.912H222.635V24.596H211.195V29.796H224.195V39H199.651V2.184H224.195V11.388H211.195ZM221.265 20.54C221.265 16.9 221.993 13.6587 223.449 10.816C224.94 7.97333 227.055 5.772 229.793 4.212C232.532 2.61733 235.756 1.82 239.465 1.82C242.655 1.82 245.497 2.42667 247.993 3.64C250.524 4.81867 252.569 6.5 254.129 8.684C255.724 10.868 256.781 13.416 257.301 16.328H245.133C244.579 15.1147 243.781 14.1787 242.741 13.52C241.736 12.8267 240.575 12.48 239.257 12.48C237.316 12.48 235.773 13.208 234.629 14.664C233.52 16.12 232.965 18.0787 232.965 20.54C232.965 23.0013 233.52 24.96 234.629 26.416C235.773 27.872 237.316 28.6 239.257 28.6C240.575 28.6 241.736 28.2707 242.741 27.612C243.781 26.9187 244.579 25.9653 245.133 24.752H257.301C256.781 27.664 255.724 30.212 254.129 32.396C252.569 34.58 250.524 36.2787 247.993 37.492C245.497 38.6707 242.655 39.26 239.465 39.26C235.756 39.26 232.532 38.48 229.793 36.92C227.055 35.3253 224.94 33.1067 223.449 30.264C221.993 27.4213 221.265 24.18 221.265 20.54ZM284.13 2.184V11.336H274.354V39H262.81V11.336H253.138V2.184H284.13ZM295.425 39.364C291.022 39.364 287.382 38.3413 284.505 36.296C281.662 34.216 280.119 31.1827 279.877 27.196H292.149C292.322 29.3107 293.258 30.368 294.957 30.368C295.581 30.368 296.101 30.2293 296.517 29.952C296.967 29.64 297.193 29.172 297.193 28.548C297.193 27.6813 296.725 26.988 295.789 26.468C294.853 25.9133 293.397 25.2893 291.421 24.596C289.063 23.764 287.105 22.9493 285.545 22.152C284.019 21.3547 282.702 20.1933 281.593 18.668C280.483 17.1427 279.946 15.184 279.981 12.792C279.981 10.4 280.587 8.372 281.801 6.708C283.049 5.00933 284.73 3.72667 286.845 2.86C288.994 1.99333 291.403 1.56 294.073 1.56C298.579 1.56 302.15 2.6 304.785 4.68C307.454 6.76 308.858 9.68933 308.997 13.468H296.569C296.534 12.428 296.274 11.6827 295.789 11.232C295.303 10.7813 294.714 10.556 294.021 10.556C293.535 10.556 293.137 10.7293 292.825 11.076C292.513 11.388 292.357 11.8387 292.357 12.428C292.357 13.26 292.807 13.9533 293.709 14.508C294.645 15.028 296.118 15.6693 298.129 16.432C300.451 17.2987 302.358 18.1307 303.849 18.928C305.374 19.7253 306.691 20.8347 307.801 22.256C308.91 23.6773 309.465 25.4627 309.465 27.612C309.465 29.8653 308.91 31.8933 307.801 33.696C306.691 35.464 305.079 36.8507 302.965 37.856C300.85 38.8613 298.337 39.364 295.425 39.364Z" fill="white"/>
<path d="M45.852 2.184H46.852V1.184H45.852V2.184ZM45.852 39V40H46.852V39H45.852ZM34.36 39H33.36V40H34.36V39ZM34.36 20.644H35.36L33.4045 20.349L34.36 20.644ZM28.692 39V40H29.4298L29.6475 39.295L28.692 39ZM18.812 39L17.8565 39.295L18.0742 40H18.812V39ZM13.144 20.644L14.0995 20.349L12.144 20.644H13.144ZM13.144 39V40H14.144V39H13.144ZM1.6 39H0.6V40H1.6V39ZM1.6 2.184V1.184H0.6V2.184H1.6ZM15.744 2.184L16.6828 1.83942L16.4422 1.184H15.744V2.184ZM23.856 24.284L22.9172 24.6286L23.8682 27.2194L24.7976 24.6208L23.856 24.284ZM31.76 2.184V1.184H31.0556L30.8184 1.84724L31.76 2.184ZM45.852 2.184H44.852V39H45.852H46.852V2.184H45.852ZM45.852 39V38H34.36V39V40H45.852V39ZM34.36 39H35.36V20.644H34.36H33.36V39H34.36ZM34.36 20.644L33.4045 20.349L27.7365 38.705L28.692 39L29.6475 39.295L35.3155 20.939L34.36 20.644ZM28.692 39V38H18.812V39V40H28.692V39ZM18.812 39L19.7675 38.705L14.0995 20.349L13.144 20.644L12.1885 20.939L17.8565 39.295L18.812 39ZM13.144 20.644H12.144V39H13.144H14.144V20.644H13.144ZM13.144 39V38H1.6V39V40H13.144V39ZM1.6 39H2.6V2.184H1.6H0.6V39H1.6ZM1.6 2.184V3.184H15.744V2.184V1.184H1.6V2.184ZM15.744 2.184L14.8052 2.52858L22.9172 24.6286L23.856 24.284L24.7948 23.9394L16.6828 1.83942L15.744 2.184ZM23.856 24.284L24.7976 24.6208L32.7016 2.52076L31.76 2.184L30.8184 1.84724L22.9144 23.9472L23.856 24.284ZM31.76 2.184V3.184H45.852V2.184V1.184H31.76V2.184ZM80.1809 2.184L81.0699 2.642L81.8211 1.184H80.1809V2.184ZM66.9729 27.82L66.084 27.362L65.9729 27.5775V27.82H66.9729ZM66.9729 39V40H67.9729V39H66.9729ZM55.4289 39H54.4289V40H55.4289V39ZM55.4289 27.82H56.4289V27.5775L56.3179 27.362L55.4289 27.82ZM42.2209 2.184V1.184H40.5808L41.332 2.642L42.2209 2.184ZM55.4289 2.184L56.3408 1.77348L56.0754 1.184H55.4289V2.184ZM61.3049 15.236L60.3931 15.6465L61.3049 17.672L62.2168 15.6465L61.3049 15.236ZM67.1809 2.184V1.184H66.5345L66.2691 1.77348L67.1809 2.184ZM80.1809 2.184L79.292 1.726L66.084 27.362L66.9729 27.82L67.8619 28.278L81.0699 2.642L80.1809 2.184ZM66.9729 27.82H65.9729V39H66.9729H67.9729V27.82H66.9729ZM66.9729 39V38H55.4289V39V40H66.9729V39ZM55.4289 39H56.4289V27.82H55.4289H54.4289V39H55.4289ZM55.4289 27.82L56.3179 27.362L43.1099 1.726L42.2209 2.184L41.332 2.642L54.54 28.278L55.4289 27.82ZM42.2209 2.184V3.184H55.4289V2.184V1.184H42.2209V2.184ZM55.4289 2.184L54.5171 2.59452L60.3931 15.6465L61.3049 15.236L62.2168 14.8255L56.3408 1.77348L55.4289 2.184ZM61.3049 15.236L62.2168 15.6465L68.0928 2.59452L67.1809 2.184L66.2691 1.77348L60.3931 14.8255L61.3049 15.236ZM67.1809 2.184V3.184H80.1809V2.184V1.184H67.1809V2.184ZM112.849 21.164L113.716 21.6619L113.72 21.655L112.849 21.164ZM108.065 25.636L107.601 24.7504L107.595 24.7536L108.065 25.636ZM95.8971 27.3V26.3H94.8971V27.3H95.8971ZM95.8971 39V40H96.8971V39H95.8971ZM84.3531 39H83.3531V40H84.3531V39ZM84.3531 2.184V1.184H83.3531V2.184H84.3531ZM110.821 5.616L110.13 6.33866L110.135 6.34359L110.821 5.616ZM95.8971 11.44V10.44H94.8971V11.44H95.8971ZM95.8971 18.2H94.8971V19.2H95.8971V18.2ZM114.461 14.82H113.461C113.461 16.9815 112.963 18.9254 111.978 20.673L112.849 21.164L113.72 21.655C114.885 19.5893 115.461 17.3038 115.461 14.82H114.461ZM112.849 21.164L111.982 20.6661C111.012 22.356 109.565 23.7197 107.601 24.7505L108.065 25.636L108.53 26.5215C110.794 25.3336 112.537 23.716 113.716 21.6619L112.849 21.164ZM108.065 25.636L107.595 24.7536C105.693 25.768 103.333 26.3 100.473 26.3V27.3V28.3C103.576 28.3 106.278 27.7227 108.536 26.5184L108.065 25.636ZM100.473 27.3V26.3H95.8971V27.3V28.3H100.473V27.3ZM95.8971 27.3H94.8971V39H95.8971H96.8971V27.3H95.8971ZM95.8971 39V38H84.3531V39V40H95.8971V39ZM84.3531 39H85.3531V2.184H84.3531H83.3531V39H84.3531ZM84.3531 2.184V3.184H100.473V2.184V1.184H84.3531V2.184ZM100.473 2.184V3.184C104.817 3.184 107.983 4.28488 110.13 6.33864L110.821 5.616L111.512 4.89336C108.875 2.37112 105.143 1.184 100.473 1.184V2.184ZM110.821 5.616L110.135 6.34359C112.33 8.41306 113.461 11.2011 113.461 14.82H114.461H115.461C115.461 10.7429 114.166 7.39493 111.507 4.88841L110.821 5.616ZM99.1731 18.2V19.2C100.509 19.2 101.697 18.8866 102.55 18.0829C103.414 17.2687 103.761 16.1166 103.761 14.82H102.761H101.761C101.761 15.7767 101.51 16.3147 101.178 16.6271C100.836 16.9501 100.229 17.2 99.1731 17.2V18.2ZM102.761 14.82H103.761C103.761 13.5234 103.414 12.3713 102.55 11.5571C101.697 10.7534 100.509 10.44 99.1731 10.44V11.44V12.44C100.229 12.44 100.836 12.6899 101.178 13.0129C101.51 13.3253 101.761 13.8632 101.761 14.82H102.761ZM99.1731 11.44V10.44H95.8971V11.44V12.44H99.1731V11.44ZM95.8971 11.44H94.8971V18.2H95.8971H96.8971V11.44H95.8971ZM95.8971 18.2V19.2H99.1731V18.2V17.2H95.8971V18.2ZM130.395 39L129.509 39.4639L129.789 40H130.395V39ZM123.479 25.792L124.365 25.3281L124.084 24.792H123.479V25.792ZM123.427 25.792V24.792H122.427V25.792H123.427ZM123.427 39V40H124.427V39H123.427ZM111.883 39H110.883V40H111.883V39ZM111.883 2.184V1.184H110.883V2.184H111.883ZM136.687 3.796L136.234 4.68756L136.245 4.69335L136.687 3.796ZM141.419 8.112L140.548 8.6046L140.554 8.61439L140.56 8.62406L141.419 8.112ZM140.951 20.8L140.142 20.2118L140.135 20.2216L140.951 20.8ZM135.075 24.908L134.766 23.9568L133.599 24.3353L134.205 25.4021L135.075 24.908ZM143.083 39V40H144.801L143.952 38.5059L143.083 39ZM123.427 18.096H122.427V19.096H123.427V18.096ZM130.499 17.368L131.157 18.1206L131.17 18.1093L131.183 18.0975L130.499 17.368ZM130.447 12.688L129.74 13.3951L129.75 13.4058L129.761 13.4162L130.447 12.688ZM123.427 11.856V10.856H122.427V11.856H123.427ZM130.395 39L131.281 38.5361L124.365 25.3281L123.479 25.792L122.593 26.2559L129.509 39.4639L130.395 39ZM123.479 25.792V24.792H123.427V25.792V26.792H123.479V25.792ZM123.427 25.792H122.427V39H123.427H124.427V25.792H123.427ZM123.427 39V38H111.883V39V40H123.427V39ZM111.883 39H112.883V2.184H111.883H110.883V39H111.883ZM111.883 2.184V3.184H129.043V2.184V1.184H111.883V2.184ZM129.043 2.184V3.184C131.906 3.184 134.291 3.70012 136.234 4.68748L136.687 3.796L137.14 2.90451C134.853 1.74255 132.142 1.184 129.043 1.184V2.184ZM136.687 3.796L136.245 4.69335C138.201 5.65534 139.619 6.96224 140.548 8.6046L141.419 8.112L142.289 7.6194C141.139 5.58709 139.401 4.01666 137.128 2.89865L136.687 3.796ZM141.419 8.112L140.56 8.62406C141.534 10.2581 142.031 12.1235 142.031 14.248H143.031H144.031C144.031 11.7965 143.453 9.57127 142.278 7.59993L141.419 8.112ZM143.031 14.248H142.031C142.031 16.5079 141.399 18.4839 140.142 20.2118L140.951 20.8L141.759 21.3882C143.276 19.3027 144.031 16.9108 144.031 14.248H143.031ZM140.951 20.8L140.135 20.2216C138.926 21.9265 137.159 23.1806 134.766 23.9568L135.075 24.908L135.383 25.8592C138.121 24.9714 140.271 23.4869 141.766 21.3784L140.951 20.8ZM135.075 24.908L134.205 25.4021L142.213 39.4941L143.083 39L143.952 38.5059L135.944 24.4139L135.075 24.908ZM143.083 39V38H130.395V39V40H143.083V39ZM123.427 18.096V19.096H128.003V18.096V17.096H123.427V18.096ZM128.003 18.096V19.096C129.236 19.096 130.347 18.8291 131.157 18.1206L130.499 17.368L129.84 16.6154C129.541 16.8775 128.988 17.096 128.003 17.096V18.096ZM130.499 17.368L131.183 18.0975C132.011 17.3212 132.331 16.2103 132.331 14.976H131.331H130.331C130.331 15.891 130.096 16.3748 129.815 16.6385L130.499 17.368ZM131.331 14.976H132.331C132.331 13.789 131.962 12.7406 131.132 11.9598L130.447 12.688L129.761 13.4162C130.11 13.7447 130.331 14.2216 130.331 14.976H131.331ZM130.447 12.688L131.154 11.9809C130.351 11.178 129.242 10.856 128.003 10.856V11.856V12.856C128.913 12.856 129.433 13.0887 129.74 13.3951L130.447 12.688ZM128.003 11.856V10.856H123.427V11.856V12.856H128.003V11.856ZM123.427 11.856H122.427V18.096H123.427H124.427V11.856H123.427ZM148.851 36.92L148.358 37.7902L148.362 37.7927L148.851 36.92ZM141.987 30.16L141.125 30.6684L141.125 30.6684L141.987 30.16ZM148.851 4.004L149.335 4.87866L149.339 4.87668L148.851 4.004ZM167.935 4.004L167.442 4.87421L167.45 4.87865L167.935 4.004ZM174.747 10.712L173.881 11.2126L173.885 11.2204L174.747 10.712ZM174.747 30.16L173.885 29.6516L173.881 29.6594L174.747 30.16ZM167.883 36.92L167.394 36.0473L167.39 36.0498L167.883 36.92ZM163.723 26.416L164.482 27.0668L164.489 27.0579L163.723 26.416ZM163.723 14.456L162.956 15.098L162.963 15.1068L163.723 14.456ZM153.063 14.456L153.822 15.1068L153.829 15.0979L153.063 14.456ZM153.063 26.416L152.296 27.058L152.303 27.0668L153.063 26.416ZM158.419 39.364V38.364C155.116 38.364 152.096 37.5899 149.339 36.0473L148.851 36.92L148.362 37.7927C151.429 39.5088 154.788 40.364 158.419 40.364V39.364ZM148.851 36.92L149.343 36.0498C146.62 34.5077 144.458 32.3798 142.848 29.6516L141.987 30.16L141.125 30.6684C142.912 33.6948 145.327 36.0736 148.358 37.7902L148.851 36.92ZM141.987 30.16L142.848 29.6516C141.247 26.9404 140.439 23.8771 140.439 20.436H139.439H138.439C138.439 24.2055 139.329 27.6249 141.125 30.6684L141.987 30.16ZM139.439 20.436H140.439C140.439 16.9949 141.247 13.9316 142.848 11.2204L141.987 10.712L141.125 10.2036C139.329 13.2471 138.439 16.6665 138.439 20.436H139.439ZM141.987 10.712L142.848 11.2204C144.457 8.49396 146.616 6.38553 149.335 4.87865L148.851 4.004L148.366 3.12934C145.33 4.8118 142.913 7.17537 141.125 10.2036L141.987 10.712ZM148.851 4.004L149.339 4.87668C152.096 3.33415 155.116 2.56 158.419 2.56V1.56V0.559999C154.788 0.559999 151.429 1.41518 148.362 3.13131L148.851 4.004ZM158.419 1.56V2.56C161.721 2.56 164.722 3.33412 167.442 4.87417L167.935 4.004L168.427 3.13383C165.392 1.41521 162.049 0.559999 158.419 0.559999V1.56ZM167.935 4.004L167.45 4.87865C170.167 6.38451 172.307 8.49046 173.881 11.2126L174.747 10.712L175.612 10.2114C173.859 7.17887 171.457 4.81282 168.419 3.12934L167.935 4.004ZM174.747 10.712L173.885 11.2204C175.486 13.9316 176.295 16.9949 176.295 20.436H177.295H178.295C178.295 16.6665 177.404 13.2471 175.608 10.2036L174.747 10.712ZM177.295 20.436H176.295C176.295 23.8771 175.486 26.9404 173.885 29.6516L174.747 30.16L175.608 30.6684C177.404 27.6249 178.295 24.2055 178.295 20.436H177.295ZM174.747 30.16L173.881 29.6594C172.307 32.3804 170.15 34.5054 167.394 36.0473L167.883 36.92L168.371 37.7927C171.439 36.0759 173.858 33.6943 175.612 30.6606L174.747 30.16ZM167.883 36.92L167.39 36.0498C164.669 37.5908 161.685 38.364 158.419 38.364V39.364V40.364C162.016 40.364 165.342 39.5079 168.375 37.7902L167.883 36.92ZM158.419 28.6V29.6C160.937 29.6 163.007 28.7875 164.482 27.0668L163.723 26.416L162.963 25.7652C161.942 26.9565 160.477 27.6 158.419 27.6V28.6ZM163.723 26.416L164.489 27.0579C165.927 25.3413 166.595 23.0987 166.595 20.436H165.595H164.595C164.595 22.7653 164.015 24.5094 162.956 25.7741L163.723 26.416ZM165.595 20.436H166.595C166.595 17.744 165.929 15.4936 164.482 13.8052L163.723 14.456L162.963 15.1068C164.012 16.3304 164.595 18.0667 164.595 20.436H165.595ZM163.723 14.456L164.489 13.8141C163.017 12.0554 160.945 11.22 158.419 11.22V12.22V13.22C160.469 13.22 161.932 13.8753 162.956 15.0979L163.723 14.456ZM158.419 12.22V11.22C155.864 11.22 153.771 12.0518 152.296 13.8141L153.063 14.456L153.829 15.0979C154.85 13.8788 156.328 13.22 158.419 13.22V12.22ZM153.063 14.456L152.303 13.8052C150.856 15.4936 150.191 17.744 150.191 20.436H151.191H152.191C152.191 18.0667 152.773 16.3304 153.822 15.1068L153.063 14.456ZM151.191 20.436H150.191C150.191 23.0987 150.859 25.3413 152.296 27.0579L153.063 26.416L153.829 25.7741C152.771 24.5094 152.191 22.7653 152.191 20.436H151.191ZM153.063 26.416L152.303 27.0668C153.781 28.791 155.871 29.6 158.419 29.6V28.6V27.6C156.32 27.6 154.84 26.953 153.822 25.7652L153.063 26.416ZM200.907 2.184H201.907V1.184H200.907V2.184ZM197.423 35.984L198.125 36.6965L198.125 36.6964L197.423 35.984ZM177.091 35.672L177.774 34.9413L177.774 34.9413L177.091 35.672ZM173.139 24.908V23.908H172.139V24.908H173.139ZM184.527 24.908H185.527V23.908H184.527V24.908ZM185.255 28.08L184.466 28.6939L184.474 28.7049L184.483 28.7157L185.255 28.08ZM188.843 28.288L188.08 27.6421L188.08 27.6421L188.843 28.288ZM189.415 2.184V1.184H188.415V2.184H189.415ZM200.907 2.184H199.907V25.948H200.907H201.907V2.184H200.907ZM200.907 25.948H199.907C199.907 30.1796 198.794 33.23 196.721 35.2716L197.423 35.984L198.125 36.6964C200.698 34.162 201.907 30.5218 201.907 25.948H200.907ZM197.423 35.984L196.721 35.2715C194.671 37.2908 191.729 38.364 187.751 38.364V39.364V40.364C192.093 40.364 195.599 39.1839 198.125 36.6965L197.423 35.984ZM187.751 39.364V38.364C183.469 38.364 180.181 37.1904 177.774 34.9413L177.091 35.672L176.408 36.4027C179.27 39.0762 183.089 40.364 187.751 40.364V39.364ZM177.091 35.672L177.774 34.9413C175.399 32.7226 174.139 29.4353 174.139 24.908H173.139H172.139C172.139 29.8101 173.514 33.6988 176.408 36.4027L177.091 35.672ZM173.139 24.908V25.908H184.527V24.908V23.908H173.139V24.908ZM184.527 24.908H183.527C183.527 26.4508 183.767 27.7957 184.466 28.6939L185.255 28.08L186.044 27.4661C185.772 27.1163 185.527 26.3465 185.527 24.908H184.527ZM185.255 28.08L184.483 28.7157C185.177 29.5583 186.131 29.964 187.231 29.964V28.964V27.964C186.667 27.964 186.304 27.7804 186.027 27.4443L185.255 28.08ZM187.231 28.964V29.964C188.162 29.964 189.001 29.6492 189.606 28.9339L188.843 28.288L188.08 27.6421C187.922 27.8281 187.687 27.964 187.231 27.964V28.964ZM188.843 28.288L189.606 28.9339C190.227 28.2006 190.415 27.112 190.415 25.948H189.415H188.415C188.415 27.0027 188.222 27.4741 188.08 27.6421L188.843 28.288ZM189.415 25.948H190.415V2.184H189.415H188.415V25.948H189.415ZM189.415 2.184V3.184H200.907V2.184V1.184H189.415V2.184ZM211.195 11.388V10.388H210.195V11.388H211.195ZM211.195 15.912H210.195V16.912H211.195V15.912ZM222.635 15.912H223.635V14.912H222.635V15.912ZM222.635 24.596V25.596H223.635V24.596H222.635ZM211.195 24.596V23.596H210.195V24.596H211.195ZM211.195 29.796H210.195V30.796H211.195V29.796ZM224.195 29.796H225.195V28.796H224.195V29.796ZM224.195 39V40H225.195V39H224.195ZM199.651 39H198.651V40H199.651V39ZM199.651 2.184V1.184H198.651V2.184H199.651ZM224.195 2.184H225.195V1.184H224.195V2.184ZM224.195 11.388V12.388H225.195V11.388H224.195ZM211.195 11.388H210.195V15.912H211.195H212.195V11.388H211.195ZM211.195 15.912V16.912H222.635V15.912V14.912H211.195V15.912ZM222.635 15.912H221.635V24.596H222.635H223.635V15.912H222.635ZM222.635 24.596V23.596H211.195V24.596V25.596H222.635V24.596ZM211.195 24.596H210.195V29.796H211.195H212.195V24.596H211.195ZM211.195 29.796V30.796H224.195V29.796V28.796H211.195V29.796ZM224.195 29.796H223.195V39H224.195H225.195V29.796H224.195ZM224.195 39V38H199.651V39V40H224.195V39ZM199.651 39H200.651V2.184H199.651H198.651V39H199.651ZM199.651 2.184V3.184H224.195V2.184V1.184H199.651V2.184ZM224.195 2.184H223.195V11.388H224.195H225.195V2.184H224.195ZM224.195 11.388V10.388H211.195V11.388V12.388H224.195V11.388ZM223.449 10.816L222.564 10.3516L222.559 10.3601L223.449 10.816ZM229.793 4.212L230.288 5.08096L230.297 5.07617L229.793 4.212ZM247.993 3.64L247.556 4.53937L247.564 4.543L247.571 4.5465L247.993 3.64ZM254.129 8.684L253.316 9.26527L253.322 9.27369L254.129 8.684ZM257.301 16.328V17.328H258.496L258.286 16.1522L257.301 16.328ZM245.133 16.328L244.224 16.7438L244.491 17.328H245.133V16.328ZM242.741 13.52L242.174 14.3432L242.19 14.3543L242.206 14.3648L242.741 13.52ZM234.629 14.664L233.843 14.0462L233.839 14.052L233.834 14.058L234.629 14.664ZM234.629 26.416L233.834 27.022L233.839 27.028L233.843 27.0338L234.629 26.416ZM242.741 27.612L243.29 28.4485L243.296 28.444L242.741 27.612ZM245.133 24.752V23.752H244.491L244.224 24.3362L245.133 24.752ZM257.301 24.752L258.286 24.9278L258.496 23.752H257.301V24.752ZM254.129 32.396L253.322 31.8063L253.316 31.8148L254.129 32.396ZM247.993 37.492L248.42 38.3963L248.426 38.3937L247.993 37.492ZM229.793 36.92L229.29 37.7842L229.299 37.7889L229.793 36.92ZM223.449 30.264L222.559 30.7199L222.564 30.7284L223.449 30.264ZM221.265 20.54H222.265C222.265 17.0362 222.965 13.9549 224.34 11.2719L223.449 10.816L222.559 10.3601C221.022 13.3625 220.265 16.7638 220.265 20.54H221.265ZM223.449 10.816L224.335 11.2804C225.739 8.60387 227.719 6.5444 230.288 5.08092L229.793 4.212L229.299 3.34308C226.39 4.9996 224.142 7.34279 222.564 10.3516L223.449 10.816ZM229.793 4.212L230.297 5.07617C232.858 3.58462 235.903 2.82 239.465 2.82V1.82V0.819998C235.61 0.819998 232.206 1.65005 229.29 3.34782L229.793 4.212ZM239.465 1.82V2.82C242.526 2.82 245.215 3.40148 247.556 4.53937L247.993 3.64L248.431 2.74063C245.779 1.45185 242.784 0.819998 239.465 0.819998V1.82ZM247.993 3.64L247.571 4.5465C249.952 5.65538 251.86 7.22737 253.316 9.26524L254.129 8.684L254.943 8.10276C253.279 5.77263 251.096 3.98196 248.416 2.7335L247.993 3.64ZM254.129 8.684L253.322 9.27369C254.819 11.3238 255.821 13.7271 256.317 16.5038L257.301 16.328L258.286 16.1522C257.742 13.1049 256.63 10.4122 254.937 8.0943L254.129 8.684ZM257.301 16.328V15.328H245.133V16.328V17.328H257.301V16.328ZM245.133 16.328L246.043 15.9122C245.415 14.538 244.494 13.4463 243.277 12.6752L242.741 13.52L242.206 14.3648C243.069 14.9111 243.743 15.6913 244.224 16.7438L245.133 16.328ZM242.741 13.52L243.309 12.6968C242.124 11.8792 240.761 11.48 239.257 11.48V12.48V13.48C240.389 13.48 241.349 13.7742 242.174 14.3432L242.741 13.52ZM239.257 12.48V11.48C237.027 11.48 235.187 12.3357 233.843 14.0462L234.629 14.664L235.416 15.2818C236.36 14.0803 237.606 13.48 239.257 13.48V12.48ZM234.629 14.664L233.834 14.058C232.553 15.7395 231.965 17.9346 231.965 20.54H232.965H233.965C233.965 18.2228 234.487 16.5005 235.425 15.27L234.629 14.664ZM232.965 20.54H231.965C231.965 23.1454 232.553 25.3405 233.834 27.022L234.629 26.416L235.425 25.81C234.487 24.5795 233.965 22.8572 233.965 20.54H232.965ZM234.629 26.416L233.843 27.0338C235.187 28.7443 237.027 29.6 239.257 29.6V28.6V27.6C237.606 27.6 236.36 26.9997 235.416 25.7982L234.629 26.416ZM239.257 28.6V29.6C240.75 29.6 242.106 29.224 243.29 28.4485L242.741 27.612L242.193 26.7755C241.367 27.3173 240.4 27.6 239.257 27.6V28.6ZM242.741 27.612L243.296 28.444C244.501 27.6406 245.416 26.5383 246.043 25.1678L245.133 24.752L244.224 24.3362C243.741 25.3924 243.062 26.1967 242.187 26.7799L242.741 27.612ZM245.133 24.752V25.752H257.301V24.752V23.752H245.133V24.752ZM257.301 24.752L256.317 24.5762C255.821 27.3529 254.819 29.7562 253.322 31.8063L254.129 32.396L254.937 32.9857C256.63 30.6678 257.742 27.9751 258.286 24.9278L257.301 24.752ZM254.129 32.396L253.316 31.8148C251.858 33.8551 249.947 35.4464 247.561 36.5903L247.993 37.492L248.426 38.3937C251.101 37.1109 253.281 35.3049 254.943 32.9772L254.129 32.396ZM247.993 37.492L247.566 36.5878C245.223 37.6943 242.53 38.26 239.465 38.26V39.26V40.26C242.78 40.26 245.772 39.6471 248.42 38.3962L247.993 37.492ZM239.465 39.26V38.26C235.899 38.26 232.852 37.5111 230.288 36.0511L229.793 36.92L229.299 37.7889C232.213 39.4489 235.613 40.26 239.465 40.26V39.26ZM229.793 36.92L230.297 36.0558C227.723 34.5571 225.74 32.478 224.335 29.7996L223.449 30.264L222.564 30.7284C224.141 33.7354 226.387 36.0936 229.29 37.7842L229.793 36.92ZM223.449 30.264L224.34 29.8081C222.965 27.1251 222.265 24.0438 222.265 20.54H221.265H220.265C220.265 24.3162 221.022 27.7175 222.559 30.7199L223.449 30.264ZM284.13 2.184H285.13V1.184H284.13V2.184ZM284.13 11.336V12.336H285.13V11.336H284.13ZM274.354 11.336V10.336H273.354V11.336H274.354ZM274.354 39V40H275.354V39H274.354ZM262.81 39H261.81V40H262.81V39ZM262.81 11.336H263.81V10.336H262.81V11.336ZM253.138 11.336H252.138V12.336H253.138V11.336ZM253.138 2.184V1.184H252.138V2.184H253.138ZM284.13 2.184H283.13V11.336H284.13H285.13V2.184H284.13ZM284.13 11.336V10.336H274.354V11.336V12.336H284.13V11.336ZM274.354 11.336H273.354V39H274.354H275.354V11.336H274.354ZM274.354 39V38H262.81V39V40H274.354V39ZM262.81 39H263.81V11.336H262.81H261.81V39H262.81ZM262.81 11.336V10.336H253.138V11.336V12.336H262.81V11.336ZM253.138 11.336H254.138V2.184H253.138H252.138V11.336H253.138ZM253.138 2.184V3.184H284.13V2.184V1.184H253.138V2.184ZM284.505 36.296L283.914 37.1031L283.925 37.1111L284.505 36.296ZM279.877 27.196V26.196H278.814L278.879 27.2568L279.877 27.196ZM292.149 27.196L293.145 27.1143L293.07 26.196H292.149V27.196ZM296.517 29.952L297.071 30.784L297.079 30.7792L297.086 30.7742L296.517 29.952ZM295.789 26.468L295.279 27.3283L295.291 27.3354L295.303 27.3422L295.789 26.468ZM291.421 24.596L291.088 25.539L291.09 25.5396L291.421 24.596ZM285.545 22.152L285.082 23.0383L285.09 23.0424L285.545 22.152ZM281.593 18.668L282.402 18.0798L282.402 18.0798L281.593 18.668ZM279.981 12.792L280.981 12.8065L280.981 12.7992V12.792H279.981ZM281.801 6.708L280.995 6.11592L280.993 6.11883L281.801 6.708ZM286.845 2.86L286.471 1.93254L286.466 1.93469L286.845 2.86ZM304.785 4.68L304.165 5.4649L304.17 5.4688L304.785 4.68ZM308.997 13.468V14.468H310.034L309.996 13.4313L308.997 13.468ZM296.569 13.468L295.569 13.5013L295.602 14.468H296.569V13.468ZM292.825 11.076L293.532 11.7831L293.55 11.7645L293.568 11.745L292.825 11.076ZM293.709 14.508L293.185 15.3597L293.204 15.3713L293.223 15.3822L293.709 14.508ZM298.129 16.432L297.774 17.367L297.779 17.3689L298.129 16.432ZM303.849 18.928L303.377 19.8098L303.386 19.8142L303.849 18.928ZM307.801 22.256L307.012 22.8713L307.012 22.8713L307.801 22.256ZM307.801 33.696L308.648 34.2275L308.652 34.2201L307.801 33.696ZM302.965 37.856L302.535 36.9529L302.965 37.856ZM295.425 39.364V38.364C291.178 38.364 287.754 37.3791 285.084 35.4809L284.505 36.296L283.925 37.1111C287.01 39.3036 290.866 40.364 295.425 40.364V39.364ZM284.505 36.296L285.095 35.489C282.527 33.6095 281.102 30.8696 280.875 27.1352L279.877 27.196L278.879 27.2568C279.137 31.4958 280.798 34.8225 283.914 37.103L284.505 36.296ZM279.877 27.196V28.196H292.149V27.196V26.196H279.877V27.196ZM292.149 27.196L291.152 27.2777C291.248 28.4476 291.565 29.4842 292.232 30.2378C292.928 31.0242 293.884 31.368 294.957 31.368V30.368V29.368C294.33 29.368 293.969 29.1831 293.73 28.9122C293.461 28.6085 293.223 28.059 293.145 27.1143L292.149 27.196ZM294.957 30.368V31.368C295.729 31.368 296.455 31.1953 297.071 30.784L296.517 29.952L295.962 29.1199C295.747 29.2634 295.432 29.368 294.957 29.368V30.368ZM296.517 29.952L297.086 30.7742C297.847 30.2473 298.193 29.4475 298.193 28.548H297.193H296.193C296.193 28.8965 296.088 29.0327 295.948 29.1298L296.517 29.952ZM297.193 28.548H298.193C298.193 27.2275 297.44 26.2413 296.274 25.5938L295.789 26.468L295.303 27.3422C296.01 27.7347 296.193 28.1352 296.193 28.548H297.193ZM295.789 26.468L296.299 25.6077C295.276 25.0014 293.744 24.3515 291.752 23.6524L291.421 24.596L291.09 25.5396C293.049 26.2272 294.43 26.8252 295.279 27.3283L295.789 26.468ZM291.421 24.596L291.754 23.653C289.422 22.8301 287.508 22.0322 286 21.2616L285.545 22.152L285.09 23.0424C286.702 23.8665 288.705 24.6979 291.088 25.539L291.421 24.596ZM285.545 22.152L286.008 21.2658C284.632 20.5465 283.429 19.4926 282.402 18.0798L281.593 18.668L280.784 19.2562C281.975 20.894 283.407 22.1629 285.082 23.0382L285.545 22.152ZM281.593 18.668L282.402 18.0798C281.45 16.7715 280.948 15.0408 280.981 12.8065L279.981 12.792L278.981 12.7775C278.944 15.3272 279.517 17.5138 280.784 19.2562L281.593 18.668ZM279.981 12.792H280.981C280.981 10.5764 281.54 8.76351 282.609 7.29717L281.801 6.708L280.993 6.11883C279.635 7.98049 278.981 10.2236 278.981 12.792H279.981ZM281.801 6.708L282.607 7.30007C283.737 5.76203 285.265 4.58832 287.224 3.7853L286.845 2.86L286.466 1.93469C284.196 2.86501 282.361 4.25664 280.995 6.11592L281.801 6.708ZM286.845 2.86L287.219 3.78744C289.233 2.97541 291.512 2.56 294.073 2.56V1.56V0.559999C291.295 0.559999 288.756 1.01126 286.471 1.93256L286.845 2.86ZM294.073 1.56V2.56C298.431 2.56 301.759 3.56532 304.165 5.46488L304.785 4.68L305.404 3.89512C302.541 1.63468 298.728 0.559999 294.073 0.559999V1.56ZM304.785 4.68L304.17 5.4688C306.577 7.34452 307.868 9.98222 307.997 13.5047L308.997 13.468L309.996 13.4313C309.848 9.39645 308.331 6.17548 305.399 3.8912L304.785 4.68ZM308.997 13.468V12.468H296.569V13.468V14.468H308.997V13.468ZM296.569 13.468L297.568 13.4347C297.53 12.276 297.237 11.2117 296.469 10.4992L295.789 11.232L295.108 11.9648C295.312 12.1536 295.539 12.58 295.569 13.5013L296.569 13.468ZM295.789 11.232L296.469 10.4992C295.79 9.86812 294.954 9.556 294.021 9.556V10.556V11.556C294.475 11.556 294.817 11.6945 295.108 11.9648L295.789 11.232ZM294.021 10.556V9.556C293.265 9.556 292.592 9.84013 292.081 10.407L292.825 11.076L293.568 11.745C293.682 11.6185 293.806 11.556 294.021 11.556V10.556ZM292.825 11.076L292.118 10.3689C291.562 10.9247 291.357 11.6654 291.357 12.428H292.357H293.357C293.357 12.012 293.464 11.8513 293.532 11.7831L292.825 11.076ZM292.357 12.428H291.357C291.357 13.7031 292.08 14.6796 293.185 15.3597L293.709 14.508L294.233 13.6563C293.535 13.227 293.357 12.8169 293.357 12.428H292.357ZM293.709 14.508L293.223 15.3822C294.225 15.9387 295.754 16.6007 297.774 17.367L298.129 16.432L298.483 15.497C296.482 14.738 295.065 14.1173 294.194 13.6338L293.709 14.508ZM298.129 16.432L297.779 17.3689C300.077 18.2264 301.939 19.0408 303.377 19.8098L303.849 18.928L304.32 18.0462C302.777 17.2206 300.826 16.3709 298.478 15.4951L298.129 16.432ZM303.849 18.928L303.386 19.8142C304.778 20.5423 305.987 21.5569 307.012 22.8713L307.801 22.256L308.589 21.6407C307.396 20.1124 305.97 18.9083 304.312 18.0418L303.849 18.928ZM307.801 22.256L307.012 22.8713C307.96 24.0848 308.465 25.6413 308.465 27.612H309.465H310.465C310.465 25.2841 309.861 23.2698 308.589 21.6407L307.801 22.256ZM309.465 27.612H308.465C308.465 29.6927 307.955 31.5371 306.949 33.1719L307.801 33.696L308.652 34.2201C309.865 32.2495 310.465 30.0379 310.465 27.612H309.465ZM307.801 33.696L306.954 33.1645C305.957 34.7523 304.5 36.0189 302.535 36.9529L302.965 37.856L303.394 38.7591C305.659 37.6824 307.425 36.1757 308.648 34.2275L307.801 33.696ZM302.965 37.856L302.535 36.9529C300.583 37.8808 298.224 38.364 295.425 38.364V39.364V40.364C298.45 40.364 301.117 39.8418 303.394 38.7591L302.965 37.856Z" fill="#CC0000" mask="url(#path-1-outside-1_613_157)"/>
</g>
<defs>
<clipPath id="clip0_613_157">
<rect width="311" height="41" fill="white"/>
</clipPath>
</defs>
</svg>
